<?xml version="1.0" encoding="UTF-8" standalone="no"?>
<!-- Created with Inkscape (http://www.inkscape.org/) -->

<svg
   xmlns:osb="http://www.openswatchbook.org/uri/2009/osb"
   xmlns:dc="http://purl.org/dc/elements/1.1/"
   xmlns:cc="http://creativecommons.org/ns#"
   xmlns:rdf="http://www.w3.org/1999/02/22-rdf-syntax-ns#"
   xmlns:svg="http://www.w3.org/2000/svg"
   xmlns="http://www.w3.org/2000/svg"
   xmlns:sodipodi="http://sodipodi.sourceforge.net/DTD/sodipodi-0.dtd"
   xmlns:inkscape="http://www.inkscape.org/namespaces/inkscape"
   width="3145.5142"
   height="1506.3313"
   id="svg4233"
   version="1.1"
   inkscape:version="0.91 r13725"
   viewBox="0 0 3145.5142 1506.3313"
   sodipodi:docname="logo-2.svg"
   inkscape:export-filename="C:\Users\mperla.CORP\Documents\GitHub\JACK\graphics\logo-2.png"
   inkscape:export-xdpi="72"
   inkscape:export-ydpi="72">
  <defs
     id="defs4235">
    <linearGradient
       id="linearGradient5786"
       osb:paint="solid">
      <stop
         style="stop-color:#000000;stop-opacity:1;"
         offset="0"
         id="stop5788" />
    </linearGradient>
    <linearGradient
       id="linearGradient5780"
       osb:paint="solid">
      <stop
         style="stop-color:#000000;stop-opacity:1;"
         offset="0"
         id="stop5782" />
    </linearGradient>
    <linearGradient
       id="linearGradient5663"
       osb:paint="solid">
      <stop
         style="stop-color:#000000;stop-opacity:1;"
         offset="0"
         id="stop5665" />
    </linearGradient>
    <filter
       inkscape:label="Jigsaw Piece"
       inkscape:menu="Bevels"
       inkscape:menu-tooltip="Low, sharp bevel"
       style="color-interpolation-filters:sRGB"
       id="filter5733">
      <feSpecularLighting
         in="SourceAlpha"
         surfaceScale="1"
         specularConstant="2"
         specularExponent="18.5"
         id="feSpecularLighting5735">
        <feDistantLight
           elevation="30"
           azimuth="225"
           id="feDistantLight5737" />
      </feSpecularLighting>
      <feComposite
         result="result0"
         operator="atop"
         in2="SourceGraphic"
         id="feComposite5739" />
      <feMorphology
         radius="2"
         result="result1"
         in="SourceAlpha"
         operator="dilate"
         id="feMorphology5741" />
      <feComposite
         in="result0"
         in2="result1"
         id="feComposite5743" />
    </filter>
    <filter
       inkscape:label="Jigsaw Piece"
       inkscape:menu="Bevels"
       inkscape:menu-tooltip="Low, sharp bevel"
       style="color-interpolation-filters:sRGB"
       id="filter5745">
      <feSpecularLighting
         in="SourceAlpha"
         surfaceScale="1"
         specularConstant="2"
         specularExponent="18.5"
         id="feSpecularLighting5747">
        <feDistantLight
           elevation="30"
           azimuth="225"
           id="feDistantLight5749" />
      </feSpecularLighting>
      <feComposite
         result="result0"
         operator="atop"
         in2="SourceGraphic"
         id="feComposite5751" />
      <feMorphology
         radius="2"
         result="result1"
         in="SourceAlpha"
         operator="dilate"
         id="feMorphology5753" />
      <feComposite
         in="result0"
         in2="result1"
         id="feComposite5755" />
    </filter>
    <filter
       inkscape:label="Jigsaw Piece"
       inkscape:menu="Bevels"
       inkscape:menu-tooltip="Low, sharp bevel"
       style="color-interpolation-filters:sRGB;"
       id="filter5794">
      <feSpecularLighting
         in="SourceAlpha"
         surfaceScale="1"
         specularConstant="2"
         specularExponent="18.5"
         id="feSpecularLighting5796">
        <feDistantLight
           elevation="30"
           azimuth="225"
           id="feDistantLight5798" />
      </feSpecularLighting>
      <feComposite
         result="result0"
         operator="atop"
         in2="SourceGraphic"
         id="feComposite5800" />
      <feMorphology
         radius="2"
         result="result1"
         in="SourceAlpha"
         operator="dilate"
         id="feMorphology5802" />
      <feComposite
         in="result0"
         in2="result1"
         id="feComposite5804" />
    </filter>
  </defs>
  <sodipodi:namedview
     id="base"
     pagecolor="#ffffff"
     bordercolor="#666666"
     borderopacity="1.0"
     inkscape:pageopacity="0.0"
     inkscape:pageshadow="2"
     inkscape:zoom="0.59999999"
     inkscape:cx="506.47821"
     inkscape:cy="1168.6576"
     inkscape:current-layer="layer1"
     inkscape:document-units="px"
     showgrid="false"
     units="px"
     inkscape:showpageshadow="true"
     fit-margin-top="0"
     fit-margin-left="0"
     fit-margin-right="0"
     fit-margin-bottom="0"
     inkscape:window-width="1366"
     inkscape:window-height="706"
     inkscape:window-x="-8"
     inkscape:window-y="-8"
     inkscape:window-maximized="1"
     showguides="false" />
  <metadata
     id="metadata4238">
    <rdf:RDF>
      <cc:Work
         rdf:about="">
        <dc:format>image/svg+xml</dc:format>
        <dc:type
           rdf:resource="http://purl.org/dc/dcmitype/StillImage" />
        <dc:title />
      </cc:Work>
    </rdf:RDF>
  </metadata>
  <g
     id="layer1"
     inkscape:label="Layer 1"
     inkscape:groupmode="layer"
     transform="translate(-7.451334,1311.3741)">
    <g
       transform="matrix(2.5555871,0,0,2.5555871,931.59571,-1611.2091)"
       style="font-style:normal;font-weight:normal;font-size:40px;line-height:125%;font-family:sans-serif;letter-spacing:0px;word-spacing:0px;fill:#000000;fill-opacity:1;stroke:#000000;stroke-width:3.13039614;stroke-linecap:butt;stroke-linejoin:miter;stroke-opacity:1;stroke-miterlimit:4;stroke-dasharray:none"
       id="flowRoot4695"
       inkscape:export-xdpi="72"
       inkscape:export-ydpi="72">
      <path
         inkscape:connector-curvature="0"
         d="m 220.64336,135.41531 -56.7,0 8.64,19.8 28.62,0 0,60.84 c 0,0 0.18,37.26 -32.76,37.26 -24.66,0 -36,-13.68 -36,-13.68 l -9.9,17.28 c 11.34,9.9 29.88,15.84 45.72,15.84 22.86,0 52.38,-14.76 52.38,-56.16 l 0,-81.18 z"
         style="font-style:normal;font-variant:normal;font-weight:normal;font-stretch:normal;font-size:180px;font-family:Arkhip;-inkscape-font-specification:Arkhip;fill:#000000;fill-opacity:1;stroke:#000000;stroke-opacity:1;stroke-width:3.13039614;stroke-miterlimit:4;stroke-dasharray:none"
         id="path5265" />
      <path
         inkscape:connector-curvature="0"
         d="m 302.32398,149.63531 -58.14,120.06 21.24,0 3.42,-6.3 c 3.06,-5.58 16.2,-13.32 40.68,-13.32 l 40.86,0 8.82,19.62 21.96,0 -64.62,-136.62 -21.6,0 7.38,16.56 z m 14.4,80.64 c -18.36,0 -29.34,3.42 -34.2,7.56 l 29.7,-64.26 29.34,56.7 -24.84,0 z"
         style="font-style:normal;font-variant:normal;font-weight:normal;font-stretch:normal;font-size:180px;font-family:Arkhip;-inkscape-font-specification:Arkhip;fill:#000000;fill-opacity:1;stroke:#000000;stroke-opacity:1;stroke-width:3.13039614;stroke-miterlimit:4;stroke-dasharray:none"
         id="path5267" />
      <path
         inkscape:connector-curvature="0"
         d="m 514.27117,152.69531 c -13.14,-13.14 -31.5,-21.24 -51.66,-21.24 -38.52,0 -72.36,29.52 -72.36,69.12 0,40.5 31.5,72.18 72.18,72.18 21.6,0 41.4,-9.18 54.9,-24.3 l -12.06,-16.38 c -9.72,12.96 -25.2,21.06 -42.66,21.06 -28.08,0 -53.1,-21.24 -53.1,-50.22 0,-30.24 23.04,-51.66 52.92,-51.66 15.3,0 29.52,6.12 39.24,16.2 l 12.6,-14.76 z"
         style="font-style:normal;font-variant:normal;font-weight:normal;font-stretch:normal;font-size:180px;font-family:Arkhip;-inkscape-font-specification:Arkhip;fill:#000000;fill-opacity:1;stroke:#000000;stroke-opacity:1;stroke-width:3.13039614;stroke-miterlimit:4;stroke-dasharray:none"
         id="path5269" />
      <path
         inkscape:connector-curvature="0"
         d="m 602.0043,215.87531 20.34,32.58 c 14.76,23.4 26.1,21.24 41.76,21.24 l 0,-19.98 -4.32,0.18 c -0.36,0 -0.9,0 -1.26,0 -5.76,0 -12.6,-2.52 -20.88,-15.12 l -24.12,-36.18 44.1,-63.18 -23.58,0 -68.22,100.26 0,-100.26 -19.62,0 0,134.28 19.62,0 36.18,-53.82 z"
         style="font-style:normal;font-variant:normal;font-weight:normal;font-stretch:normal;font-size:180px;font-family:Arkhip;-inkscape-font-specification:Arkhip;fill:#000000;fill-opacity:1;stroke:#000000;stroke-opacity:1;stroke-width:3.13039614;stroke-miterlimit:4;stroke-dasharray:none"
         id="path5271" />
    </g>
    <g
       transform="matrix(2.5555871,0,0,2.5555871,324.91064,-2235.0473)"
       style="font-style:normal;font-weight:normal;font-size:40px;line-height:125%;font-family:sans-serif;letter-spacing:0px;word-spacing:0px;fill:#000000;fill-opacity:1;stroke:#000000;stroke-width:3.13039614;stroke-linecap:butt;stroke-linejoin:miter;stroke-opacity:1;stroke-miterlimit:4;stroke-dasharray:none;fill-rule:evenodd"
       id="flowRoot4711"
       inkscape:export-xdpi="72"
       inkscape:export-ydpi="72">
      <path
         inkscape:connector-curvature="0"
         d="m 273.05508,677.87305 c 1.35,0.45 2.4,1.2 3.15,1.05 1.8,-0.6 3.9,-1.8 6,-2.25 1.2,-0.6 2.85,-0.6 4.2,-0.6 1.95,0.15 3.15,1.35 4.05,3 0.75,1.65 0.3,4.2 -1.5,4.95 -7.2,3.75 -12.6,10.05 -18.75,15.15 -6.75,5.4 -11.4,11.7 -13.8,19.95 -1.5,5.4 -3.75,11.1 -6.75,16.5 -6.45,12.3 -12.3,25.2 -20.1,36.6 -3.45,5.1 -7.35,10.5 -11.25,15.45 -4.8,6.15 -11.1,8.85 -18.9,8.4 -2.4,0 -4.35,-1.05 -5.55,-3.3 -1.2,-1.35 -2.1,-3.15 -2.4,-4.95 -0.9,-7.35 -0.45,-15 2.55,-22.5 4.5,-10.65 10.8,-21 17.55,-30.6 0.6,-1.35 1.5,-3.3 2.85,-4.35 5.85,-4.2 9.45,-9.75 14.25,-14.55 1.95,-1.95 3.9,-4.2 5.85,-5.55 5.25,-4.35 10.65,-8.85 16.05,-12.9 2.4,-2.1 4.5,-4.35 5.7,-7.35 4.35,-12.9 9.9,-25.35 15,-37.8 0.3,-0.9 0.45,-1.95 0.75,-2.7 0.9,-3 -0.75,-4.95 -4.35,-4.95 -2.1,0 -4.65,0.45 -6.6,0 -1.5,-0.3 -3.3,-1.8 -4.5,-3.15 -0.9,-1.05 -0.15,-4.35 0.9,-4.8 2.1,-0.9 4.35,-1.65 6.3,-2.25 11.7,-3.9 21.15,-10.5 28.95,-19.65 0.75,-0.6 1.65,-2.1 2.7,-2.7 0.9,-0.6 1.8,-1.05 2.55,-1.35 1.65,-0.75 3.75,-0.6 5.1,0.75 1.05,1.2 1.95,3.3 1.05,4.65 -2.7,6 -4.95,12.15 -8.4,17.25 -9.6,13.65 -16.2,29.1 -22.65,44.55 z m -62.55,101.55 c 0.15,0 1.05,0 1.2,-0.3 3.6,-5.25 8.1,-10.65 11.4,-16.05 4.65,-7.95 9,-15.9 13.05,-23.85 0.45,-0.9 0.45,-2.4 0.45,-3.6 0,-0.45 -0.15,-0.9 -0.45,-1.35 0,-0.15 -0.9,-0.15 -1.2,0 -1.8,1.95 -3.45,4.05 -5.25,6 -8.85,11.25 -16.2,23.85 -21,37.35 0,0.6 0.45,1.05 0.45,1.5 0.15,0 0.6,0.3 1.35,0.3 z m 113.4,-201 c -2.85,-0.3 -6.9,-1.95 -10.65,-4.35 -2.7,-2.55 -3.6,-6.3 -2.25,-9.9 1.2,-2.7 2.55,-5.55 4.95,-7.65 2.4,-2.55 5.85,-4.65 9.6,-3.75 5.25,1.2 10.05,3.75 12.45,9.6 1.35,4.05 0.75,7.65 -2.55,10.65 -0.9,1.2 -2.25,2.1 -3.75,3 -1.5,1.95 -4.2,2.1 -7.8,2.4 z"
         style="font-style:normal;font-variant:normal;font-weight:normal;font-stretch:normal;font-size:150px;font-family:'goodvibes regular';-inkscape-font-specification:'goodvibes regular, ';text-align:center;text-anchor:middle;fill:#000000;fill-opacity:1;stroke:#000000;stroke-opacity:1;stroke-width:3.13039614;stroke-miterlimit:4;stroke-dasharray:none;fill-rule:evenodd"
         id="path5224" />
      <path
         inkscape:connector-curvature="0"
         d="m 313.24336,673.22305 c 8.4,-0.3 15,-3.9 20.55,-9.15 4.35,-4.2 4.8,-3 6.9,0.75 1.8,2.7 4.05,4.65 6.75,6.3 1.35,0.9 3,1.35 4.5,0.9 6,-1.5 12.15,-3 17.25,-7.2 0.9,-0.75 1.95,-1.8 3.15,-1.95 3.15,-0.45 4.95,-2.55 6.75,-4.65 3.45,-4.2 6.9,-8.25 10.2,-12.45 0.9,-1.2 1.5,-2.7 2.1,-4.05 0.45,-1.05 0,-1.95 -0.9,-2.4 -1.05,-1.2 -3.15,-1.65 -4.2,-0.75 -3.15,3 -6.75,5.4 -9.75,8.7 -3.6,4.2 -7.65,7.65 -11.7,10.95 -2.85,2.25 -6,3.6 -9.15,4.65 -2.7,0.9 -5.25,-0.15 -6.3,-2.7 -1.35,-3.15 -2.25,-6.15 -0.9,-9.9 0.75,-2.4 1.5,-4.8 2.85,-6.9 1.95,-3.15 4.05,-6.3 5.85,-9.6 1.05,-1.65 0.75,-3.9 -0.75,-5.25 -1.35,-1.05 -2.85,-1.5 -4.5,-1.05 -1.95,0.9 -3.9,1.65 -4.8,3.9 -1.95,4.05 -4.35,7.8 -7.2,11.1 -5.4,6.3 -11.1,12.15 -17.4,17.4 -1.05,0.9 -2.7,1.2 -4.2,1.8 -0.9,0.3 -2.85,-0.75 -3,-1.65 -0.15,-0.45 -0.45,-1.05 -0.6,-1.8 -0.45,-3.15 0.15,-6.15 1.8,-9.15 4.2,-7.8 8.25,-16.05 14.1,-23.1 2.1,-2.4 2.25,-5.1 0.75,-7.8 -0.6,-1.05 -1.2,-2.25 -1.95,-3.3 -0.75,-1.05 -3,-1.5 -4.35,-0.75 -0.9,0.6 -1.95,1.5 -2.85,2.4 -3.3,2.85 -6.3,6 -9.6,9 -3.9,3.6 -8.1,5.85 -13.5,5.4 -0.6,-0.15 -1.2,0.15 -1.8,0.3 -0.9,0.15 -2.1,2.1 -1.8,3 0.45,2.7 2.4,4.65 5.1,4.65 1.2,0 2.25,-0.3 3.6,-0.45 1.5,-0.15 2.55,1.05 2.1,2.25 -1.05,3 -1.95,6 -3.15,8.85 -2.4,5.4 -1.35,10.5 1.05,15.45 1.8,4.35 4.95,7.2 9,8.25 z"
         style="font-style:normal;font-variant:normal;font-weight:normal;font-stretch:normal;font-size:150px;font-family:'goodvibes regular';-inkscape-font-specification:'goodvibes regular, ';text-align:center;text-anchor:middle;fill:#000000;fill-opacity:1;stroke:#000000;stroke-opacity:1;stroke-width:3.13039614;stroke-miterlimit:4;stroke-dasharray:none;fill-rule:evenodd"
         id="path5226" />
      <path
         inkscape:connector-curvature="0"
         d="m 406.19648,677.72305 c 7.8,0.75 17.55,-5.1 21,-13.35 1.05,-2.85 1.65,-5.85 2.25,-8.7 0.45,-2.7 0,-5.25 -1.2,-7.8 -2.25,-5.25 -5.4,-10.05 -9.15,-14.25 -3.15,-3.6 -5.55,-7.35 -7.05,-11.85 -0.3,-0.9 -0.9,-1.65 -1.5,-2.55 -1.35,-1.65 -5.25,-1.65 -6,0.3 -3.3,7.95 -9.3,13.8 -16.35,18.6 -3.3,2.25 -6.3,4.65 -9.3,7.2 -0.3,0.15 -0.15,1.35 0.15,1.8 0.6,0.75 1.5,1.65 2.25,1.65 4.2,-0.45 8.4,-0.75 11.85,-3.75 3.75,-3 7.5,-5.55 11.25,-8.4 1.35,-0.9 2.85,-0.75 3.3,0.45 1.95,4.2 4.2,8.25 6.75,12.15 2.7,4.05 2.85,11.85 -3.45,15.75 -0.9,0.6 -2.7,0.75 -3.75,0 -0.6,-0.75 -1.5,-1.65 -1.5,-2.55 0,-2.55 0.3,-5.25 0.3,-7.8 0.15,-1.5 -1.35,-3.15 -3,-3.6 -1.65,-0.45 -3.3,-0.75 -4.8,0 -2.7,1.35 -5.1,3.45 -6.15,6.3 -0.45,1.65 -0.9,3.3 -1.35,4.8 -1.35,4.5 0.15,7.95 3.45,10.8 3.6,3.3 7.65,5.1 12,4.8 z"
         style="font-style:normal;font-variant:normal;font-weight:normal;font-stretch:normal;font-size:150px;font-family:'goodvibes regular';-inkscape-font-specification:'goodvibes regular, ';text-align:center;text-anchor:middle;fill:#000000;fill-opacity:1;stroke:#000000;stroke-opacity:1;stroke-width:3.13039614;stroke-miterlimit:4;stroke-dasharray:none;fill-rule:evenodd"
         id="path5228" />
      <path
         inkscape:connector-curvature="0"
         d="m 453.35039,623.87305 c 3.45,-1.2 6.45,-1.95 9.45,-3.15 1.65,-0.6 3.3,-1.35 5.25,-1.65 2.1,-0.45 3.9,-1.2 6,-1.8 1.5,-0.45 1.8,-1.8 2.25,-3 0.15,-1.05 -0.6,-2.4 -1.5,-2.55 -1.05,-0.15 -1.95,-0.3 -3.15,-0.15 -1.95,0.3 -4.05,1.05 -6.15,1.35 -1.8,0.45 -3.9,1.05 -5.25,-0.3 -1.65,-1.65 0.15,-3.45 0.9,-4.95 2.25,-5.1 4.65,-10.05 9.15,-13.8 0.15,0 0.3,-0.3 0.6,-0.45 0.9,-1.35 0.6,-4.2 -0.9,-4.95 -1.95,-0.9 -3.9,-1.65 -6,-2.25 -1.2,-0.3 -2.55,0.15 -3.6,1.2 -1.65,1.95 -3.6,3.75 -4.95,6 -2.1,3.6 -4.35,7.2 -5.85,11.25 -1.5,3.45 -3.6,6.45 -6,9.3 -0.9,1.05 -2.1,1.5 -3.6,1.5 -0.9,0 -2.1,0 -3,-0.3 -4.65,-1.65 -8.1,0 -11.55,2.85 -0.75,0.45 -1.35,0.9 -1.95,1.5 -0.3,0.3 -0.45,0.9 -0.45,1.5 0,0.9 -0.15,2.1 0.15,3 0.6,2.1 2.85,3.6 4.95,3.3 1.65,-0.3 3.45,-0.75 5.4,-1.2 1.2,0 2.4,1.5 1.95,2.7 -1.05,3.3 -2.4,6.6 -3.3,9.75 -1.8,5.7 -3,11.1 -3,17.1 0,4.5 1.5,8.25 3.75,11.7 2.1,3.15 4.95,4.8 8.55,5.25 4.35,0.75 8.4,-0.15 12,-2.55 6.15,-4.2 12,-8.7 17.7,-13.5 0.15,-0.15 0.3,-0.3 0.45,-0.6 0.75,-0.9 0.6,-3.45 -0.45,-4.35 -0.6,-0.45 -2.25,-0.45 -3,0.15 -1.65,1.2 -3.45,2.55 -5.1,3.9 -3.45,3.3 -7.35,5.85 -11.25,8.4 -2.25,1.5 -4.8,2.25 -7.5,2.55 -1.95,0.3 -3.45,-0.75 -4.35,-2.55 -1.65,-3.15 -1.65,-6.6 -0.3,-9.9 1.5,-4.2 3.15,-8.4 4.35,-12.75 1.8,-6.75 5.4,-12.45 9.3,-17.55 z"
         style="font-style:normal;font-variant:normal;font-weight:normal;font-stretch:normal;font-size:150px;font-family:'goodvibes regular';-inkscape-font-specification:'goodvibes regular, ';text-align:center;text-anchor:middle;fill:#000000;fill-opacity:1;stroke:#000000;stroke-opacity:1;stroke-width:3.13039614;stroke-miterlimit:4;stroke-dasharray:none;fill-rule:evenodd"
         id="path5230" />
      <path
         inkscape:connector-curvature="0"
         d="m 544.12383,660.92305 c 6.9,7.5 7.8,7.95 16.2,11.1 3.6,1.35 6.9,1.05 10.35,-0.15 6.9,-2.85 14.1,-6.3 19.5,-12.45 6.6,-7.2 13.05,-14.4 19.5,-21.75 1.35,-1.8 2.55,-3.9 3.6,-6 0.45,-1.2 0.15,-2.55 -1.05,-2.85 -1.05,-0.6 -2.25,-1.2 -3.3,-0.9 -1.2,0.3 -2.1,1.05 -2.85,1.8 -4.95,4.8 -9.9,10.05 -15,14.85 -4.05,3.6 -8.4,7.05 -12.75,10.35 -3.75,2.85 -8.25,4.2 -12.9,5.4 -3.15,0.6 -6.45,-1.95 -6.45,-5.1 0,-2.7 0.3,-5.55 0.6,-8.25 0.15,-1.8 0.6,-3.75 0.75,-5.7 0,-1.95 -1.65,-4.05 -3.15,-4.5 -2.1,-0.75 -3.9,-0.75 -5.7,0.6 -1.2,0.9 -2.1,2.25 -3.3,3.45 -4.65,4.5 -10.05,8.1 -16.05,11.4 -4.65,2.7 -9.45,0.75 -11.55,-4.2 -0.6,-1.8 -0.9,-4.05 -0.6,-5.85 0.6,-6.6 3.3,-12 9.75,-14.85 0.75,-0.3 1.35,-0.9 1.95,-1.05 5.7,-3.45 11.85,-4.2 18.15,-3.45 3.15,0.45 5.85,1.8 8.7,3 0.6,0.3 1.5,-0.3 2.25,-0.6 0.75,-0.45 0.75,-1.95 0.3,-3 -2.55,-4.05 -5.55,-6.75 -10.35,-7.5 -6.45,-1.35 -12.9,-0.9 -19.65,-0.6 -1.95,0.3 -3.9,0.9 -5.55,1.65 -6.45,3.45 -12.3,7.05 -16.65,12.6 -8.4,10.95 -9.6,21 -2.4,32.25 2.1,3.45 4.8,5.4 8.4,6.15 7.05,1.05 13.95,0.75 20.4,-2.55 3,-1.2 5.7,-3 8.85,-3.3 z"
         style="font-style:normal;font-variant:normal;font-weight:normal;font-stretch:normal;font-size:150px;font-family:'goodvibes regular';-inkscape-font-specification:'goodvibes regular, ';text-align:center;text-anchor:middle;fill:#000000;fill-opacity:1;stroke:#000000;stroke-opacity:1;stroke-width:3.13039614;stroke-miterlimit:4;stroke-dasharray:none;fill-rule:evenodd"
         id="path5232" />
      <path
         inkscape:connector-curvature="0"
         d="m 602.72695,634.22305 c -0.6,-0.6 -0.45,-1.2 0.15,-1.65 0.15,0 0.3,0.45 0.3,0.6 -0.15,0.45 -0.45,0.45 -0.6,0.75 -1.5,4.65 -4.8,8.25 -6.6,12.9 -1.8,4.95 -5.25,9 -8.1,13.5 -1.35,2.4 -2.7,4.65 -3.75,7.05 -0.45,0.6 -0.45,1.65 -0.75,2.55 -0.6,2.1 2.25,5.25 4.5,5.1 2.25,-0.45 4.35,-0.6 6.15,-2.25 3.15,-2.4 6.15,-4.8 9.45,-7.05 1.95,-1.35 3.3,-2.85 4.35,-4.8 3,-5.55 7.8,-9.6 12.15,-13.95 2.55,-2.7 5.85,-3.75 9.3,-4.95 1.8,-0.45 3.6,0 4.95,1.2 3.9,3 6.6,7.05 7.8,12 0.75,3.9 1.35,7.95 3,11.4 3,7.8 10.05,13.35 19.65,12.6 4.5,-0.3 8.55,-1.5 12.6,-3.45 9.75,-4.35 19.65,-8.25 28.8,-13.35 4.65,-2.85 8.4,-6.45 11.85,-10.2 1.05,-1.2 0.9,-3.6 0,-4.95 -0.75,-1.5 -3.3,-2.25 -4.65,-1.35 -3.15,1.5 -6.45,3 -9.15,5.1 -11.55,8.55 -24.3,13.95 -38.7,16.05 -2.85,0.3 -5.1,-1.05 -6.6,-3.3 -2.4,-3.6 -4.2,-7.8 -4.35,-12.15 0,-3.6 0,-7.05 0,-10.65 0,-3.15 -0.6,-6.15 -2.1,-9 -1.8,-3.15 -3.9,-5.55 -7.95,-6 -5.25,-0.6 -10.5,-1.35 -15.75,0.45 -0.6,0.15 -1.5,-0.45 -2.4,-0.6 -0.9,-2.1 -1.65,-4.2 -2.4,-6.3 -1.05,-2.1 -2.55,-3.45 -4.95,-4.05 -1.95,-0.6 -4.05,-1.35 -6.15,-1.65 -2.25,-0.3 -4.65,-0.3 -6.6,0.45 -7.5,2.85 -14.4,6.75 -19.35,13.2 -0.75,1.05 -1.2,2.4 -1.8,3.6 -0.6,1.35 0,2.55 0.6,3.6 1.95,2.85 5.25,4.2 7.8,2.85 2.4,-1.2 4.5,-2.7 7.05,-3.75 0.6,-0.15 1.5,0.3 2.25,0.45 z"
         style="font-style:normal;font-variant:normal;font-weight:normal;font-stretch:normal;font-size:150px;font-family:'goodvibes regular';-inkscape-font-specification:'goodvibes regular, ';text-align:center;text-anchor:middle;fill:#000000;fill-opacity:1;stroke:#000000;stroke-opacity:1;stroke-width:3.13039614;stroke-miterlimit:4;stroke-dasharray:none;fill-rule:evenodd"
         id="path5234" />
      <path
         inkscape:connector-curvature="0"
         d="m 773.95664,638.42305 c 3.45,1.35 7.05,2.85 10.65,4.35 2.4,-1.05 4.8,-2.1 6.9,-3.45 4.05,-2.4 7.95,-5.1 11.85,-7.65 1.5,-0.9 3.6,-0.75 4.65,0.45 1.35,1.35 1.8,4.5 0.6,5.85 -0.6,0.75 -1.05,1.35 -1.65,1.95 -2.25,1.95 -4.8,3.75 -6.6,6 -6.15,7.05 -14.4,8.85 -22.95,10.2 -3,0.45 -5.85,-0.15 -8.4,-2.25 -1.35,-1.05 -2.55,-2.25 -4.05,-3.15 -0.45,-0.45 -1.8,-0.3 -2.25,0.3 -1.8,1.8 -3.6,3.75 -5.1,5.7 -5.1,6.6 -11.85,11.1 -19.2,14.85 -8.55,4.35 -16.65,2.55 -24.3,-2.1 -2.25,-1.5 -3.6,-3.6 -4.8,-6 -3.45,-6.75 -2.4,-13.5 0.75,-19.65 3.75,-6.9 7.8,-13.5 12.75,-19.35 4.8,-5.4 11.55,-9 18.6,-10.95 1.2,-0.45 2.55,-0.45 3.75,-0.3 4.8,0.75 9.45,1.5 13.95,2.25 2.85,0.45 4.95,1.8 6.3,4.05 2.25,3.6 4.35,7.35 6.15,11.25 1.05,2.4 1.5,4.8 2.4,7.65 z m -23.4,-9 c 0.15,-2.4 -1.65,-3.9 -3.15,-3.3 -7.35,2.85 -13.65,7.2 -18.15,13.65 -2.4,3.6 -4.8,7.05 -6.9,10.65 -1.35,2.25 -1.8,4.8 -1.8,7.35 0.15,3.15 3.75,5.4 6.6,4.2 0.45,-0.3 0.9,-0.3 1.2,-0.6 10.95,-7.2 19.05,-16.8 22.2,-30 0.15,-0.75 0,-1.65 0,-1.95 z"
         style="font-style:normal;font-variant:normal;font-weight:normal;font-stretch:normal;font-size:150px;font-family:'goodvibes regular';-inkscape-font-specification:'goodvibes regular, ';text-align:center;text-anchor:middle;fill:#000000;fill-opacity:1;stroke:#000000;stroke-opacity:1;stroke-width:3.13039614;stroke-miterlimit:4;stroke-dasharray:none;fill-rule:evenodd"
         id="path5236" />
      <path
         inkscape:connector-curvature="0"
         d="m 817.80352,623.87305 c 3.45,-1.2 6.45,-1.95 9.45,-3.15 1.65,-0.6 3.3,-1.35 5.25,-1.65 2.1,-0.45 3.9,-1.2 6,-1.8 1.5,-0.45 1.8,-1.8 2.25,-3 0.15,-1.05 -0.6,-2.4 -1.5,-2.55 -1.05,-0.15 -1.95,-0.3 -3.15,-0.15 -1.95,0.3 -4.05,1.05 -6.15,1.35 -1.8,0.45 -3.9,1.05 -5.25,-0.3 -1.65,-1.65 0.15,-3.45 0.9,-4.95 2.25,-5.1 4.65,-10.05 9.15,-13.8 0.15,0 0.3,-0.3 0.6,-0.45 0.9,-1.35 0.6,-4.2 -0.9,-4.95 -1.95,-0.9 -3.9,-1.65 -6,-2.25 -1.2,-0.3 -2.55,0.15 -3.6,1.2 -1.65,1.95 -3.6,3.75 -4.95,6 -2.1,3.6 -4.35,7.2 -5.85,11.25 -1.5,3.45 -3.6,6.45 -6,9.3 -0.9,1.05 -2.1,1.5 -3.6,1.5 -0.9,0 -2.1,0 -3,-0.3 -4.65,-1.65 -8.1,0 -11.55,2.85 -0.75,0.45 -1.35,0.9 -1.95,1.5 -0.3,0.3 -0.45,0.9 -0.45,1.5 0,0.9 -0.15,2.1 0.15,3 0.6,2.1 2.85,3.6 4.95,3.3 1.65,-0.3 3.45,-0.75 5.4,-1.2 1.2,0 2.4,1.5 1.95,2.7 -1.05,3.3 -2.4,6.6 -3.3,9.75 -1.8,5.7 -3,11.1 -3,17.1 0,4.5 1.5,8.25 3.75,11.7 2.1,3.15 4.95,4.8 8.55,5.25 4.35,0.75 8.4,-0.15 12,-2.55 6.15,-4.2 12,-8.7 17.7,-13.5 0.15,-0.15 0.3,-0.3 0.45,-0.6 0.75,-0.9 0.6,-3.45 -0.45,-4.35 -0.6,-0.45 -2.25,-0.45 -3,0.15 -1.65,1.2 -3.45,2.55 -5.1,3.9 -3.45,3.3 -7.35,5.85 -11.25,8.4 -2.25,1.5 -4.8,2.25 -7.5,2.55 -1.95,0.3 -3.45,-0.75 -4.35,-2.55 -1.65,-3.15 -1.65,-6.6 -0.3,-9.9 1.5,-4.2 3.15,-8.4 4.35,-12.75 1.8,-6.75 5.4,-12.45 9.3,-17.55 z"
         style="font-style:normal;font-variant:normal;font-weight:normal;font-stretch:normal;font-size:150px;font-family:'goodvibes regular';-inkscape-font-specification:'goodvibes regular, ';text-align:center;text-anchor:middle;fill:#000000;fill-opacity:1;stroke:#000000;stroke-opacity:1;stroke-width:3.13039614;stroke-miterlimit:4;stroke-dasharray:none;fill-rule:evenodd"
         id="path5238" />
      <path
         inkscape:connector-curvature="0"
         d="m 891.62695,643.37305 c -0.45,2.55 -1.05,5.85 -1.5,9.15 -0.3,1.5 -0.45,3 -0.3,4.5 0,3.15 3.6,6.45 6.75,6.15 5.55,-0.6 10.95,-1.8 15.75,-5.25 5.55,-3.75 11.1,-7.5 16.65,-11.4 3.75,-2.7 7.8,-4.2 12.15,-5.4 1.05,-0.3 2.25,-0.15 3.3,0 0.6,0.15 1.5,0.6 1.8,1.05 0.3,0.6 0.15,1.65 0,2.25 -1.35,2.7 -3.6,4.65 -6.15,6.45 -7.35,4.8 -15,9.9 -22.65,14.7 -5.7,3.45 -12.3,4.95 -18.75,6.6 -1.8,0.45 -3.75,0.6 -5.55,0.9 -8.4,1.5 -15.15,-2.25 -17.1,-10.5 -0.9,-3.9 -1.5,-7.95 -2.25,-12 -0.3,-1.5 -0.6,-3 -1.05,-4.35 -0.45,-1.2 -3.45,-2.85 -4.65,-2.4 -5.25,2.25 -10.2,4.8 -14.7,8.4 -3,2.7 -6.15,5.4 -9,8.4 -4.05,4.35 -7.95,8.85 -11.85,13.35 -1.5,1.95 -3.75,2.4 -6,2.55 -1.5,0 -2.7,-0.9 -3.6,-2.25 -0.9,-1.05 -0.45,-2.1 0,-3 3.6,-6.15 7.2,-12.15 10.8,-18.45 1.65,-2.85 3.3,-5.85 4.95,-8.85 1.05,-1.95 1.95,-3.9 3.3,-5.7 4.5,-6 7.35,-12.9 10.95,-19.5 0.75,-1.5 -0.3,-3 -1.95,-2.85 -1.05,0.15 -2.25,0.3 -3.45,0.3 -2.25,0.15 -4.2,-0.75 -6.15,-1.95 -1.35,-0.75 -2.1,-2.1 -1.5,-2.7 0.6,-0.45 1.05,-1.2 1.65,-1.35 2.7,-0.9 5.7,-1.65 8.55,-2.4 2.25,-0.6 4.2,-1.5 6.3,-2.1 2.4,-0.75 4.05,-2.1 5.1,-4.2 1.95,-3.6 3.75,-7.35 5.55,-11.1 2.25,-4.65 4.2,-9.45 6.75,-14.1 5.1,-8.85 11.85,-16.35 20.85,-21.6 4.65,-2.85 9.9,-2.55 14.85,0 4.65,2.4 7.5,10.95 4.65,15.75 -2.7,4.95 -6,9.3 -9.6,13.65 -4.8,5.85 -10.35,10.95 -17.25,14.25 -5.1,2.4 -9.9,5.1 -14.85,7.8 -2.7,1.5 -4.8,3.45 -6.15,6.3 -3.6,6.9 -7.5,13.8 -11.1,20.7 -0.15,0.6 0.3,1.35 0.6,1.95 0,0.3 0.6,0.45 0.9,0.3 2.85,-1.05 5.85,-1.65 8.55,-3 5.1,-2.7 10.65,-2.85 16.35,-2.85 1.35,0 3,0.3 4.2,0.9 3,1.05 5.1,3.3 5.4,6.6 0.3,1.8 0.3,3.75 0.45,6.3 z m 11.1,-78.45 -0.15,-0.3 -0.3,0 c 0,0.75 0.3,1.65 -0.15,2.25 -1.05,1.8 -2.25,3.75 -3.6,5.4 -5.7,6.3 -11.55,12.6 -17.4,18.75 -0.15,0.15 -0.6,0.15 -0.9,0 -0.9,-0.3 -0.9,-1.05 -0.45,-1.8 5.4,-7.95 11.25,-15.6 17.85,-22.5 1.35,-1.5 2.85,-2.25 5.1,-1.8 z"
         style="font-style:normal;font-variant:normal;font-weight:normal;font-stretch:normal;font-size:150px;font-family:'goodvibes regular';-inkscape-font-specification:'goodvibes regular, ';text-align:center;text-anchor:middle;fill:#000000;fill-opacity:1;stroke:#000000;stroke-opacity:1;stroke-width:3.13039614;stroke-miterlimit:4;stroke-dasharray:none;fill-rule:evenodd"
         id="path5240" />
      <path
         inkscape:connector-curvature="0"
         d="m 920.72695,655.82305 c -3.6,-0.6 -6.6,-1.2 -9.15,-3.3 -0.45,-0.3 -0.6,-1.05 -0.75,-1.35 -0.3,-0.9 0.3,-1.8 1.2,-2.1 1.2,-0.3 2.4,-0.75 3.3,-0.75 1.65,-0.3 3.6,1.2 4.95,-0.6 0.75,-0.9 0.9,-2.55 1.35,-3.9 0.6,-1.2 0.9,-2.7 1.65,-3.9 4.2,-8.1 9.45,-15.6 16.8,-21.6 1.2,-1.2 2.7,-2.1 4.2,-2.85 6.3,-3.45 14.55,-2.7 20.25,2.25 1.65,1.35 2.7,3.15 3,5.1 0.6,4.05 0.3,8.1 -2.55,11.25 -0.9,1.05 -1.8,2.25 -2.85,3.3 -4.65,3.75 -9.6,7.05 -15.3,9.75 -2.25,1.2 -4.65,2.1 -6.9,3.15 -5.7,2.85 -5.55,2.85 -3,8.85 0.9,0.75 2.1,1.5 3.3,2.25 3.6,2.4 7.5,2.7 11.7,1.5 2.85,-0.75 5.4,-2.1 7.5,-3.75 7.2,-5.1 13.95,-10.5 19.95,-16.5 1.35,-1.2 2.85,-2.25 4.2,-3.15 1.2,-0.9 3.75,0.15 4.2,1.65 0.3,0.75 0.45,1.8 0,2.25 -1.35,2.25 -3,4.2 -5.25,5.55 -2.55,1.65 -4.5,3.6 -6.3,6 -4.95,5.7 -10.8,10.2 -17.55,13.5 -2.1,0.9 -4.2,1.95 -6.15,3 -2.85,1.65 -6.15,1.95 -9.45,1.65 -5.1,-0.6 -10.05,-2.4 -14.1,-5.55 -1.65,-1.2 -3,-2.85 -4.05,-4.5 -1.35,-2.1 -2.7,-4.35 -4.2,-7.2 z m 34.05,-28.35 c -0.45,-0.15 -0.9,-0.75 -1.2,-1.05 -3.75,-0.6 -7.65,-0.15 -10.8,2.25 -1.65,1.5 -3,2.85 -3.9,4.65 -1.2,2.25 -2.1,4.65 -3.3,6.9 -0.15,0.6 -0.45,1.2 -0.3,1.8 0,0.45 0.3,0.9 0.6,1.2 0.3,0.45 1.2,0.6 1.5,0.6 2.7,-1.2 5.25,-2.25 7.8,-3.6 4.8,-2.25 7.65,-6.3 9.45,-10.8 0.15,-0.45 0.15,-1.2 0.15,-1.95 z"
         style="font-style:normal;font-variant:normal;font-weight:normal;font-stretch:normal;font-size:150px;font-family:'goodvibes regular';-inkscape-font-specification:'goodvibes regular, ';text-align:center;text-anchor:middle;fill:#000000;fill-opacity:1;stroke:#000000;stroke-opacity:1;stroke-width:3.13039614;stroke-miterlimit:4;stroke-dasharray:none;fill-rule:evenodd"
         id="path5242" />
      <path
         inkscape:connector-curvature="0"
         d="m 1020.5051,608.87305 c 0,0.6 0,-1.2 -0.15,-2.85 -0.3,-2.1 -3.6,-3.45 -5.1,-2.25 -0.9,0.6 -2.25,1.05 -2.7,1.95 -1.65,1.95 -2.85,4.05 -4.2,6.45 -6.15,9.9 -13.05002,19.5 -23.10002,26.25 -1.95,1.2 -3.3,2.85 -4.95,4.35 -0.9,0.9 -0.6,3 1.05,3.75 1.5,0.75 2.85,0.75 4.05,0 5.4,-3.45 10.95,-6.9 16.05002,-11.1 1.2,-1.2 2.85,-2.1 4.5,-2.85 0.75,-0.3 1.35,-0.15 1.8,0.75 0.15,0.15 0.15,0.75 0.15,0.9 -0.45,1.05 -0.9,2.1 -1.5,2.85 -4.05,4.8 -6.3,10.5 -7.95002,16.35 -1.05,3.45 -0.75,6.45 0.6,9.6 3.15002,7.2 8.70002,10.35 16.20002,10.2 2.85,0 5.55,-0.6 8.4,-1.2 13.8,-4.35 25.05,-12.75 35.1,-22.8 0.45,-0.45 0,-1.95 0,-2.85 -0.15,-0.6 -1.35,-0.9 -1.95,-1.05 -0.75,-0.3 -1.35,-0.3 -2.1,-0.3 -2.55,0.9 -4.8,1.8 -6.9,2.7 -0.9,0.6 -1.95,1.05 -2.7,1.8 -3.45,4.5 -8.55,6.6 -13.05,9.75 -3.75,2.55 -8.4,3.9 -13.2,3.75 -2.1,0 -4.2,-1.95 -4.5,-3.9 -0.45,-3 0.15,-5.85 1.5,-8.25 3,-5.4 7.35,-10.05 12,-13.95 2.85,-2.7 5.25,-5.55 7.95,-8.55 0.75,-1.35 1.05,-2.7 0.45,-4.2 -0.6,-1.5 -2.7,-2.85 -4.35,-2.85 -1.95,0.6 -3.6,0.9 -5.1,1.2 -2.4,0.3 -5.25,-1.35 -6,-3.75 -0.3,-1.05 -0.6,-1.95 -0.6,-3 -0.15,-1.65 0.15,-3.15 0.3,-6.9 z"
         style="font-style:normal;font-variant:normal;font-weight:normal;font-stretch:normal;font-size:150px;font-family:'goodvibes regular';-inkscape-font-specification:'goodvibes regular, ';text-align:center;text-anchor:middle;fill:#000000;fill-opacity:1;stroke:#000000;stroke-opacity:1;stroke-width:3.13039614;stroke-miterlimit:4;stroke-dasharray:none;fill-rule:evenodd"
         id="path5244" />
      <path
         inkscape:connector-curvature="0"
         d="m 403.87969,801.32305 c -5.4,-0.6 -10.8,0.45 -16.05,3 -3.75,1.8 -6.45,4.5 -9.45,7.05 -7.05,5.55 -11.25,12.6 -13.35,21.3 -1.65,7.65 0.45,14.1 4.95,19.95 2.1,2.55 4.65,4.5 7.8,5.55 8.4,2.85 16.65,3.9 25.2,1.05 4.65,-1.65 9.45,-3.3 13.95,-5.25 4.2,-1.95 7.8,-5.25 12.3,-6.45 7.95,-5.4 15.6,-11.4 22.2,-18.3 0.75,-0.75 1.2,-1.8 1.65,-2.7 0.75,-1.5 0,-3.75 -1.5,-4.65 -1.8,-1.35 -4.5,-1.35 -6,0 -4.2,3.6 -8.55,7.35 -12.75,11.25 -9,7.8 -19.65,13.05 -30.6,17.25 -6.3,2.25 -12.75,1.2 -18.6,-2.1 -2.25,-1.2 -4.2,-3 -5.25,-5.25 -0.6,-1.65 -1.35,-3.6 -1.05,-5.1 1.35,-10.2 6.3,-18 15.45,-23.25 2.7,-1.5 5.4,-1.2 8.1,0.15 2.1,0.9 2.85,3.75 1.35,5.4 -1.5,1.5 -3.15,2.85 -4.5,4.5 -1.95,1.95 -1.5,4.65 0.9,6.3 6.75,4.65 15.6,1.65 19.95,-2.1 2.85,-2.55 5.1,-5.85 6.6,-9.45 0.6,-1.2 0.9,-2.85 0.45,-4.2 -0.45,-1.95 -1.2,-4.2 -2.55,-5.85 -4.35,-4.8 -9.3,-8.85 -16.65,-7.95 -0.6,0.15 -1.35,0 -2.55,-0.15 z"
         style="font-style:normal;font-variant:normal;font-weight:normal;font-stretch:normal;font-size:150px;font-family:'goodvibes regular';-inkscape-font-specification:'goodvibes regular, ';text-align:center;text-anchor:middle;fill:#000000;fill-opacity:1;stroke:#000000;stroke-opacity:1;stroke-width:3.13039614;stroke-miterlimit:4;stroke-dasharray:none;fill-rule:evenodd"
         id="path5246" />
      <path
         inkscape:connector-curvature="0"
         d="m 511.01719,825.92305 c 3.45,1.35 7.05,2.85 10.65,4.35 2.4,-1.05 4.8,-2.1 6.9,-3.45 4.05,-2.4 7.95,-5.1 11.85,-7.65 1.5,-0.9 3.6,-0.75 4.65,0.45 1.35,1.35 1.8,4.5 0.6,5.85 -0.6,0.75 -1.05,1.35 -1.65,1.95 -2.25,1.95 -4.8,3.75 -6.6,6 -6.15,7.05 -14.4,8.85 -22.95,10.2 -3,0.45 -5.85,-0.15 -8.4,-2.25 -1.35,-1.05 -2.55,-2.25 -4.05,-3.15 -0.45,-0.45 -1.8,-0.3 -2.25,0.3 -1.8,1.8 -3.6,3.75 -5.1,5.7 -5.1,6.6 -11.85,11.1 -19.2,14.85 -8.55,4.35 -16.65,2.55 -24.3,-2.1 -2.25,-1.5 -3.6,-3.6 -4.8,-6 -3.45,-6.75 -2.4,-13.5 0.75,-19.65 3.75,-6.9 7.8,-13.5 12.75,-19.35 4.8,-5.4 11.55,-9 18.6,-10.95 1.2,-0.45 2.55,-0.45 3.75,-0.3 4.8,0.75 9.45,1.5 13.95,2.25 2.85,0.45 4.95,1.8 6.3,4.05 2.25,3.6 4.35,7.35 6.15,11.25 1.05,2.4 1.5,4.8 2.4,7.65 z m -23.4,-9 c 0.15,-2.4 -1.65,-3.9 -3.15,-3.3 -7.35,2.85 -13.65,7.2 -18.15,13.65 -2.4,3.6 -4.8,7.05 -6.9,10.65 -1.35,2.25 -1.8,4.8 -1.8,7.35 0.15,3.15 3.75,5.4 6.6,4.2 0.45,-0.3 0.9,-0.3 1.2,-0.6 10.95,-7.2 19.05,-16.8 22.2,-30 0.15,-0.75 0,-1.65 0,-1.95 z"
         style="font-style:normal;font-variant:normal;font-weight:normal;font-stretch:normal;font-size:150px;font-family:'goodvibes regular';-inkscape-font-specification:'goodvibes regular, ';text-align:center;text-anchor:middle;fill:#000000;fill-opacity:1;stroke:#000000;stroke-opacity:1;stroke-width:3.13039614;stroke-miterlimit:4;stroke-dasharray:none;fill-rule:evenodd"
         id="path5248" />
      <path
         inkscape:connector-curvature="0"
         d="m 565.96406,796.37305 c 0,0.6 0,-1.2 -0.15,-2.85 -0.3,-2.1 -3.6,-3.45 -5.1,-2.25 -0.9,0.6 -2.25,1.05 -2.7,1.95 -1.65,1.95 -2.85,4.05 -4.2,6.45 -6.15,9.9 -13.05,19.5 -23.1,26.25 -1.95,1.2 -3.3,2.85 -4.95,4.35 -0.9,0.9 -0.6,3 1.05,3.75 1.5,0.75 2.85,0.75 4.05,0 5.4,-3.45 10.95,-6.9 16.05,-11.1 1.2,-1.2 2.85,-2.1 4.5,-2.85 0.75,-0.3 1.35,-0.15 1.8,0.75 0.15,0.15 0.15,0.75 0.15,0.9 -0.45,1.05 -0.9,2.1 -1.5,2.85 -4.05,4.8 -6.3,10.5 -7.95,16.35 -1.05,3.45 -0.75,6.45 0.6,9.6 3.15,7.2 8.7,10.35 16.2,10.2 2.85,0 5.55,-0.6 8.4,-1.2 13.8,-4.35 25.05,-12.75 35.1,-22.8 0.45,-0.45 0,-1.95 0,-2.85 -0.15,-0.6 -1.35,-0.9 -1.95,-1.05 -0.75,-0.3 -1.35,-0.3 -2.1,-0.3 -2.55,0.9 -4.8,1.8 -6.9,2.7 -0.9,0.6 -1.95,1.05 -2.7,1.8 -3.45,4.5 -8.55,6.6 -13.05,9.75 -3.75,2.55 -8.4,3.9 -13.2,3.75 -2.1,0 -4.2,-1.95 -4.5,-3.9 -0.45,-3 0.15,-5.85 1.5,-8.25 3,-5.4 7.35,-10.05 12,-13.95 2.85,-2.7 5.25,-5.55 7.95,-8.55 0.75,-1.35 1.05,-2.7 0.45,-4.2 -0.6,-1.5 -2.7,-2.85 -4.35,-2.85 -1.95,0.6 -3.6,0.9 -5.1,1.2 -2.4,0.3 -5.25,-1.35 -6,-3.75 -0.3,-1.05 -0.6,-1.95 -0.6,-3 -0.15,-1.65 0.15,-3.15 0.3,-6.9 z"
         style="font-style:normal;font-variant:normal;font-weight:normal;font-stretch:normal;font-size:150px;font-family:'goodvibes regular';-inkscape-font-specification:'goodvibes regular, ';text-align:center;text-anchor:middle;fill:#000000;fill-opacity:1;stroke:#000000;stroke-opacity:1;stroke-width:3.13039614;stroke-miterlimit:4;stroke-dasharray:none;fill-rule:evenodd"
         id="path5250" />
      <path
         inkscape:connector-curvature="0"
         d="m 622.83281,811.37305 c 3.45,-1.2 6.45,-1.95 9.45,-3.15 1.65,-0.6 3.3,-1.35 5.25,-1.65 2.1,-0.45 3.9,-1.2 6,-1.8 1.5,-0.45 1.8,-1.8 2.25,-3 0.15,-1.05 -0.6,-2.4 -1.5,-2.55 -1.05,-0.15 -1.95,-0.3 -3.15,-0.15 -1.95,0.3 -4.05,1.05 -6.15,1.35 -1.8,0.45 -3.9,1.05 -5.25,-0.3 -1.65,-1.65 0.15,-3.45 0.9,-4.95 2.25,-5.1 4.65,-10.05 9.15,-13.8 0.15,0 0.3,-0.3 0.6,-0.45 0.9,-1.35 0.6,-4.2 -0.9,-4.95 -1.95,-0.9 -3.9,-1.65 -6,-2.25 -1.2,-0.3 -2.55,0.15 -3.6,1.2 -1.65,1.95 -3.6,3.75 -4.95,6 -2.1,3.6 -4.35,7.2 -5.85,11.25 -1.5,3.45 -3.6,6.45 -6,9.3 -0.9,1.05 -2.1,1.5 -3.6,1.5 -0.9,0 -2.1,0 -3,-0.3 -4.65,-1.65 -8.1,0 -11.55,2.85 -0.75,0.45 -1.35,0.9 -1.95,1.5 -0.3,0.3 -0.45,0.9 -0.45,1.5 0,0.9 -0.15,2.1 0.15,3 0.6,2.1 2.85,3.6 4.95,3.3 1.65,-0.3 3.45,-0.75 5.4,-1.2 1.2,0 2.4,1.5 1.95,2.7 -1.05,3.3 -2.4,6.6 -3.3,9.75 -1.8,5.7 -3,11.1 -3,17.1 0,4.5 1.5,8.25 3.75,11.7 2.1,3.15 4.95,4.8 8.55,5.25 4.35,0.75 8.4,-0.15 12,-2.55 6.15,-4.2 12,-8.7 17.7,-13.5 0.15,-0.15 0.3,-0.3 0.45,-0.6 0.75,-0.9 0.6,-3.45 -0.45,-4.35 -0.6,-0.45 -2.25,-0.45 -3,0.15 -1.65,1.2 -3.45,2.55 -5.1,3.9 -3.45,3.3 -7.35,5.85 -11.25,8.4 -2.25,1.5 -4.8,2.25 -7.5,2.55 -1.95,0.3 -3.45,-0.75 -4.35,-2.55 -1.65,-3.15 -1.65,-6.6 -0.3,-9.9 1.5,-4.2 3.15,-8.4 4.35,-12.75 1.8,-6.75 5.4,-12.45 9.3,-17.55 z"
         style="font-style:normal;font-variant:normal;font-weight:normal;font-stretch:normal;font-size:150px;font-family:'goodvibes regular';-inkscape-font-specification:'goodvibes regular, ';text-align:center;text-anchor:middle;fill:#000000;fill-opacity:1;stroke:#000000;stroke-opacity:1;stroke-width:3.13039614;stroke-miterlimit:4;stroke-dasharray:none;fill-rule:evenodd"
         id="path5252" />
      <path
         inkscape:connector-curvature="0"
         d="m 632.00625,843.32305 c -3.6,-0.6 -6.6,-1.2 -9.15,-3.3 -0.45,-0.3 -0.6,-1.05 -0.75,-1.35 -0.3,-0.9 0.3,-1.8 1.2,-2.1 1.2,-0.3 2.4,-0.75 3.3,-0.75 1.65,-0.3 3.6,1.2 4.95,-0.6 0.75,-0.9 0.9,-2.55 1.35,-3.9 0.6,-1.2 0.9,-2.7 1.65,-3.9 4.2,-8.1 9.45,-15.6 16.8,-21.6 1.2,-1.2 2.7,-2.1 4.2,-2.85 6.3,-3.45 14.55,-2.7 20.25,2.25 1.65,1.35 2.7,3.15 3,5.1 0.6,4.05 0.3,8.1 -2.55,11.25 -0.9,1.05 -1.8,2.25 -2.85,3.3 -4.65,3.75 -9.6,7.05 -15.3,9.75 -2.25,1.2 -4.65,2.1 -6.9,3.15 -5.7,2.85 -5.55,2.85 -3,8.85 0.9,0.75 2.1,1.5 3.3,2.25 3.6,2.4 7.5,2.7 11.7,1.5 2.85,-0.75 5.4,-2.1 7.5,-3.75 7.2,-5.1 13.95,-10.5 19.95,-16.5 1.35,-1.2 2.85,-2.25 4.2,-3.15 1.2,-0.9 3.75,0.15 4.2,1.65 0.3,0.75 0.45,1.8 0,2.25 -1.35,2.25 -3,4.2 -5.25,5.55 -2.55,1.65 -4.5,3.6 -6.3,6 -4.95,5.7 -10.8,10.2 -17.55,13.5 -2.1,0.9 -4.2,1.95 -6.15,3 -2.85,1.65 -6.15,1.95 -9.45,1.65 -5.1,-0.6 -10.05,-2.4 -14.1,-5.55 -1.65,-1.2 -3,-2.85 -4.05,-4.5 -1.35,-2.1 -2.7,-4.35 -4.2,-7.2 z m 34.05,-28.35 c -0.45,-0.15 -0.9,-0.75 -1.2,-1.05 -3.75,-0.6 -7.65,-0.15 -10.8,2.25 -1.65,1.5 -3,2.85 -3.9,4.65 -1.2,2.25 -2.1,4.65 -3.3,6.9 -0.15,0.6 -0.45,1.2 -0.3,1.8 0,0.45 0.3,0.9 0.6,1.2 0.3,0.45 1.2,0.6 1.5,0.6 2.7,-1.2 5.25,-2.25 7.8,-3.6 4.8,-2.25 7.65,-6.3 9.45,-10.8 0.15,-0.45 0.15,-1.2 0.15,-1.95 z"
         style="font-style:normal;font-variant:normal;font-weight:normal;font-stretch:normal;font-size:150px;font-family:'goodvibes regular';-inkscape-font-specification:'goodvibes regular, ';text-align:center;text-anchor:middle;fill:#000000;fill-opacity:1;stroke:#000000;stroke-opacity:1;stroke-width:3.13039614;stroke-miterlimit:4;stroke-dasharray:none;fill-rule:evenodd"
         id="path5254" />
      <path
         inkscape:connector-curvature="0"
         d="m 715.43438,814.97305 c -0.75,-1.05 -1.65001,-1.95 -2.1,-2.85 -1.05001,-2.4 -1.80001,-4.8 -3,-7.2 -0.75,-1.35 -1.95001,-2.4 -3.15,-3.15 -1.80001,-1.2 -4.05001,-2.1 -6,-3.15 -1.95001,-0.75 -3.75,-0.6 -5.40001,0.3 -2.69999,1.5 -5.25,2.85 -7.8,4.5 -2.25,1.35 -3.29999,3.9 -4.2,6.45 -0.44999,2.1 0.45,3.75 1.65001,5.1 0.9,1.5 3,1.95 5.09999,1.35 1.80001,-0.45 3.45,-1.35 5.25,-1.95 1.80001,-0.45 3.90001,0.45 4.65001,2.4 0.59999,1.35 1.04999,2.7 1.65,4.2 1.04999,3.3 0.44999,6.45 -2.25,9.3 -5.85001,5.4 -11.4,10.95 -16.95001,16.5 -1.94999,2.1 -3.9,4.65 -5.4,7.05 -0.45,0.75 -0.29999,2.4 0,3.15 0.9,1.65 2.25,3.15 3.60001,4.5 0.89999,1.05 4.19999,1.2 5.25,0.3 3.75,-2.55 7.5,-4.8 10.19999,-8.7 2.1,-3.6 5.25,-6.3 8.1,-9.45 1.35,-1.5 3.30001,-1.5 4.80001,0.15 2.09999,2.7 3.9,5.4 6.44999,7.8 4.95001,4.65 10.35,8.7 17.55001,8.7 2.69999,-0.15 5.25,0.45 7.65,0.6 5.25,-3.75 9.89999,-7.5 15,-10.5 5.1,-3.3 7.04999,-8.55 9.6,-13.65 0.29999,-0.9 -0.6,-3.3 -1.5,-4.05 -1.35,-0.75 -3.15001,-0.75 -4.35,0 -0.45001,0.45 -1.35001,0.75 -1.80001,1.35 -2.25,2.1 -4.65,3.9 -6.59999,6.15 -4.05001,4.2 -9,6.6 -14.70001,7.65 -4.04999,1.05 -7.2,0 -10.2,-2.85 -1.19999,-1.35 -2.69999,-2.7 -3.75,-4.2 -5.55,-9.45 -7.05,-9.45 2.55001,-17.7 0.44999,-0.45 1.04999,-0.9 1.64999,-1.35 3.9,-3 7.8,-5.85 11.55,-9 2.25,-1.65 3.30001,-3.9 3.15001,-6.75 -0.30001,-2.55 -2.25,-4.35 -4.5,-4.2 -2.55001,0.15 -5.25,0.75 -7.05001,2.7 -4.35,4.35 -9.15,7.8 -14.69999,10.5 z"
         style="font-style:normal;font-variant:normal;font-weight:normal;font-stretch:normal;font-size:150px;font-family:'goodvibes regular';-inkscape-font-specification:'goodvibes regular, ';text-align:center;text-anchor:middle;fill:#000000;fill-opacity:1;stroke:#000000;stroke-opacity:1;stroke-width:3.13039614;stroke-miterlimit:4;stroke-dasharray:none;fill-rule:evenodd"
         id="path5256" />
      <path
         inkscape:connector-curvature="0"
         d="m 850.12969,823.07305 c -0.3,8.25 -3.75,13.95 -9.3,18 -3.75,2.85 -7.65,4.95 -11.4,7.35 -0.45,0.3 -0.75,1.35 -0.6,1.95 1.35,4.05 5.4,6.15 8.7,4.35 1.35,-0.6 2.55,-1.8 3.9,-2.25 4.5,-1.05 7.95,-3.9 11.1,-7.05 5.25,-5.1 11.25,-8.7 17.7,-12.15 0.75,-0.3 2.1,0 3,0.45 1.35,0.75 2.25,1.95 2.4,3.6 0,0.6 -0.3,1.5 -0.75,1.95 -7.8,7.8 -16.35,14.25 -26.1,19.5 -2.55,1.35 -5.25,2.7 -8.25,2.85 -1.95,0.15 -4.05,0.45 -5.7,1.2 -4.65,2.1 -8.55,0.15 -12.6,-2.25 -1.5,-0.9 -2.85,-2.4 -4.2,-3.75 -0.9,-1.2 -2.4,-2.25 -2.7,-3.6 -1.35,-5.4 -7.35,-8.4 -7.95,-14.55 -0.15,-1.65 -2.1,-2.4 -3.3,-1.2 -3.3,3 -6.6,6.15 -9.75,9.3 -2.85,2.85 -5.55,6 -7.35,9.75 -1.8,3.75 -2.85,4.2 -7.35,3.15 -2.4,-0.6 -3.75,-3.15 -2.55,-5.25 2.4,-4.2 4.8,-8.25 7.35,-12.6 5.85,-9.9 10.95,-20.25 16.05,-30.9 0.3,-0.75 -0.9,-2.4 -1.65,-2.1 -3.9,1.2 -7.5,1.35 -11.1,0.45 -1.65,-0.3 -2.7,-1.2 -3.45,-2.7 -0.3,-0.9 0.15,-2.7 1.05,-2.85 1.35,-0.3 2.85,-0.75 4.2,-0.75 4.95,0 9.6,-1.5 14.1,-3.6 2.25,-0.75 3.75,-2.25 4.95,-4.2 4.65,-7.65 9.75,-15 13.65,-23.25 3.9,-8.1 9.75,-15.15 15.6,-21.75 3.75,-4.05 8.25,-6.75 12.75,-9.15 4.05,-1.95 10.2,-1.05 12.75,1.35 3.9,3.75 6.3,7.95 4.5,13.05 -1.65,5.1 -3.45,10.05 -7.2,13.95 -5.1,5.4 -8.85,12.15 -14.85,16.8 -1.2,0.9 -1.95,2.25 -3.3,3 -6.9,3.9 -13.65,7.65 -20.55,11.55 -4.8,2.7 -7.8,6.75 -9.45,12 -0.15,0.15 0.3,0.6 0.45,0.75 0.3,0.15 0.6,0.6 0.9,0.6 3.6,-1.95 7.2,-3.75 10.8,-5.55 10.05,-5.1 22.2,0.3 25.2,11.1 0.45,1.5 0.3,3 0.3,3.45 z m -13.2,-46.65 c 0.3,0 0.75,0.15 1.05,0 6.9,-2.7 12,-7.5 16.65,-13.05 1.5,-2.1 3,-4.35 2.85,-7.2 0,-1.05 -0.3,-2.1 -0.6,-3.15 -0.3,-0.9 -2.7,-0.6 -4.05,0.3 -4.35,2.85 -8.25,6.45 -10.65,11.25 -1.8,3.3 -3.6,6.45 -5.25,10.05 -0.15,0.45 0.15,1.35 0.15,1.95 -0.6,0 -1.35,-0.3 -1.8,-0.15 -0.45,0.3 -0.6,1.05 -0.9,1.5 0.45,0 1.35,0.3 1.65,0.15 0.45,-0.3 0.6,-1.2 0.9,-1.65 z m -13.95,55.05 c 1.5,-0.3 3.6,-0.6 5.25,-1.2 1.8,-0.6 3,-2.4 3.75,-4.05 0.9,-1.65 0.3,-3.9 -0.9,-4.95 -1.95,-1.8 -4.2,-2.25 -6.3,-1.2 -2.7,1.35 -5.1,3.15 -6.9,5.55 -0.3,0.3 -0.45,0.6 -0.6,0.9 -0.9,1.05 -0.15,3.45 1.2,3.75 1.35,0.3 2.85,0.75 4.5,1.2 z"
         style="font-style:normal;font-variant:normal;font-weight:normal;font-stretch:normal;font-size:150px;font-family:'goodvibes regular';-inkscape-font-specification:'goodvibes regular, ';text-align:center;text-anchor:middle;fill:#000000;fill-opacity:1;stroke:#000000;stroke-opacity:1;stroke-width:3.13039614;stroke-miterlimit:4;stroke-dasharray:none;fill-rule:evenodd"
         id="path5258" />
      <path
         inkscape:connector-curvature="0"
         d="m 874.36406,861.32305 c -1.35,-0.15 -2.4,-0.15 -2.85,-0.15 -2.55,-0.3 -4.65,-1.65 -6.15,-3.6 -0.6,-1.8 -1.8,-3.45 -2.25,-5.4 -0.45,-1.35 -0.45,-3.15 0,-4.65 2.1,-5.1 4.65,-9.9 7.2,-14.7 0.9,-2.1 2.25,-4.05 3.3,-6.15 2.4,-4.2 1.2,-6.3 -3.75,-7.2 -0.6,0 -1.35,0.3 -2.25,0 -1.65,0 -2.7,-2.4 -1.95,-3.6 1.65,-1.65 3,-4.2 4.8,-4.95 6.15,-3 11.85,-6.45 17.55,-9.9 2.1,-1.35 4.2,-1.2 6.9,-0.45 0.9,0.45 2.55,2.55 1.95,3.75 -0.15,1.5 -0.45,2.85 -1.35,4.5 -2.55,5.7 -5.4,10.95 -8.4,16.65 -1.8,4.2 -3.75,8.55 -5.1,12.75 -0.9,2.85 1.65,5.85 4.5,5.85 1.05,-0.15 2.25,-0.15 3.45,-0.45 4.95,-1.2 9.6,-2.55 14.1,-5.4 2.4,-1.35 4.65,-2.85 7.05,-4.2 2.55,-1.2 5.7,-2.55 8.4,-4.2 2.55,-1.2 5.4,1.5 8.1,0.3 0.6,-0.3 1.5,-0.45 2.1,-0.3 0.75,0 1.65,0.45 1.65,1.2 0.3,0.45 0,1.5 -0.6,1.95 -3.3,2.4 -6.9,4.65 -10.5,6.9 -7.05,4.05 -13.65,7.65 -20.4,11.7 -6.15,3.75 -13.05,5.4 -19.2,8.55 -2.1,1.05 -4.65,1.05 -6.3,1.2 z m 45,-95.4 c -2.85,-0.3 -6.9,-1.95 -10.65,-4.35 -2.7,-2.55 -3.6,-6.3 -2.25,-9.9 1.2,-2.7 2.55,-5.55 4.95,-7.65 2.4,-2.55 5.85,-4.65 9.6,-3.75 5.25,1.2 10.05,3.75 12.45,9.6 1.35,4.05 0.75,7.65 -2.55,10.65 -0.9,1.2 -2.25,2.1 -3.75,3 -1.5,1.95 -4.2,2.1 -7.8,2.4 z"
         style="font-style:normal;font-variant:normal;font-weight:normal;font-stretch:normal;font-size:150px;font-family:'goodvibes regular';-inkscape-font-specification:'goodvibes regular, ';text-align:center;text-anchor:middle;fill:#000000;fill-opacity:1;stroke:#000000;stroke-opacity:1;stroke-width:3.13039614;stroke-miterlimit:4;stroke-dasharray:none;fill-rule:evenodd"
         id="path5260" />
      <path
         inkscape:connector-curvature="0"
         d="m 941.87578,811.37305 c 3.45,-1.2 6.45,-1.95 9.45,-3.15 1.65,-0.6 3.3,-1.35 5.25,-1.65 2.1,-0.45 3.9,-1.2 6,-1.8 1.5,-0.45 1.8,-1.8 2.25,-3 0.15,-1.05 -0.6,-2.4 -1.5,-2.55 -1.05,-0.15 -1.95,-0.3 -3.15,-0.15 -1.95,0.3 -4.05,1.05 -6.15,1.35 -1.8,0.45 -3.9,1.05 -5.25,-0.3 -1.65,-1.65 0.15,-3.45 0.9,-4.95 2.25,-5.1 4.65,-10.05 9.15,-13.8 0.15,0 0.3,-0.3 0.6,-0.45 0.9,-1.35 0.6,-4.2 -0.9,-4.95 -1.95,-0.9 -3.9,-1.65 -6,-2.25 -1.2,-0.3 -2.55,0.15 -3.6,1.2 -1.65,1.95 -3.6,3.75 -4.95,6 -2.1,3.6 -4.35,7.2 -5.85,11.25 -1.5,3.45 -3.6,6.45 -6,9.3 -0.9,1.05 -2.1,1.5 -3.6,1.5 -0.9,0 -2.1,0 -3,-0.3 -4.65,-1.65 -8.1,0 -11.55,2.85 -0.75,0.45 -1.35,0.9 -1.95,1.5 -0.3,0.3 -0.45,0.9 -0.45,1.5 0,0.9 -0.15,2.1 0.15,3 0.6,2.1 2.85,3.6 4.95,3.3 1.65,-0.3 3.45,-0.75 5.4,-1.2 1.2,0 2.4,1.5 1.95,2.7 -1.05,3.3 -2.4,6.6 -3.3,9.75 -1.8,5.7 -3,11.1 -3,17.1 0,4.5 1.5,8.25 3.75,11.7 2.1,3.15 4.95,4.8 8.55,5.25 4.35,0.75 8.4,-0.15 12,-2.55 6.15,-4.2 12,-8.7 17.7,-13.5 0.15,-0.15 0.3,-0.3 0.45,-0.6 0.75,-0.9 0.6,-3.45 -0.45,-4.35 -0.6,-0.45 -2.25,-0.45 -3,0.15 -1.65,1.2 -3.45,2.55 -5.1,3.9 -3.45,3.3 -7.35,5.85 -11.25,8.4 -2.25,1.5 -4.8,2.25 -7.5,2.55 -1.95,0.3 -3.45,-0.75 -4.35,-2.55 -1.65,-3.15 -1.65,-6.6 -0.3,-9.9 1.5,-4.2 3.15,-8.4 4.35,-12.75 1.8,-6.75 5.4,-12.45 9.3,-17.55 z"
         style="font-style:normal;font-variant:normal;font-weight:normal;font-stretch:normal;font-size:150px;font-family:'goodvibes regular';-inkscape-font-specification:'goodvibes regular, ';text-align:center;text-anchor:middle;fill:#000000;fill-opacity:1;stroke:#000000;stroke-opacity:1;stroke-width:3.13039614;stroke-miterlimit:4;stroke-dasharray:none;fill-rule:evenodd"
         id="path5262" />
    </g>
    <path
       inkscape:connector-curvature="0"
       style="fill:#000000;fill-rule:evenodd"
       d="m 194.3278,194.08429 14.80767,0 0,-50.22226 c 0,-18.13965 -12.48383,-24.2381 -30.62762,-24.2381 -11.03299,0 -19.16022,2.89755 -24.82018,10.74198 l 11.61092,8.85258 c 2.6107,-4.20912 6.24188,-5.66809 13.93468,-5.66809 10.5945,0 15.09453,2.47547 15.09453,9.43871 l 0,7.69272 -20.46756,0 c -15.82003,0 -23.94718,10.02071 -23.94718,21.77506 0,12.77483 9.578,22.5004 25.98003,22.5004 10.01656,0 15.09859,-2.3197 18.14379,-7.40587 l 0.29092,0 0,6.53287 z m 0,-25.84066 c 0,11.47156 -4.20903,12.77483 -16.54538,12.77483 -10.01656,0 -13.93882,-4.3566 -13.93882,-9.28699 0,-5.37303 4.06569,-8.86086 12.77897,-8.86086 l 17.70523,0 0,5.37302 z"
       id="path4862" />
    <path
       inkscape:connector-curvature="0"
       style="fill:#000000;fill-rule:evenodd"
       d="m 225.39806,194.08429 14.80361,0 0,-44.27537 c 0,-10.73386 7.11487,-15.38561 14.37325,-15.38561 3.77461,0 6.24188,1.01643 9.72557,3.63541 l 10.73792,-12.77491 c -4.50011,-3.48369 -9.43051,-5.65988 -15.38553,-5.65988 -7.83623,0 -14.51667,2.90575 -19.16021,8.70914 l -0.291,0 0,-7.83623 -14.80361,0 0,73.58745 z"
       id="path4864" />
    <path
       inkscape:connector-curvature="0"
       style="fill:#000000;fill-rule:evenodd"
       d="m 319.32199,194.08429 14.80361,0 0,-103.350286 -14.80361,0 0,37.599066 c -5.51645,-5.22553 -11.46741,-8.70914 -19.01671,-8.70914 -9.00022,0 -15.52903,4.0574 -19.73807,9.58206 -4.06568,5.21732 -5.22553,10.00437 -5.22553,28.01693 0,18.13973 1.15985,22.92669 5.22553,28.15223 4.20904,5.51645 10.73785,9.58214 19.73807,9.58214 7.5493,0 14.37317,-3.4919 19.01671,-8.5658 l 0,7.6928 z m -14.51668,-59.66098 c 13.79126,0 14.51668,12.20105 14.51668,22.79961 0,10.74206 -0.72542,22.92669 -14.51668,22.92669 -13.93468,0 -14.6601,-11.46335 -14.6601,-22.92669 0,-11.32805 0.72542,-22.79961 14.6601,-22.79961"
       id="path4866" />
    <polygon
       style="fill:#000000;fill-rule:evenodd"
       points="88.9,175.398 85.464,162.826 81.64,162.826 87.377,180.781 90.564,180.781 94.318,168.208 94.389,168.208 98.143,180.781 101.332,180.781 107.068,162.826 103.242,162.826 99.809,175.398 99.736,175.398 95.664,162.826 93.043,162.826 88.971,175.398 "
       id="polygon4868"
       transform="matrix(4.0984391,0,0,4.0984391,7.451334,-546.83562)" />
    <path
       inkscape:connector-curvature="0"
       style="fill:#000000;fill-rule:evenodd"
       d="m 491.82942,194.08429 14.80768,0 0,-50.22226 c 0,-18.13965 -12.48798,-24.2381 -30.62763,-24.2381 -11.02892,0 -19.16436,2.89755 -24.82432,10.74198 l 11.61498,8.85258 c 2.61078,-4.20912 6.23375,-5.66809 13.92656,-5.66809 10.59856,0 15.09859,2.47547 15.09859,9.43871 l 0,7.69272 -20.46755,0 c -15.81589,0 -23.95133,10.02071 -23.95133,21.77506 0,12.77483 9.58214,22.5004 25.98417,22.5004 10.01242,0 15.09859,-2.3197 18.14786,-7.40587 l 0.28685,0 0,6.53287 z m 0,-25.84066 c 0,11.47156 -4.20911,12.77483 -16.54537,12.77483 -10.0125,0 -13.93476,-4.3566 -13.93476,-9.28699 0,-5.37303 4.06568,-8.86086 12.77483,-8.86086 l 17.7053,0 0,5.37302 z"
       id="path4870" />
    <path
       inkscape:connector-curvature="0"
       style="fill:#000000;fill-rule:evenodd"
       d="m 522.90375,194.08429 14.79946,0 0,-44.27537 c 0,-10.73386 7.10675,-15.38561 14.36919,-15.38561 3.77875,0 6.24188,1.01643 9.72557,3.63541 l 10.74198,-12.77491 c -4.50003,-3.48369 -9.43871,-5.65988 -15.38552,-5.65988 -7.83623,0 -14.51254,2.90575 -19.15607,8.70914 l -0.29515,0 0,-7.83623 -14.79946,0 0,73.58745 z"
       id="path4872" />
    <path
       inkscape:connector-curvature="0"
       style="fill:#000000;fill-rule:evenodd"
       d="m 633.47967,162.87881 0,-12.20104 c 0,-19.01272 -14.07405,-31.05799 -30.32842,-31.05799 -14.22568,0 -30.33671,9.28708 -30.33671,37.8778 0,30.1932 17.56187,37.45556 32.66047,37.45556 9.86907,0 19.2995,-3.48369 26.55795,-11.90183 l -10.74206,-9.14772 c -4.35661,4.50832 -10.45514,7.11487 -16.10689,7.11487 -10.16414,0 -17.5618,-6.09845 -17.5618,-18.13965 l 45.85746,0 z m -45.85746,-12.19698 c 0.28694,-11.17641 6.81981,-17.13143 15.52904,-17.13143 8.70914,0 15.09859,5.95502 15.52895,17.13143 l -31.05799,0 z"
       id="path4874" />
    <path
       inkscape:connector-curvature="0"
       style="fill:#000000;fill-rule:evenodd"
       d="m 7.451334,40.983004 c 0,15.96343 2.319698,22.06188 7.979658,28.30384 4.065606,4.50003 10.889559,9.4305 22.356971,9.4305 11.463347,0 18.287217,-4.93047 22.352907,-9.4305 5.65988,-6.24196 7.98372,-12.34455 7.98372,-28.30384 0,-15.82408 -2.32384,-21.91845 -7.98372,-28.16038 C 56.07518,8.3225337 49.25131,3.3839337 37.787963,3.3839337 c -11.467412,0 -18.291365,4.9386 -22.356971,9.4386903 -5.65996,6.24602 -7.979658,12.3363 -7.979658,28.16038 m 45.865586,0.14344 c 0,10.5986 -0.86885,13.49615 -3.62712,17.41841 -2.18033,3.04918 -6.82387,5.37303 -11.901837,5.37303 -5.082108,0 -9.725647,-2.3197 -11.901917,-5.37303 -2.758187,-3.92226 -3.631181,-6.81981 -3.631181,-17.56185 0,-10.59856 0.872994,-13.50435 3.631181,-17.41837 2.17627,-3.04924 6.819809,-5.37305 11.901917,-5.37305 5.077967,0 9.721507,2.31972 11.901837,5.37305 2.75827,3.91402 3.62712,6.81981 3.62712,17.56181"
       id="path4876" />
    <path
       inkscape:connector-curvature="0"
       style="fill:#000000;fill-rule:evenodd"
       d="m 210.197,46.642944 0,-12.19285 c 0,-19.02086 -14.07811,-31.0661603 -30.33257,-31.0661603 -14.22974,0 -30.33663,9.2952503 -30.33663,37.8859603 0,30.18501 17.5618,37.44745 32.65633,37.44745 9.87314,0 19.30364,-3.48369 26.56202,-11.90191 l -10.74199,-9.13951 c -4.35254,4.50011 -10.44693,7.11495 -16.10689,7.11495 -10.16413,0 -17.56594,-6.09853 -17.56594,-18.14793 l 45.86567,0 z m -45.86567,-12.18876 c 0.291,-11.18463 6.82396,-17.13147 15.5331,-17.13147 8.70923,0 15.09453,5.94684 15.52895,17.13147 l -31.06205,0 z"
       id="path4878" />
    <path
       inkscape:connector-curvature="0"
       style="fill:#000000;fill-rule:evenodd"
       d="m 222.83246,77.844354 14.80361,0 0,-43.8246 c 0,-10.02068 6.24188,-15.82408 14.66011,-15.82408 8.27472,0 14.51667,5.8034 14.51667,15.82408 l 0,43.8246 14.80353,0 0,-48.91076 c 0,-16.69704 -13.06168,-25.5496603 -24.52917,-25.5496603 -7.83623,0 -14.51668,2.90579 -19.15607,8.7091703 l -0.29507,0 0,-7.8362103 -14.80361,0 0,73.5874603 z"
       id="path4880" />
    <path
       inkscape:connector-curvature="0"
       style="fill:#000000;fill-rule:evenodd"
       d="m 321.64583,65.512154 c 9.43465,8.85265 20.46764,13.20926 32.36947,13.20926 17.12737,0 30.48014,-8.27066 30.48014,-22.64383 0,-11.75025 -6.09032,-21.04552 -21.33649,-22.06193 l -12.19291,-0.86477 c -7.40173,-0.58607 -9.72151,-3.77876 -9.72151,-6.97144 0,-5.07387 3.1927,-8.85263 12.6232,-8.85263 7.98787,0 13.94289,2.76235 19.74636,6.8198 l 9.1395,-10.73381 C 375.49522,7.3143237 366.79013,3.3921237 353.86367,3.3921237 c -15.52896,0 -27.43087,7.6927703 -27.43087,22.6438703 0,12.6232 9.00022,19.88563 21.18891,20.90204 l 13.06583,1.15986 c 5.08617,0.43031 9.00022,2.0328 9.00022,7.25833 0,6.24196 -6.10259,9.43051 -14.51667,9.43051 -9.86908,0 -16.83638,-3.18449 -23.22176,-9.43051 l -10.3035,10.15593 z"
       id="path4882" />
    <path
       inkscape:connector-curvature="0"
       style="fill:#000000;fill-rule:evenodd"
       d="m 392.91359,40.983004 c 0,15.96343 2.3279,22.06188 7.98786,28.30384 4.06561,4.50003 10.88542,9.4305 22.34876,9.4305 11.47156,0 18.29137,-4.93047 22.35697,-9.4305 5.65996,-6.24196 7.97966,-12.34455 7.97966,-28.30384 0,-15.82408 -2.3197,-21.91845 -7.97966,-28.16038 -4.0656,-4.5000903 -10.88541,-9.4386903 -22.35697,-9.4386903 -11.46334,0 -18.28315,4.9386 -22.34876,9.4386903 -5.65996,6.24602 -7.98786,12.3363 -7.98786,28.16038 m 45.86566,0.14344 c 0,10.5986 -0.86479,13.49615 -3.62712,17.41841 -2.17627,3.04918 -6.81981,5.37303 -11.90192,5.37303 -5.07382,0 -9.72556,-2.3197 -11.89363,-5.37303 -2.76241,-3.92226 -3.63532,-6.81981 -3.63532,-17.56185 0,-10.59856 0.87291,-13.50435 3.63532,-17.41837 2.16807,-3.04924 6.81981,-5.37305 11.89363,-5.37305 5.08211,0 9.72565,2.31972 11.90192,5.37305 2.76233,3.91402 3.62712,6.81981 3.62712,17.56181"
       id="path4884" />
    <path
       inkscape:connector-curvature="0"
       style="fill:#000000;fill-rule:evenodd"
       d="m 466.22645,53.175894 c 0,16.6888 13.06583,25.54145 24.67667,25.54145 7.6846,0 14.36919,-2.90583 19.01273,-8.70922 l 0.28685,0 0,7.84444 14.79947,0 0,-73.5956703 -14.79947,0 0,43.8328003 c 0,10.01253 -6.24188,15.82404 -14.52074,15.82404 -8.41408,0 -14.65604,-5.81151 -14.65604,-15.82404 l 0,-43.8328003 -14.79947,0 0,48.9190003 z"
       id="path4886" />
    <path
       inkscape:connector-curvature="0"
       style="fill:#000000;fill-rule:evenodd"
       d="m 541.24021,77.844354 14.80768,0 0,-44.26723 c 0,-10.74201 7.10666,-15.38554 14.3691,-15.38554 3.77875,0 6.24188,1.01642 9.72557,3.62712 L 590.88455,9.0438737 c -4.50824,-3.48367 -9.43051,-5.65994 -15.38553,-5.65994 -7.83615,0 -14.52074,2.90579 -19.16428,8.7091703 l -0.28685,0 0,-7.8362103 -14.80768,0 0,73.5874603 z"
       id="path4888" />
    <path
       inkscape:connector-curvature="0"
       style="fill:#000000;fill-rule:evenodd"
       d="m 638.03301,56.225074 c -3.62712,4.50011 -8.85258,7.69281 -14.9429,7.69281 -12.04534,0 -19.16428,-6.82802 -19.16428,-22.79963 0,-16.10686 7.11487,-22.92667 19.16428,-22.92667 6.09032,0 11.31992,3.19269 14.9429,7.69278 l 10.88541,-9.7256 C 642.53718,8.7528737 633.6764,3.3839337 622.50405,3.3839337 c -16.97988,0 -33.38183,10.7420003 -33.38183,37.7343203 0,26.86523 16.40195,37.59909 33.38183,37.59909 11.17642,0 20.03728,-5.3731 26.41437,-12.76662 l -10.88541,-9.72565 z"
       id="path4890" />
    <path
       inkscape:connector-curvature="0"
       style="fill:#000000;fill-rule:evenodd"
       d="m 713.35824,46.642944 0,-12.19285 c 0,-19.02086 -14.09046,-31.0661603 -30.33663,-31.0661603 -14.23396,0 -30.33671,9.2952503 -30.33671,37.8859603 0,30.18501 17.56188,37.44745 32.66047,37.44745 9.86908,0 19.30779,-3.48369 26.55788,-11.90191 l -10.74199,-9.13951 c -4.3566,4.50011 -10.44692,7.11495 -16.10681,7.11495 -10.16413,0 -17.56187,-6.09853 -17.56187,-18.14793 l 45.86566,0 z m -45.86566,-12.18876 c 0.28685,-11.18463 6.81981,-17.13147 15.52903,-17.13147 8.70915,0 15.09039,5.94684 15.52896,17.13147 l -31.05799,0 z"
       id="path4892" />
    <path
       inkscape:connector-curvature="0"
       style="fill:#000000"
       d="m 110.08035,63.917884 c 13.93468,0 14.66011,-11.47156 14.66011,-22.79144 0,-11.47152 -0.72543,-22.93486 -14.66011,-22.93486 -13.78719,0 -14.51667,12.19286 -14.51667,22.93486 0,10.5986 0.72542,22.79144 14.51667,22.79144 m -29.37766,130.166406 0,-189.8233063 14.86099,0 0,7.6927803 c 4.6476,-5.0820703 11.46741,-8.5657403 19.0167,-8.5657403 8.99608,0 15.5331,4.06565 19.74221,9.5821503 4.06155,5.2255 5.2214,10.01248 5.2214,28.16037 0,17.99623 -1.15985,22.7914 -5.2214,28.00873 -4.20911,5.51653 -10.74613,9.58214 -19.74221,9.58214 -7.54929,0 -13.50025,-3.48369 -19.0167,-8.70915 l -0.0534,58.320806 c 4.93446,-5.80339 11.61084,-8.70914 19.44707,-8.70914 11.46741,0 24.52918,8.85257 24.52918,25.54145 l 0,48.91891 -14.80362,0 0,-43.83274 c 0,-10.02071 -6.24187,-15.82409 -14.51667,-15.82409 -8.41815,0 -14.65596,5.80338 -14.65596,15.82409 l 0,43.83274 -14.80768,0 z"
       id="path4894" />
    <g
       id="g4896"
       transform="matrix(4.0984391,0,0,4.0984391,7.451334,-546.83562)"
       style="fill:#000000">
      <path
         style="fill:#000000"
         inkscape:connector-curvature="0"
         d="m 152.336,57.604 -16.439,-3.057 c -0.4,-0.075 -0.838,-0.451 -0.973,-0.837 l -5.039,-11.756 c -0.188,-0.363 -0.152,-0.933 0.08,-1.271 l 9.578,-13.96 c 0.229,-0.336 0.184,-0.847 -0.105,-1.136 L 127.475,13.624 c -0.289,-0.289 -0.799,-0.336 -1.135,-0.105 l -14.205,9.748 c -0.336,0.231 -0.912,0.272 -1.277,0.092 L 99.462,18.694 c -0.387,-0.128 -0.764,-0.561 -0.84,-0.962 L 95.457,0.729 C 95.383,0.328 94.988,0 94.58,0 L 77.66,0 C 77.253,0 76.858,0.328 76.784,0.729 L 73.62,17.732 c -0.076,0.401 -0.452,0.834 -0.84,0.962 l -11.397,4.665 c -0.366,0.18 -0.942,0.139 -1.277,-0.092 L 45.902,13.519 c -0.337,-0.231 -0.848,-0.184 -1.136,0.105 L 32.802,25.587 c -0.288,0.289 -0.336,0.8 -0.105,1.136 l 9.579,13.96 c 0.23,0.338 0.266,0.908 0.079,1.271 l -5.04,11.756 c -0.134,0.386 -0.571,0.762 -0.973,0.837 l -16.438,3.057 c -0.402,0.076 -0.729,0.47 -0.729,0.878 l 10e-4,16.919 c 0,0.408 0.328,0.805 0.729,0.878 l 16.035,2.984 c 0.401,0.073 0.83,0.454 0.952,0.843 l 5.006,12.505 c 0.179,0.367 0.137,0.941 -0.095,1.277 l -9.108,13.273 c -0.23,0.336 -0.183,0.848 0.105,1.137 l 11.965,11.963 c 0.288,0.287 0.799,0.334 1.136,0.105 l 13.038,-8.949 c 0.336,-0.23 0.899,-0.248 1.25,-0.043 l 5.75,3.07 c 0.364,0.186 0.789,0.029 0.945,-0.348 L 78.74,85.449 c 0.157,-0.377 0,-0.858 -0.348,-1.071 l -1.439,-0.881 c -0.266,-0.162 -0.627,-0.441 -0.91,-0.697 -5.191,-3.324 -8.635,-9.139 -8.635,-15.761 0,-10.334 8.378,-18.711 18.711,-18.711 10.333,0 18.71,8.377 18.71,18.711 0,6.622 -3.443,12.437 -8.635,15.761 -0.281,0.256 -0.643,0.535 -0.908,0.697 l -1.439,0.881 c -0.346,0.213 -0.504,0.694 -0.348,1.071 l 11.855,28.648 c 0.156,0.377 0.58,0.533 0.945,0.348 l 5.75,-3.07 c 0.352,-0.205 0.914,-0.188 1.25,0.043 l 13.039,8.949 c 0.336,0.229 0.848,0.182 1.135,-0.105 l 11.965,-11.963 c 0.289,-0.289 0.336,-0.801 0.105,-1.137 l -9.109,-13.273 c -0.23,-0.336 -0.273,-0.91 -0.094,-1.277 l 5.006,-12.505 c 0.123,-0.389 0.549,-0.77 0.951,-0.843 l 16.035,-2.984 c 0.4,-0.073 0.729,-0.47 0.729,-0.878 l 0.002,-16.919 c 0.001,-0.409 -0.327,-0.803 -0.727,-0.879 z m -2.874,15.947 -13.822,2.572 c -1.047,0.207 -1.727,0.645 -2.313,1.151 -0.531,0.487 -1.004,1.053 -1.337,1.934 l -4.971,12.415 c -0.317,0.736 -0.384,1.356 -0.39,1.924 0.021,0.896 0.168,1.758 0.84,2.781 l 7.834,11.416 -8.782,8.781 -11.184,-7.676 c -0.979,-0.648 -1.855,-0.805 -2.705,-0.818 -0.717,0.008 -1.453,0.127 -2.276,0.568 l -10e-4,0 -2.903,1.551 -9.744,-23.547 c 0.234,-0.169 0.45,-0.343 0.668,-0.528 C 104.423,82.1 108.43,75.227 108.43,67.438 108.428,55.114 98.443,45.128 86.12,45.126 73.798,45.128 63.812,55.114 63.808,67.438 c 0.002,7.789 4.008,14.661 10.056,18.636 0.216,0.184 0.431,0.357 0.668,0.528 l -9.743,23.548 -2.903,-1.551 c -0.835,-0.447 -1.583,-0.561 -2.281,-0.568 -0.86,0.014 -1.729,0.172 -2.708,0.822 l -11.177,7.672 -8.784,-8.781 7.835,-11.42 c 0.666,-1.021 0.817,-1.878 0.838,-2.777 -0.008,-0.582 -0.082,-1.203 -0.388,-1.92 L 40.242,79.185 C 39.907,78.309 39.433,77.752 38.908,77.27 38.319,76.766 37.645,76.331 36.588,76.122 L 22.777,73.552 22.776,61.133 37,58.484 c 1.031,-0.207 1.692,-0.624 2.277,-1.111 0.521,-0.463 0.994,-0.997 1.346,-1.846 l 0.002,10e-4 5.01,-11.69 c 0.338,-0.739 0.433,-1.396 0.439,-2.036 -0.019,-0.875 -0.164,-1.731 -0.819,-2.743 l -8.316,-12.117 8.782,-8.782 12.348,8.475 c 1.031,0.672 1.878,0.813 2.774,0.833 0.586,-0.005 1.206,-0.08 1.926,-0.389 l 11.354,-4.647 c 0.879,-0.346 1.433,-0.826 1.907,-1.352 0.494,-0.586 0.915,-1.248 1.126,-2.276 L 79.91,4 92.328,4 95.08,18.79 c 0.216,1.047 0.637,1.707 1.13,2.291 0.478,0.53 1.032,1.01 1.919,1.357 l 11.356,4.649 c 0.712,0.303 1.318,0.377 1.908,0.385 0.888,-0.023 1.744,-0.162 2.774,-0.833 l 12.352,-8.478 8.781,8.783 -8.305,12.103 c -0.668,0.997 -0.814,1.876 -0.834,2.757 0.006,0.625 0.098,1.263 0.413,1.97 l 5.038,11.756 0.001,0 c 0.354,0.85 0.827,1.383 1.349,1.846 0.583,0.485 1.238,0.902 2.272,1.111 l 14.228,2.646 0,12.418 z"
         id="path4898" />
    </g>
    <g
       transform="translate(-349.01177,-1960.1116)"
       style="font-style:normal;font-weight:normal;font-size:40px;line-height:125%;font-family:sans-serif;letter-spacing:0px;word-spacing:0px;fill:#000000;fill-opacity:1;stroke:none;stroke-width:1px;stroke-linecap:butt;stroke-linejoin:miter;stroke-opacity:1"
       id="flowRoot5557">
      <path
         d="m 1254.8025,2096.3306 -10.3272,0 0,-34.9365 q 0,-4.2298 -0.4943,-7.9102 -0.4944,-3.7353 -1.8128,-5.8227 -1.3733,-2.3072 -3.9551,-3.4058 -2.5818,-1.1536 -6.7016,-1.1536 -4.2298,0 -8.844,2.0874 -4.6143,2.0874 -8.844,5.3284 l 0,45.813 -10.3272,0 0,-85.4736 10.3272,0 0,30.9265 q 4.834,-4.01 9.9975,-6.2622 5.1636,-2.2522 10.6019,-2.2522 9.9426,0 15.1611,5.9875 5.2185,5.9876 5.2185,17.2486 l 0,39.8254 z"
         style="font-size:112.5px"
         id="path4222" />
      <path
         d="m 1306.5481,2095.7813 q -2.9114,0.769 -6.3721,1.2634 -3.4057,0.4944 -6.0974,0.4944 -9.3933,0 -14.2822,-5.0537 -4.8889,-5.0537 -4.8889,-16.2048 l 0,-32.6294 -6.9763,0 0,-8.6792 6.9763,0 0,-17.6331 10.3271,0 0,17.6331 21.3135,0 0,8.6792 -21.3135,0 0,27.9602 q 0,4.834 0.2197,7.5805 0.2198,2.6917 1.5381,5.0537 1.2085,2.1973 3.2959,3.241 2.1424,0.9888 6.482,0.9888 2.5268,0 5.2734,-0.7141 2.7466,-0.7691 3.9551,-1.2635 l 0.5493,0 0,9.2835 z"
         style="font-size:112.5px"
         id="path4224" />
      <path
         d="m 1350.9329,2095.7813 q -2.9114,0.769 -6.3721,1.2634 -3.4058,0.4944 -6.0974,0.4944 -9.3933,0 -14.2822,-5.0537 -4.889,-5.0537 -4.889,-16.2048 l 0,-32.6294 -6.9763,0 0,-8.6792 6.9763,0 0,-17.6331 10.3272,0 0,17.6331 21.3135,0 0,8.6792 -21.3135,0 0,27.9602 q 0,4.834 0.2197,7.5805 0.2197,2.6917 1.5381,5.0537 1.2085,2.1973 3.2959,3.241 2.1423,0.9888 6.4819,0.9888 2.5269,0 5.2735,-0.7141 2.7465,-0.7691 3.955,-1.2635 l 0.5494,0 0,9.2835 z"
         style="font-size:112.5px"
         id="path4226" />
      <path
         d="m 1417.4551,2064.9097 q 0,7.4707 -2.1424,13.678 -2.1423,6.1523 -6.0424,10.437 -3.6255,4.0649 -8.5694,6.3171 -4.8889,2.1973 -10.3821,2.1973 -4.779,0 -8.6792,-1.0437 -3.8452,-1.0437 -7.8552,-3.241 l 0,25.708 -10.3271,0 0,-83.9904 10.3271,0 0,6.427 q 4.1199,-3.4607 9.2285,-5.7679 5.1636,-2.362 10.9864,-2.362 11.0962,0 17.2485,8.4045 6.2073,8.3496 6.2073,23.2361 z m -10.6568,0.2747 q 0,-11.0962 -3.7902,-16.5894 -3.7903,-5.4932 -11.6456,-5.4932 -4.4494,0 -8.9538,1.9227 -4.5044,1.9226 -8.6243,5.0537 l 0,34.7717 q 4.3946,1.9775 7.5257,2.6916 3.186,0.7142 7.196,0.7142 8.6243,0 13.4583,-5.8228 4.8339,-5.8228 4.8339,-17.2485 z"
         style="font-size:112.5px"
         id="path4228" />
      <path
         d="m 1477.3855,2078.6426 q 0,8.4046 -6.9763,13.7879 -6.9214,5.3833 -18.9514,5.3833 -6.8116,0 -12.5245,-1.5931 -5.6579,-1.6479 -9.5031,-3.5705 l 0,-11.5906 0.5493,0 q 4.8889,3.6804 10.8765,5.8777 5.9875,2.1423 11.4807,2.1423 6.8115,0 10.6567,-2.1972 3.8452,-2.1973 3.8452,-6.9214 0,-3.6255 -2.0874,-5.4932 -2.0874,-1.8677 -8.02,-3.186 -2.1973,-0.4944 -5.7678,-1.1536 -3.5156,-0.6592 -6.427,-1.4282 -8.075,-2.1423 -11.4807,-6.2622 -3.3509,-4.1748 -3.3509,-10.2173 0,-3.7903 1.5381,-7.1411 1.593,-3.3508 4.7791,-5.9876 3.0761,-2.5818 7.8003,-4.0649 4.779,-1.5381 10.6567,-1.5381 5.4932,0 11.0962,1.3733 5.658,1.3184 9.3933,3.241 l 0,11.0412 -0.5493,0 q -3.9551,-2.9114 -9.613,-4.8889 -5.658,-2.0325 -11.0962,-2.0325 -5.658,0 -9.5581,2.1973 -3.9002,2.1423 -3.9002,6.427 0,3.7903 2.3621,5.7129 2.3071,1.9226 7.4707,3.1311 2.8564,0.6592 6.372,1.3184 3.5706,0.6591 5.9327,1.2085 7.196,1.6479 11.0962,5.6579 3.9001,4.065 3.9001,10.7666 z"
         style="font-size:112.5px"
         id="path4230" />
      <path
         d="m 1514.1897,2050.6275 -13.1287,0 0,-15.6555 13.1287,0 0,15.6555 z m 0,45.7031 -13.1287,0 0,-15.6555 13.1287,0 0,15.6555 z"
         style="font-size:112.5px"
         id="path4232" />
      <path
         d="m 1580.4922,2010.857 -39.386,102.1728 -9.5032,0 39.2212,-102.1728 9.668,0 z"
         style="font-size:112.5px"
         id="path4234" />
      <path
         d="m 1631.6885,2010.857 -39.386,102.1728 -9.5032,0 39.2212,-102.1728 9.668,0 z"
         style="font-size:112.5px"
         id="path4236" />
      <path
         d="m 1697.1121,2096.3306 -10.3272,0 0,-34.9365 q 0,-4.2298 -0.4944,-7.9102 -0.4944,-3.7353 -1.8127,-5.8227 -1.3733,-2.3072 -3.9551,-3.4058 -2.5818,-1.1536 -6.7017,-1.1536 -4.2297,0 -8.8439,2.0874 -4.6143,2.0874 -8.844,5.3284 l 0,45.813 -10.3272,0 0,-85.4736 10.3272,0 0,30.9265 q 4.8339,-4.01 9.9975,-6.2622 5.1636,-2.2522 10.6018,-2.2522 9.9426,0 15.1612,5.9875 5.2185,5.9876 5.2185,17.2486 l 0,39.8254 z"
         style="font-size:112.5px"
         id="path4238" />
      <path
         d="m 1764.678,2096.3306 -10.2722,0 0,-6.5369 q -1.3733,0.9339 -3.7354,2.6368 -2.3071,1.6479 -4.5044,2.6367 -2.5818,1.2634 -5.9326,2.0874 -3.3508,0.8789 -7.8552,0.8789 -8.2947,0 -14.0625,-5.4932 -5.7678,-5.4931 -5.7678,-14.0075 0,-6.9764 2.9663,-11.261 3.0212,-4.3396 8.5693,-6.8116 5.603,-2.4719 13.4582,-3.3508 7.8553,-0.8789 16.8641,-1.3183 l 0,-1.5931 q 0,-3.5156 -1.2635,-5.8227 -1.2085,-2.3071 -3.5156,-3.6255 -2.1973,-1.2634 -5.2734,-1.7029 -3.0762,-0.4394 -6.427,-0.4394 -4.065,0 -9.0638,1.0986 -4.9987,1.0437 -10.3271,3.0762 l -0.5493,0 0,-10.492 q 3.0212,-0.824 8.7341,-1.8127 5.7129,-0.9888 11.261,-0.9888 6.4819,0 11.261,1.0986 4.834,1.0437 8.3496,3.6255 3.4607,2.5269 5.2734,6.5369 1.8128,4.01 1.8128,9.9426 l 0,41.6382 z m -10.2722,-15.1062 0,-17.0837 q -4.7242,0.2746 -11.1512,0.8239 -6.372,0.5494 -10.1074,1.5931 -4.4494,1.2634 -7.196,3.955 -2.7466,2.6368 -2.7466,7.3059 0,5.2735 3.186,7.9651 3.1861,2.6367 9.7229,2.6367 5.4383,0 9.9427,-2.0874 4.5043,-2.1423 8.3496,-5.1086 z"
         style="font-size:112.5px"
         id="path4240" />
      <path
         d="m 1830.0466,2092.4854 q -5.1635,2.4719 -9.8327,3.8452 -4.6143,1.3733 -9.8328,1.3733 -6.6467,0 -12.1948,-1.9226 -5.5481,-1.9776 -9.5032,-5.9326 -4.01,-3.9551 -6.2073,-9.9976 -2.1972,-6.0425 -2.1972,-14.1174 0,-15.0513 8.2397,-23.6206 8.2947,-8.5694 21.8628,-8.5694 5.2734,0 10.3272,1.4832 5.1086,1.4831 9.3383,3.6255 l 0,11.4807 -0.5493,0 q -4.7241,-3.6804 -9.7778,-5.658 -4.9988,-1.9775 -9.7778,-1.9775 -8.7891,0 -13.8978,5.9326 -5.0537,5.8777 -5.0537,17.3035 0,11.0962 4.9439,17.0837 4.9988,5.9326 14.0076,5.9326 3.1311,0 6.372,-0.8239 3.241,-0.824 5.8228,-2.1424 2.2522,-1.1535 4.2297,-2.417 1.9776,-1.3183 3.1311,-2.2522 l 0.5493,0 0,11.3709 z"
         style="font-size:112.5px"
         id="path4242" />
      <path
         d="m 1899.0408,2096.3306 -13.6231,0 -24.6094,-26.8616 -6.7016,6.3721 0,20.4895 -10.3272,0 0,-85.4736 10.3272,0 0,54.8217 29.8279,-30.7067 13.0188,0 -28.5096,28.3447 30.597,33.0139 z"
         style="font-size:112.5px"
         id="path4244" />
      <path
         d="m 1957.5979,2096.3306 -10.2722,0 0,-6.5369 q -1.3733,0.9339 -3.7354,2.6368 -2.3071,1.6479 -4.5044,2.6367 -2.5817,1.2634 -5.9326,2.0874 -3.3508,0.8789 -7.8552,0.8789 -8.2947,0 -14.0625,-5.4932 -5.7678,-5.4931 -5.7678,-14.0075 0,-6.9764 2.9663,-11.261 3.0212,-4.3396 8.5693,-6.8116 5.603,-2.4719 13.4583,-3.3508 7.8552,-0.8789 16.864,-1.3183 l 0,-1.5931 q 0,-3.5156 -1.2634,-5.8227 -1.2085,-2.3071 -3.5157,-3.6255 -2.1972,-1.2634 -5.2734,-1.7029 -3.0762,-0.4394 -6.427,-0.4394 -4.0649,0 -9.0637,1.0986 -4.9988,1.0437 -10.3272,3.0762 l -0.5493,0 0,-10.492 q 3.0212,-0.824 8.7341,-1.8127 5.7129,-0.9888 11.261,-0.9888 6.482,0 11.261,1.0986 4.834,1.0437 8.3496,3.6255 3.4607,2.5269 5.2735,6.5369 1.8127,4.01 1.8127,9.9426 l 0,41.6382 z m -10.2722,-15.1062 0,-17.0837 q -4.7241,0.2746 -11.1511,0.8239 -6.3721,0.5494 -10.1075,1.5931 -4.4494,1.2634 -7.196,3.955 -2.7466,2.6368 -2.7466,7.3059 0,5.2735 3.186,7.9651 3.1861,2.6367 9.7229,2.6367 5.4383,0 9.9427,-2.0874 4.5044,-2.1423 8.3496,-5.1086 z"
         style="font-size:112.5px"
         id="path4246" />
      <path
         d="m 2027.3611,2096.3306 -10.3272,0 0,-6.427 q -4.4494,3.8452 -9.2834,5.9876 -4.834,2.1423 -10.492,2.1423 -10.9863,0 -17.4682,-8.4595 -6.427,-8.4595 -6.427,-23.4558 0,-7.8003 2.1972,-13.8977 2.2522,-6.0974 6.0425,-10.3821 3.7354,-4.1748 8.6792,-6.3721 4.9988,-2.1972 10.3272,-2.1972 4.834,0 8.5693,1.0437 3.7354,0.9888 7.8552,3.1311 l 0,-26.5869 10.3272,0 0,85.4736 z m -10.3272,-15.1062 0,-35.2112 q -4.1748,-1.8677 -7.4707,-2.5818 -3.2959,-0.7141 -7.196,-0.7141 -8.6792,0 -13.5132,6.0425 -4.834,6.0425 -4.834,17.1387 0,10.9314 3.7354,16.6443 3.7353,5.6579 11.9751,5.6579 4.3945,0 8.8989,-1.9226 4.5044,-1.9775 8.4045,-5.0537 z"
         style="font-size:112.5px"
         id="path4248" />
      <path
         d="m 2095.3665,2096.3306 -10.2723,0 0,-6.5369 q -1.3733,0.9339 -3.7353,2.6368 -2.3071,1.6479 -4.5044,2.6367 -2.5818,1.2634 -5.9326,2.0874 -3.3509,0.8789 -7.8552,0.8789 -8.2947,0 -14.0625,-5.4932 -5.7679,-5.4931 -5.7679,-14.0075 0,-6.9764 2.9663,-11.261 3.0213,-4.3396 8.5694,-6.8116 5.603,-2.4719 13.4582,-3.3508 7.8552,-0.8789 16.864,-1.3183 l 0,-1.5931 q 0,-3.5156 -1.2634,-5.8227 -1.2085,-2.3071 -3.5156,-3.6255 -2.1973,-1.2634 -5.2735,-1.7029 -3.0761,-0.4394 -6.427,-0.4394 -4.0649,0 -9.0637,1.0986 -4.9988,1.0437 -10.3271,3.0762 l -0.5493,0 0,-10.492 q 3.0212,-0.824 8.7341,-1.8127 5.7129,-0.9888 11.261,-0.9888 6.4819,0 11.261,1.0986 4.8339,1.0437 8.3496,3.6255 3.4607,2.5269 5.2734,6.5369 1.8128,4.01 1.8128,9.9426 l 0,41.6382 z m -10.2723,-15.1062 0,-17.0837 q -4.7241,0.2746 -11.1511,0.8239 -6.3721,0.5494 -10.1074,1.5931 -4.4495,1.2634 -7.1961,3.955 -2.7465,2.6368 -2.7465,7.3059 0,5.2735 3.186,7.9651 3.186,2.6367 9.7229,2.6367 5.4382,0 9.9426,-2.0874 4.5044,-2.1423 8.3496,-5.1086 z"
         style="font-size:112.5px"
         id="path4250" />
      <path
         d="m 2168.4255,2034.972 -35.8154,83.9904 -11.0413,0 11.4258,-25.5981 -24.4446,-58.3923 11.2061,0 18.8416,45.4834 19.0063,-45.4834 10.8215,0 z"
         style="font-size:112.5px"
         id="path4252" />
      <path
         d="m 2198.8027,2096.3306 -13.1286,0 0,-15.6555 13.1286,0 0,15.6555 z"
         style="font-size:112.5px"
         id="path4254" />
      <path
         d="m 2233.9041,2024.6997 -11.6456,0 0,-10.7116 11.6456,0 0,10.7116 z m -0.6592,71.6309 -10.3272,0 0,-61.3586 10.3272,0 0,61.3586 z"
         style="font-size:112.5px"
         id="path4256" />
      <path
         d="m 2305.6448,2065.6787 q 0,14.9964 -7.6905,23.6756 -7.6904,8.6792 -20.5993,8.6792 -13.0188,0 -20.7092,-8.6792 -7.6355,-8.6792 -7.6355,-23.6756 0,-14.9963 7.6355,-23.6755 7.6904,-8.7341 20.7092,-8.7341 12.9089,0 20.5993,8.7341 7.6905,8.6792 7.6905,23.6755 z m -10.6568,0 q 0,-11.9201 -4.6692,-17.6879 -4.6691,-5.8228 -12.9638,-5.8228 -8.4046,0 -13.0737,5.8228 -4.6143,5.7678 -4.6143,17.6879 0,11.5357 4.6692,17.5232 4.6692,5.9327 13.0188,5.9327 8.2397,0 12.9089,-5.8777 4.7241,-5.9326 4.7241,-17.5782 z"
         style="font-size:112.5px"
         id="path4258" />
      <path
         d="m 2358.7637,2010.857 -39.386,102.1728 -9.5032,0 39.2212,-102.1728 9.668,0 z"
         style="font-size:112.5px"
         id="path4260" />
      <path
         d="m 2426.8789,2064.9097 q 0,7.4707 -2.1423,13.678 -2.1424,6.1523 -6.0425,10.437 -3.6255,4.0649 -8.5693,6.3171 -4.889,2.1973 -10.3821,2.1973 -4.7791,0 -8.6792,-1.0437 -3.8452,-1.0437 -7.8552,-3.241 l 0,25.708 -10.3272,0 0,-83.9904 10.3272,0 0,6.427 q 4.1198,-3.4607 9.2285,-5.7679 5.1635,-2.362 10.9863,-2.362 11.0962,0 17.2485,8.4045 6.2073,8.3496 6.2073,23.2361 z m -10.6567,0.2747 q 0,-11.0962 -3.7903,-16.5894 -3.7903,-5.4932 -11.6455,-5.4932 -4.4495,0 -8.9539,1.9227 -4.5044,1.9226 -8.6242,5.0537 l 0,34.7717 q 4.3945,1.9775 7.5256,2.6916 3.186,0.7142 7.196,0.7142 8.6243,0 13.4583,-5.8228 4.834,-5.8228 4.834,-17.2485 z"
         style="font-size:112.5px"
         id="path4262" />
      <path
         d="m 2481.2612,2046.2329 -0.5493,0 q -2.3071,-0.5493 -4.5044,-0.769 -2.1423,-0.2747 -5.1086,-0.2747 -4.7791,0 -9.2285,2.1424 -4.4495,2.0874 -8.5694,5.4382 l 0,43.5608 -10.3271,0 0,-61.3586 10.3271,0 0,9.0637 q 6.1524,-4.9439 10.8216,-6.9763 4.7241,-2.0874 9.613,-2.0874 2.6916,0 3.9001,0.1648 1.2085,0.1098 3.6255,0.4943 l 0,10.6018 z"
         style="font-size:112.5px"
         id="path4264" />
      <path
         d="m 2543.3889,2065.6787 q 0,14.9964 -7.6904,23.6756 -7.6904,8.6792 -20.5994,8.6792 -13.0188,0 -20.7092,-8.6792 -7.6355,-8.6792 -7.6355,-23.6756 0,-14.9963 7.6355,-23.6755 7.6904,-8.7341 20.7092,-8.7341 12.909,0 20.5994,8.7341 7.6904,8.6792 7.6904,23.6755 z m -10.6567,0 q 0,-11.9201 -4.6692,-17.6879 -4.6692,-5.8228 -12.9639,-5.8228 -8.4045,0 -13.0737,5.8228 -4.6143,5.7678 -4.6143,17.6879 0,11.5357 4.6692,17.5232 4.6692,5.9327 13.0188,5.9327 8.2398,0 12.909,-5.8777 4.7241,-5.9326 4.7241,-17.5782 z"
         style="font-size:112.5px"
         id="path4266" />
      <path
         d="m 2578.5452,2024.6997 -11.6455,0 0,-10.7116 11.6455,0 0,10.7116 z m -0.6592,73.1141 q 0,10.7666 -5.4932,16.2597 -5.4931,5.4932 -14.7217,5.4932 -2.1972,0 -5.8227,-0.4395 -3.5706,-0.4394 -5.9876,-1.0986 l 0,-9.8328 0.5494,0 q 1.538,0.6043 4.1198,1.3733 2.6367,0.7691 5.1087,0.7691 3.9551,0 6.372,-1.0987 2.417,-1.0986 3.6255,-3.2959 1.2085,-2.1972 1.5381,-5.3283 0.3845,-3.0762 0.3845,-7.5257 l 0,-49.4384 -12.799,0 0,-8.6792 23.1262,0 0,62.8418 z"
         style="font-size:112.5px"
         id="path4268" />
      <path
         d="m 2649.4619,2066.7225 -45.2087,0 q 0,5.6579 1.7029,9.8876 1.7028,4.1749 4.6691,6.8665 2.8565,2.6367 6.7566,3.9551 3.9551,1.3183 8.6792,1.3183 6.2622,0 12.5794,-2.4719 6.3721,-2.5268 9.0637,-4.9438 l 0.5493,0 0,11.261 q -5.2185,2.1972 -10.6567,3.6804 -5.4383,1.4831 -11.4258,1.4831 -15.271,0 -23.8403,-8.2397 -8.5694,-8.2947 -8.5694,-23.5108 0,-15.0512 8.1848,-23.8952 8.2398,-8.844 21.6431,-8.844 12.4146,0 19.1162,7.251 6.7566,7.2509 6.7566,20.5993 l 0,5.6031 z m -10.0525,-7.9102 q -0.055,-8.1299 -4.1198,-12.5794 -4.0101,-4.4494 -12.2498,-4.4494 -8.2947,0 -13.2385,4.8889 -4.8889,4.8889 -5.5481,12.1399 l 35.1562,0 z"
         style="font-size:112.5px"
         id="path4270" />
      <path
         d="m 2710.491,2092.4854 q -5.1636,2.4719 -9.8328,3.8452 -4.6143,1.3733 -9.8328,1.3733 -6.6467,0 -12.1948,-1.9226 -5.5481,-1.9776 -9.5032,-5.9326 -4.01,-3.9551 -6.2072,-9.9976 -2.1973,-6.0425 -2.1973,-14.1174 0,-15.0513 8.2397,-23.6206 8.2947,-8.5694 21.8628,-8.5694 5.2735,0 10.3272,1.4832 5.1086,1.4831 9.3384,3.6255 l 0,11.4807 -0.5493,0 q -4.7242,-3.6804 -9.7779,-5.658 -4.9988,-1.9775 -9.7778,-1.9775 -8.7891,0 -13.8977,5.9326 -5.0537,5.8777 -5.0537,17.3035 0,11.0962 4.9438,17.0837 4.9988,5.9326 14.0076,5.9326 3.1311,0 6.3721,-0.8239 3.2409,-0.824 5.8227,-2.1424 2.2522,-1.1535 4.2297,-2.417 1.9776,-1.3183 3.1312,-2.2522 l 0.5493,0 0,11.3709 z"
         style="font-size:112.5px"
         id="path4272" />
      <path
         d="m 2755.6448,2095.7813 q -2.9114,0.769 -6.3721,1.2634 -3.4058,0.4944 -6.0974,0.4944 -9.3933,0 -14.2822,-5.0537 -4.8889,-5.0537 -4.8889,-16.2048 l 0,-32.6294 -6.9764,0 0,-8.6792 6.9764,0 0,-17.6331 10.3271,0 0,17.6331 21.3135,0 0,8.6792 -21.3135,0 0,27.9602 q 0,4.834 0.2197,7.5805 0.2198,2.6917 1.5381,5.0537 1.2085,2.1973 3.2959,3.241 2.1423,0.9888 6.4819,0.9888 2.5269,0 5.2735,-0.7141 2.7466,-0.7691 3.9551,-1.2635 l 0.5493,0 0,9.2835 z"
         style="font-size:112.5px"
         id="path4274" />
      <path
         d="m 2805.248,2010.857 -39.3859,102.1728 -9.5032,0 39.2212,-102.1728 9.6679,0 z"
         style="font-size:112.5px"
         id="path4276" />
      <path
         d="m 2874.6267,2069.7986 q 0,12.4695 -8.2397,20.3797 -8.1849,7.8552 -20.105,7.8552 -6.0425,0 -10.9863,-1.8677 -4.9439,-1.8677 -8.7342,-5.5481 -4.7241,-4.5593 -7.3059,-12.0849 -2.5268,-7.5257 -2.5268,-18.1275 0,-10.8765 2.3071,-19.281 2.362,-8.4045 7.4707,-14.9414 4.834,-6.2073 12.4695,-9.668 7.6355,-3.5156 17.7978,-3.5156 3.241,0 5.4383,0.2747 2.1972,0.2746 4.4494,0.9887 l 0,10.492 -0.5493,0 q -1.5381,-0.824 -4.6692,-1.5381 -3.0762,-0.7691 -6.3171,-0.7691 -11.8103,0 -18.8416,7.4158 -7.0312,7.3609 -8.1848,19.9402 4.6143,-2.8015 9.0637,-4.2297 4.5044,-1.4832 10.3821,-1.4832 5.2185,0 9.1736,0.9888 4.01,0.9338 8.1848,3.8452 4.834,3.3508 7.251,8.4595 2.4719,5.1086 2.4719,12.4145 z m -11.1511,0.4395 q 0,-5.1087 -1.5381,-8.4595 -1.4832,-3.3508 -4.9438,-5.8228 -2.5269,-1.7578 -5.6031,-2.3071 -3.0761,-0.5493 -6.427,-0.5493 -4.6692,0 -8.6792,1.0986 -4.01,1.0987 -8.2397,3.4058 -0.1099,1.2085 -0.1648,2.3621 -0.055,1.0986 -0.055,2.8015 0,8.6792 1.7578,13.7329 1.8127,4.9988 4.9438,7.9101 2.5269,2.417 5.4382,3.5706 2.9664,1.0986 6.427,1.0986 7.9651,0 12.5245,-4.834 4.5593,-4.8889 4.5593,-14.0075 z"
         style="font-size:112.5px"
         id="path4278" />
      <path
         d="m 2944.9392,2055.4065 q 0,22.0276 -6.9214,32.3548 -6.8664,10.2722 -21.3684,10.2722 -14.7217,0 -21.5332,-10.437 -6.7566,-10.437 -6.7566,-32.0801 0,-21.8079 6.8665,-32.1899 6.8664,-10.4371 21.4233,-10.4371 14.7217,0 21.4783,10.6018 6.8115,10.5469 6.8115,31.9153 z m -14.447,24.939 q 1.9226,-4.4495 2.5818,-10.437 0.7141,-6.0425 0.7141,-14.502 0,-8.3496 -0.7141,-14.5019 -0.6592,-6.1524 -2.6367,-10.437 -1.9227,-4.2298 -5.2735,-6.3721 -3.2959,-2.1423 -8.5144,-2.1423 -5.1636,0 -8.5693,2.1423 -3.3509,2.1423 -5.3284,6.4819 -1.8677,4.065 -2.5818,10.6018 -0.6592,6.5369 -0.6592,14.3372 0,8.5693 0.6043,14.3372 0.6042,5.7678 2.5818,10.3271 1.8127,4.2847 5.1086,6.5369 3.3509,2.2522 8.844,2.2522 5.1636,0 8.5694,-2.1424 3.4057,-2.1423 5.2734,-6.4819 z"
         style="font-size:112.5px"
         id="path4280" />
      <path
         d="m 3017.8884,2069.7986 q 0,12.4695 -8.2397,20.3797 -8.1848,7.8552 -20.105,7.8552 -6.0425,0 -10.9863,-1.8677 -4.9439,-1.8677 -8.7342,-5.5481 -4.7241,-4.5593 -7.3059,-12.0849 -2.5268,-7.5257 -2.5268,-18.1275 0,-10.8765 2.3071,-19.281 2.3621,-8.4045 7.4707,-14.9414 4.834,-6.2073 12.4695,-9.668 7.6355,-3.5156 17.7978,-3.5156 3.241,0 5.4383,0.2747 2.1972,0.2746 4.4494,0.9887 l 0,10.492 -0.5493,0 q -1.5381,-0.824 -4.6692,-1.5381 -3.0761,-0.7691 -6.3171,-0.7691 -11.8103,0 -18.8416,7.4158 -7.0312,7.3609 -8.1848,19.9402 4.6143,-2.8015 9.0637,-4.2297 4.5044,-1.4832 10.3821,-1.4832 5.2185,0 9.1736,0.9888 4.01,0.9338 8.1848,3.8452 4.834,3.3508 7.251,8.4595 2.4719,5.1086 2.4719,12.4145 z m -11.1511,0.4395 q 0,-5.1087 -1.5381,-8.4595 -1.4831,-3.3508 -4.9438,-5.8228 -2.5269,-1.7578 -5.6031,-2.3071 -3.0761,-0.5493 -6.427,-0.5493 -4.6691,0 -8.6792,1.0986 -4.01,1.0987 -8.2397,3.4058 -0.1099,1.2085 -0.1648,2.3621 -0.055,1.0986 -0.055,2.8015 0,8.6792 1.7578,13.7329 1.8127,4.9988 4.9438,7.9101 2.5269,2.417 5.4383,3.5706 2.9663,1.0986 6.427,1.0986 7.9651,0 12.5244,-4.834 4.5593,-4.8889 4.5593,-14.0075 z"
         style="font-size:112.5px"
         id="path4282" />
      <path
         d="m 3088.3108,2096.3306 -55.3711,0 0,-11.4807 q 5.7678,-4.9439 11.5356,-9.8877 5.8228,-4.9439 10.8216,-9.8328 10.5469,-10.2173 14.447,-16.2048 3.9001,-6.0425 3.9001,-13.0188 0,-6.3721 -4.2297,-9.9426 -4.1748,-3.6255 -11.7004,-3.6255 -4.9988,0 -10.8216,1.7578 -5.8227,1.7578 -11.3708,5.3833 l -0.5493,0 0,-11.5356 q 3.9001,-1.9227 10.382,-3.5157 6.5369,-1.593 12.6343,-1.593 12.5794,0 19.7205,6.0974 7.1411,6.0425 7.1411,16.4246 0,4.6692 -1.2085,8.7341 -1.1536,4.01 -3.4607,7.6355 -2.1423,3.4058 -5.0537,6.7017 -2.8564,3.2959 -6.9763,7.3059 -5.8777,5.7678 -12.1399,11.206 -6.2622,5.3833 -11.7005,9.9976 l 44.0003,0 0,9.3933 z"
         style="font-size:112.5px"
         id="path4284" />
      <path
         d="m 3138.4084,2065.514 -34.2773,0 0,-9.9427 34.2773,0 0,9.9427 z"
         style="font-size:112.5px"
         id="path4286" />
      <path
         d="m 3176.2014,2024.6997 -11.6455,0 0,-10.7116 11.6455,0 0,10.7116 z m -0.6592,73.1141 q 0,10.7666 -5.4931,16.2597 -5.4932,5.4932 -14.7217,5.4932 -2.1973,0 -5.8228,-0.4395 -3.5705,-0.4394 -5.9875,-1.0986 l 0,-9.8328 0.5493,0 q 1.5381,0.6043 4.1199,1.3733 2.6367,0.7691 5.1086,0.7691 3.9551,0 6.3721,-1.0987 2.417,-1.0986 3.6255,-3.2959 1.2085,-2.1972 1.5381,-5.3283 0.3845,-3.0762 0.3845,-7.5257 l 0,-49.4384 -12.7991,0 0,-8.6792 23.1262,0 0,62.8418 z"
         style="font-size:112.5px"
         id="path4288" />
      <path
         d="m 3243.4377,2096.3306 -10.2722,0 0,-6.5369 q -1.3733,0.9339 -3.7353,2.6368 -2.3072,1.6479 -4.5044,2.6367 -2.5818,1.2634 -5.9326,2.0874 -3.3509,0.8789 -7.8553,0.8789 -8.2946,0 -14.0625,-5.4932 -5.7678,-5.4931 -5.7678,-14.0075 0,-6.9764 2.9663,-11.261 3.0213,-4.3396 8.5694,-6.8116 5.603,-2.4719 13.4582,-3.3508 7.8552,-0.8789 16.864,-1.3183 l 0,-1.5931 q 0,-3.5156 -1.2634,-5.8227 -1.2085,-2.3071 -3.5156,-3.6255 -2.1973,-1.2634 -5.2735,-1.7029 -3.0761,-0.4394 -6.427,-0.4394 -4.0649,0 -9.0637,1.0986 -4.9988,1.0437 -10.3271,3.0762 l -0.5494,0 0,-10.492 q 3.0213,-0.824 8.7342,-1.8127 5.7129,-0.9888 11.261,-0.9888 6.4819,0 11.261,1.0986 4.8339,1.0437 8.3496,3.6255 3.4607,2.5269 5.2734,6.5369 1.8127,4.01 1.8127,9.9426 l 0,41.6382 z m -10.2722,-15.1062 0,-17.0837 q -4.7241,0.2746 -11.1511,0.8239 -6.3721,0.5494 -10.1074,1.5931 -4.4495,1.2634 -7.1961,3.955 -2.7465,2.6368 -2.7465,7.3059 0,5.2735 3.186,7.9651 3.186,2.6367 9.7229,2.6367 5.4382,0 9.9426,-2.0874 4.5044,-2.1423 8.3496,-5.1086 z"
         style="font-size:112.5px"
         id="path4290" />
      <path
         d="m 3308.8064,2092.4854 q -5.1636,2.4719 -9.8328,3.8452 -4.6142,1.3733 -9.8327,1.3733 -6.6468,0 -12.1949,-1.9226 -5.5481,-1.9776 -9.5031,-5.9326 -4.01,-3.9551 -6.2073,-9.9976 -2.1973,-6.0425 -2.1973,-14.1174 0,-15.0513 8.2398,-23.6206 8.2947,-8.5694 21.8628,-8.5694 5.2734,0 10.3271,1.4832 5.1087,1.4831 9.3384,3.6255 l 0,11.4807 -0.5493,0 q -4.7241,-3.6804 -9.7779,-5.658 -4.9987,-1.9775 -9.7778,-1.9775 -8.789,0 -13.8977,5.9326 -5.0537,5.8777 -5.0537,17.3035 0,11.0962 4.9438,17.0837 4.9988,5.9326 14.0076,5.9326 3.1311,0 6.3721,-0.8239 3.241,-0.824 5.8227,-2.1424 2.2522,-1.1535 4.2298,-2.417 1.9775,-1.3183 3.1311,-2.2522 l 0.5493,0 0,11.3709 z"
         style="font-size:112.5px"
         id="path4292" />
      <path
         d="m 3377.8005,2096.3306 -13.623,0 -24.6094,-26.8616 -6.7016,6.3721 0,20.4895 -10.3272,0 0,-85.4736 10.3272,0 0,54.8217 29.8278,-30.7067 13.0188,0 -28.5095,28.3447 30.5969,33.0139 z"
         style="font-size:112.5px"
         id="path4294" />
    </g>
    <flowRoot
       xml:space="preserve"
       id="flowRoot5565"
       style="font-style:normal;font-weight:normal;font-size:40px;line-height:125%;font-family:sans-serif;letter-spacing:0px;word-spacing:0px;fill:#000000;fill-opacity:1;stroke:none;stroke-width:1px;stroke-linecap:butt;stroke-linejoin:miter;stroke-opacity:1"
       transform="translate(0,-1800)"><flowRegion
         id="flowRegion5567"><rect
           id="rect5569"
           width="626.66669"
           height="93.333336"
           x="2453.3333"
           y="2166.6667" /></flowRegion><flowPara
         id="flowPara5571" /></flowRoot>    <flowRoot
       xml:space="preserve"
       id="flowRoot5573"
       style="font-style:normal;font-weight:normal;font-size:40px;line-height:125%;font-family:sans-serif;letter-spacing:0px;word-spacing:0px;fill:#000000;fill-opacity:1;stroke:none;stroke-width:1px;stroke-linecap:butt;stroke-linejoin:miter;stroke-opacity:1"
       transform="translate(0,-1800)"><flowRegion
         id="flowRegion5575"><rect
           id="rect5577"
           width="800"
           height="160"
           x="1420"
           y="2373.3333" /></flowRegion><flowPara
         id="flowPara5579" /></flowRoot>    <g
       id="layer10"
       style="display:inline;fill:none"
       transform="matrix(2.4142135,0,0,2.4142135,7.451333,-1311.0428)">
      <rect
         width="300"
         height="300"
         x="0"
         y="0"
         id="rect3480"
         style="display:inline;overflow:visible;visibility:visible;opacity:1;fill:none;fill-opacity:1;fill-rule:evenodd;stroke:none;stroke-width:1px;stroke-linecap:butt;stroke-linejoin:miter;stroke-miterlimit:4;stroke-dasharray:none;stroke-dashoffset:0;stroke-opacity:1;marker:none;marker-start:none;marker-mid:none;marker-end:none;enable-background:accumulate" />
    </g>
    <g
       id="layer2"
       style="display:inline;fill:#000000"
       transform="matrix(2.4142135,0,0,2.4142135,7.451333,-1311.0428)">
      <path
         inkscape:connector-curvature="0"
         d="m 42,17.9375 c -3.403057,0 -6.682609,0.511974 -9.8125,1.375 L 55.3125,39.875 29.40625,68.625 5.78125,47.6875 C 5.3174547,50.02359 5.0625,52.403343 5.0625,54.875 c 0,20.385286 16.552215,36.937502 36.9375,36.9375 3.895212,-3e-6 7.631023,-0.629395 11.15625,-1.75 l 29.875,26.4375 c 5.675386,-12.33031 14.059969,-22.873775 24.3125,-30.6875 l -28.8125,-25.5 c 0.260026,-1.764087 0.40625,-3.602035 0.40625,-5.4375 l 0,-0.25 C 78.77797,34.342413 62.283216,17.937501 42,17.9375 Z m 177.5,167.125 c -4.76658,12.82036 -12.38246,24.04016 -21.96875,32.6875 l 24.0625,21.3125 c -0.32884,1.97496 -0.53125,3.99501 -0.53125,6.0625 0,20.38529 16.55222,36.93749 36.9375,36.9375 3.68702,10e-6 7.23317,-0.55523 10.59375,-1.5625 l -24.0625,-21.375 25.84375,-28.5625 23.9375,21.25 c 0.40143,-2.17994 0.625,-4.39203 0.625,-6.6875 l 0,-0.3125 c -0.15953,-20.2826 -16.65428,-36.625 -36.9375,-36.625 -3.69785,-1e-5 -7.25649,0.54887 -10.625,1.5625 L 219.5,185.0625 Z"
         id="path3311"
         style="display:inline;overflow:visible;visibility:visible;opacity:1;fill:#000000;fill-opacity:1;fill-rule:evenodd;stroke:none;stroke-width:1px;stroke-linecap:butt;stroke-linejoin:miter;stroke-miterlimit:4;stroke-dasharray:none;stroke-dashoffset:0;stroke-opacity:1;marker:none;marker-start:none;marker-mid:none;marker-end:none;enable-background:accumulate" />
      <path
         inkscape:connector-curvature="0"
         d="m 258,17.9375 c -20.28322,1e-6 -36.77797,16.404913 -36.9375,36.6875 l 0,0.25 c 0,1.835465 0.14622,3.673413 0.40625,5.4375 l -28.8125,25.5 c 10.25253,7.813724 18.63711,18.35719 24.3125,30.6875 l 29.875,-26.4375 c 3.52523,1.120605 7.26104,1.749997 11.15625,1.75 20.38528,2e-6 36.9375,-16.552214 36.9375,-36.9375 0,-2.471657 -0.25495,-4.85141 -0.71875,-7.1875 l -23.625,20.9375 -25.90625,-28.75 23.125,-20.5625 C 264.68261,18.449474 261.40306,17.9375 258,17.9375 Z M 80.5,185.0625 52.625,209.75 c -3.36851,-1.01363 -6.92715,-1.56251 -10.625,-1.5625 -20.28322,0 -36.77797,16.3424 -36.9375,36.625 l 0,0.3125 c 0,2.29547 0.22357,4.50756 0.625,6.6875 l 23.9375,-21.25 25.84375,28.5625 -24.0625,21.375 c 3.36058,1.00727 6.90673,1.56251 10.59375,1.5625 20.38528,-10e-6 36.9375,-16.55221 36.9375,-36.9375 0,-2.06749 -0.20241,-4.08754 -0.53125,-6.0625 L 102.46875,217.75 C 92.882464,209.10266 85.266584,197.88286 80.5,185.0625 Z"
         id="path3335"
         style="display:inline;overflow:visible;visibility:visible;opacity:1;fill:#000000;fill-opacity:1;fill-rule:evenodd;stroke:none;stroke-width:1px;stroke-linecap:butt;stroke-linejoin:miter;stroke-miterlimit:4;stroke-dasharray:none;stroke-dashoffset:0;stroke-opacity:1;marker:none;marker-start:none;marker-mid:none;marker-end:none;enable-background:accumulate" />
    </g>
    <g
       id="layer12"
       style="display:inline;fill:#000000"
       transform="matrix(2.4142135,0,0,2.4142135,7.451333,-1311.0428)">
      <path
         inkscape:connector-curvature="0"
         d="m 150,77.5 c -38.09944,-2e-6 -68.999999,34.23202 -69,76.46875 -2e-6,26.11684 11.8471,49.17465 29.875,62.96875 -1.18992,2.01969 -1.87601,4.38005 -1.875,6.90625 -0.003,7.42941 5.91632,13.46875 13.21875,13.46875 7.30241,0 13.22172,-6.03934 13.21875,-13.46875 2.1e-4,-0.52917 -0.0355,-1.04926 -0.0937,-1.5625 l 1.8125,0 c -0.1031,0.66012 -0.15653,1.34216 -0.15625,2.03125 -0.003,7.17884 5.81821,13 13,13 7.18176,0 13.00292,-5.82116 13,-13 2.8e-4,-0.68909 -0.0531,-1.37113 -0.15625,-2.03125 l 2.3125,0 c -0.1031,0.66012 -0.15653,1.34216 -0.15625,2.03125 -0.003,7.17884 5.81821,13 13,13 7.18176,0 13.00292,-5.82116 13,-13 0.001,-2.64206 -0.8021,-5.10449 -2.15625,-7.15625 C 207.03109,203.38764 219,180.22229 219,153.96875 219,111.73202 188.09944,77.499999 150,77.5 Z m -29.65625,57.0625 c 3.87737,-0.0153 7.77817,1.2044 11.09375,3.1875 2.84117,2.06946 5.0654,4.90265 6.75,7.96875 1.46294,3.82182 -0.57694,8.18827 -3.65625,10.5625 -2.34781,1.57159 -4.61521,3.41028 -7.375,4.21875 -3.38384,1.11997 -6.57546,2.68864 -9.75,4.28125 -1.55891,0.88308 -2.7279,2.1701 -3.125,3.9375 -1.09591,1.78142 -0.0779,4.15644 -1.28125,5.78125 -1.82312,1.3251 -3.88701,-0.26211 -5.3125,-1.40625 -3.11923,-2.29346 -5.85997,-5.45825 -6.65625,-9.34375 -0.61423,-3.28488 -1.29453,-6.64553 -0.90625,-10 0.0485,-4.06877 1.99529,-7.83575 4.5,-10.9375 2.84521,-3.86756 6.97637,-7.19913 11.875,-7.8125 1.2709,-0.29046 2.55129,-0.4324 3.84375,-0.4375 z m 59.3125,0 c 1.29246,0.005 2.57285,0.14704 3.84375,0.4375 4.89863,0.61337 9.02979,3.94494 11.875,7.8125 2.50471,3.10175 4.4515,6.86873 4.5,10.9375 0.38828,3.35447 -0.29202,6.71512 -0.90625,10 -0.79628,3.8855 -3.53702,7.05029 -6.65625,9.34375 -1.42549,1.14414 -3.48938,2.73135 -5.3125,1.40625 -1.20333,-1.62481 -0.18533,-3.99983 -1.28125,-5.78125 -0.3971,-1.7674 -1.56609,-3.05442 -3.125,-3.9375 -3.17454,-1.59261 -6.36616,-3.16128 -9.75,-4.28125 -2.75979,-0.80847 -5.02719,-2.64716 -7.375,-4.21875 -3.07931,-2.37423 -5.11919,-6.74068 -3.65625,-10.5625 1.6846,-3.0661 3.90883,-5.8993 6.75,-7.96875 3.31558,-1.9831 7.21638,-3.20281 11.09375,-3.1875 z m -29.4375,39.25 c 3.69479,0.10156 7.34295,15.42198 6.40625,21.46875 -3.08233,9.0731 -2.51099,-5.91849 -6.40625,-6.09375 -4.06846,0.0127 -4.82315,14.82175 -6.9375,6.125 -0.66664,-6.57125 3.5692,-21.59258 6.9375,-21.5 z"
         id="path3383"
         style="display:inline;fill:#000000;fill-opacity:1;stroke:none;stroke-width:1.46000004;stroke-miterlimit:4;stroke-dasharray:none;stroke-opacity:0.33031676" />
    </g>
  </g>
</svg>
