G75*
%MOIN*%
%OFA0B0*%
%FSLAX25Y25*%
%IPPOS*%
%LPD*%
%AMOC8*
5,1,8,0,0,1.08239X$1,22.5*
%
%ADD10C,0.00000*%
%ADD11R,0.03313X0.04042*%
%ADD12R,0.05912X0.06699*%
%ADD13R,0.06699X0.05912*%
%ADD14R,0.04042X0.03313*%
%ADD15R,0.02762X0.03550*%
%ADD16R,0.02762X0.01975*%
%ADD17C,0.00158*%
%ADD18R,0.09258X0.04337*%
%ADD19R,0.09258X0.13195*%
%ADD20R,0.09800X0.02172*%
%ADD21R,0.10636X0.06207*%
%ADD22R,0.07880X0.11719*%
%ADD23R,0.04731X0.04337*%
%ADD24R,0.12998X0.06699*%
%ADD25R,0.04337X0.04731*%
%ADD26R,0.08983X0.06699*%
%ADD27R,0.05912X0.04534*%
%ADD28C,0.06400*%
D10*
X0016933Y0019933D02*
X0016933Y0125933D01*
X0191933Y0125933D01*
X0191933Y0019933D01*
X0016933Y0019933D01*
D11*
X0094433Y0101071D03*
X0094433Y0105795D03*
X0113933Y0105795D03*
X0113933Y0101071D03*
X0140433Y0078295D03*
X0140433Y0073571D03*
D12*
X0149433Y0072732D03*
X0149433Y0085134D03*
X0045433Y0066634D03*
X0045433Y0054232D03*
D13*
X0038034Y0041933D03*
X0025632Y0041933D03*
X0085232Y0060933D03*
X0097634Y0060933D03*
D14*
X0092295Y0065933D03*
X0087571Y0065933D03*
X0112571Y0046933D03*
X0117295Y0046933D03*
X0117295Y0042933D03*
X0112571Y0042933D03*
X0108795Y0036433D03*
X0104071Y0036433D03*
X0037795Y0051433D03*
X0033071Y0051433D03*
X0118071Y0105933D03*
X0122795Y0105933D03*
D15*
X0049433Y0046854D03*
X0044433Y0046854D03*
X0044433Y0037012D03*
X0049433Y0037012D03*
D16*
X0046683Y0076433D03*
X0046683Y0078933D03*
X0046683Y0081433D03*
X0054183Y0081433D03*
X0054183Y0078933D03*
X0054183Y0076433D03*
D17*
X0093537Y0077660D02*
X0100865Y0077660D01*
X0100865Y0076238D01*
X0093537Y0076238D01*
X0093537Y0077660D01*
X0093537Y0076395D02*
X0100865Y0076395D01*
X0100865Y0076552D02*
X0093537Y0076552D01*
X0093537Y0076709D02*
X0100865Y0076709D01*
X0100865Y0076866D02*
X0093537Y0076866D01*
X0093537Y0077023D02*
X0100865Y0077023D01*
X0100865Y0077180D02*
X0093537Y0077180D01*
X0093537Y0077337D02*
X0100865Y0077337D01*
X0100865Y0077494D02*
X0093537Y0077494D01*
X0093537Y0077651D02*
X0100865Y0077651D01*
X0100865Y0079628D02*
X0093537Y0079628D01*
X0100865Y0079628D02*
X0100865Y0078206D01*
X0093537Y0078206D01*
X0093537Y0079628D01*
X0093537Y0078363D02*
X0100865Y0078363D01*
X0100865Y0078520D02*
X0093537Y0078520D01*
X0093537Y0078677D02*
X0100865Y0078677D01*
X0100865Y0078834D02*
X0093537Y0078834D01*
X0093537Y0078991D02*
X0100865Y0078991D01*
X0100865Y0079148D02*
X0093537Y0079148D01*
X0093537Y0079305D02*
X0100865Y0079305D01*
X0100865Y0079462D02*
X0093537Y0079462D01*
X0093537Y0079619D02*
X0100865Y0079619D01*
X0100865Y0081597D02*
X0093537Y0081597D01*
X0100865Y0081597D02*
X0100865Y0080175D01*
X0093537Y0080175D01*
X0093537Y0081597D01*
X0093537Y0080332D02*
X0100865Y0080332D01*
X0100865Y0080489D02*
X0093537Y0080489D01*
X0093537Y0080646D02*
X0100865Y0080646D01*
X0100865Y0080803D02*
X0093537Y0080803D01*
X0093537Y0080960D02*
X0100865Y0080960D01*
X0100865Y0081117D02*
X0093537Y0081117D01*
X0093537Y0081274D02*
X0100865Y0081274D01*
X0100865Y0081431D02*
X0093537Y0081431D01*
X0093537Y0081588D02*
X0100865Y0081588D01*
X0100865Y0083565D02*
X0093537Y0083565D01*
X0100865Y0083565D02*
X0100865Y0082143D01*
X0093537Y0082143D01*
X0093537Y0083565D01*
X0093537Y0082300D02*
X0100865Y0082300D01*
X0100865Y0082457D02*
X0093537Y0082457D01*
X0093537Y0082614D02*
X0100865Y0082614D01*
X0100865Y0082771D02*
X0093537Y0082771D01*
X0093537Y0082928D02*
X0100865Y0082928D01*
X0100865Y0083085D02*
X0093537Y0083085D01*
X0093537Y0083242D02*
X0100865Y0083242D01*
X0100865Y0083399D02*
X0093537Y0083399D01*
X0093537Y0083556D02*
X0100865Y0083556D01*
X0100865Y0085534D02*
X0093537Y0085534D01*
X0100865Y0085534D02*
X0100865Y0084112D01*
X0093537Y0084112D01*
X0093537Y0085534D01*
X0093537Y0084269D02*
X0100865Y0084269D01*
X0100865Y0084426D02*
X0093537Y0084426D01*
X0093537Y0084583D02*
X0100865Y0084583D01*
X0100865Y0084740D02*
X0093537Y0084740D01*
X0093537Y0084897D02*
X0100865Y0084897D01*
X0100865Y0085054D02*
X0093537Y0085054D01*
X0093537Y0085211D02*
X0100865Y0085211D01*
X0100865Y0085368D02*
X0093537Y0085368D01*
X0093537Y0085525D02*
X0100865Y0085525D01*
X0100865Y0087502D02*
X0093537Y0087502D01*
X0100865Y0087502D02*
X0100865Y0086080D01*
X0093537Y0086080D01*
X0093537Y0087502D01*
X0093537Y0086237D02*
X0100865Y0086237D01*
X0100865Y0086394D02*
X0093537Y0086394D01*
X0093537Y0086551D02*
X0100865Y0086551D01*
X0100865Y0086708D02*
X0093537Y0086708D01*
X0093537Y0086865D02*
X0100865Y0086865D01*
X0100865Y0087022D02*
X0093537Y0087022D01*
X0093537Y0087179D02*
X0100865Y0087179D01*
X0100865Y0087336D02*
X0093537Y0087336D01*
X0093537Y0087493D02*
X0100865Y0087493D01*
X0100865Y0089471D02*
X0093537Y0089471D01*
X0100865Y0089471D02*
X0100865Y0088049D01*
X0093537Y0088049D01*
X0093537Y0089471D01*
X0093537Y0088206D02*
X0100865Y0088206D01*
X0100865Y0088363D02*
X0093537Y0088363D01*
X0093537Y0088520D02*
X0100865Y0088520D01*
X0100865Y0088677D02*
X0093537Y0088677D01*
X0093537Y0088834D02*
X0100865Y0088834D01*
X0100865Y0088991D02*
X0093537Y0088991D01*
X0093537Y0089148D02*
X0100865Y0089148D01*
X0100865Y0089305D02*
X0093537Y0089305D01*
X0093537Y0089462D02*
X0100865Y0089462D01*
X0102395Y0098329D02*
X0103817Y0098329D01*
X0103817Y0091001D01*
X0102395Y0091001D01*
X0102395Y0098329D01*
X0102395Y0091158D02*
X0103817Y0091158D01*
X0103817Y0091315D02*
X0102395Y0091315D01*
X0102395Y0091472D02*
X0103817Y0091472D01*
X0103817Y0091629D02*
X0102395Y0091629D01*
X0102395Y0091786D02*
X0103817Y0091786D01*
X0103817Y0091943D02*
X0102395Y0091943D01*
X0102395Y0092100D02*
X0103817Y0092100D01*
X0103817Y0092257D02*
X0102395Y0092257D01*
X0102395Y0092414D02*
X0103817Y0092414D01*
X0103817Y0092571D02*
X0102395Y0092571D01*
X0102395Y0092728D02*
X0103817Y0092728D01*
X0103817Y0092885D02*
X0102395Y0092885D01*
X0102395Y0093042D02*
X0103817Y0093042D01*
X0103817Y0093199D02*
X0102395Y0093199D01*
X0102395Y0093356D02*
X0103817Y0093356D01*
X0103817Y0093513D02*
X0102395Y0093513D01*
X0102395Y0093670D02*
X0103817Y0093670D01*
X0103817Y0093827D02*
X0102395Y0093827D01*
X0102395Y0093984D02*
X0103817Y0093984D01*
X0103817Y0094141D02*
X0102395Y0094141D01*
X0102395Y0094298D02*
X0103817Y0094298D01*
X0103817Y0094455D02*
X0102395Y0094455D01*
X0102395Y0094612D02*
X0103817Y0094612D01*
X0103817Y0094769D02*
X0102395Y0094769D01*
X0102395Y0094926D02*
X0103817Y0094926D01*
X0103817Y0095083D02*
X0102395Y0095083D01*
X0102395Y0095240D02*
X0103817Y0095240D01*
X0103817Y0095397D02*
X0102395Y0095397D01*
X0102395Y0095554D02*
X0103817Y0095554D01*
X0103817Y0095711D02*
X0102395Y0095711D01*
X0102395Y0095868D02*
X0103817Y0095868D01*
X0103817Y0096025D02*
X0102395Y0096025D01*
X0102395Y0096182D02*
X0103817Y0096182D01*
X0103817Y0096339D02*
X0102395Y0096339D01*
X0102395Y0096496D02*
X0103817Y0096496D01*
X0103817Y0096653D02*
X0102395Y0096653D01*
X0102395Y0096810D02*
X0103817Y0096810D01*
X0103817Y0096967D02*
X0102395Y0096967D01*
X0102395Y0097124D02*
X0103817Y0097124D01*
X0103817Y0097281D02*
X0102395Y0097281D01*
X0102395Y0097438D02*
X0103817Y0097438D01*
X0103817Y0097595D02*
X0102395Y0097595D01*
X0102395Y0097752D02*
X0103817Y0097752D01*
X0103817Y0097909D02*
X0102395Y0097909D01*
X0102395Y0098066D02*
X0103817Y0098066D01*
X0103817Y0098223D02*
X0102395Y0098223D01*
X0104364Y0098329D02*
X0105786Y0098329D01*
X0105786Y0091001D01*
X0104364Y0091001D01*
X0104364Y0098329D01*
X0104364Y0091158D02*
X0105786Y0091158D01*
X0105786Y0091315D02*
X0104364Y0091315D01*
X0104364Y0091472D02*
X0105786Y0091472D01*
X0105786Y0091629D02*
X0104364Y0091629D01*
X0104364Y0091786D02*
X0105786Y0091786D01*
X0105786Y0091943D02*
X0104364Y0091943D01*
X0104364Y0092100D02*
X0105786Y0092100D01*
X0105786Y0092257D02*
X0104364Y0092257D01*
X0104364Y0092414D02*
X0105786Y0092414D01*
X0105786Y0092571D02*
X0104364Y0092571D01*
X0104364Y0092728D02*
X0105786Y0092728D01*
X0105786Y0092885D02*
X0104364Y0092885D01*
X0104364Y0093042D02*
X0105786Y0093042D01*
X0105786Y0093199D02*
X0104364Y0093199D01*
X0104364Y0093356D02*
X0105786Y0093356D01*
X0105786Y0093513D02*
X0104364Y0093513D01*
X0104364Y0093670D02*
X0105786Y0093670D01*
X0105786Y0093827D02*
X0104364Y0093827D01*
X0104364Y0093984D02*
X0105786Y0093984D01*
X0105786Y0094141D02*
X0104364Y0094141D01*
X0104364Y0094298D02*
X0105786Y0094298D01*
X0105786Y0094455D02*
X0104364Y0094455D01*
X0104364Y0094612D02*
X0105786Y0094612D01*
X0105786Y0094769D02*
X0104364Y0094769D01*
X0104364Y0094926D02*
X0105786Y0094926D01*
X0105786Y0095083D02*
X0104364Y0095083D01*
X0104364Y0095240D02*
X0105786Y0095240D01*
X0105786Y0095397D02*
X0104364Y0095397D01*
X0104364Y0095554D02*
X0105786Y0095554D01*
X0105786Y0095711D02*
X0104364Y0095711D01*
X0104364Y0095868D02*
X0105786Y0095868D01*
X0105786Y0096025D02*
X0104364Y0096025D01*
X0104364Y0096182D02*
X0105786Y0096182D01*
X0105786Y0096339D02*
X0104364Y0096339D01*
X0104364Y0096496D02*
X0105786Y0096496D01*
X0105786Y0096653D02*
X0104364Y0096653D01*
X0104364Y0096810D02*
X0105786Y0096810D01*
X0105786Y0096967D02*
X0104364Y0096967D01*
X0104364Y0097124D02*
X0105786Y0097124D01*
X0105786Y0097281D02*
X0104364Y0097281D01*
X0104364Y0097438D02*
X0105786Y0097438D01*
X0105786Y0097595D02*
X0104364Y0097595D01*
X0104364Y0097752D02*
X0105786Y0097752D01*
X0105786Y0097909D02*
X0104364Y0097909D01*
X0104364Y0098066D02*
X0105786Y0098066D01*
X0105786Y0098223D02*
X0104364Y0098223D01*
X0106332Y0098329D02*
X0107754Y0098329D01*
X0107754Y0091001D01*
X0106332Y0091001D01*
X0106332Y0098329D01*
X0106332Y0091158D02*
X0107754Y0091158D01*
X0107754Y0091315D02*
X0106332Y0091315D01*
X0106332Y0091472D02*
X0107754Y0091472D01*
X0107754Y0091629D02*
X0106332Y0091629D01*
X0106332Y0091786D02*
X0107754Y0091786D01*
X0107754Y0091943D02*
X0106332Y0091943D01*
X0106332Y0092100D02*
X0107754Y0092100D01*
X0107754Y0092257D02*
X0106332Y0092257D01*
X0106332Y0092414D02*
X0107754Y0092414D01*
X0107754Y0092571D02*
X0106332Y0092571D01*
X0106332Y0092728D02*
X0107754Y0092728D01*
X0107754Y0092885D02*
X0106332Y0092885D01*
X0106332Y0093042D02*
X0107754Y0093042D01*
X0107754Y0093199D02*
X0106332Y0093199D01*
X0106332Y0093356D02*
X0107754Y0093356D01*
X0107754Y0093513D02*
X0106332Y0093513D01*
X0106332Y0093670D02*
X0107754Y0093670D01*
X0107754Y0093827D02*
X0106332Y0093827D01*
X0106332Y0093984D02*
X0107754Y0093984D01*
X0107754Y0094141D02*
X0106332Y0094141D01*
X0106332Y0094298D02*
X0107754Y0094298D01*
X0107754Y0094455D02*
X0106332Y0094455D01*
X0106332Y0094612D02*
X0107754Y0094612D01*
X0107754Y0094769D02*
X0106332Y0094769D01*
X0106332Y0094926D02*
X0107754Y0094926D01*
X0107754Y0095083D02*
X0106332Y0095083D01*
X0106332Y0095240D02*
X0107754Y0095240D01*
X0107754Y0095397D02*
X0106332Y0095397D01*
X0106332Y0095554D02*
X0107754Y0095554D01*
X0107754Y0095711D02*
X0106332Y0095711D01*
X0106332Y0095868D02*
X0107754Y0095868D01*
X0107754Y0096025D02*
X0106332Y0096025D01*
X0106332Y0096182D02*
X0107754Y0096182D01*
X0107754Y0096339D02*
X0106332Y0096339D01*
X0106332Y0096496D02*
X0107754Y0096496D01*
X0107754Y0096653D02*
X0106332Y0096653D01*
X0106332Y0096810D02*
X0107754Y0096810D01*
X0107754Y0096967D02*
X0106332Y0096967D01*
X0106332Y0097124D02*
X0107754Y0097124D01*
X0107754Y0097281D02*
X0106332Y0097281D01*
X0106332Y0097438D02*
X0107754Y0097438D01*
X0107754Y0097595D02*
X0106332Y0097595D01*
X0106332Y0097752D02*
X0107754Y0097752D01*
X0107754Y0097909D02*
X0106332Y0097909D01*
X0106332Y0098066D02*
X0107754Y0098066D01*
X0107754Y0098223D02*
X0106332Y0098223D01*
X0108301Y0098329D02*
X0109723Y0098329D01*
X0109723Y0091001D01*
X0108301Y0091001D01*
X0108301Y0098329D01*
X0108301Y0091158D02*
X0109723Y0091158D01*
X0109723Y0091315D02*
X0108301Y0091315D01*
X0108301Y0091472D02*
X0109723Y0091472D01*
X0109723Y0091629D02*
X0108301Y0091629D01*
X0108301Y0091786D02*
X0109723Y0091786D01*
X0109723Y0091943D02*
X0108301Y0091943D01*
X0108301Y0092100D02*
X0109723Y0092100D01*
X0109723Y0092257D02*
X0108301Y0092257D01*
X0108301Y0092414D02*
X0109723Y0092414D01*
X0109723Y0092571D02*
X0108301Y0092571D01*
X0108301Y0092728D02*
X0109723Y0092728D01*
X0109723Y0092885D02*
X0108301Y0092885D01*
X0108301Y0093042D02*
X0109723Y0093042D01*
X0109723Y0093199D02*
X0108301Y0093199D01*
X0108301Y0093356D02*
X0109723Y0093356D01*
X0109723Y0093513D02*
X0108301Y0093513D01*
X0108301Y0093670D02*
X0109723Y0093670D01*
X0109723Y0093827D02*
X0108301Y0093827D01*
X0108301Y0093984D02*
X0109723Y0093984D01*
X0109723Y0094141D02*
X0108301Y0094141D01*
X0108301Y0094298D02*
X0109723Y0094298D01*
X0109723Y0094455D02*
X0108301Y0094455D01*
X0108301Y0094612D02*
X0109723Y0094612D01*
X0109723Y0094769D02*
X0108301Y0094769D01*
X0108301Y0094926D02*
X0109723Y0094926D01*
X0109723Y0095083D02*
X0108301Y0095083D01*
X0108301Y0095240D02*
X0109723Y0095240D01*
X0109723Y0095397D02*
X0108301Y0095397D01*
X0108301Y0095554D02*
X0109723Y0095554D01*
X0109723Y0095711D02*
X0108301Y0095711D01*
X0108301Y0095868D02*
X0109723Y0095868D01*
X0109723Y0096025D02*
X0108301Y0096025D01*
X0108301Y0096182D02*
X0109723Y0096182D01*
X0109723Y0096339D02*
X0108301Y0096339D01*
X0108301Y0096496D02*
X0109723Y0096496D01*
X0109723Y0096653D02*
X0108301Y0096653D01*
X0108301Y0096810D02*
X0109723Y0096810D01*
X0109723Y0096967D02*
X0108301Y0096967D01*
X0108301Y0097124D02*
X0109723Y0097124D01*
X0109723Y0097281D02*
X0108301Y0097281D01*
X0108301Y0097438D02*
X0109723Y0097438D01*
X0109723Y0097595D02*
X0108301Y0097595D01*
X0108301Y0097752D02*
X0109723Y0097752D01*
X0109723Y0097909D02*
X0108301Y0097909D01*
X0108301Y0098066D02*
X0109723Y0098066D01*
X0109723Y0098223D02*
X0108301Y0098223D01*
X0110269Y0098329D02*
X0111691Y0098329D01*
X0111691Y0091001D01*
X0110269Y0091001D01*
X0110269Y0098329D01*
X0110269Y0091158D02*
X0111691Y0091158D01*
X0111691Y0091315D02*
X0110269Y0091315D01*
X0110269Y0091472D02*
X0111691Y0091472D01*
X0111691Y0091629D02*
X0110269Y0091629D01*
X0110269Y0091786D02*
X0111691Y0091786D01*
X0111691Y0091943D02*
X0110269Y0091943D01*
X0110269Y0092100D02*
X0111691Y0092100D01*
X0111691Y0092257D02*
X0110269Y0092257D01*
X0110269Y0092414D02*
X0111691Y0092414D01*
X0111691Y0092571D02*
X0110269Y0092571D01*
X0110269Y0092728D02*
X0111691Y0092728D01*
X0111691Y0092885D02*
X0110269Y0092885D01*
X0110269Y0093042D02*
X0111691Y0093042D01*
X0111691Y0093199D02*
X0110269Y0093199D01*
X0110269Y0093356D02*
X0111691Y0093356D01*
X0111691Y0093513D02*
X0110269Y0093513D01*
X0110269Y0093670D02*
X0111691Y0093670D01*
X0111691Y0093827D02*
X0110269Y0093827D01*
X0110269Y0093984D02*
X0111691Y0093984D01*
X0111691Y0094141D02*
X0110269Y0094141D01*
X0110269Y0094298D02*
X0111691Y0094298D01*
X0111691Y0094455D02*
X0110269Y0094455D01*
X0110269Y0094612D02*
X0111691Y0094612D01*
X0111691Y0094769D02*
X0110269Y0094769D01*
X0110269Y0094926D02*
X0111691Y0094926D01*
X0111691Y0095083D02*
X0110269Y0095083D01*
X0110269Y0095240D02*
X0111691Y0095240D01*
X0111691Y0095397D02*
X0110269Y0095397D01*
X0110269Y0095554D02*
X0111691Y0095554D01*
X0111691Y0095711D02*
X0110269Y0095711D01*
X0110269Y0095868D02*
X0111691Y0095868D01*
X0111691Y0096025D02*
X0110269Y0096025D01*
X0110269Y0096182D02*
X0111691Y0096182D01*
X0111691Y0096339D02*
X0110269Y0096339D01*
X0110269Y0096496D02*
X0111691Y0096496D01*
X0111691Y0096653D02*
X0110269Y0096653D01*
X0110269Y0096810D02*
X0111691Y0096810D01*
X0111691Y0096967D02*
X0110269Y0096967D01*
X0110269Y0097124D02*
X0111691Y0097124D01*
X0111691Y0097281D02*
X0110269Y0097281D01*
X0110269Y0097438D02*
X0111691Y0097438D01*
X0111691Y0097595D02*
X0110269Y0097595D01*
X0110269Y0097752D02*
X0111691Y0097752D01*
X0111691Y0097909D02*
X0110269Y0097909D01*
X0110269Y0098066D02*
X0111691Y0098066D01*
X0111691Y0098223D02*
X0110269Y0098223D01*
X0112238Y0098329D02*
X0113660Y0098329D01*
X0113660Y0091001D01*
X0112238Y0091001D01*
X0112238Y0098329D01*
X0112238Y0091158D02*
X0113660Y0091158D01*
X0113660Y0091315D02*
X0112238Y0091315D01*
X0112238Y0091472D02*
X0113660Y0091472D01*
X0113660Y0091629D02*
X0112238Y0091629D01*
X0112238Y0091786D02*
X0113660Y0091786D01*
X0113660Y0091943D02*
X0112238Y0091943D01*
X0112238Y0092100D02*
X0113660Y0092100D01*
X0113660Y0092257D02*
X0112238Y0092257D01*
X0112238Y0092414D02*
X0113660Y0092414D01*
X0113660Y0092571D02*
X0112238Y0092571D01*
X0112238Y0092728D02*
X0113660Y0092728D01*
X0113660Y0092885D02*
X0112238Y0092885D01*
X0112238Y0093042D02*
X0113660Y0093042D01*
X0113660Y0093199D02*
X0112238Y0093199D01*
X0112238Y0093356D02*
X0113660Y0093356D01*
X0113660Y0093513D02*
X0112238Y0093513D01*
X0112238Y0093670D02*
X0113660Y0093670D01*
X0113660Y0093827D02*
X0112238Y0093827D01*
X0112238Y0093984D02*
X0113660Y0093984D01*
X0113660Y0094141D02*
X0112238Y0094141D01*
X0112238Y0094298D02*
X0113660Y0094298D01*
X0113660Y0094455D02*
X0112238Y0094455D01*
X0112238Y0094612D02*
X0113660Y0094612D01*
X0113660Y0094769D02*
X0112238Y0094769D01*
X0112238Y0094926D02*
X0113660Y0094926D01*
X0113660Y0095083D02*
X0112238Y0095083D01*
X0112238Y0095240D02*
X0113660Y0095240D01*
X0113660Y0095397D02*
X0112238Y0095397D01*
X0112238Y0095554D02*
X0113660Y0095554D01*
X0113660Y0095711D02*
X0112238Y0095711D01*
X0112238Y0095868D02*
X0113660Y0095868D01*
X0113660Y0096025D02*
X0112238Y0096025D01*
X0112238Y0096182D02*
X0113660Y0096182D01*
X0113660Y0096339D02*
X0112238Y0096339D01*
X0112238Y0096496D02*
X0113660Y0096496D01*
X0113660Y0096653D02*
X0112238Y0096653D01*
X0112238Y0096810D02*
X0113660Y0096810D01*
X0113660Y0096967D02*
X0112238Y0096967D01*
X0112238Y0097124D02*
X0113660Y0097124D01*
X0113660Y0097281D02*
X0112238Y0097281D01*
X0112238Y0097438D02*
X0113660Y0097438D01*
X0113660Y0097595D02*
X0112238Y0097595D01*
X0112238Y0097752D02*
X0113660Y0097752D01*
X0113660Y0097909D02*
X0112238Y0097909D01*
X0112238Y0098066D02*
X0113660Y0098066D01*
X0113660Y0098223D02*
X0112238Y0098223D01*
X0114206Y0098329D02*
X0115628Y0098329D01*
X0115628Y0091001D01*
X0114206Y0091001D01*
X0114206Y0098329D01*
X0114206Y0091158D02*
X0115628Y0091158D01*
X0115628Y0091315D02*
X0114206Y0091315D01*
X0114206Y0091472D02*
X0115628Y0091472D01*
X0115628Y0091629D02*
X0114206Y0091629D01*
X0114206Y0091786D02*
X0115628Y0091786D01*
X0115628Y0091943D02*
X0114206Y0091943D01*
X0114206Y0092100D02*
X0115628Y0092100D01*
X0115628Y0092257D02*
X0114206Y0092257D01*
X0114206Y0092414D02*
X0115628Y0092414D01*
X0115628Y0092571D02*
X0114206Y0092571D01*
X0114206Y0092728D02*
X0115628Y0092728D01*
X0115628Y0092885D02*
X0114206Y0092885D01*
X0114206Y0093042D02*
X0115628Y0093042D01*
X0115628Y0093199D02*
X0114206Y0093199D01*
X0114206Y0093356D02*
X0115628Y0093356D01*
X0115628Y0093513D02*
X0114206Y0093513D01*
X0114206Y0093670D02*
X0115628Y0093670D01*
X0115628Y0093827D02*
X0114206Y0093827D01*
X0114206Y0093984D02*
X0115628Y0093984D01*
X0115628Y0094141D02*
X0114206Y0094141D01*
X0114206Y0094298D02*
X0115628Y0094298D01*
X0115628Y0094455D02*
X0114206Y0094455D01*
X0114206Y0094612D02*
X0115628Y0094612D01*
X0115628Y0094769D02*
X0114206Y0094769D01*
X0114206Y0094926D02*
X0115628Y0094926D01*
X0115628Y0095083D02*
X0114206Y0095083D01*
X0114206Y0095240D02*
X0115628Y0095240D01*
X0115628Y0095397D02*
X0114206Y0095397D01*
X0114206Y0095554D02*
X0115628Y0095554D01*
X0115628Y0095711D02*
X0114206Y0095711D01*
X0114206Y0095868D02*
X0115628Y0095868D01*
X0115628Y0096025D02*
X0114206Y0096025D01*
X0114206Y0096182D02*
X0115628Y0096182D01*
X0115628Y0096339D02*
X0114206Y0096339D01*
X0114206Y0096496D02*
X0115628Y0096496D01*
X0115628Y0096653D02*
X0114206Y0096653D01*
X0114206Y0096810D02*
X0115628Y0096810D01*
X0115628Y0096967D02*
X0114206Y0096967D01*
X0114206Y0097124D02*
X0115628Y0097124D01*
X0115628Y0097281D02*
X0114206Y0097281D01*
X0114206Y0097438D02*
X0115628Y0097438D01*
X0115628Y0097595D02*
X0114206Y0097595D01*
X0114206Y0097752D02*
X0115628Y0097752D01*
X0115628Y0097909D02*
X0114206Y0097909D01*
X0114206Y0098066D02*
X0115628Y0098066D01*
X0115628Y0098223D02*
X0114206Y0098223D01*
X0116175Y0098329D02*
X0117597Y0098329D01*
X0117597Y0091001D01*
X0116175Y0091001D01*
X0116175Y0098329D01*
X0116175Y0091158D02*
X0117597Y0091158D01*
X0117597Y0091315D02*
X0116175Y0091315D01*
X0116175Y0091472D02*
X0117597Y0091472D01*
X0117597Y0091629D02*
X0116175Y0091629D01*
X0116175Y0091786D02*
X0117597Y0091786D01*
X0117597Y0091943D02*
X0116175Y0091943D01*
X0116175Y0092100D02*
X0117597Y0092100D01*
X0117597Y0092257D02*
X0116175Y0092257D01*
X0116175Y0092414D02*
X0117597Y0092414D01*
X0117597Y0092571D02*
X0116175Y0092571D01*
X0116175Y0092728D02*
X0117597Y0092728D01*
X0117597Y0092885D02*
X0116175Y0092885D01*
X0116175Y0093042D02*
X0117597Y0093042D01*
X0117597Y0093199D02*
X0116175Y0093199D01*
X0116175Y0093356D02*
X0117597Y0093356D01*
X0117597Y0093513D02*
X0116175Y0093513D01*
X0116175Y0093670D02*
X0117597Y0093670D01*
X0117597Y0093827D02*
X0116175Y0093827D01*
X0116175Y0093984D02*
X0117597Y0093984D01*
X0117597Y0094141D02*
X0116175Y0094141D01*
X0116175Y0094298D02*
X0117597Y0094298D01*
X0117597Y0094455D02*
X0116175Y0094455D01*
X0116175Y0094612D02*
X0117597Y0094612D01*
X0117597Y0094769D02*
X0116175Y0094769D01*
X0116175Y0094926D02*
X0117597Y0094926D01*
X0117597Y0095083D02*
X0116175Y0095083D01*
X0116175Y0095240D02*
X0117597Y0095240D01*
X0117597Y0095397D02*
X0116175Y0095397D01*
X0116175Y0095554D02*
X0117597Y0095554D01*
X0117597Y0095711D02*
X0116175Y0095711D01*
X0116175Y0095868D02*
X0117597Y0095868D01*
X0117597Y0096025D02*
X0116175Y0096025D01*
X0116175Y0096182D02*
X0117597Y0096182D01*
X0117597Y0096339D02*
X0116175Y0096339D01*
X0116175Y0096496D02*
X0117597Y0096496D01*
X0117597Y0096653D02*
X0116175Y0096653D01*
X0116175Y0096810D02*
X0117597Y0096810D01*
X0117597Y0096967D02*
X0116175Y0096967D01*
X0116175Y0097124D02*
X0117597Y0097124D01*
X0117597Y0097281D02*
X0116175Y0097281D01*
X0116175Y0097438D02*
X0117597Y0097438D01*
X0117597Y0097595D02*
X0116175Y0097595D01*
X0116175Y0097752D02*
X0117597Y0097752D01*
X0117597Y0097909D02*
X0116175Y0097909D01*
X0116175Y0098066D02*
X0117597Y0098066D01*
X0117597Y0098223D02*
X0116175Y0098223D01*
X0118143Y0098329D02*
X0119565Y0098329D01*
X0119565Y0091001D01*
X0118143Y0091001D01*
X0118143Y0098329D01*
X0118143Y0091158D02*
X0119565Y0091158D01*
X0119565Y0091315D02*
X0118143Y0091315D01*
X0118143Y0091472D02*
X0119565Y0091472D01*
X0119565Y0091629D02*
X0118143Y0091629D01*
X0118143Y0091786D02*
X0119565Y0091786D01*
X0119565Y0091943D02*
X0118143Y0091943D01*
X0118143Y0092100D02*
X0119565Y0092100D01*
X0119565Y0092257D02*
X0118143Y0092257D01*
X0118143Y0092414D02*
X0119565Y0092414D01*
X0119565Y0092571D02*
X0118143Y0092571D01*
X0118143Y0092728D02*
X0119565Y0092728D01*
X0119565Y0092885D02*
X0118143Y0092885D01*
X0118143Y0093042D02*
X0119565Y0093042D01*
X0119565Y0093199D02*
X0118143Y0093199D01*
X0118143Y0093356D02*
X0119565Y0093356D01*
X0119565Y0093513D02*
X0118143Y0093513D01*
X0118143Y0093670D02*
X0119565Y0093670D01*
X0119565Y0093827D02*
X0118143Y0093827D01*
X0118143Y0093984D02*
X0119565Y0093984D01*
X0119565Y0094141D02*
X0118143Y0094141D01*
X0118143Y0094298D02*
X0119565Y0094298D01*
X0119565Y0094455D02*
X0118143Y0094455D01*
X0118143Y0094612D02*
X0119565Y0094612D01*
X0119565Y0094769D02*
X0118143Y0094769D01*
X0118143Y0094926D02*
X0119565Y0094926D01*
X0119565Y0095083D02*
X0118143Y0095083D01*
X0118143Y0095240D02*
X0119565Y0095240D01*
X0119565Y0095397D02*
X0118143Y0095397D01*
X0118143Y0095554D02*
X0119565Y0095554D01*
X0119565Y0095711D02*
X0118143Y0095711D01*
X0118143Y0095868D02*
X0119565Y0095868D01*
X0119565Y0096025D02*
X0118143Y0096025D01*
X0118143Y0096182D02*
X0119565Y0096182D01*
X0119565Y0096339D02*
X0118143Y0096339D01*
X0118143Y0096496D02*
X0119565Y0096496D01*
X0119565Y0096653D02*
X0118143Y0096653D01*
X0118143Y0096810D02*
X0119565Y0096810D01*
X0119565Y0096967D02*
X0118143Y0096967D01*
X0118143Y0097124D02*
X0119565Y0097124D01*
X0119565Y0097281D02*
X0118143Y0097281D01*
X0118143Y0097438D02*
X0119565Y0097438D01*
X0119565Y0097595D02*
X0118143Y0097595D01*
X0118143Y0097752D02*
X0119565Y0097752D01*
X0119565Y0097909D02*
X0118143Y0097909D01*
X0118143Y0098066D02*
X0119565Y0098066D01*
X0119565Y0098223D02*
X0118143Y0098223D01*
X0120112Y0098329D02*
X0121534Y0098329D01*
X0121534Y0091001D01*
X0120112Y0091001D01*
X0120112Y0098329D01*
X0120112Y0091158D02*
X0121534Y0091158D01*
X0121534Y0091315D02*
X0120112Y0091315D01*
X0120112Y0091472D02*
X0121534Y0091472D01*
X0121534Y0091629D02*
X0120112Y0091629D01*
X0120112Y0091786D02*
X0121534Y0091786D01*
X0121534Y0091943D02*
X0120112Y0091943D01*
X0120112Y0092100D02*
X0121534Y0092100D01*
X0121534Y0092257D02*
X0120112Y0092257D01*
X0120112Y0092414D02*
X0121534Y0092414D01*
X0121534Y0092571D02*
X0120112Y0092571D01*
X0120112Y0092728D02*
X0121534Y0092728D01*
X0121534Y0092885D02*
X0120112Y0092885D01*
X0120112Y0093042D02*
X0121534Y0093042D01*
X0121534Y0093199D02*
X0120112Y0093199D01*
X0120112Y0093356D02*
X0121534Y0093356D01*
X0121534Y0093513D02*
X0120112Y0093513D01*
X0120112Y0093670D02*
X0121534Y0093670D01*
X0121534Y0093827D02*
X0120112Y0093827D01*
X0120112Y0093984D02*
X0121534Y0093984D01*
X0121534Y0094141D02*
X0120112Y0094141D01*
X0120112Y0094298D02*
X0121534Y0094298D01*
X0121534Y0094455D02*
X0120112Y0094455D01*
X0120112Y0094612D02*
X0121534Y0094612D01*
X0121534Y0094769D02*
X0120112Y0094769D01*
X0120112Y0094926D02*
X0121534Y0094926D01*
X0121534Y0095083D02*
X0120112Y0095083D01*
X0120112Y0095240D02*
X0121534Y0095240D01*
X0121534Y0095397D02*
X0120112Y0095397D01*
X0120112Y0095554D02*
X0121534Y0095554D01*
X0121534Y0095711D02*
X0120112Y0095711D01*
X0120112Y0095868D02*
X0121534Y0095868D01*
X0121534Y0096025D02*
X0120112Y0096025D01*
X0120112Y0096182D02*
X0121534Y0096182D01*
X0121534Y0096339D02*
X0120112Y0096339D01*
X0120112Y0096496D02*
X0121534Y0096496D01*
X0121534Y0096653D02*
X0120112Y0096653D01*
X0120112Y0096810D02*
X0121534Y0096810D01*
X0121534Y0096967D02*
X0120112Y0096967D01*
X0120112Y0097124D02*
X0121534Y0097124D01*
X0121534Y0097281D02*
X0120112Y0097281D01*
X0120112Y0097438D02*
X0121534Y0097438D01*
X0121534Y0097595D02*
X0120112Y0097595D01*
X0120112Y0097752D02*
X0121534Y0097752D01*
X0121534Y0097909D02*
X0120112Y0097909D01*
X0120112Y0098066D02*
X0121534Y0098066D01*
X0121534Y0098223D02*
X0120112Y0098223D01*
X0122080Y0098329D02*
X0123502Y0098329D01*
X0123502Y0091001D01*
X0122080Y0091001D01*
X0122080Y0098329D01*
X0122080Y0091158D02*
X0123502Y0091158D01*
X0123502Y0091315D02*
X0122080Y0091315D01*
X0122080Y0091472D02*
X0123502Y0091472D01*
X0123502Y0091629D02*
X0122080Y0091629D01*
X0122080Y0091786D02*
X0123502Y0091786D01*
X0123502Y0091943D02*
X0122080Y0091943D01*
X0122080Y0092100D02*
X0123502Y0092100D01*
X0123502Y0092257D02*
X0122080Y0092257D01*
X0122080Y0092414D02*
X0123502Y0092414D01*
X0123502Y0092571D02*
X0122080Y0092571D01*
X0122080Y0092728D02*
X0123502Y0092728D01*
X0123502Y0092885D02*
X0122080Y0092885D01*
X0122080Y0093042D02*
X0123502Y0093042D01*
X0123502Y0093199D02*
X0122080Y0093199D01*
X0122080Y0093356D02*
X0123502Y0093356D01*
X0123502Y0093513D02*
X0122080Y0093513D01*
X0122080Y0093670D02*
X0123502Y0093670D01*
X0123502Y0093827D02*
X0122080Y0093827D01*
X0122080Y0093984D02*
X0123502Y0093984D01*
X0123502Y0094141D02*
X0122080Y0094141D01*
X0122080Y0094298D02*
X0123502Y0094298D01*
X0123502Y0094455D02*
X0122080Y0094455D01*
X0122080Y0094612D02*
X0123502Y0094612D01*
X0123502Y0094769D02*
X0122080Y0094769D01*
X0122080Y0094926D02*
X0123502Y0094926D01*
X0123502Y0095083D02*
X0122080Y0095083D01*
X0122080Y0095240D02*
X0123502Y0095240D01*
X0123502Y0095397D02*
X0122080Y0095397D01*
X0122080Y0095554D02*
X0123502Y0095554D01*
X0123502Y0095711D02*
X0122080Y0095711D01*
X0122080Y0095868D02*
X0123502Y0095868D01*
X0123502Y0096025D02*
X0122080Y0096025D01*
X0122080Y0096182D02*
X0123502Y0096182D01*
X0123502Y0096339D02*
X0122080Y0096339D01*
X0122080Y0096496D02*
X0123502Y0096496D01*
X0123502Y0096653D02*
X0122080Y0096653D01*
X0122080Y0096810D02*
X0123502Y0096810D01*
X0123502Y0096967D02*
X0122080Y0096967D01*
X0122080Y0097124D02*
X0123502Y0097124D01*
X0123502Y0097281D02*
X0122080Y0097281D01*
X0122080Y0097438D02*
X0123502Y0097438D01*
X0123502Y0097595D02*
X0122080Y0097595D01*
X0122080Y0097752D02*
X0123502Y0097752D01*
X0123502Y0097909D02*
X0122080Y0097909D01*
X0122080Y0098066D02*
X0123502Y0098066D01*
X0123502Y0098223D02*
X0122080Y0098223D01*
X0124049Y0098329D02*
X0125471Y0098329D01*
X0125471Y0091001D01*
X0124049Y0091001D01*
X0124049Y0098329D01*
X0124049Y0091158D02*
X0125471Y0091158D01*
X0125471Y0091315D02*
X0124049Y0091315D01*
X0124049Y0091472D02*
X0125471Y0091472D01*
X0125471Y0091629D02*
X0124049Y0091629D01*
X0124049Y0091786D02*
X0125471Y0091786D01*
X0125471Y0091943D02*
X0124049Y0091943D01*
X0124049Y0092100D02*
X0125471Y0092100D01*
X0125471Y0092257D02*
X0124049Y0092257D01*
X0124049Y0092414D02*
X0125471Y0092414D01*
X0125471Y0092571D02*
X0124049Y0092571D01*
X0124049Y0092728D02*
X0125471Y0092728D01*
X0125471Y0092885D02*
X0124049Y0092885D01*
X0124049Y0093042D02*
X0125471Y0093042D01*
X0125471Y0093199D02*
X0124049Y0093199D01*
X0124049Y0093356D02*
X0125471Y0093356D01*
X0125471Y0093513D02*
X0124049Y0093513D01*
X0124049Y0093670D02*
X0125471Y0093670D01*
X0125471Y0093827D02*
X0124049Y0093827D01*
X0124049Y0093984D02*
X0125471Y0093984D01*
X0125471Y0094141D02*
X0124049Y0094141D01*
X0124049Y0094298D02*
X0125471Y0094298D01*
X0125471Y0094455D02*
X0124049Y0094455D01*
X0124049Y0094612D02*
X0125471Y0094612D01*
X0125471Y0094769D02*
X0124049Y0094769D01*
X0124049Y0094926D02*
X0125471Y0094926D01*
X0125471Y0095083D02*
X0124049Y0095083D01*
X0124049Y0095240D02*
X0125471Y0095240D01*
X0125471Y0095397D02*
X0124049Y0095397D01*
X0124049Y0095554D02*
X0125471Y0095554D01*
X0125471Y0095711D02*
X0124049Y0095711D01*
X0124049Y0095868D02*
X0125471Y0095868D01*
X0125471Y0096025D02*
X0124049Y0096025D01*
X0124049Y0096182D02*
X0125471Y0096182D01*
X0125471Y0096339D02*
X0124049Y0096339D01*
X0124049Y0096496D02*
X0125471Y0096496D01*
X0125471Y0096653D02*
X0124049Y0096653D01*
X0124049Y0096810D02*
X0125471Y0096810D01*
X0125471Y0096967D02*
X0124049Y0096967D01*
X0124049Y0097124D02*
X0125471Y0097124D01*
X0125471Y0097281D02*
X0124049Y0097281D01*
X0124049Y0097438D02*
X0125471Y0097438D01*
X0125471Y0097595D02*
X0124049Y0097595D01*
X0124049Y0097752D02*
X0125471Y0097752D01*
X0125471Y0097909D02*
X0124049Y0097909D01*
X0124049Y0098066D02*
X0125471Y0098066D01*
X0125471Y0098223D02*
X0124049Y0098223D01*
X0127001Y0089471D02*
X0134329Y0089471D01*
X0134329Y0088049D01*
X0127001Y0088049D01*
X0127001Y0089471D01*
X0127001Y0088206D02*
X0134329Y0088206D01*
X0134329Y0088363D02*
X0127001Y0088363D01*
X0127001Y0088520D02*
X0134329Y0088520D01*
X0134329Y0088677D02*
X0127001Y0088677D01*
X0127001Y0088834D02*
X0134329Y0088834D01*
X0134329Y0088991D02*
X0127001Y0088991D01*
X0127001Y0089148D02*
X0134329Y0089148D01*
X0134329Y0089305D02*
X0127001Y0089305D01*
X0127001Y0089462D02*
X0134329Y0089462D01*
X0134329Y0087502D02*
X0127001Y0087502D01*
X0134329Y0087502D02*
X0134329Y0086080D01*
X0127001Y0086080D01*
X0127001Y0087502D01*
X0127001Y0086237D02*
X0134329Y0086237D01*
X0134329Y0086394D02*
X0127001Y0086394D01*
X0127001Y0086551D02*
X0134329Y0086551D01*
X0134329Y0086708D02*
X0127001Y0086708D01*
X0127001Y0086865D02*
X0134329Y0086865D01*
X0134329Y0087022D02*
X0127001Y0087022D01*
X0127001Y0087179D02*
X0134329Y0087179D01*
X0134329Y0087336D02*
X0127001Y0087336D01*
X0127001Y0087493D02*
X0134329Y0087493D01*
X0134329Y0085534D02*
X0127001Y0085534D01*
X0134329Y0085534D02*
X0134329Y0084112D01*
X0127001Y0084112D01*
X0127001Y0085534D01*
X0127001Y0084269D02*
X0134329Y0084269D01*
X0134329Y0084426D02*
X0127001Y0084426D01*
X0127001Y0084583D02*
X0134329Y0084583D01*
X0134329Y0084740D02*
X0127001Y0084740D01*
X0127001Y0084897D02*
X0134329Y0084897D01*
X0134329Y0085054D02*
X0127001Y0085054D01*
X0127001Y0085211D02*
X0134329Y0085211D01*
X0134329Y0085368D02*
X0127001Y0085368D01*
X0127001Y0085525D02*
X0134329Y0085525D01*
X0134329Y0083565D02*
X0127001Y0083565D01*
X0134329Y0083565D02*
X0134329Y0082143D01*
X0127001Y0082143D01*
X0127001Y0083565D01*
X0127001Y0082300D02*
X0134329Y0082300D01*
X0134329Y0082457D02*
X0127001Y0082457D01*
X0127001Y0082614D02*
X0134329Y0082614D01*
X0134329Y0082771D02*
X0127001Y0082771D01*
X0127001Y0082928D02*
X0134329Y0082928D01*
X0134329Y0083085D02*
X0127001Y0083085D01*
X0127001Y0083242D02*
X0134329Y0083242D01*
X0134329Y0083399D02*
X0127001Y0083399D01*
X0127001Y0083556D02*
X0134329Y0083556D01*
X0134329Y0081597D02*
X0127001Y0081597D01*
X0134329Y0081597D02*
X0134329Y0080175D01*
X0127001Y0080175D01*
X0127001Y0081597D01*
X0127001Y0080332D02*
X0134329Y0080332D01*
X0134329Y0080489D02*
X0127001Y0080489D01*
X0127001Y0080646D02*
X0134329Y0080646D01*
X0134329Y0080803D02*
X0127001Y0080803D01*
X0127001Y0080960D02*
X0134329Y0080960D01*
X0134329Y0081117D02*
X0127001Y0081117D01*
X0127001Y0081274D02*
X0134329Y0081274D01*
X0134329Y0081431D02*
X0127001Y0081431D01*
X0127001Y0081588D02*
X0134329Y0081588D01*
X0134329Y0079628D02*
X0127001Y0079628D01*
X0134329Y0079628D02*
X0134329Y0078206D01*
X0127001Y0078206D01*
X0127001Y0079628D01*
X0127001Y0078363D02*
X0134329Y0078363D01*
X0134329Y0078520D02*
X0127001Y0078520D01*
X0127001Y0078677D02*
X0134329Y0078677D01*
X0134329Y0078834D02*
X0127001Y0078834D01*
X0127001Y0078991D02*
X0134329Y0078991D01*
X0134329Y0079148D02*
X0127001Y0079148D01*
X0127001Y0079305D02*
X0134329Y0079305D01*
X0134329Y0079462D02*
X0127001Y0079462D01*
X0127001Y0079619D02*
X0134329Y0079619D01*
X0134329Y0077660D02*
X0127001Y0077660D01*
X0134329Y0077660D02*
X0134329Y0076238D01*
X0127001Y0076238D01*
X0127001Y0077660D01*
X0127001Y0076395D02*
X0134329Y0076395D01*
X0134329Y0076552D02*
X0127001Y0076552D01*
X0127001Y0076709D02*
X0134329Y0076709D01*
X0134329Y0076866D02*
X0127001Y0076866D01*
X0127001Y0077023D02*
X0134329Y0077023D01*
X0134329Y0077180D02*
X0127001Y0077180D01*
X0127001Y0077337D02*
X0134329Y0077337D01*
X0134329Y0077494D02*
X0127001Y0077494D01*
X0127001Y0077651D02*
X0134329Y0077651D01*
X0134329Y0075691D02*
X0127001Y0075691D01*
X0134329Y0075691D02*
X0134329Y0074269D01*
X0127001Y0074269D01*
X0127001Y0075691D01*
X0127001Y0074426D02*
X0134329Y0074426D01*
X0134329Y0074583D02*
X0127001Y0074583D01*
X0127001Y0074740D02*
X0134329Y0074740D01*
X0134329Y0074897D02*
X0127001Y0074897D01*
X0127001Y0075054D02*
X0134329Y0075054D01*
X0134329Y0075211D02*
X0127001Y0075211D01*
X0127001Y0075368D02*
X0134329Y0075368D01*
X0134329Y0075525D02*
X0127001Y0075525D01*
X0127001Y0075682D02*
X0134329Y0075682D01*
X0134329Y0073723D02*
X0127001Y0073723D01*
X0134329Y0073723D02*
X0134329Y0072301D01*
X0127001Y0072301D01*
X0127001Y0073723D01*
X0127001Y0072458D02*
X0134329Y0072458D01*
X0134329Y0072615D02*
X0127001Y0072615D01*
X0127001Y0072772D02*
X0134329Y0072772D01*
X0134329Y0072929D02*
X0127001Y0072929D01*
X0127001Y0073086D02*
X0134329Y0073086D01*
X0134329Y0073243D02*
X0127001Y0073243D01*
X0127001Y0073400D02*
X0134329Y0073400D01*
X0134329Y0073557D02*
X0127001Y0073557D01*
X0127001Y0073714D02*
X0134329Y0073714D01*
X0134329Y0071754D02*
X0127001Y0071754D01*
X0134329Y0071754D02*
X0134329Y0070332D01*
X0127001Y0070332D01*
X0127001Y0071754D01*
X0127001Y0070489D02*
X0134329Y0070489D01*
X0134329Y0070646D02*
X0127001Y0070646D01*
X0127001Y0070803D02*
X0134329Y0070803D01*
X0134329Y0070960D02*
X0127001Y0070960D01*
X0127001Y0071117D02*
X0134329Y0071117D01*
X0134329Y0071274D02*
X0127001Y0071274D01*
X0127001Y0071431D02*
X0134329Y0071431D01*
X0134329Y0071588D02*
X0127001Y0071588D01*
X0127001Y0071745D02*
X0134329Y0071745D01*
X0134329Y0069786D02*
X0127001Y0069786D01*
X0134329Y0069786D02*
X0134329Y0068364D01*
X0127001Y0068364D01*
X0127001Y0069786D01*
X0127001Y0068521D02*
X0134329Y0068521D01*
X0134329Y0068678D02*
X0127001Y0068678D01*
X0127001Y0068835D02*
X0134329Y0068835D01*
X0134329Y0068992D02*
X0127001Y0068992D01*
X0127001Y0069149D02*
X0134329Y0069149D01*
X0134329Y0069306D02*
X0127001Y0069306D01*
X0127001Y0069463D02*
X0134329Y0069463D01*
X0134329Y0069620D02*
X0127001Y0069620D01*
X0127001Y0069777D02*
X0134329Y0069777D01*
X0134329Y0067817D02*
X0127001Y0067817D01*
X0134329Y0067817D02*
X0134329Y0066395D01*
X0127001Y0066395D01*
X0127001Y0067817D01*
X0127001Y0066552D02*
X0134329Y0066552D01*
X0134329Y0066709D02*
X0127001Y0066709D01*
X0127001Y0066866D02*
X0134329Y0066866D01*
X0134329Y0067023D02*
X0127001Y0067023D01*
X0127001Y0067180D02*
X0134329Y0067180D01*
X0134329Y0067337D02*
X0127001Y0067337D01*
X0127001Y0067494D02*
X0134329Y0067494D01*
X0134329Y0067651D02*
X0127001Y0067651D01*
X0127001Y0067808D02*
X0134329Y0067808D01*
X0125471Y0064865D02*
X0124049Y0064865D01*
X0125471Y0064865D02*
X0125471Y0057537D01*
X0124049Y0057537D01*
X0124049Y0064865D01*
X0124049Y0057694D02*
X0125471Y0057694D01*
X0125471Y0057851D02*
X0124049Y0057851D01*
X0124049Y0058008D02*
X0125471Y0058008D01*
X0125471Y0058165D02*
X0124049Y0058165D01*
X0124049Y0058322D02*
X0125471Y0058322D01*
X0125471Y0058479D02*
X0124049Y0058479D01*
X0124049Y0058636D02*
X0125471Y0058636D01*
X0125471Y0058793D02*
X0124049Y0058793D01*
X0124049Y0058950D02*
X0125471Y0058950D01*
X0125471Y0059107D02*
X0124049Y0059107D01*
X0124049Y0059264D02*
X0125471Y0059264D01*
X0125471Y0059421D02*
X0124049Y0059421D01*
X0124049Y0059578D02*
X0125471Y0059578D01*
X0125471Y0059735D02*
X0124049Y0059735D01*
X0124049Y0059892D02*
X0125471Y0059892D01*
X0125471Y0060049D02*
X0124049Y0060049D01*
X0124049Y0060206D02*
X0125471Y0060206D01*
X0125471Y0060363D02*
X0124049Y0060363D01*
X0124049Y0060520D02*
X0125471Y0060520D01*
X0125471Y0060677D02*
X0124049Y0060677D01*
X0124049Y0060834D02*
X0125471Y0060834D01*
X0125471Y0060991D02*
X0124049Y0060991D01*
X0124049Y0061148D02*
X0125471Y0061148D01*
X0125471Y0061305D02*
X0124049Y0061305D01*
X0124049Y0061462D02*
X0125471Y0061462D01*
X0125471Y0061619D02*
X0124049Y0061619D01*
X0124049Y0061776D02*
X0125471Y0061776D01*
X0125471Y0061933D02*
X0124049Y0061933D01*
X0124049Y0062090D02*
X0125471Y0062090D01*
X0125471Y0062247D02*
X0124049Y0062247D01*
X0124049Y0062404D02*
X0125471Y0062404D01*
X0125471Y0062561D02*
X0124049Y0062561D01*
X0124049Y0062718D02*
X0125471Y0062718D01*
X0125471Y0062875D02*
X0124049Y0062875D01*
X0124049Y0063032D02*
X0125471Y0063032D01*
X0125471Y0063189D02*
X0124049Y0063189D01*
X0124049Y0063346D02*
X0125471Y0063346D01*
X0125471Y0063503D02*
X0124049Y0063503D01*
X0124049Y0063660D02*
X0125471Y0063660D01*
X0125471Y0063817D02*
X0124049Y0063817D01*
X0124049Y0063974D02*
X0125471Y0063974D01*
X0125471Y0064131D02*
X0124049Y0064131D01*
X0124049Y0064288D02*
X0125471Y0064288D01*
X0125471Y0064445D02*
X0124049Y0064445D01*
X0124049Y0064602D02*
X0125471Y0064602D01*
X0125471Y0064759D02*
X0124049Y0064759D01*
X0123502Y0064865D02*
X0122080Y0064865D01*
X0123502Y0064865D02*
X0123502Y0057537D01*
X0122080Y0057537D01*
X0122080Y0064865D01*
X0122080Y0057694D02*
X0123502Y0057694D01*
X0123502Y0057851D02*
X0122080Y0057851D01*
X0122080Y0058008D02*
X0123502Y0058008D01*
X0123502Y0058165D02*
X0122080Y0058165D01*
X0122080Y0058322D02*
X0123502Y0058322D01*
X0123502Y0058479D02*
X0122080Y0058479D01*
X0122080Y0058636D02*
X0123502Y0058636D01*
X0123502Y0058793D02*
X0122080Y0058793D01*
X0122080Y0058950D02*
X0123502Y0058950D01*
X0123502Y0059107D02*
X0122080Y0059107D01*
X0122080Y0059264D02*
X0123502Y0059264D01*
X0123502Y0059421D02*
X0122080Y0059421D01*
X0122080Y0059578D02*
X0123502Y0059578D01*
X0123502Y0059735D02*
X0122080Y0059735D01*
X0122080Y0059892D02*
X0123502Y0059892D01*
X0123502Y0060049D02*
X0122080Y0060049D01*
X0122080Y0060206D02*
X0123502Y0060206D01*
X0123502Y0060363D02*
X0122080Y0060363D01*
X0122080Y0060520D02*
X0123502Y0060520D01*
X0123502Y0060677D02*
X0122080Y0060677D01*
X0122080Y0060834D02*
X0123502Y0060834D01*
X0123502Y0060991D02*
X0122080Y0060991D01*
X0122080Y0061148D02*
X0123502Y0061148D01*
X0123502Y0061305D02*
X0122080Y0061305D01*
X0122080Y0061462D02*
X0123502Y0061462D01*
X0123502Y0061619D02*
X0122080Y0061619D01*
X0122080Y0061776D02*
X0123502Y0061776D01*
X0123502Y0061933D02*
X0122080Y0061933D01*
X0122080Y0062090D02*
X0123502Y0062090D01*
X0123502Y0062247D02*
X0122080Y0062247D01*
X0122080Y0062404D02*
X0123502Y0062404D01*
X0123502Y0062561D02*
X0122080Y0062561D01*
X0122080Y0062718D02*
X0123502Y0062718D01*
X0123502Y0062875D02*
X0122080Y0062875D01*
X0122080Y0063032D02*
X0123502Y0063032D01*
X0123502Y0063189D02*
X0122080Y0063189D01*
X0122080Y0063346D02*
X0123502Y0063346D01*
X0123502Y0063503D02*
X0122080Y0063503D01*
X0122080Y0063660D02*
X0123502Y0063660D01*
X0123502Y0063817D02*
X0122080Y0063817D01*
X0122080Y0063974D02*
X0123502Y0063974D01*
X0123502Y0064131D02*
X0122080Y0064131D01*
X0122080Y0064288D02*
X0123502Y0064288D01*
X0123502Y0064445D02*
X0122080Y0064445D01*
X0122080Y0064602D02*
X0123502Y0064602D01*
X0123502Y0064759D02*
X0122080Y0064759D01*
X0121534Y0064865D02*
X0120112Y0064865D01*
X0121534Y0064865D02*
X0121534Y0057537D01*
X0120112Y0057537D01*
X0120112Y0064865D01*
X0120112Y0057694D02*
X0121534Y0057694D01*
X0121534Y0057851D02*
X0120112Y0057851D01*
X0120112Y0058008D02*
X0121534Y0058008D01*
X0121534Y0058165D02*
X0120112Y0058165D01*
X0120112Y0058322D02*
X0121534Y0058322D01*
X0121534Y0058479D02*
X0120112Y0058479D01*
X0120112Y0058636D02*
X0121534Y0058636D01*
X0121534Y0058793D02*
X0120112Y0058793D01*
X0120112Y0058950D02*
X0121534Y0058950D01*
X0121534Y0059107D02*
X0120112Y0059107D01*
X0120112Y0059264D02*
X0121534Y0059264D01*
X0121534Y0059421D02*
X0120112Y0059421D01*
X0120112Y0059578D02*
X0121534Y0059578D01*
X0121534Y0059735D02*
X0120112Y0059735D01*
X0120112Y0059892D02*
X0121534Y0059892D01*
X0121534Y0060049D02*
X0120112Y0060049D01*
X0120112Y0060206D02*
X0121534Y0060206D01*
X0121534Y0060363D02*
X0120112Y0060363D01*
X0120112Y0060520D02*
X0121534Y0060520D01*
X0121534Y0060677D02*
X0120112Y0060677D01*
X0120112Y0060834D02*
X0121534Y0060834D01*
X0121534Y0060991D02*
X0120112Y0060991D01*
X0120112Y0061148D02*
X0121534Y0061148D01*
X0121534Y0061305D02*
X0120112Y0061305D01*
X0120112Y0061462D02*
X0121534Y0061462D01*
X0121534Y0061619D02*
X0120112Y0061619D01*
X0120112Y0061776D02*
X0121534Y0061776D01*
X0121534Y0061933D02*
X0120112Y0061933D01*
X0120112Y0062090D02*
X0121534Y0062090D01*
X0121534Y0062247D02*
X0120112Y0062247D01*
X0120112Y0062404D02*
X0121534Y0062404D01*
X0121534Y0062561D02*
X0120112Y0062561D01*
X0120112Y0062718D02*
X0121534Y0062718D01*
X0121534Y0062875D02*
X0120112Y0062875D01*
X0120112Y0063032D02*
X0121534Y0063032D01*
X0121534Y0063189D02*
X0120112Y0063189D01*
X0120112Y0063346D02*
X0121534Y0063346D01*
X0121534Y0063503D02*
X0120112Y0063503D01*
X0120112Y0063660D02*
X0121534Y0063660D01*
X0121534Y0063817D02*
X0120112Y0063817D01*
X0120112Y0063974D02*
X0121534Y0063974D01*
X0121534Y0064131D02*
X0120112Y0064131D01*
X0120112Y0064288D02*
X0121534Y0064288D01*
X0121534Y0064445D02*
X0120112Y0064445D01*
X0120112Y0064602D02*
X0121534Y0064602D01*
X0121534Y0064759D02*
X0120112Y0064759D01*
X0119565Y0064865D02*
X0118143Y0064865D01*
X0119565Y0064865D02*
X0119565Y0057537D01*
X0118143Y0057537D01*
X0118143Y0064865D01*
X0118143Y0057694D02*
X0119565Y0057694D01*
X0119565Y0057851D02*
X0118143Y0057851D01*
X0118143Y0058008D02*
X0119565Y0058008D01*
X0119565Y0058165D02*
X0118143Y0058165D01*
X0118143Y0058322D02*
X0119565Y0058322D01*
X0119565Y0058479D02*
X0118143Y0058479D01*
X0118143Y0058636D02*
X0119565Y0058636D01*
X0119565Y0058793D02*
X0118143Y0058793D01*
X0118143Y0058950D02*
X0119565Y0058950D01*
X0119565Y0059107D02*
X0118143Y0059107D01*
X0118143Y0059264D02*
X0119565Y0059264D01*
X0119565Y0059421D02*
X0118143Y0059421D01*
X0118143Y0059578D02*
X0119565Y0059578D01*
X0119565Y0059735D02*
X0118143Y0059735D01*
X0118143Y0059892D02*
X0119565Y0059892D01*
X0119565Y0060049D02*
X0118143Y0060049D01*
X0118143Y0060206D02*
X0119565Y0060206D01*
X0119565Y0060363D02*
X0118143Y0060363D01*
X0118143Y0060520D02*
X0119565Y0060520D01*
X0119565Y0060677D02*
X0118143Y0060677D01*
X0118143Y0060834D02*
X0119565Y0060834D01*
X0119565Y0060991D02*
X0118143Y0060991D01*
X0118143Y0061148D02*
X0119565Y0061148D01*
X0119565Y0061305D02*
X0118143Y0061305D01*
X0118143Y0061462D02*
X0119565Y0061462D01*
X0119565Y0061619D02*
X0118143Y0061619D01*
X0118143Y0061776D02*
X0119565Y0061776D01*
X0119565Y0061933D02*
X0118143Y0061933D01*
X0118143Y0062090D02*
X0119565Y0062090D01*
X0119565Y0062247D02*
X0118143Y0062247D01*
X0118143Y0062404D02*
X0119565Y0062404D01*
X0119565Y0062561D02*
X0118143Y0062561D01*
X0118143Y0062718D02*
X0119565Y0062718D01*
X0119565Y0062875D02*
X0118143Y0062875D01*
X0118143Y0063032D02*
X0119565Y0063032D01*
X0119565Y0063189D02*
X0118143Y0063189D01*
X0118143Y0063346D02*
X0119565Y0063346D01*
X0119565Y0063503D02*
X0118143Y0063503D01*
X0118143Y0063660D02*
X0119565Y0063660D01*
X0119565Y0063817D02*
X0118143Y0063817D01*
X0118143Y0063974D02*
X0119565Y0063974D01*
X0119565Y0064131D02*
X0118143Y0064131D01*
X0118143Y0064288D02*
X0119565Y0064288D01*
X0119565Y0064445D02*
X0118143Y0064445D01*
X0118143Y0064602D02*
X0119565Y0064602D01*
X0119565Y0064759D02*
X0118143Y0064759D01*
X0117597Y0064865D02*
X0116175Y0064865D01*
X0117597Y0064865D02*
X0117597Y0057537D01*
X0116175Y0057537D01*
X0116175Y0064865D01*
X0116175Y0057694D02*
X0117597Y0057694D01*
X0117597Y0057851D02*
X0116175Y0057851D01*
X0116175Y0058008D02*
X0117597Y0058008D01*
X0117597Y0058165D02*
X0116175Y0058165D01*
X0116175Y0058322D02*
X0117597Y0058322D01*
X0117597Y0058479D02*
X0116175Y0058479D01*
X0116175Y0058636D02*
X0117597Y0058636D01*
X0117597Y0058793D02*
X0116175Y0058793D01*
X0116175Y0058950D02*
X0117597Y0058950D01*
X0117597Y0059107D02*
X0116175Y0059107D01*
X0116175Y0059264D02*
X0117597Y0059264D01*
X0117597Y0059421D02*
X0116175Y0059421D01*
X0116175Y0059578D02*
X0117597Y0059578D01*
X0117597Y0059735D02*
X0116175Y0059735D01*
X0116175Y0059892D02*
X0117597Y0059892D01*
X0117597Y0060049D02*
X0116175Y0060049D01*
X0116175Y0060206D02*
X0117597Y0060206D01*
X0117597Y0060363D02*
X0116175Y0060363D01*
X0116175Y0060520D02*
X0117597Y0060520D01*
X0117597Y0060677D02*
X0116175Y0060677D01*
X0116175Y0060834D02*
X0117597Y0060834D01*
X0117597Y0060991D02*
X0116175Y0060991D01*
X0116175Y0061148D02*
X0117597Y0061148D01*
X0117597Y0061305D02*
X0116175Y0061305D01*
X0116175Y0061462D02*
X0117597Y0061462D01*
X0117597Y0061619D02*
X0116175Y0061619D01*
X0116175Y0061776D02*
X0117597Y0061776D01*
X0117597Y0061933D02*
X0116175Y0061933D01*
X0116175Y0062090D02*
X0117597Y0062090D01*
X0117597Y0062247D02*
X0116175Y0062247D01*
X0116175Y0062404D02*
X0117597Y0062404D01*
X0117597Y0062561D02*
X0116175Y0062561D01*
X0116175Y0062718D02*
X0117597Y0062718D01*
X0117597Y0062875D02*
X0116175Y0062875D01*
X0116175Y0063032D02*
X0117597Y0063032D01*
X0117597Y0063189D02*
X0116175Y0063189D01*
X0116175Y0063346D02*
X0117597Y0063346D01*
X0117597Y0063503D02*
X0116175Y0063503D01*
X0116175Y0063660D02*
X0117597Y0063660D01*
X0117597Y0063817D02*
X0116175Y0063817D01*
X0116175Y0063974D02*
X0117597Y0063974D01*
X0117597Y0064131D02*
X0116175Y0064131D01*
X0116175Y0064288D02*
X0117597Y0064288D01*
X0117597Y0064445D02*
X0116175Y0064445D01*
X0116175Y0064602D02*
X0117597Y0064602D01*
X0117597Y0064759D02*
X0116175Y0064759D01*
X0115628Y0064865D02*
X0114206Y0064865D01*
X0115628Y0064865D02*
X0115628Y0057537D01*
X0114206Y0057537D01*
X0114206Y0064865D01*
X0114206Y0057694D02*
X0115628Y0057694D01*
X0115628Y0057851D02*
X0114206Y0057851D01*
X0114206Y0058008D02*
X0115628Y0058008D01*
X0115628Y0058165D02*
X0114206Y0058165D01*
X0114206Y0058322D02*
X0115628Y0058322D01*
X0115628Y0058479D02*
X0114206Y0058479D01*
X0114206Y0058636D02*
X0115628Y0058636D01*
X0115628Y0058793D02*
X0114206Y0058793D01*
X0114206Y0058950D02*
X0115628Y0058950D01*
X0115628Y0059107D02*
X0114206Y0059107D01*
X0114206Y0059264D02*
X0115628Y0059264D01*
X0115628Y0059421D02*
X0114206Y0059421D01*
X0114206Y0059578D02*
X0115628Y0059578D01*
X0115628Y0059735D02*
X0114206Y0059735D01*
X0114206Y0059892D02*
X0115628Y0059892D01*
X0115628Y0060049D02*
X0114206Y0060049D01*
X0114206Y0060206D02*
X0115628Y0060206D01*
X0115628Y0060363D02*
X0114206Y0060363D01*
X0114206Y0060520D02*
X0115628Y0060520D01*
X0115628Y0060677D02*
X0114206Y0060677D01*
X0114206Y0060834D02*
X0115628Y0060834D01*
X0115628Y0060991D02*
X0114206Y0060991D01*
X0114206Y0061148D02*
X0115628Y0061148D01*
X0115628Y0061305D02*
X0114206Y0061305D01*
X0114206Y0061462D02*
X0115628Y0061462D01*
X0115628Y0061619D02*
X0114206Y0061619D01*
X0114206Y0061776D02*
X0115628Y0061776D01*
X0115628Y0061933D02*
X0114206Y0061933D01*
X0114206Y0062090D02*
X0115628Y0062090D01*
X0115628Y0062247D02*
X0114206Y0062247D01*
X0114206Y0062404D02*
X0115628Y0062404D01*
X0115628Y0062561D02*
X0114206Y0062561D01*
X0114206Y0062718D02*
X0115628Y0062718D01*
X0115628Y0062875D02*
X0114206Y0062875D01*
X0114206Y0063032D02*
X0115628Y0063032D01*
X0115628Y0063189D02*
X0114206Y0063189D01*
X0114206Y0063346D02*
X0115628Y0063346D01*
X0115628Y0063503D02*
X0114206Y0063503D01*
X0114206Y0063660D02*
X0115628Y0063660D01*
X0115628Y0063817D02*
X0114206Y0063817D01*
X0114206Y0063974D02*
X0115628Y0063974D01*
X0115628Y0064131D02*
X0114206Y0064131D01*
X0114206Y0064288D02*
X0115628Y0064288D01*
X0115628Y0064445D02*
X0114206Y0064445D01*
X0114206Y0064602D02*
X0115628Y0064602D01*
X0115628Y0064759D02*
X0114206Y0064759D01*
X0113660Y0064865D02*
X0112238Y0064865D01*
X0113660Y0064865D02*
X0113660Y0057537D01*
X0112238Y0057537D01*
X0112238Y0064865D01*
X0112238Y0057694D02*
X0113660Y0057694D01*
X0113660Y0057851D02*
X0112238Y0057851D01*
X0112238Y0058008D02*
X0113660Y0058008D01*
X0113660Y0058165D02*
X0112238Y0058165D01*
X0112238Y0058322D02*
X0113660Y0058322D01*
X0113660Y0058479D02*
X0112238Y0058479D01*
X0112238Y0058636D02*
X0113660Y0058636D01*
X0113660Y0058793D02*
X0112238Y0058793D01*
X0112238Y0058950D02*
X0113660Y0058950D01*
X0113660Y0059107D02*
X0112238Y0059107D01*
X0112238Y0059264D02*
X0113660Y0059264D01*
X0113660Y0059421D02*
X0112238Y0059421D01*
X0112238Y0059578D02*
X0113660Y0059578D01*
X0113660Y0059735D02*
X0112238Y0059735D01*
X0112238Y0059892D02*
X0113660Y0059892D01*
X0113660Y0060049D02*
X0112238Y0060049D01*
X0112238Y0060206D02*
X0113660Y0060206D01*
X0113660Y0060363D02*
X0112238Y0060363D01*
X0112238Y0060520D02*
X0113660Y0060520D01*
X0113660Y0060677D02*
X0112238Y0060677D01*
X0112238Y0060834D02*
X0113660Y0060834D01*
X0113660Y0060991D02*
X0112238Y0060991D01*
X0112238Y0061148D02*
X0113660Y0061148D01*
X0113660Y0061305D02*
X0112238Y0061305D01*
X0112238Y0061462D02*
X0113660Y0061462D01*
X0113660Y0061619D02*
X0112238Y0061619D01*
X0112238Y0061776D02*
X0113660Y0061776D01*
X0113660Y0061933D02*
X0112238Y0061933D01*
X0112238Y0062090D02*
X0113660Y0062090D01*
X0113660Y0062247D02*
X0112238Y0062247D01*
X0112238Y0062404D02*
X0113660Y0062404D01*
X0113660Y0062561D02*
X0112238Y0062561D01*
X0112238Y0062718D02*
X0113660Y0062718D01*
X0113660Y0062875D02*
X0112238Y0062875D01*
X0112238Y0063032D02*
X0113660Y0063032D01*
X0113660Y0063189D02*
X0112238Y0063189D01*
X0112238Y0063346D02*
X0113660Y0063346D01*
X0113660Y0063503D02*
X0112238Y0063503D01*
X0112238Y0063660D02*
X0113660Y0063660D01*
X0113660Y0063817D02*
X0112238Y0063817D01*
X0112238Y0063974D02*
X0113660Y0063974D01*
X0113660Y0064131D02*
X0112238Y0064131D01*
X0112238Y0064288D02*
X0113660Y0064288D01*
X0113660Y0064445D02*
X0112238Y0064445D01*
X0112238Y0064602D02*
X0113660Y0064602D01*
X0113660Y0064759D02*
X0112238Y0064759D01*
X0111691Y0064865D02*
X0110269Y0064865D01*
X0111691Y0064865D02*
X0111691Y0057537D01*
X0110269Y0057537D01*
X0110269Y0064865D01*
X0110269Y0057694D02*
X0111691Y0057694D01*
X0111691Y0057851D02*
X0110269Y0057851D01*
X0110269Y0058008D02*
X0111691Y0058008D01*
X0111691Y0058165D02*
X0110269Y0058165D01*
X0110269Y0058322D02*
X0111691Y0058322D01*
X0111691Y0058479D02*
X0110269Y0058479D01*
X0110269Y0058636D02*
X0111691Y0058636D01*
X0111691Y0058793D02*
X0110269Y0058793D01*
X0110269Y0058950D02*
X0111691Y0058950D01*
X0111691Y0059107D02*
X0110269Y0059107D01*
X0110269Y0059264D02*
X0111691Y0059264D01*
X0111691Y0059421D02*
X0110269Y0059421D01*
X0110269Y0059578D02*
X0111691Y0059578D01*
X0111691Y0059735D02*
X0110269Y0059735D01*
X0110269Y0059892D02*
X0111691Y0059892D01*
X0111691Y0060049D02*
X0110269Y0060049D01*
X0110269Y0060206D02*
X0111691Y0060206D01*
X0111691Y0060363D02*
X0110269Y0060363D01*
X0110269Y0060520D02*
X0111691Y0060520D01*
X0111691Y0060677D02*
X0110269Y0060677D01*
X0110269Y0060834D02*
X0111691Y0060834D01*
X0111691Y0060991D02*
X0110269Y0060991D01*
X0110269Y0061148D02*
X0111691Y0061148D01*
X0111691Y0061305D02*
X0110269Y0061305D01*
X0110269Y0061462D02*
X0111691Y0061462D01*
X0111691Y0061619D02*
X0110269Y0061619D01*
X0110269Y0061776D02*
X0111691Y0061776D01*
X0111691Y0061933D02*
X0110269Y0061933D01*
X0110269Y0062090D02*
X0111691Y0062090D01*
X0111691Y0062247D02*
X0110269Y0062247D01*
X0110269Y0062404D02*
X0111691Y0062404D01*
X0111691Y0062561D02*
X0110269Y0062561D01*
X0110269Y0062718D02*
X0111691Y0062718D01*
X0111691Y0062875D02*
X0110269Y0062875D01*
X0110269Y0063032D02*
X0111691Y0063032D01*
X0111691Y0063189D02*
X0110269Y0063189D01*
X0110269Y0063346D02*
X0111691Y0063346D01*
X0111691Y0063503D02*
X0110269Y0063503D01*
X0110269Y0063660D02*
X0111691Y0063660D01*
X0111691Y0063817D02*
X0110269Y0063817D01*
X0110269Y0063974D02*
X0111691Y0063974D01*
X0111691Y0064131D02*
X0110269Y0064131D01*
X0110269Y0064288D02*
X0111691Y0064288D01*
X0111691Y0064445D02*
X0110269Y0064445D01*
X0110269Y0064602D02*
X0111691Y0064602D01*
X0111691Y0064759D02*
X0110269Y0064759D01*
X0109723Y0064865D02*
X0108301Y0064865D01*
X0109723Y0064865D02*
X0109723Y0057537D01*
X0108301Y0057537D01*
X0108301Y0064865D01*
X0108301Y0057694D02*
X0109723Y0057694D01*
X0109723Y0057851D02*
X0108301Y0057851D01*
X0108301Y0058008D02*
X0109723Y0058008D01*
X0109723Y0058165D02*
X0108301Y0058165D01*
X0108301Y0058322D02*
X0109723Y0058322D01*
X0109723Y0058479D02*
X0108301Y0058479D01*
X0108301Y0058636D02*
X0109723Y0058636D01*
X0109723Y0058793D02*
X0108301Y0058793D01*
X0108301Y0058950D02*
X0109723Y0058950D01*
X0109723Y0059107D02*
X0108301Y0059107D01*
X0108301Y0059264D02*
X0109723Y0059264D01*
X0109723Y0059421D02*
X0108301Y0059421D01*
X0108301Y0059578D02*
X0109723Y0059578D01*
X0109723Y0059735D02*
X0108301Y0059735D01*
X0108301Y0059892D02*
X0109723Y0059892D01*
X0109723Y0060049D02*
X0108301Y0060049D01*
X0108301Y0060206D02*
X0109723Y0060206D01*
X0109723Y0060363D02*
X0108301Y0060363D01*
X0108301Y0060520D02*
X0109723Y0060520D01*
X0109723Y0060677D02*
X0108301Y0060677D01*
X0108301Y0060834D02*
X0109723Y0060834D01*
X0109723Y0060991D02*
X0108301Y0060991D01*
X0108301Y0061148D02*
X0109723Y0061148D01*
X0109723Y0061305D02*
X0108301Y0061305D01*
X0108301Y0061462D02*
X0109723Y0061462D01*
X0109723Y0061619D02*
X0108301Y0061619D01*
X0108301Y0061776D02*
X0109723Y0061776D01*
X0109723Y0061933D02*
X0108301Y0061933D01*
X0108301Y0062090D02*
X0109723Y0062090D01*
X0109723Y0062247D02*
X0108301Y0062247D01*
X0108301Y0062404D02*
X0109723Y0062404D01*
X0109723Y0062561D02*
X0108301Y0062561D01*
X0108301Y0062718D02*
X0109723Y0062718D01*
X0109723Y0062875D02*
X0108301Y0062875D01*
X0108301Y0063032D02*
X0109723Y0063032D01*
X0109723Y0063189D02*
X0108301Y0063189D01*
X0108301Y0063346D02*
X0109723Y0063346D01*
X0109723Y0063503D02*
X0108301Y0063503D01*
X0108301Y0063660D02*
X0109723Y0063660D01*
X0109723Y0063817D02*
X0108301Y0063817D01*
X0108301Y0063974D02*
X0109723Y0063974D01*
X0109723Y0064131D02*
X0108301Y0064131D01*
X0108301Y0064288D02*
X0109723Y0064288D01*
X0109723Y0064445D02*
X0108301Y0064445D01*
X0108301Y0064602D02*
X0109723Y0064602D01*
X0109723Y0064759D02*
X0108301Y0064759D01*
X0107754Y0064865D02*
X0106332Y0064865D01*
X0107754Y0064865D02*
X0107754Y0057537D01*
X0106332Y0057537D01*
X0106332Y0064865D01*
X0106332Y0057694D02*
X0107754Y0057694D01*
X0107754Y0057851D02*
X0106332Y0057851D01*
X0106332Y0058008D02*
X0107754Y0058008D01*
X0107754Y0058165D02*
X0106332Y0058165D01*
X0106332Y0058322D02*
X0107754Y0058322D01*
X0107754Y0058479D02*
X0106332Y0058479D01*
X0106332Y0058636D02*
X0107754Y0058636D01*
X0107754Y0058793D02*
X0106332Y0058793D01*
X0106332Y0058950D02*
X0107754Y0058950D01*
X0107754Y0059107D02*
X0106332Y0059107D01*
X0106332Y0059264D02*
X0107754Y0059264D01*
X0107754Y0059421D02*
X0106332Y0059421D01*
X0106332Y0059578D02*
X0107754Y0059578D01*
X0107754Y0059735D02*
X0106332Y0059735D01*
X0106332Y0059892D02*
X0107754Y0059892D01*
X0107754Y0060049D02*
X0106332Y0060049D01*
X0106332Y0060206D02*
X0107754Y0060206D01*
X0107754Y0060363D02*
X0106332Y0060363D01*
X0106332Y0060520D02*
X0107754Y0060520D01*
X0107754Y0060677D02*
X0106332Y0060677D01*
X0106332Y0060834D02*
X0107754Y0060834D01*
X0107754Y0060991D02*
X0106332Y0060991D01*
X0106332Y0061148D02*
X0107754Y0061148D01*
X0107754Y0061305D02*
X0106332Y0061305D01*
X0106332Y0061462D02*
X0107754Y0061462D01*
X0107754Y0061619D02*
X0106332Y0061619D01*
X0106332Y0061776D02*
X0107754Y0061776D01*
X0107754Y0061933D02*
X0106332Y0061933D01*
X0106332Y0062090D02*
X0107754Y0062090D01*
X0107754Y0062247D02*
X0106332Y0062247D01*
X0106332Y0062404D02*
X0107754Y0062404D01*
X0107754Y0062561D02*
X0106332Y0062561D01*
X0106332Y0062718D02*
X0107754Y0062718D01*
X0107754Y0062875D02*
X0106332Y0062875D01*
X0106332Y0063032D02*
X0107754Y0063032D01*
X0107754Y0063189D02*
X0106332Y0063189D01*
X0106332Y0063346D02*
X0107754Y0063346D01*
X0107754Y0063503D02*
X0106332Y0063503D01*
X0106332Y0063660D02*
X0107754Y0063660D01*
X0107754Y0063817D02*
X0106332Y0063817D01*
X0106332Y0063974D02*
X0107754Y0063974D01*
X0107754Y0064131D02*
X0106332Y0064131D01*
X0106332Y0064288D02*
X0107754Y0064288D01*
X0107754Y0064445D02*
X0106332Y0064445D01*
X0106332Y0064602D02*
X0107754Y0064602D01*
X0107754Y0064759D02*
X0106332Y0064759D01*
X0105786Y0064865D02*
X0104364Y0064865D01*
X0105786Y0064865D02*
X0105786Y0057537D01*
X0104364Y0057537D01*
X0104364Y0064865D01*
X0104364Y0057694D02*
X0105786Y0057694D01*
X0105786Y0057851D02*
X0104364Y0057851D01*
X0104364Y0058008D02*
X0105786Y0058008D01*
X0105786Y0058165D02*
X0104364Y0058165D01*
X0104364Y0058322D02*
X0105786Y0058322D01*
X0105786Y0058479D02*
X0104364Y0058479D01*
X0104364Y0058636D02*
X0105786Y0058636D01*
X0105786Y0058793D02*
X0104364Y0058793D01*
X0104364Y0058950D02*
X0105786Y0058950D01*
X0105786Y0059107D02*
X0104364Y0059107D01*
X0104364Y0059264D02*
X0105786Y0059264D01*
X0105786Y0059421D02*
X0104364Y0059421D01*
X0104364Y0059578D02*
X0105786Y0059578D01*
X0105786Y0059735D02*
X0104364Y0059735D01*
X0104364Y0059892D02*
X0105786Y0059892D01*
X0105786Y0060049D02*
X0104364Y0060049D01*
X0104364Y0060206D02*
X0105786Y0060206D01*
X0105786Y0060363D02*
X0104364Y0060363D01*
X0104364Y0060520D02*
X0105786Y0060520D01*
X0105786Y0060677D02*
X0104364Y0060677D01*
X0104364Y0060834D02*
X0105786Y0060834D01*
X0105786Y0060991D02*
X0104364Y0060991D01*
X0104364Y0061148D02*
X0105786Y0061148D01*
X0105786Y0061305D02*
X0104364Y0061305D01*
X0104364Y0061462D02*
X0105786Y0061462D01*
X0105786Y0061619D02*
X0104364Y0061619D01*
X0104364Y0061776D02*
X0105786Y0061776D01*
X0105786Y0061933D02*
X0104364Y0061933D01*
X0104364Y0062090D02*
X0105786Y0062090D01*
X0105786Y0062247D02*
X0104364Y0062247D01*
X0104364Y0062404D02*
X0105786Y0062404D01*
X0105786Y0062561D02*
X0104364Y0062561D01*
X0104364Y0062718D02*
X0105786Y0062718D01*
X0105786Y0062875D02*
X0104364Y0062875D01*
X0104364Y0063032D02*
X0105786Y0063032D01*
X0105786Y0063189D02*
X0104364Y0063189D01*
X0104364Y0063346D02*
X0105786Y0063346D01*
X0105786Y0063503D02*
X0104364Y0063503D01*
X0104364Y0063660D02*
X0105786Y0063660D01*
X0105786Y0063817D02*
X0104364Y0063817D01*
X0104364Y0063974D02*
X0105786Y0063974D01*
X0105786Y0064131D02*
X0104364Y0064131D01*
X0104364Y0064288D02*
X0105786Y0064288D01*
X0105786Y0064445D02*
X0104364Y0064445D01*
X0104364Y0064602D02*
X0105786Y0064602D01*
X0105786Y0064759D02*
X0104364Y0064759D01*
X0103817Y0064865D02*
X0102395Y0064865D01*
X0103817Y0064865D02*
X0103817Y0057537D01*
X0102395Y0057537D01*
X0102395Y0064865D01*
X0102395Y0057694D02*
X0103817Y0057694D01*
X0103817Y0057851D02*
X0102395Y0057851D01*
X0102395Y0058008D02*
X0103817Y0058008D01*
X0103817Y0058165D02*
X0102395Y0058165D01*
X0102395Y0058322D02*
X0103817Y0058322D01*
X0103817Y0058479D02*
X0102395Y0058479D01*
X0102395Y0058636D02*
X0103817Y0058636D01*
X0103817Y0058793D02*
X0102395Y0058793D01*
X0102395Y0058950D02*
X0103817Y0058950D01*
X0103817Y0059107D02*
X0102395Y0059107D01*
X0102395Y0059264D02*
X0103817Y0059264D01*
X0103817Y0059421D02*
X0102395Y0059421D01*
X0102395Y0059578D02*
X0103817Y0059578D01*
X0103817Y0059735D02*
X0102395Y0059735D01*
X0102395Y0059892D02*
X0103817Y0059892D01*
X0103817Y0060049D02*
X0102395Y0060049D01*
X0102395Y0060206D02*
X0103817Y0060206D01*
X0103817Y0060363D02*
X0102395Y0060363D01*
X0102395Y0060520D02*
X0103817Y0060520D01*
X0103817Y0060677D02*
X0102395Y0060677D01*
X0102395Y0060834D02*
X0103817Y0060834D01*
X0103817Y0060991D02*
X0102395Y0060991D01*
X0102395Y0061148D02*
X0103817Y0061148D01*
X0103817Y0061305D02*
X0102395Y0061305D01*
X0102395Y0061462D02*
X0103817Y0061462D01*
X0103817Y0061619D02*
X0102395Y0061619D01*
X0102395Y0061776D02*
X0103817Y0061776D01*
X0103817Y0061933D02*
X0102395Y0061933D01*
X0102395Y0062090D02*
X0103817Y0062090D01*
X0103817Y0062247D02*
X0102395Y0062247D01*
X0102395Y0062404D02*
X0103817Y0062404D01*
X0103817Y0062561D02*
X0102395Y0062561D01*
X0102395Y0062718D02*
X0103817Y0062718D01*
X0103817Y0062875D02*
X0102395Y0062875D01*
X0102395Y0063032D02*
X0103817Y0063032D01*
X0103817Y0063189D02*
X0102395Y0063189D01*
X0102395Y0063346D02*
X0103817Y0063346D01*
X0103817Y0063503D02*
X0102395Y0063503D01*
X0102395Y0063660D02*
X0103817Y0063660D01*
X0103817Y0063817D02*
X0102395Y0063817D01*
X0102395Y0063974D02*
X0103817Y0063974D01*
X0103817Y0064131D02*
X0102395Y0064131D01*
X0102395Y0064288D02*
X0103817Y0064288D01*
X0103817Y0064445D02*
X0102395Y0064445D01*
X0102395Y0064602D02*
X0103817Y0064602D01*
X0103817Y0064759D02*
X0102395Y0064759D01*
X0100865Y0067817D02*
X0093537Y0067817D01*
X0100865Y0067817D02*
X0100865Y0066395D01*
X0093537Y0066395D01*
X0093537Y0067817D01*
X0093537Y0066552D02*
X0100865Y0066552D01*
X0100865Y0066709D02*
X0093537Y0066709D01*
X0093537Y0066866D02*
X0100865Y0066866D01*
X0100865Y0067023D02*
X0093537Y0067023D01*
X0093537Y0067180D02*
X0100865Y0067180D01*
X0100865Y0067337D02*
X0093537Y0067337D01*
X0093537Y0067494D02*
X0100865Y0067494D01*
X0100865Y0067651D02*
X0093537Y0067651D01*
X0093537Y0067808D02*
X0100865Y0067808D01*
X0100865Y0069786D02*
X0093537Y0069786D01*
X0100865Y0069786D02*
X0100865Y0068364D01*
X0093537Y0068364D01*
X0093537Y0069786D01*
X0093537Y0068521D02*
X0100865Y0068521D01*
X0100865Y0068678D02*
X0093537Y0068678D01*
X0093537Y0068835D02*
X0100865Y0068835D01*
X0100865Y0068992D02*
X0093537Y0068992D01*
X0093537Y0069149D02*
X0100865Y0069149D01*
X0100865Y0069306D02*
X0093537Y0069306D01*
X0093537Y0069463D02*
X0100865Y0069463D01*
X0100865Y0069620D02*
X0093537Y0069620D01*
X0093537Y0069777D02*
X0100865Y0069777D01*
X0100865Y0071754D02*
X0093537Y0071754D01*
X0100865Y0071754D02*
X0100865Y0070332D01*
X0093537Y0070332D01*
X0093537Y0071754D01*
X0093537Y0070489D02*
X0100865Y0070489D01*
X0100865Y0070646D02*
X0093537Y0070646D01*
X0093537Y0070803D02*
X0100865Y0070803D01*
X0100865Y0070960D02*
X0093537Y0070960D01*
X0093537Y0071117D02*
X0100865Y0071117D01*
X0100865Y0071274D02*
X0093537Y0071274D01*
X0093537Y0071431D02*
X0100865Y0071431D01*
X0100865Y0071588D02*
X0093537Y0071588D01*
X0093537Y0071745D02*
X0100865Y0071745D01*
X0100865Y0073723D02*
X0093537Y0073723D01*
X0100865Y0073723D02*
X0100865Y0072301D01*
X0093537Y0072301D01*
X0093537Y0073723D01*
X0093537Y0072458D02*
X0100865Y0072458D01*
X0100865Y0072615D02*
X0093537Y0072615D01*
X0093537Y0072772D02*
X0100865Y0072772D01*
X0100865Y0072929D02*
X0093537Y0072929D01*
X0093537Y0073086D02*
X0100865Y0073086D01*
X0100865Y0073243D02*
X0093537Y0073243D01*
X0093537Y0073400D02*
X0100865Y0073400D01*
X0100865Y0073557D02*
X0093537Y0073557D01*
X0093537Y0073714D02*
X0100865Y0073714D01*
X0100865Y0075691D02*
X0093537Y0075691D01*
X0100865Y0075691D02*
X0100865Y0074269D01*
X0093537Y0074269D01*
X0093537Y0075691D01*
X0093537Y0074426D02*
X0100865Y0074426D01*
X0100865Y0074583D02*
X0093537Y0074583D01*
X0093537Y0074740D02*
X0100865Y0074740D01*
X0100865Y0074897D02*
X0093537Y0074897D01*
X0093537Y0075054D02*
X0100865Y0075054D01*
X0100865Y0075211D02*
X0093537Y0075211D01*
X0093537Y0075368D02*
X0100865Y0075368D01*
X0100865Y0075525D02*
X0093537Y0075525D01*
X0093537Y0075682D02*
X0100865Y0075682D01*
D18*
X0053091Y0069488D03*
X0053091Y0060433D03*
X0053091Y0051378D03*
D19*
X0072776Y0060433D03*
D20*
X0037433Y0072933D03*
X0037433Y0075433D03*
X0037433Y0077933D03*
X0037433Y0080433D03*
X0037433Y0082933D03*
D21*
X0035114Y0088633D03*
X0035114Y0067233D03*
D22*
X0024933Y0064858D03*
X0024933Y0091008D03*
D23*
X0149433Y0066780D03*
X0149433Y0060087D03*
X0158433Y0078587D03*
X0158433Y0085280D03*
D24*
X0083933Y0052157D03*
X0083933Y0043102D03*
D25*
X0038780Y0059433D03*
X0032087Y0059433D03*
X0048087Y0092433D03*
X0042280Y0096933D03*
X0035587Y0096933D03*
X0030280Y0100433D03*
X0023587Y0100433D03*
X0023587Y0108433D03*
X0030280Y0108433D03*
X0054780Y0092433D03*
D26*
X0037823Y0103539D03*
X0074043Y0103539D03*
D27*
X0099359Y0101091D03*
X0108807Y0101091D03*
X0108807Y0108375D03*
X0099359Y0108375D03*
D28*
X0103933Y0114933D02*
X0103933Y0120933D01*
X0093933Y0120933D02*
X0093933Y0114933D01*
X0083933Y0114933D02*
X0083933Y0120933D01*
X0073933Y0120933D02*
X0073933Y0114933D01*
X0063933Y0114933D02*
X0063933Y0120933D01*
X0053933Y0120933D02*
X0053933Y0114933D01*
X0043933Y0114933D02*
X0043933Y0120933D01*
X0033933Y0120933D02*
X0033933Y0114933D01*
X0023933Y0114933D02*
X0023933Y0120933D01*
X0113933Y0120933D02*
X0113933Y0114933D01*
X0123933Y0114933D02*
X0123933Y0120933D01*
X0133933Y0120933D02*
X0133933Y0114933D01*
X0143933Y0114933D02*
X0143933Y0120933D01*
X0153933Y0120933D02*
X0153933Y0114933D01*
X0163933Y0114933D02*
X0163933Y0120933D01*
X0173933Y0120933D02*
X0173933Y0114933D01*
X0180933Y0107933D02*
X0186933Y0107933D01*
X0183933Y0114933D02*
X0183933Y0120933D01*
X0186933Y0097933D02*
X0180933Y0097933D01*
X0180933Y0087933D02*
X0186933Y0087933D01*
X0186933Y0077933D02*
X0180933Y0077933D01*
X0180933Y0067933D02*
X0186933Y0067933D01*
X0186933Y0057933D02*
X0180933Y0057933D01*
X0180933Y0047933D02*
X0186933Y0047933D01*
X0186933Y0037933D02*
X0180933Y0037933D01*
X0183933Y0030933D02*
X0183933Y0024933D01*
X0173933Y0024933D02*
X0173933Y0030933D01*
X0163933Y0030933D02*
X0163933Y0024933D01*
X0153933Y0024933D02*
X0153933Y0030933D01*
X0143933Y0030933D02*
X0143933Y0024933D01*
X0133933Y0024933D02*
X0133933Y0030933D01*
X0123933Y0030933D02*
X0123933Y0024933D01*
X0113933Y0024933D02*
X0113933Y0030933D01*
X0103933Y0030933D02*
X0103933Y0024933D01*
X0093933Y0024933D02*
X0093933Y0030933D01*
X0083933Y0030933D02*
X0083933Y0024933D01*
X0073933Y0024933D02*
X0073933Y0030933D01*
X0063933Y0030933D02*
X0063933Y0024933D01*
X0053933Y0024933D02*
X0053933Y0030933D01*
X0043933Y0030933D02*
X0043933Y0024933D01*
X0033933Y0024933D02*
X0033933Y0030933D01*
X0023933Y0030933D02*
X0023933Y0024933D01*
M02*
