%
M48
M72
T01C0.01200
T02C0.01500
T03C0.04000
%
T01
X33512Y37012
X79933Y61433
X75433Y75433
X68933Y77933
X104106Y67106
X108933Y70933
X112933Y70433
X116933Y67433
X125433Y72933
X112933Y73933
X112933Y77433
X109433Y77433
X109433Y80933
X105933Y80933
X108433Y84933
X111933Y84933
X112933Y80933
X116933Y81433
X120433Y86433
X123933Y87433
X124933Y82933
X108433Y88433
X104933Y88433
X73933Y105933
X30433Y103433
X129433Y57933
X133433Y63933
X136933Y63933
X140433Y63933
X152933Y72933
X162433Y85433
T02
X143933Y85933
X140933Y82933
X94433Y108933
X30933Y82933
X108933Y32933
T03
X23933Y27933
X33933Y27933
X43933Y27933
X53933Y27933
X63933Y27933
X73933Y27933
X83933Y27933
X93933Y27933
X103933Y27933
X113933Y27933
X123933Y27933
X133933Y27933
X143933Y27933
X153933Y27933
X163933Y27933
X173933Y27933
X183933Y27933
X183933Y37933
X183933Y47933
X183933Y57933
X183933Y67933
X183933Y77933
X183933Y87933
X183933Y97933
X183933Y107933
X183933Y117933
X173933Y117933
X163933Y117933
X153933Y117933
X143933Y117933
X133933Y117933
X123933Y117933
X113933Y117933
X103933Y117933
X93933Y117933
X83933Y117933
X73933Y117933
X63933Y117933
X53933Y117933
X43933Y117933
X33933Y117933
X23933Y117933
M30
