G75*
%MOIN*%
%OFA0B0*%
%FSLAX25Y25*%
%IPPOS*%
%LPD*%
%AMOC8*
5,1,8,0,0,1.08239X$1,22.5*
%
%ADD10C,0.00000*%
%ADD11C,0.06000*%
%ADD12C,0.01200*%
%ADD13C,0.02700*%
%ADD14C,0.02400*%
%ADD15C,0.02400*%
%ADD16C,0.03200*%
%ADD17C,0.01000*%
D10*
X0016933Y0019933D02*
X0016933Y0123933D01*
X0190933Y0123933D01*
X0190933Y0019933D01*
X0016933Y0019933D01*
D11*
X0023933Y0023933D02*
X0023933Y0029933D01*
X0033933Y0029933D02*
X0033933Y0023933D01*
X0043933Y0023933D02*
X0043933Y0029933D01*
X0053933Y0029933D02*
X0053933Y0023933D01*
X0063933Y0023933D02*
X0063933Y0029933D01*
X0073933Y0029933D02*
X0073933Y0023933D01*
X0083933Y0023933D02*
X0083933Y0029933D01*
X0093933Y0029933D02*
X0093933Y0023933D01*
X0103933Y0023933D02*
X0103933Y0029933D01*
X0113933Y0029933D02*
X0113933Y0023933D01*
X0123933Y0023933D02*
X0123933Y0029933D01*
X0133933Y0029933D02*
X0133933Y0023933D01*
X0143933Y0023933D02*
X0143933Y0029933D01*
X0153933Y0029933D02*
X0153933Y0023933D01*
X0163933Y0023933D02*
X0163933Y0029933D01*
X0173933Y0029933D02*
X0173933Y0023933D01*
X0183933Y0023933D02*
X0183933Y0029933D01*
X0186933Y0036933D02*
X0180933Y0036933D01*
X0180933Y0046933D02*
X0186933Y0046933D01*
X0186933Y0056933D02*
X0180933Y0056933D01*
X0180933Y0066933D02*
X0186933Y0066933D01*
X0186933Y0076933D02*
X0180933Y0076933D01*
X0180933Y0086933D02*
X0186933Y0086933D01*
X0186933Y0096933D02*
X0180933Y0096933D01*
X0180933Y0106933D02*
X0186933Y0106933D01*
X0183933Y0113933D02*
X0183933Y0119933D01*
X0173933Y0119933D02*
X0173933Y0113933D01*
X0163933Y0113933D02*
X0163933Y0119933D01*
X0153933Y0119933D02*
X0153933Y0113933D01*
X0143933Y0113933D02*
X0143933Y0119933D01*
X0133933Y0119933D02*
X0133933Y0113933D01*
X0123933Y0113933D02*
X0123933Y0119933D01*
X0113933Y0119933D02*
X0113933Y0113933D01*
X0103933Y0113933D02*
X0103933Y0119933D01*
X0093933Y0119933D02*
X0093933Y0113933D01*
X0083933Y0113933D02*
X0083933Y0119933D01*
X0073933Y0119933D02*
X0073933Y0113933D01*
X0063933Y0113933D02*
X0063933Y0119933D01*
X0053933Y0119933D02*
X0053933Y0113933D01*
X0043933Y0113933D02*
X0043933Y0119933D01*
X0033933Y0119933D02*
X0033933Y0113933D01*
X0023933Y0113933D02*
X0023933Y0119933D01*
D12*
X0019514Y0121807D02*
X0018733Y0121807D01*
X0018733Y0122133D02*
X0019649Y0122133D01*
X0019133Y0120888D01*
X0019133Y0112978D01*
X0019864Y0111214D01*
X0021214Y0109864D01*
X0022978Y0109133D01*
X0024888Y0109133D01*
X0026652Y0109864D01*
X0028002Y0111214D01*
X0028733Y0112978D01*
X0028733Y0120888D01*
X0028217Y0122133D01*
X0029649Y0122133D01*
X0029133Y0120888D01*
X0029133Y0112978D01*
X0029864Y0111214D01*
X0031214Y0109864D01*
X0032978Y0109133D01*
X0034888Y0109133D01*
X0036652Y0109864D01*
X0038002Y0111214D01*
X0038733Y0112978D01*
X0038733Y0120888D01*
X0038217Y0122133D01*
X0039649Y0122133D01*
X0039133Y0120888D01*
X0039133Y0112978D01*
X0039864Y0111214D01*
X0041214Y0109864D01*
X0042978Y0109133D01*
X0044888Y0109133D01*
X0046652Y0109864D01*
X0048002Y0111214D01*
X0048733Y0112978D01*
X0048733Y0120888D01*
X0048217Y0122133D01*
X0049649Y0122133D01*
X0049133Y0120888D01*
X0049133Y0112978D01*
X0049864Y0111214D01*
X0051214Y0109864D01*
X0052978Y0109133D01*
X0054888Y0109133D01*
X0056652Y0109864D01*
X0058002Y0111214D01*
X0058733Y0112978D01*
X0058733Y0120888D01*
X0058217Y0122133D01*
X0059649Y0122133D01*
X0059133Y0120888D01*
X0059133Y0112978D01*
X0059864Y0111214D01*
X0061214Y0109864D01*
X0062978Y0109133D01*
X0064888Y0109133D01*
X0066652Y0109864D01*
X0068002Y0111214D01*
X0068733Y0112978D01*
X0068733Y0120888D01*
X0068217Y0122133D01*
X0069649Y0122133D01*
X0069133Y0120888D01*
X0069133Y0112978D01*
X0069864Y0111214D01*
X0071214Y0109864D01*
X0072978Y0109133D01*
X0074888Y0109133D01*
X0076652Y0109864D01*
X0078002Y0111214D01*
X0078733Y0112978D01*
X0078733Y0120888D01*
X0078217Y0122133D01*
X0079649Y0122133D01*
X0079133Y0120888D01*
X0079133Y0112978D01*
X0079864Y0111214D01*
X0081214Y0109864D01*
X0082978Y0109133D01*
X0084888Y0109133D01*
X0086652Y0109864D01*
X0088002Y0111214D01*
X0088733Y0112978D01*
X0088733Y0120888D01*
X0088217Y0122133D01*
X0089649Y0122133D01*
X0089133Y0120888D01*
X0089133Y0112978D01*
X0089864Y0111214D01*
X0091214Y0109864D01*
X0092978Y0109133D01*
X0094888Y0109133D01*
X0096652Y0109864D01*
X0098002Y0111214D01*
X0098733Y0112978D01*
X0098733Y0120888D01*
X0098217Y0122133D01*
X0099649Y0122133D01*
X0099133Y0120888D01*
X0099133Y0112978D01*
X0099864Y0111214D01*
X0101133Y0109945D01*
X0101133Y0087980D01*
X0101933Y0087180D01*
X0101933Y0086836D01*
X0102390Y0085734D01*
X0103234Y0084890D01*
X0104336Y0084433D01*
X0105433Y0084433D01*
X0105433Y0083336D01*
X0105890Y0082234D01*
X0106734Y0081390D01*
X0107836Y0080933D01*
X0109030Y0080933D01*
X0110132Y0081390D01*
X0110183Y0081440D01*
X0110234Y0081390D01*
X0111336Y0080933D01*
X0112530Y0080933D01*
X0113632Y0081390D01*
X0114476Y0082234D01*
X0114640Y0082629D01*
X0114650Y0082392D01*
X0114390Y0082132D01*
X0113933Y0081030D01*
X0113933Y0079836D01*
X0114390Y0078734D01*
X0114633Y0078490D01*
X0114633Y0068506D01*
X0111589Y0068506D01*
X0111933Y0069336D01*
X0111933Y0070530D01*
X0111476Y0071632D01*
X0111233Y0071876D01*
X0111233Y0071886D01*
X0109886Y0073233D01*
X0103886Y0079233D01*
X0070876Y0079233D01*
X0070632Y0079476D01*
X0069530Y0079933D01*
X0068336Y0079933D01*
X0067234Y0079476D01*
X0066390Y0078632D01*
X0065933Y0077530D01*
X0065933Y0076336D01*
X0066390Y0075234D01*
X0067234Y0074390D01*
X0068336Y0073933D01*
X0069530Y0073933D01*
X0070632Y0074390D01*
X0070876Y0074633D01*
X0072433Y0074633D01*
X0072433Y0073836D01*
X0072890Y0072734D01*
X0073734Y0071890D01*
X0074836Y0071433D01*
X0076030Y0071433D01*
X0076271Y0071533D01*
X0100439Y0071533D01*
X0101706Y0070266D01*
X0101706Y0067949D01*
X0101563Y0067806D01*
X0101106Y0066703D01*
X0101106Y0065510D01*
X0101563Y0064407D01*
X0102407Y0063563D01*
X0102721Y0063433D01*
X0079336Y0063433D01*
X0078234Y0062976D01*
X0077390Y0062132D01*
X0076933Y0061030D01*
X0076933Y0059836D01*
X0077390Y0058734D01*
X0078234Y0057890D01*
X0079336Y0057433D01*
X0121745Y0057433D01*
X0131033Y0048603D01*
X0131033Y0036956D01*
X0131398Y0036074D01*
X0132809Y0034663D01*
X0131214Y0034002D01*
X0129864Y0032652D01*
X0129133Y0030888D01*
X0129133Y0022978D01*
X0129649Y0021733D01*
X0128217Y0021733D01*
X0128733Y0022978D01*
X0128733Y0030888D01*
X0128002Y0032652D01*
X0126652Y0034002D01*
X0124888Y0034733D01*
X0122978Y0034733D01*
X0121214Y0034002D01*
X0119864Y0032652D01*
X0119133Y0030888D01*
X0119133Y0022978D01*
X0119649Y0021733D01*
X0118217Y0021733D01*
X0118733Y0022978D01*
X0118733Y0030888D01*
X0118002Y0032652D01*
X0116652Y0034002D01*
X0114888Y0034733D01*
X0112978Y0034733D01*
X0111214Y0034002D01*
X0109864Y0032652D01*
X0109133Y0030888D01*
X0109133Y0022978D01*
X0109649Y0021733D01*
X0108217Y0021733D01*
X0108733Y0022978D01*
X0108733Y0030888D01*
X0108002Y0032652D01*
X0106652Y0034002D01*
X0104888Y0034733D01*
X0102978Y0034733D01*
X0101214Y0034002D01*
X0099864Y0032652D01*
X0099133Y0030888D01*
X0099133Y0022978D01*
X0099649Y0021733D01*
X0098217Y0021733D01*
X0098733Y0022978D01*
X0098733Y0030888D01*
X0098002Y0032652D01*
X0096652Y0034002D01*
X0094888Y0034733D01*
X0092978Y0034733D01*
X0091214Y0034002D01*
X0089864Y0032652D01*
X0089133Y0030888D01*
X0089133Y0022978D01*
X0089649Y0021733D01*
X0088217Y0021733D01*
X0088733Y0022978D01*
X0088733Y0030888D01*
X0088002Y0032652D01*
X0086652Y0034002D01*
X0084888Y0034733D01*
X0082978Y0034733D01*
X0081214Y0034002D01*
X0079864Y0032652D01*
X0079133Y0030888D01*
X0079133Y0022978D01*
X0079649Y0021733D01*
X0078217Y0021733D01*
X0078733Y0022978D01*
X0078733Y0030888D01*
X0078002Y0032652D01*
X0076652Y0034002D01*
X0074888Y0034733D01*
X0072978Y0034733D01*
X0071214Y0034002D01*
X0069864Y0032652D01*
X0069133Y0030888D01*
X0069133Y0022978D01*
X0069649Y0021733D01*
X0068217Y0021733D01*
X0068733Y0022978D01*
X0068733Y0030888D01*
X0068002Y0032652D01*
X0066652Y0034002D01*
X0064888Y0034733D01*
X0062978Y0034733D01*
X0061214Y0034002D01*
X0059864Y0032652D01*
X0059133Y0030888D01*
X0059133Y0022978D01*
X0059649Y0021733D01*
X0058217Y0021733D01*
X0058733Y0022978D01*
X0058733Y0030888D01*
X0058002Y0032652D01*
X0056652Y0034002D01*
X0054888Y0034733D01*
X0052978Y0034733D01*
X0051214Y0034002D01*
X0049864Y0032652D01*
X0049133Y0030888D01*
X0049133Y0022978D01*
X0049649Y0021733D01*
X0048217Y0021733D01*
X0048733Y0022978D01*
X0048733Y0030888D01*
X0048002Y0032652D01*
X0046652Y0034002D01*
X0044888Y0034733D01*
X0042978Y0034733D01*
X0041214Y0034002D01*
X0039864Y0032652D01*
X0039133Y0030888D01*
X0039133Y0022978D01*
X0039649Y0021733D01*
X0028217Y0021733D01*
X0028733Y0022978D01*
X0028733Y0030888D01*
X0028002Y0032652D01*
X0027690Y0032964D01*
X0033524Y0033012D01*
X0034109Y0033012D01*
X0034120Y0033017D01*
X0034133Y0033017D01*
X0034670Y0033245D01*
X0035211Y0033469D01*
X0035220Y0033478D01*
X0035232Y0033483D01*
X0035641Y0033899D01*
X0036055Y0034312D01*
X0036060Y0034324D01*
X0036069Y0034333D01*
X0036288Y0034875D01*
X0036512Y0035415D01*
X0036512Y0035428D01*
X0036517Y0035440D01*
X0036512Y0036024D01*
X0036512Y0036609D01*
X0036507Y0036620D01*
X0036507Y0036633D01*
X0036279Y0037170D01*
X0036055Y0037711D01*
X0036046Y0037720D01*
X0036041Y0037732D01*
X0035625Y0038141D01*
X0035211Y0038555D01*
X0035199Y0038560D01*
X0035190Y0038569D01*
X0034649Y0038788D01*
X0034109Y0039012D01*
X0034096Y0039012D01*
X0034084Y0039017D01*
X0033500Y0039012D01*
X0026939Y0039012D01*
X0027009Y0073609D01*
X0032624Y0079224D01*
X0032717Y0079263D01*
X0033604Y0080149D01*
X0034083Y0081306D01*
X0034083Y0082560D01*
X0033604Y0083717D01*
X0032717Y0084604D01*
X0031560Y0085083D01*
X0030306Y0085083D01*
X0029149Y0084604D01*
X0028263Y0083717D01*
X0028001Y0083086D01*
X0021892Y0076977D01*
X0021472Y0076559D01*
X0021471Y0076556D01*
X0021469Y0076554D01*
X0021241Y0076004D01*
X0021013Y0075457D01*
X0021013Y0075454D01*
X0021012Y0075451D01*
X0021012Y0074855D01*
X0020936Y0037534D01*
X0020935Y0037531D01*
X0020935Y0036939D01*
X0020934Y0036533D01*
X0020933Y0036530D01*
X0020933Y0036517D01*
X0020928Y0036505D01*
X0020933Y0035924D01*
X0020932Y0035342D01*
X0020933Y0035339D01*
X0020933Y0035336D01*
X0020935Y0035331D01*
X0020935Y0033723D01*
X0019864Y0032652D01*
X0019133Y0030888D01*
X0019133Y0022978D01*
X0019649Y0021733D01*
X0018733Y0021733D01*
X0018733Y0122133D01*
X0018733Y0120608D02*
X0019133Y0120608D01*
X0019133Y0119410D02*
X0018733Y0119410D01*
X0018733Y0118211D02*
X0019133Y0118211D01*
X0019133Y0117012D02*
X0018733Y0117012D01*
X0018733Y0115814D02*
X0019133Y0115814D01*
X0019133Y0114615D02*
X0018733Y0114615D01*
X0018733Y0113417D02*
X0019133Y0113417D01*
X0019448Y0112218D02*
X0018733Y0112218D01*
X0018733Y0111020D02*
X0020058Y0111020D01*
X0021316Y0109821D02*
X0018733Y0109821D01*
X0018733Y0108623D02*
X0101133Y0108623D01*
X0101133Y0109821D02*
X0096550Y0109821D01*
X0097808Y0111020D02*
X0100058Y0111020D01*
X0099448Y0112218D02*
X0098418Y0112218D01*
X0098733Y0113417D02*
X0099133Y0113417D01*
X0099133Y0114615D02*
X0098733Y0114615D01*
X0098733Y0115814D02*
X0099133Y0115814D01*
X0099133Y0117012D02*
X0098733Y0117012D01*
X0098733Y0118211D02*
X0099133Y0118211D01*
X0099133Y0119410D02*
X0098733Y0119410D01*
X0098733Y0120608D02*
X0099133Y0120608D01*
X0099514Y0121807D02*
X0098353Y0121807D01*
X0089514Y0121807D02*
X0088353Y0121807D01*
X0088733Y0120608D02*
X0089133Y0120608D01*
X0089133Y0119410D02*
X0088733Y0119410D01*
X0088733Y0118211D02*
X0089133Y0118211D01*
X0089133Y0117012D02*
X0088733Y0117012D01*
X0088733Y0115814D02*
X0089133Y0115814D01*
X0089133Y0114615D02*
X0088733Y0114615D01*
X0088733Y0113417D02*
X0089133Y0113417D01*
X0089448Y0112218D02*
X0088418Y0112218D01*
X0087808Y0111020D02*
X0090058Y0111020D01*
X0091316Y0109821D02*
X0086550Y0109821D01*
X0081316Y0109821D02*
X0076550Y0109821D01*
X0077808Y0111020D02*
X0080058Y0111020D01*
X0079448Y0112218D02*
X0078418Y0112218D01*
X0078733Y0113417D02*
X0079133Y0113417D01*
X0079133Y0114615D02*
X0078733Y0114615D01*
X0078733Y0115814D02*
X0079133Y0115814D01*
X0079133Y0117012D02*
X0078733Y0117012D01*
X0078733Y0118211D02*
X0079133Y0118211D01*
X0079133Y0119410D02*
X0078733Y0119410D01*
X0078733Y0120608D02*
X0079133Y0120608D01*
X0079514Y0121807D02*
X0078353Y0121807D01*
X0069514Y0121807D02*
X0068353Y0121807D01*
X0068733Y0120608D02*
X0069133Y0120608D01*
X0069133Y0119410D02*
X0068733Y0119410D01*
X0068733Y0118211D02*
X0069133Y0118211D01*
X0069133Y0117012D02*
X0068733Y0117012D01*
X0068733Y0115814D02*
X0069133Y0115814D01*
X0069133Y0114615D02*
X0068733Y0114615D01*
X0068733Y0113417D02*
X0069133Y0113417D01*
X0069448Y0112218D02*
X0068418Y0112218D01*
X0067808Y0111020D02*
X0070058Y0111020D01*
X0071316Y0109821D02*
X0066550Y0109821D01*
X0061316Y0109821D02*
X0056550Y0109821D01*
X0057808Y0111020D02*
X0060058Y0111020D01*
X0059448Y0112218D02*
X0058418Y0112218D01*
X0058733Y0113417D02*
X0059133Y0113417D01*
X0059133Y0114615D02*
X0058733Y0114615D01*
X0058733Y0115814D02*
X0059133Y0115814D01*
X0059133Y0117012D02*
X0058733Y0117012D01*
X0058733Y0118211D02*
X0059133Y0118211D01*
X0059133Y0119410D02*
X0058733Y0119410D01*
X0058733Y0120608D02*
X0059133Y0120608D01*
X0059514Y0121807D02*
X0058353Y0121807D01*
X0049514Y0121807D02*
X0048353Y0121807D01*
X0048733Y0120608D02*
X0049133Y0120608D01*
X0049133Y0119410D02*
X0048733Y0119410D01*
X0048733Y0118211D02*
X0049133Y0118211D01*
X0049133Y0117012D02*
X0048733Y0117012D01*
X0048733Y0115814D02*
X0049133Y0115814D01*
X0049133Y0114615D02*
X0048733Y0114615D01*
X0048733Y0113417D02*
X0049133Y0113417D01*
X0049448Y0112218D02*
X0048418Y0112218D01*
X0047808Y0111020D02*
X0050058Y0111020D01*
X0051316Y0109821D02*
X0046550Y0109821D01*
X0041316Y0109821D02*
X0036550Y0109821D01*
X0037808Y0111020D02*
X0040058Y0111020D01*
X0039448Y0112218D02*
X0038418Y0112218D01*
X0038733Y0113417D02*
X0039133Y0113417D01*
X0039133Y0114615D02*
X0038733Y0114615D01*
X0038733Y0115814D02*
X0039133Y0115814D01*
X0039133Y0117012D02*
X0038733Y0117012D01*
X0038733Y0118211D02*
X0039133Y0118211D01*
X0039133Y0119410D02*
X0038733Y0119410D01*
X0038733Y0120608D02*
X0039133Y0120608D01*
X0039514Y0121807D02*
X0038353Y0121807D01*
X0029514Y0121807D02*
X0028353Y0121807D01*
X0028733Y0120608D02*
X0029133Y0120608D01*
X0029133Y0119410D02*
X0028733Y0119410D01*
X0028733Y0118211D02*
X0029133Y0118211D01*
X0029133Y0117012D02*
X0028733Y0117012D01*
X0028733Y0115814D02*
X0029133Y0115814D01*
X0029133Y0114615D02*
X0028733Y0114615D01*
X0028733Y0113417D02*
X0029133Y0113417D01*
X0029448Y0112218D02*
X0028418Y0112218D01*
X0027808Y0111020D02*
X0030058Y0111020D01*
X0031316Y0109821D02*
X0026550Y0109821D01*
X0018733Y0107424D02*
X0101133Y0107424D01*
X0101133Y0106226D02*
X0018733Y0106226D01*
X0018733Y0105027D02*
X0101133Y0105027D01*
X0101133Y0103829D02*
X0018733Y0103829D01*
X0018733Y0102630D02*
X0101133Y0102630D01*
X0101133Y0101432D02*
X0018733Y0101432D01*
X0018733Y0100233D02*
X0101133Y0100233D01*
X0101133Y0099035D02*
X0018733Y0099035D01*
X0018733Y0097836D02*
X0101133Y0097836D01*
X0101133Y0096638D02*
X0018733Y0096638D01*
X0018733Y0095439D02*
X0101133Y0095439D01*
X0101133Y0094241D02*
X0018733Y0094241D01*
X0018733Y0093042D02*
X0101133Y0093042D01*
X0101133Y0091844D02*
X0018733Y0091844D01*
X0018733Y0090645D02*
X0101133Y0090645D01*
X0101133Y0089447D02*
X0018733Y0089447D01*
X0018733Y0088248D02*
X0101133Y0088248D01*
X0101933Y0087050D02*
X0018733Y0087050D01*
X0018733Y0085851D02*
X0102341Y0085851D01*
X0103806Y0084653D02*
X0032599Y0084653D01*
X0033713Y0083454D02*
X0105433Y0083454D01*
X0105881Y0082256D02*
X0034083Y0082256D01*
X0033980Y0081057D02*
X0107537Y0081057D01*
X0109329Y0081057D02*
X0111037Y0081057D01*
X0112829Y0081057D02*
X0113944Y0081057D01*
X0113933Y0079859D02*
X0069709Y0079859D01*
X0068157Y0079859D02*
X0033313Y0079859D01*
X0032060Y0078660D02*
X0066417Y0078660D01*
X0065933Y0077462D02*
X0030862Y0077462D01*
X0029663Y0076263D02*
X0065963Y0076263D01*
X0066559Y0075065D02*
X0028465Y0075065D01*
X0027266Y0073866D02*
X0072433Y0073866D01*
X0072956Y0072668D02*
X0027007Y0072668D01*
X0027005Y0071469D02*
X0074749Y0071469D01*
X0076117Y0071469D02*
X0100503Y0071469D01*
X0101701Y0070271D02*
X0027003Y0070271D01*
X0027000Y0069072D02*
X0101706Y0069072D01*
X0101631Y0067874D02*
X0026998Y0067874D01*
X0026995Y0066675D02*
X0101106Y0066675D01*
X0101120Y0065477D02*
X0026993Y0065477D01*
X0026990Y0064278D02*
X0101692Y0064278D01*
X0104106Y0066106D02*
X0104106Y0071260D01*
X0101433Y0073933D01*
X0075933Y0073933D01*
X0075433Y0074433D01*
X0078483Y0063079D02*
X0026988Y0063079D01*
X0026986Y0061881D02*
X0077286Y0061881D01*
X0076933Y0060682D02*
X0026983Y0060682D01*
X0026981Y0059484D02*
X0077079Y0059484D01*
X0077838Y0058285D02*
X0026978Y0058285D01*
X0026976Y0057087D02*
X0122109Y0057087D01*
X0123370Y0055888D02*
X0026973Y0055888D01*
X0026971Y0054690D02*
X0124630Y0054690D01*
X0125891Y0053491D02*
X0026969Y0053491D01*
X0026966Y0052293D02*
X0127152Y0052293D01*
X0128413Y0051094D02*
X0026964Y0051094D01*
X0026961Y0049896D02*
X0129673Y0049896D01*
X0130934Y0048697D02*
X0026959Y0048697D01*
X0026956Y0047499D02*
X0131033Y0047499D01*
X0131033Y0046300D02*
X0026954Y0046300D01*
X0026952Y0045102D02*
X0131033Y0045102D01*
X0131033Y0043903D02*
X0026949Y0043903D01*
X0026947Y0042705D02*
X0131033Y0042705D01*
X0131033Y0041506D02*
X0026944Y0041506D01*
X0026942Y0040308D02*
X0131033Y0040308D01*
X0131033Y0039109D02*
X0026939Y0039109D01*
X0020940Y0039109D02*
X0018733Y0039109D01*
X0018733Y0037911D02*
X0020937Y0037911D01*
X0020935Y0036712D02*
X0018733Y0036712D01*
X0018733Y0035514D02*
X0020932Y0035514D01*
X0020935Y0034315D02*
X0018733Y0034315D01*
X0018733Y0033117D02*
X0020328Y0033117D01*
X0019560Y0031918D02*
X0018733Y0031918D01*
X0018733Y0030720D02*
X0019133Y0030720D01*
X0019133Y0029521D02*
X0018733Y0029521D01*
X0018733Y0028323D02*
X0019133Y0028323D01*
X0019133Y0027124D02*
X0018733Y0027124D01*
X0018733Y0025926D02*
X0019133Y0025926D01*
X0019133Y0024727D02*
X0018733Y0024727D01*
X0018733Y0023529D02*
X0019133Y0023529D01*
X0019402Y0022330D02*
X0018733Y0022330D01*
X0028465Y0022330D02*
X0039402Y0022330D01*
X0039133Y0023529D02*
X0028733Y0023529D01*
X0028733Y0024727D02*
X0039133Y0024727D01*
X0039133Y0025926D02*
X0028733Y0025926D01*
X0028733Y0027124D02*
X0039133Y0027124D01*
X0039133Y0028323D02*
X0028733Y0028323D01*
X0028733Y0029521D02*
X0039133Y0029521D01*
X0039133Y0030720D02*
X0028733Y0030720D01*
X0028306Y0031918D02*
X0039560Y0031918D01*
X0040328Y0033117D02*
X0034369Y0033117D01*
X0036056Y0034315D02*
X0041970Y0034315D01*
X0045897Y0034315D02*
X0051970Y0034315D01*
X0050328Y0033117D02*
X0047538Y0033117D01*
X0048306Y0031918D02*
X0049560Y0031918D01*
X0049133Y0030720D02*
X0048733Y0030720D01*
X0048733Y0029521D02*
X0049133Y0029521D01*
X0049133Y0028323D02*
X0048733Y0028323D01*
X0048733Y0027124D02*
X0049133Y0027124D01*
X0049133Y0025926D02*
X0048733Y0025926D01*
X0048733Y0024727D02*
X0049133Y0024727D01*
X0049133Y0023529D02*
X0048733Y0023529D01*
X0048465Y0022330D02*
X0049402Y0022330D01*
X0058465Y0022330D02*
X0059402Y0022330D01*
X0059133Y0023529D02*
X0058733Y0023529D01*
X0058733Y0024727D02*
X0059133Y0024727D01*
X0059133Y0025926D02*
X0058733Y0025926D01*
X0058733Y0027124D02*
X0059133Y0027124D01*
X0059133Y0028323D02*
X0058733Y0028323D01*
X0058733Y0029521D02*
X0059133Y0029521D01*
X0059133Y0030720D02*
X0058733Y0030720D01*
X0058306Y0031918D02*
X0059560Y0031918D01*
X0060328Y0033117D02*
X0057538Y0033117D01*
X0055897Y0034315D02*
X0061970Y0034315D01*
X0065897Y0034315D02*
X0071970Y0034315D01*
X0070328Y0033117D02*
X0067538Y0033117D01*
X0068306Y0031918D02*
X0069560Y0031918D01*
X0069133Y0030720D02*
X0068733Y0030720D01*
X0068733Y0029521D02*
X0069133Y0029521D01*
X0069133Y0028323D02*
X0068733Y0028323D01*
X0068733Y0027124D02*
X0069133Y0027124D01*
X0069133Y0025926D02*
X0068733Y0025926D01*
X0068733Y0024727D02*
X0069133Y0024727D01*
X0069133Y0023529D02*
X0068733Y0023529D01*
X0068465Y0022330D02*
X0069402Y0022330D01*
X0078465Y0022330D02*
X0079402Y0022330D01*
X0079133Y0023529D02*
X0078733Y0023529D01*
X0078733Y0024727D02*
X0079133Y0024727D01*
X0079133Y0025926D02*
X0078733Y0025926D01*
X0078733Y0027124D02*
X0079133Y0027124D01*
X0079133Y0028323D02*
X0078733Y0028323D01*
X0078733Y0029521D02*
X0079133Y0029521D01*
X0079133Y0030720D02*
X0078733Y0030720D01*
X0078306Y0031918D02*
X0079560Y0031918D01*
X0080328Y0033117D02*
X0077538Y0033117D01*
X0075897Y0034315D02*
X0081970Y0034315D01*
X0085897Y0034315D02*
X0091970Y0034315D01*
X0090328Y0033117D02*
X0087538Y0033117D01*
X0088306Y0031918D02*
X0089560Y0031918D01*
X0089133Y0030720D02*
X0088733Y0030720D01*
X0088733Y0029521D02*
X0089133Y0029521D01*
X0089133Y0028323D02*
X0088733Y0028323D01*
X0088733Y0027124D02*
X0089133Y0027124D01*
X0089133Y0025926D02*
X0088733Y0025926D01*
X0088733Y0024727D02*
X0089133Y0024727D01*
X0089133Y0023529D02*
X0088733Y0023529D01*
X0088465Y0022330D02*
X0089402Y0022330D01*
X0098465Y0022330D02*
X0099402Y0022330D01*
X0099133Y0023529D02*
X0098733Y0023529D01*
X0098733Y0024727D02*
X0099133Y0024727D01*
X0099133Y0025926D02*
X0098733Y0025926D01*
X0098733Y0027124D02*
X0099133Y0027124D01*
X0099133Y0028323D02*
X0098733Y0028323D01*
X0098733Y0029521D02*
X0099133Y0029521D01*
X0099133Y0030720D02*
X0098733Y0030720D01*
X0098306Y0031918D02*
X0099560Y0031918D01*
X0100328Y0033117D02*
X0097538Y0033117D01*
X0095897Y0034315D02*
X0101970Y0034315D01*
X0105897Y0034315D02*
X0111970Y0034315D01*
X0110328Y0033117D02*
X0107538Y0033117D01*
X0108306Y0031918D02*
X0109560Y0031918D01*
X0109133Y0030720D02*
X0108733Y0030720D01*
X0108733Y0029521D02*
X0109133Y0029521D01*
X0109133Y0028323D02*
X0108733Y0028323D01*
X0108733Y0027124D02*
X0109133Y0027124D01*
X0109133Y0025926D02*
X0108733Y0025926D01*
X0108733Y0024727D02*
X0109133Y0024727D01*
X0109133Y0023529D02*
X0108733Y0023529D01*
X0108465Y0022330D02*
X0109402Y0022330D01*
X0118465Y0022330D02*
X0119402Y0022330D01*
X0119133Y0023529D02*
X0118733Y0023529D01*
X0118733Y0024727D02*
X0119133Y0024727D01*
X0119133Y0025926D02*
X0118733Y0025926D01*
X0118733Y0027124D02*
X0119133Y0027124D01*
X0119133Y0028323D02*
X0118733Y0028323D01*
X0118733Y0029521D02*
X0119133Y0029521D01*
X0119133Y0030720D02*
X0118733Y0030720D01*
X0118306Y0031918D02*
X0119560Y0031918D01*
X0120328Y0033117D02*
X0117538Y0033117D01*
X0115897Y0034315D02*
X0121970Y0034315D01*
X0125897Y0034315D02*
X0131970Y0034315D01*
X0131958Y0035514D02*
X0036516Y0035514D01*
X0036473Y0036712D02*
X0131134Y0036712D01*
X0131033Y0037911D02*
X0035859Y0037911D01*
X0020942Y0040308D02*
X0018733Y0040308D01*
X0018733Y0041506D02*
X0020944Y0041506D01*
X0020947Y0042705D02*
X0018733Y0042705D01*
X0018733Y0043903D02*
X0020949Y0043903D01*
X0020952Y0045102D02*
X0018733Y0045102D01*
X0018733Y0046300D02*
X0020954Y0046300D01*
X0020956Y0047499D02*
X0018733Y0047499D01*
X0018733Y0048697D02*
X0020959Y0048697D01*
X0020961Y0049896D02*
X0018733Y0049896D01*
X0018733Y0051094D02*
X0020964Y0051094D01*
X0020966Y0052293D02*
X0018733Y0052293D01*
X0018733Y0053491D02*
X0020969Y0053491D01*
X0020971Y0054690D02*
X0018733Y0054690D01*
X0018733Y0055888D02*
X0020973Y0055888D01*
X0020976Y0057087D02*
X0018733Y0057087D01*
X0018733Y0058285D02*
X0020978Y0058285D01*
X0020981Y0059484D02*
X0018733Y0059484D01*
X0018733Y0060682D02*
X0020983Y0060682D01*
X0020986Y0061881D02*
X0018733Y0061881D01*
X0018733Y0063079D02*
X0020988Y0063079D01*
X0020990Y0064278D02*
X0018733Y0064278D01*
X0018733Y0065477D02*
X0020993Y0065477D01*
X0020995Y0066675D02*
X0018733Y0066675D01*
X0018733Y0067874D02*
X0020998Y0067874D01*
X0021000Y0069072D02*
X0018733Y0069072D01*
X0018733Y0070271D02*
X0021003Y0070271D01*
X0021005Y0071469D02*
X0018733Y0071469D01*
X0018733Y0072668D02*
X0021007Y0072668D01*
X0021010Y0073866D02*
X0018733Y0073866D01*
X0018733Y0075065D02*
X0021012Y0075065D01*
X0021348Y0076263D02*
X0018733Y0076263D01*
X0018733Y0077462D02*
X0022376Y0077462D01*
X0023575Y0078660D02*
X0018733Y0078660D01*
X0018733Y0079859D02*
X0024773Y0079859D01*
X0025972Y0081057D02*
X0018733Y0081057D01*
X0018733Y0082256D02*
X0027171Y0082256D01*
X0028154Y0083454D02*
X0018733Y0083454D01*
X0018733Y0084653D02*
X0029267Y0084653D01*
X0030433Y0100933D02*
X0030433Y0102433D01*
X0104106Y0066106D02*
X0116606Y0066106D01*
X0116933Y0066433D01*
X0114633Y0069072D02*
X0111824Y0069072D01*
X0111933Y0070271D02*
X0114633Y0070271D01*
X0114633Y0071469D02*
X0111544Y0071469D01*
X0110451Y0072668D02*
X0114633Y0072668D01*
X0114633Y0073866D02*
X0109253Y0073866D01*
X0108054Y0075065D02*
X0114633Y0075065D01*
X0114633Y0076263D02*
X0106856Y0076263D01*
X0105657Y0077462D02*
X0114633Y0077462D01*
X0114463Y0078660D02*
X0104459Y0078660D01*
X0114485Y0082256D02*
X0114513Y0082256D01*
X0124433Y0081933D02*
X0124933Y0081933D01*
X0130933Y0081933D01*
X0165933Y0046933D01*
X0183933Y0046933D01*
X0183933Y0036933D02*
X0172933Y0036933D01*
X0137933Y0071933D01*
X0125433Y0071933D01*
X0136402Y0079859D02*
X0138533Y0079859D01*
X0138533Y0079878D02*
X0138533Y0077727D01*
X0132293Y0083968D01*
X0131410Y0084333D01*
X0126776Y0084333D01*
X0126632Y0084476D01*
X0126340Y0084597D01*
X0126476Y0084734D01*
X0126933Y0085836D01*
X0126933Y0086180D01*
X0127233Y0086480D01*
X0127233Y0100980D01*
X0130886Y0104633D01*
X0143714Y0104633D01*
X0143956Y0104533D01*
X0144910Y0104533D01*
X0145152Y0104633D01*
X0145386Y0104633D01*
X0145551Y0104798D01*
X0145793Y0104898D01*
X0150986Y0110092D01*
X0151214Y0109864D01*
X0152978Y0109133D01*
X0154888Y0109133D01*
X0156652Y0109864D01*
X0158002Y0111214D01*
X0158733Y0112978D01*
X0158733Y0120888D01*
X0158217Y0122133D01*
X0159649Y0122133D01*
X0159133Y0120888D01*
X0159133Y0112978D01*
X0159864Y0111214D01*
X0161214Y0109864D01*
X0162870Y0109178D01*
X0159551Y0105859D01*
X0159033Y0104609D01*
X0159033Y0083757D01*
X0159551Y0082507D01*
X0160507Y0081551D01*
X0161757Y0081033D01*
X0163109Y0081033D01*
X0164359Y0081551D01*
X0165315Y0082507D01*
X0165833Y0083757D01*
X0165833Y0102525D01*
X0172599Y0109290D01*
X0172978Y0109133D01*
X0174888Y0109133D01*
X0176652Y0109864D01*
X0178002Y0111214D01*
X0178733Y0112978D01*
X0178733Y0120888D01*
X0178217Y0122133D01*
X0189133Y0122133D01*
X0189133Y0111217D01*
X0187888Y0111733D01*
X0179978Y0111733D01*
X0178214Y0111002D01*
X0176864Y0109652D01*
X0176133Y0107888D01*
X0176133Y0105978D01*
X0176864Y0104214D01*
X0178214Y0102864D01*
X0179978Y0102133D01*
X0187888Y0102133D01*
X0189133Y0102649D01*
X0189133Y0101217D01*
X0187888Y0101733D01*
X0179978Y0101733D01*
X0178214Y0101002D01*
X0176864Y0099652D01*
X0176133Y0097888D01*
X0176133Y0095978D01*
X0176864Y0094214D01*
X0178214Y0092864D01*
X0179978Y0092133D01*
X0187888Y0092133D01*
X0189133Y0092649D01*
X0189133Y0091217D01*
X0187888Y0091733D01*
X0179978Y0091733D01*
X0178214Y0091002D01*
X0176864Y0089652D01*
X0176133Y0087888D01*
X0176133Y0085978D01*
X0176864Y0084214D01*
X0178214Y0082864D01*
X0179978Y0082133D01*
X0187888Y0082133D01*
X0189133Y0082649D01*
X0189133Y0081217D01*
X0187888Y0081733D01*
X0179978Y0081733D01*
X0178214Y0081002D01*
X0176864Y0079652D01*
X0176133Y0077888D01*
X0176133Y0075978D01*
X0176864Y0074214D01*
X0178214Y0072864D01*
X0179978Y0072133D01*
X0187888Y0072133D01*
X0189133Y0072649D01*
X0189133Y0071217D01*
X0187888Y0071733D01*
X0179978Y0071733D01*
X0178214Y0071002D01*
X0176864Y0069652D01*
X0176732Y0069333D01*
X0153927Y0069333D01*
X0146333Y0076927D01*
X0146333Y0082878D01*
X0146604Y0083149D01*
X0147083Y0084306D01*
X0147083Y0085560D01*
X0146604Y0086717D01*
X0145717Y0087604D01*
X0144560Y0088083D01*
X0143306Y0088083D01*
X0142149Y0087604D01*
X0141263Y0086717D01*
X0140783Y0085560D01*
X0140783Y0085083D01*
X0140306Y0085083D01*
X0139149Y0084604D01*
X0138263Y0083717D01*
X0137783Y0082560D01*
X0137783Y0081306D01*
X0138263Y0080149D01*
X0138533Y0079878D01*
X0138533Y0078660D02*
X0137600Y0078660D01*
X0137886Y0081057D02*
X0135203Y0081057D01*
X0134005Y0082256D02*
X0137783Y0082256D01*
X0138154Y0083454D02*
X0132806Y0083454D01*
X0126933Y0085851D02*
X0140904Y0085851D01*
X0141595Y0087050D02*
X0127233Y0087050D01*
X0127233Y0088248D02*
X0159033Y0088248D01*
X0159033Y0087050D02*
X0146271Y0087050D01*
X0146962Y0085851D02*
X0159033Y0085851D01*
X0159033Y0084653D02*
X0147083Y0084653D01*
X0146730Y0083454D02*
X0159158Y0083454D01*
X0159802Y0082256D02*
X0146333Y0082256D01*
X0146333Y0081057D02*
X0161699Y0081057D01*
X0163167Y0081057D02*
X0178347Y0081057D01*
X0177070Y0079859D02*
X0146333Y0079859D01*
X0146333Y0078660D02*
X0176453Y0078660D01*
X0176133Y0077462D02*
X0146333Y0077462D01*
X0146997Y0076263D02*
X0176133Y0076263D01*
X0176512Y0075065D02*
X0148196Y0075065D01*
X0149394Y0073866D02*
X0177212Y0073866D01*
X0178688Y0072668D02*
X0150593Y0072668D01*
X0151791Y0071469D02*
X0179341Y0071469D01*
X0177482Y0070271D02*
X0152990Y0070271D01*
X0152933Y0066933D02*
X0183933Y0066933D01*
X0188525Y0071469D02*
X0189133Y0071469D01*
X0189133Y0082256D02*
X0188184Y0082256D01*
X0179682Y0082256D02*
X0165064Y0082256D01*
X0165708Y0083454D02*
X0177624Y0083454D01*
X0176682Y0084653D02*
X0165833Y0084653D01*
X0165833Y0085851D02*
X0176186Y0085851D01*
X0176133Y0087050D02*
X0165833Y0087050D01*
X0165833Y0088248D02*
X0176282Y0088248D01*
X0176779Y0089447D02*
X0165833Y0089447D01*
X0165833Y0090645D02*
X0177857Y0090645D01*
X0178036Y0093042D02*
X0165833Y0093042D01*
X0165833Y0091844D02*
X0189133Y0091844D01*
X0176853Y0094241D02*
X0165833Y0094241D01*
X0165833Y0095439D02*
X0176356Y0095439D01*
X0176133Y0096638D02*
X0165833Y0096638D01*
X0165833Y0097836D02*
X0176133Y0097836D01*
X0176608Y0099035D02*
X0165833Y0099035D01*
X0165833Y0100233D02*
X0177445Y0100233D01*
X0179251Y0101432D02*
X0165833Y0101432D01*
X0165939Y0102630D02*
X0178778Y0102630D01*
X0177249Y0103829D02*
X0167137Y0103829D01*
X0168336Y0105027D02*
X0176527Y0105027D01*
X0176133Y0106226D02*
X0169534Y0106226D01*
X0170733Y0107424D02*
X0176133Y0107424D01*
X0176438Y0108623D02*
X0171931Y0108623D01*
X0176550Y0109821D02*
X0177033Y0109821D01*
X0177808Y0111020D02*
X0178257Y0111020D01*
X0178418Y0112218D02*
X0189133Y0112218D01*
X0189133Y0113417D02*
X0178733Y0113417D01*
X0178733Y0114615D02*
X0189133Y0114615D01*
X0189133Y0115814D02*
X0178733Y0115814D01*
X0178733Y0117012D02*
X0189133Y0117012D01*
X0189133Y0118211D02*
X0178733Y0118211D01*
X0178733Y0119410D02*
X0189133Y0119410D01*
X0189133Y0120608D02*
X0178733Y0120608D01*
X0178353Y0121807D02*
X0189133Y0121807D01*
X0162315Y0108623D02*
X0149517Y0108623D01*
X0150716Y0109821D02*
X0151316Y0109821D01*
X0148318Y0107424D02*
X0161116Y0107424D01*
X0159918Y0106226D02*
X0147120Y0106226D01*
X0145921Y0105027D02*
X0159206Y0105027D01*
X0159033Y0103829D02*
X0130082Y0103829D01*
X0128883Y0102630D02*
X0159033Y0102630D01*
X0159033Y0101432D02*
X0127685Y0101432D01*
X0127233Y0100233D02*
X0159033Y0100233D01*
X0159033Y0099035D02*
X0127233Y0099035D01*
X0127233Y0097836D02*
X0159033Y0097836D01*
X0159033Y0096638D02*
X0127233Y0096638D01*
X0127233Y0095439D02*
X0159033Y0095439D01*
X0159033Y0094241D02*
X0127233Y0094241D01*
X0127233Y0093042D02*
X0159033Y0093042D01*
X0159033Y0091844D02*
X0127233Y0091844D01*
X0127233Y0090645D02*
X0159033Y0090645D01*
X0159033Y0089447D02*
X0127233Y0089447D01*
X0126395Y0084653D02*
X0139267Y0084653D01*
X0140933Y0081933D02*
X0140933Y0075433D01*
X0159433Y0056933D01*
X0183933Y0056933D01*
X0152933Y0066933D02*
X0143933Y0075933D01*
X0143933Y0084933D01*
X0143433Y0084433D01*
X0139433Y0062933D02*
X0139433Y0051433D01*
X0163933Y0026933D01*
X0153933Y0026933D02*
X0136433Y0044433D01*
X0136433Y0062933D01*
X0133433Y0062933D02*
X0133433Y0037433D01*
X0143933Y0026933D01*
X0130328Y0033117D02*
X0127538Y0033117D01*
X0128306Y0031918D02*
X0129560Y0031918D01*
X0129133Y0030720D02*
X0128733Y0030720D01*
X0128733Y0029521D02*
X0129133Y0029521D01*
X0129133Y0028323D02*
X0128733Y0028323D01*
X0128733Y0027124D02*
X0129133Y0027124D01*
X0129133Y0025926D02*
X0128733Y0025926D01*
X0128733Y0024727D02*
X0129133Y0024727D01*
X0129133Y0023529D02*
X0128733Y0023529D01*
X0128465Y0022330D02*
X0129402Y0022330D01*
X0188615Y0101432D02*
X0189133Y0101432D01*
X0189088Y0102630D02*
X0189133Y0102630D01*
X0161316Y0109821D02*
X0156550Y0109821D01*
X0157808Y0111020D02*
X0160058Y0111020D01*
X0159448Y0112218D02*
X0158418Y0112218D01*
X0158733Y0113417D02*
X0159133Y0113417D01*
X0159133Y0114615D02*
X0158733Y0114615D01*
X0158733Y0115814D02*
X0159133Y0115814D01*
X0159133Y0117012D02*
X0158733Y0117012D01*
X0158733Y0118211D02*
X0159133Y0118211D01*
X0159133Y0119410D02*
X0158733Y0119410D01*
X0158733Y0120608D02*
X0159133Y0120608D01*
X0159514Y0121807D02*
X0158353Y0121807D01*
X0153933Y0116933D02*
X0153933Y0116433D01*
X0144433Y0106933D01*
X0135933Y0108933D02*
X0143933Y0116933D01*
D13*
X0143933Y0084933D03*
X0140933Y0081933D03*
X0094433Y0107933D03*
X0030933Y0081933D03*
X0108933Y0031933D03*
D14*
X0129433Y0056933D03*
X0133433Y0062933D03*
X0136433Y0062933D03*
X0139433Y0062933D03*
X0152933Y0071933D03*
X0162433Y0084433D03*
X0124933Y0081933D03*
X0123933Y0086433D03*
X0120433Y0085433D03*
X0116933Y0080433D03*
X0112933Y0079933D03*
X0112933Y0076433D03*
X0109433Y0076433D03*
X0109433Y0079933D03*
X0105933Y0079933D03*
X0108433Y0083933D03*
X0111933Y0083933D03*
X0108433Y0087433D03*
X0104933Y0087433D03*
X0112933Y0072933D03*
X0108933Y0069933D03*
X0112933Y0069433D03*
X0116933Y0066433D03*
X0125433Y0071933D03*
X0104106Y0066106D03*
X0079933Y0060433D03*
X0075433Y0074433D03*
X0068933Y0076933D03*
X0030433Y0102433D03*
X0073933Y0104933D03*
X0033512Y0036012D03*
D15*
X0024012Y0036012D01*
X0023933Y0035933D01*
X0023935Y0036934D01*
X0023935Y0026935D01*
X0023933Y0026933D01*
X0023933Y0035933D02*
X0033512Y0036012D01*
X0023935Y0036934D02*
X0024012Y0074854D01*
X0030933Y0081776D01*
X0030933Y0081933D01*
X0073933Y0104933D02*
X0073933Y0105433D01*
X0079933Y0060433D02*
X0125933Y0060433D01*
X0129433Y0056933D01*
X0152933Y0071933D02*
X0153433Y0071933D01*
D16*
X0162433Y0084433D02*
X0162433Y0103933D01*
X0172933Y0114433D01*
X0172933Y0115933D01*
X0173933Y0116933D01*
D17*
X0144433Y0106933D02*
X0129933Y0106933D01*
X0124933Y0101933D01*
X0124933Y0087433D01*
X0123933Y0086433D01*
X0120433Y0085433D02*
X0120433Y0090433D01*
X0122933Y0092933D01*
X0122933Y0102933D01*
X0128933Y0108933D01*
X0135933Y0108933D01*
X0133933Y0116933D02*
X0120933Y0103933D01*
X0120933Y0093433D01*
X0111933Y0084433D01*
X0111933Y0083933D01*
X0108433Y0083933D02*
X0118933Y0094433D01*
X0118933Y0111933D01*
X0123933Y0116933D01*
X0116933Y0115433D02*
X0115433Y0116933D01*
X0113933Y0116933D01*
X0116933Y0115433D02*
X0116933Y0095433D01*
X0108933Y0087433D01*
X0108433Y0087433D01*
X0104933Y0087433D02*
X0103433Y0088933D01*
X0103433Y0116433D01*
X0103933Y0116933D01*
X0103933Y0088433D02*
X0104933Y0087433D01*
X0116933Y0080433D02*
X0116933Y0066433D01*
X0108933Y0069933D02*
X0108933Y0070933D01*
X0102933Y0076933D01*
X0068933Y0076933D01*
M02*
