G75*
%MOIN*%
%OFA0B0*%
%FSLAX25Y25*%
%IPPOS*%
%LPD*%
%AMOC8*
5,1,8,0,0,1.08239X$1,22.5*
%
%ADD10C,0.00000*%
%ADD11C,0.06000*%
%ADD12C,0.01200*%
%ADD13C,0.02700*%
%ADD14C,0.02400*%
%ADD15C,0.02400*%
%ADD16C,0.03200*%
%ADD17C,0.01000*%
D10*
X0016933Y0019933D02*
X0016933Y0125933D01*
X0191933Y0125933D01*
X0191933Y0019933D01*
X0016933Y0019933D01*
D11*
X0023933Y0024933D02*
X0023933Y0030933D01*
X0033933Y0030933D02*
X0033933Y0024933D01*
X0043933Y0024933D02*
X0043933Y0030933D01*
X0053933Y0030933D02*
X0053933Y0024933D01*
X0063933Y0024933D02*
X0063933Y0030933D01*
X0073933Y0030933D02*
X0073933Y0024933D01*
X0083933Y0024933D02*
X0083933Y0030933D01*
X0093933Y0030933D02*
X0093933Y0024933D01*
X0103933Y0024933D02*
X0103933Y0030933D01*
X0113933Y0030933D02*
X0113933Y0024933D01*
X0123933Y0024933D02*
X0123933Y0030933D01*
X0133933Y0030933D02*
X0133933Y0024933D01*
X0143933Y0024933D02*
X0143933Y0030933D01*
X0153933Y0030933D02*
X0153933Y0024933D01*
X0163933Y0024933D02*
X0163933Y0030933D01*
X0173933Y0030933D02*
X0173933Y0024933D01*
X0183933Y0024933D02*
X0183933Y0030933D01*
X0186933Y0037933D02*
X0180933Y0037933D01*
X0180933Y0047933D02*
X0186933Y0047933D01*
X0186933Y0057933D02*
X0180933Y0057933D01*
X0180933Y0067933D02*
X0186933Y0067933D01*
X0186933Y0077933D02*
X0180933Y0077933D01*
X0180933Y0087933D02*
X0186933Y0087933D01*
X0186933Y0097933D02*
X0180933Y0097933D01*
X0180933Y0107933D02*
X0186933Y0107933D01*
X0183933Y0114933D02*
X0183933Y0120933D01*
X0173933Y0120933D02*
X0173933Y0114933D01*
X0163933Y0114933D02*
X0163933Y0120933D01*
X0153933Y0120933D02*
X0153933Y0114933D01*
X0143933Y0114933D02*
X0143933Y0120933D01*
X0133933Y0120933D02*
X0133933Y0114933D01*
X0123933Y0114933D02*
X0123933Y0120933D01*
X0113933Y0120933D02*
X0113933Y0114933D01*
X0103933Y0114933D02*
X0103933Y0120933D01*
X0093933Y0120933D02*
X0093933Y0114933D01*
X0083933Y0114933D02*
X0083933Y0120933D01*
X0073933Y0120933D02*
X0073933Y0114933D01*
X0063933Y0114933D02*
X0063933Y0120933D01*
X0053933Y0120933D02*
X0053933Y0114933D01*
X0043933Y0114933D02*
X0043933Y0120933D01*
X0033933Y0120933D02*
X0033933Y0114933D01*
X0023933Y0114933D02*
X0023933Y0120933D01*
D12*
X0028270Y0123005D02*
X0029596Y0123005D01*
X0029732Y0123333D02*
X0029133Y0121888D01*
X0029133Y0113978D01*
X0029864Y0112214D01*
X0031214Y0110864D01*
X0032978Y0110133D01*
X0034888Y0110133D01*
X0036652Y0110864D01*
X0038002Y0112214D01*
X0038733Y0113978D01*
X0038733Y0121888D01*
X0038134Y0123333D01*
X0039732Y0123333D01*
X0039133Y0121888D01*
X0039133Y0113978D01*
X0039864Y0112214D01*
X0041214Y0110864D01*
X0042978Y0110133D01*
X0044888Y0110133D01*
X0046652Y0110864D01*
X0048002Y0112214D01*
X0048733Y0113978D01*
X0048733Y0121888D01*
X0048134Y0123333D01*
X0049732Y0123333D01*
X0049133Y0121888D01*
X0049133Y0113978D01*
X0049864Y0112214D01*
X0051214Y0110864D01*
X0052978Y0110133D01*
X0054888Y0110133D01*
X0056652Y0110864D01*
X0058002Y0112214D01*
X0058733Y0113978D01*
X0058733Y0121888D01*
X0058134Y0123333D01*
X0059732Y0123333D01*
X0059133Y0121888D01*
X0059133Y0113978D01*
X0059864Y0112214D01*
X0061214Y0110864D01*
X0062978Y0110133D01*
X0064888Y0110133D01*
X0066652Y0110864D01*
X0068002Y0112214D01*
X0068733Y0113978D01*
X0068733Y0121888D01*
X0068134Y0123333D01*
X0069732Y0123333D01*
X0069133Y0121888D01*
X0069133Y0113978D01*
X0069864Y0112214D01*
X0071214Y0110864D01*
X0072978Y0110133D01*
X0074888Y0110133D01*
X0076652Y0110864D01*
X0078002Y0112214D01*
X0078733Y0113978D01*
X0078733Y0121888D01*
X0078134Y0123333D01*
X0079732Y0123333D01*
X0079133Y0121888D01*
X0079133Y0113978D01*
X0079864Y0112214D01*
X0081214Y0110864D01*
X0082978Y0110133D01*
X0084888Y0110133D01*
X0086652Y0110864D01*
X0088002Y0112214D01*
X0088733Y0113978D01*
X0088733Y0121888D01*
X0088134Y0123333D01*
X0089732Y0123333D01*
X0089133Y0121888D01*
X0089133Y0113978D01*
X0089864Y0112214D01*
X0091214Y0110864D01*
X0092978Y0110133D01*
X0094888Y0110133D01*
X0096652Y0110864D01*
X0098002Y0112214D01*
X0098733Y0113978D01*
X0098733Y0121888D01*
X0098134Y0123333D01*
X0099732Y0123333D01*
X0099133Y0121888D01*
X0099133Y0113978D01*
X0099864Y0112214D01*
X0101133Y0110945D01*
X0101133Y0088980D01*
X0101933Y0088180D01*
X0101933Y0087836D01*
X0102390Y0086734D01*
X0103234Y0085890D01*
X0104336Y0085433D01*
X0105433Y0085433D01*
X0105433Y0084336D01*
X0105890Y0083234D01*
X0106734Y0082390D01*
X0107836Y0081933D01*
X0109030Y0081933D01*
X0110132Y0082390D01*
X0110183Y0082440D01*
X0110234Y0082390D01*
X0111336Y0081933D01*
X0112530Y0081933D01*
X0113632Y0082390D01*
X0114476Y0083234D01*
X0114652Y0083657D01*
X0114662Y0083405D01*
X0114390Y0083132D01*
X0113933Y0082030D01*
X0113933Y0080836D01*
X0114390Y0079734D01*
X0114633Y0079490D01*
X0114633Y0069506D01*
X0111589Y0069506D01*
X0111933Y0070336D01*
X0111933Y0071530D01*
X0111476Y0072632D01*
X0111233Y0072876D01*
X0111233Y0072886D01*
X0109886Y0074233D01*
X0103886Y0080233D01*
X0070876Y0080233D01*
X0070632Y0080476D01*
X0069530Y0080933D01*
X0068336Y0080933D01*
X0067234Y0080476D01*
X0066390Y0079632D01*
X0065933Y0078530D01*
X0065933Y0077336D01*
X0066390Y0076234D01*
X0067234Y0075390D01*
X0068336Y0074933D01*
X0069530Y0074933D01*
X0070632Y0075390D01*
X0070876Y0075633D01*
X0072433Y0075633D01*
X0072433Y0074836D01*
X0072890Y0073734D01*
X0073734Y0072890D01*
X0074836Y0072433D01*
X0076030Y0072433D01*
X0076271Y0072533D01*
X0100439Y0072533D01*
X0101706Y0071266D01*
X0101706Y0068949D01*
X0101563Y0068806D01*
X0101106Y0067703D01*
X0101106Y0066510D01*
X0101563Y0065407D01*
X0102407Y0064563D01*
X0102721Y0064433D01*
X0079336Y0064433D01*
X0078234Y0063976D01*
X0077390Y0063132D01*
X0076933Y0062030D01*
X0076933Y0060836D01*
X0077390Y0059734D01*
X0078234Y0058890D01*
X0079336Y0058433D01*
X0121745Y0058433D01*
X0131033Y0049603D01*
X0131033Y0037956D01*
X0131398Y0037074D01*
X0132809Y0035663D01*
X0131214Y0035002D01*
X0129864Y0033652D01*
X0129133Y0031888D01*
X0129133Y0023978D01*
X0129732Y0022533D01*
X0128134Y0022533D01*
X0128733Y0023978D01*
X0128733Y0031888D01*
X0128002Y0033652D01*
X0126652Y0035002D01*
X0124888Y0035733D01*
X0122978Y0035733D01*
X0121214Y0035002D01*
X0119864Y0033652D01*
X0119133Y0031888D01*
X0119133Y0023978D01*
X0119732Y0022533D01*
X0118134Y0022533D01*
X0118733Y0023978D01*
X0118733Y0031888D01*
X0118002Y0033652D01*
X0116652Y0035002D01*
X0114888Y0035733D01*
X0112978Y0035733D01*
X0111214Y0035002D01*
X0109864Y0033652D01*
X0109133Y0031888D01*
X0109133Y0023978D01*
X0109732Y0022533D01*
X0108134Y0022533D01*
X0108733Y0023978D01*
X0108733Y0031888D01*
X0108002Y0033652D01*
X0106652Y0035002D01*
X0104888Y0035733D01*
X0102978Y0035733D01*
X0101214Y0035002D01*
X0099864Y0033652D01*
X0099133Y0031888D01*
X0099133Y0023978D01*
X0099732Y0022533D01*
X0098134Y0022533D01*
X0098733Y0023978D01*
X0098733Y0031888D01*
X0098002Y0033652D01*
X0096652Y0035002D01*
X0094888Y0035733D01*
X0092978Y0035733D01*
X0091214Y0035002D01*
X0089864Y0033652D01*
X0089133Y0031888D01*
X0089133Y0023978D01*
X0089732Y0022533D01*
X0088134Y0022533D01*
X0088733Y0023978D01*
X0088733Y0031888D01*
X0088002Y0033652D01*
X0086652Y0035002D01*
X0084888Y0035733D01*
X0082978Y0035733D01*
X0081214Y0035002D01*
X0079864Y0033652D01*
X0079133Y0031888D01*
X0079133Y0023978D01*
X0079732Y0022533D01*
X0078134Y0022533D01*
X0078733Y0023978D01*
X0078733Y0031888D01*
X0078002Y0033652D01*
X0076652Y0035002D01*
X0074888Y0035733D01*
X0072978Y0035733D01*
X0071214Y0035002D01*
X0069864Y0033652D01*
X0069133Y0031888D01*
X0069133Y0023978D01*
X0069732Y0022533D01*
X0068134Y0022533D01*
X0068733Y0023978D01*
X0068733Y0031888D01*
X0068002Y0033652D01*
X0066652Y0035002D01*
X0064888Y0035733D01*
X0062978Y0035733D01*
X0061214Y0035002D01*
X0059864Y0033652D01*
X0059133Y0031888D01*
X0059133Y0023978D01*
X0059732Y0022533D01*
X0058134Y0022533D01*
X0058733Y0023978D01*
X0058733Y0031888D01*
X0058002Y0033652D01*
X0056652Y0035002D01*
X0054888Y0035733D01*
X0052978Y0035733D01*
X0051214Y0035002D01*
X0049864Y0033652D01*
X0049133Y0031888D01*
X0049133Y0023978D01*
X0049732Y0022533D01*
X0048134Y0022533D01*
X0048733Y0023978D01*
X0048733Y0031888D01*
X0048002Y0033652D01*
X0046652Y0035002D01*
X0044888Y0035733D01*
X0042978Y0035733D01*
X0041214Y0035002D01*
X0039864Y0033652D01*
X0039133Y0031888D01*
X0039133Y0023978D01*
X0039732Y0022533D01*
X0028134Y0022533D01*
X0028733Y0023978D01*
X0028733Y0031888D01*
X0028002Y0033652D01*
X0027690Y0033964D01*
X0033524Y0034012D01*
X0034109Y0034012D01*
X0034120Y0034017D01*
X0034133Y0034017D01*
X0034670Y0034245D01*
X0035211Y0034469D01*
X0035220Y0034478D01*
X0035232Y0034483D01*
X0035641Y0034899D01*
X0036055Y0035312D01*
X0036060Y0035324D01*
X0036069Y0035333D01*
X0036288Y0035875D01*
X0036512Y0036415D01*
X0036512Y0036428D01*
X0036517Y0036440D01*
X0036512Y0037024D01*
X0036512Y0037609D01*
X0036507Y0037620D01*
X0036507Y0037633D01*
X0036279Y0038170D01*
X0036055Y0038711D01*
X0036046Y0038720D01*
X0036041Y0038732D01*
X0035625Y0039141D01*
X0035211Y0039555D01*
X0035199Y0039560D01*
X0035190Y0039569D01*
X0034649Y0039788D01*
X0034109Y0040012D01*
X0034096Y0040012D01*
X0034084Y0040017D01*
X0033500Y0040012D01*
X0026939Y0040012D01*
X0027009Y0074609D01*
X0032624Y0080224D01*
X0032717Y0080263D01*
X0033604Y0081149D01*
X0034083Y0082306D01*
X0034083Y0083560D01*
X0033604Y0084717D01*
X0032717Y0085604D01*
X0031560Y0086083D01*
X0030306Y0086083D01*
X0029149Y0085604D01*
X0028263Y0084717D01*
X0028001Y0084086D01*
X0021892Y0077977D01*
X0021472Y0077559D01*
X0021471Y0077556D01*
X0021469Y0077554D01*
X0021241Y0077004D01*
X0021013Y0076457D01*
X0021013Y0076454D01*
X0021012Y0076451D01*
X0021012Y0075855D01*
X0020936Y0038534D01*
X0020935Y0038531D01*
X0020935Y0037939D01*
X0020934Y0037533D01*
X0020933Y0037530D01*
X0020933Y0037517D01*
X0020928Y0037505D01*
X0020933Y0036924D01*
X0020932Y0036342D01*
X0020933Y0036339D01*
X0020933Y0036336D01*
X0020935Y0036331D01*
X0020935Y0034723D01*
X0019864Y0033652D01*
X0019533Y0032853D01*
X0019533Y0113013D01*
X0019864Y0112214D01*
X0021214Y0110864D01*
X0022978Y0110133D01*
X0024888Y0110133D01*
X0026652Y0110864D01*
X0028002Y0112214D01*
X0028733Y0113978D01*
X0028733Y0121888D01*
X0028134Y0123333D01*
X0029732Y0123333D01*
X0029133Y0121807D02*
X0028733Y0121807D01*
X0028733Y0120608D02*
X0029133Y0120608D01*
X0029133Y0119410D02*
X0028733Y0119410D01*
X0028733Y0118211D02*
X0029133Y0118211D01*
X0029133Y0117012D02*
X0028733Y0117012D01*
X0028733Y0115814D02*
X0029133Y0115814D01*
X0029133Y0114615D02*
X0028733Y0114615D01*
X0028501Y0113417D02*
X0029366Y0113417D01*
X0029862Y0112218D02*
X0028004Y0112218D01*
X0026808Y0111020D02*
X0031058Y0111020D01*
X0036808Y0111020D02*
X0041058Y0111020D01*
X0039862Y0112218D02*
X0038004Y0112218D01*
X0038501Y0113417D02*
X0039366Y0113417D01*
X0039133Y0114615D02*
X0038733Y0114615D01*
X0038733Y0115814D02*
X0039133Y0115814D01*
X0039133Y0117012D02*
X0038733Y0117012D01*
X0038733Y0118211D02*
X0039133Y0118211D01*
X0039133Y0119410D02*
X0038733Y0119410D01*
X0038733Y0120608D02*
X0039133Y0120608D01*
X0039133Y0121807D02*
X0038733Y0121807D01*
X0038270Y0123005D02*
X0039596Y0123005D01*
X0048270Y0123005D02*
X0049596Y0123005D01*
X0049133Y0121807D02*
X0048733Y0121807D01*
X0048733Y0120608D02*
X0049133Y0120608D01*
X0049133Y0119410D02*
X0048733Y0119410D01*
X0048733Y0118211D02*
X0049133Y0118211D01*
X0049133Y0117012D02*
X0048733Y0117012D01*
X0048733Y0115814D02*
X0049133Y0115814D01*
X0049133Y0114615D02*
X0048733Y0114615D01*
X0048501Y0113417D02*
X0049366Y0113417D01*
X0049862Y0112218D02*
X0048004Y0112218D01*
X0046808Y0111020D02*
X0051058Y0111020D01*
X0056808Y0111020D02*
X0061058Y0111020D01*
X0059862Y0112218D02*
X0058004Y0112218D01*
X0058501Y0113417D02*
X0059366Y0113417D01*
X0059133Y0114615D02*
X0058733Y0114615D01*
X0058733Y0115814D02*
X0059133Y0115814D01*
X0059133Y0117012D02*
X0058733Y0117012D01*
X0058733Y0118211D02*
X0059133Y0118211D01*
X0059133Y0119410D02*
X0058733Y0119410D01*
X0058733Y0120608D02*
X0059133Y0120608D01*
X0059133Y0121807D02*
X0058733Y0121807D01*
X0058270Y0123005D02*
X0059596Y0123005D01*
X0068270Y0123005D02*
X0069596Y0123005D01*
X0069133Y0121807D02*
X0068733Y0121807D01*
X0068733Y0120608D02*
X0069133Y0120608D01*
X0069133Y0119410D02*
X0068733Y0119410D01*
X0068733Y0118211D02*
X0069133Y0118211D01*
X0069133Y0117012D02*
X0068733Y0117012D01*
X0068733Y0115814D02*
X0069133Y0115814D01*
X0069133Y0114615D02*
X0068733Y0114615D01*
X0068501Y0113417D02*
X0069366Y0113417D01*
X0069862Y0112218D02*
X0068004Y0112218D01*
X0066808Y0111020D02*
X0071058Y0111020D01*
X0076808Y0111020D02*
X0081058Y0111020D01*
X0079862Y0112218D02*
X0078004Y0112218D01*
X0078501Y0113417D02*
X0079366Y0113417D01*
X0079133Y0114615D02*
X0078733Y0114615D01*
X0078733Y0115814D02*
X0079133Y0115814D01*
X0079133Y0117012D02*
X0078733Y0117012D01*
X0078733Y0118211D02*
X0079133Y0118211D01*
X0079133Y0119410D02*
X0078733Y0119410D01*
X0078733Y0120608D02*
X0079133Y0120608D01*
X0079133Y0121807D02*
X0078733Y0121807D01*
X0078270Y0123005D02*
X0079596Y0123005D01*
X0088270Y0123005D02*
X0089596Y0123005D01*
X0089133Y0121807D02*
X0088733Y0121807D01*
X0088733Y0120608D02*
X0089133Y0120608D01*
X0089133Y0119410D02*
X0088733Y0119410D01*
X0088733Y0118211D02*
X0089133Y0118211D01*
X0089133Y0117012D02*
X0088733Y0117012D01*
X0088733Y0115814D02*
X0089133Y0115814D01*
X0089133Y0114615D02*
X0088733Y0114615D01*
X0088501Y0113417D02*
X0089366Y0113417D01*
X0089862Y0112218D02*
X0088004Y0112218D01*
X0086808Y0111020D02*
X0091058Y0111020D01*
X0096808Y0111020D02*
X0101058Y0111020D01*
X0101133Y0109821D02*
X0019533Y0109821D01*
X0019533Y0108623D02*
X0101133Y0108623D01*
X0101133Y0107424D02*
X0019533Y0107424D01*
X0019533Y0106226D02*
X0101133Y0106226D01*
X0101133Y0105027D02*
X0019533Y0105027D01*
X0019533Y0103829D02*
X0101133Y0103829D01*
X0101133Y0102630D02*
X0019533Y0102630D01*
X0019533Y0101432D02*
X0101133Y0101432D01*
X0101133Y0100233D02*
X0019533Y0100233D01*
X0019533Y0099035D02*
X0101133Y0099035D01*
X0101133Y0097836D02*
X0019533Y0097836D01*
X0019533Y0096638D02*
X0101133Y0096638D01*
X0101133Y0095439D02*
X0019533Y0095439D01*
X0019533Y0094241D02*
X0101133Y0094241D01*
X0101133Y0093042D02*
X0019533Y0093042D01*
X0019533Y0091844D02*
X0101133Y0091844D01*
X0101133Y0090645D02*
X0019533Y0090645D01*
X0019533Y0089447D02*
X0101133Y0089447D01*
X0101865Y0088248D02*
X0019533Y0088248D01*
X0019533Y0087050D02*
X0102259Y0087050D01*
X0103327Y0085851D02*
X0032119Y0085851D01*
X0033630Y0084653D02*
X0105433Y0084653D01*
X0105798Y0083454D02*
X0034083Y0083454D01*
X0034062Y0082256D02*
X0107058Y0082256D01*
X0109809Y0082256D02*
X0110558Y0082256D01*
X0113309Y0082256D02*
X0114027Y0082256D01*
X0113933Y0081057D02*
X0033512Y0081057D01*
X0032259Y0079859D02*
X0066616Y0079859D01*
X0065987Y0078660D02*
X0031060Y0078660D01*
X0029862Y0077462D02*
X0065933Y0077462D01*
X0066378Y0076263D02*
X0028663Y0076263D01*
X0027465Y0075065D02*
X0068019Y0075065D01*
X0069847Y0075065D02*
X0072433Y0075065D01*
X0072835Y0073866D02*
X0027008Y0073866D01*
X0027005Y0072668D02*
X0074270Y0072668D01*
X0075933Y0074933D02*
X0075433Y0075433D01*
X0075933Y0074933D02*
X0101433Y0074933D01*
X0104106Y0072260D01*
X0104106Y0067106D01*
X0116606Y0067106D01*
X0116933Y0067433D01*
X0114633Y0070271D02*
X0111906Y0070271D01*
X0111933Y0071469D02*
X0114633Y0071469D01*
X0114633Y0072668D02*
X0111441Y0072668D01*
X0110253Y0073866D02*
X0114633Y0073866D01*
X0114633Y0075065D02*
X0109054Y0075065D01*
X0107856Y0076263D02*
X0114633Y0076263D01*
X0114633Y0077462D02*
X0106657Y0077462D01*
X0105459Y0078660D02*
X0114633Y0078660D01*
X0114338Y0079859D02*
X0104260Y0079859D01*
X0114568Y0083454D02*
X0114660Y0083454D01*
X0124433Y0082933D02*
X0124933Y0082933D01*
X0130933Y0082933D01*
X0165933Y0047933D01*
X0183933Y0047933D01*
X0183933Y0037933D02*
X0172933Y0037933D01*
X0137933Y0072933D01*
X0125433Y0072933D01*
X0137402Y0079859D02*
X0138533Y0079859D01*
X0138533Y0080878D02*
X0138533Y0078727D01*
X0132293Y0084968D01*
X0131410Y0085333D01*
X0126776Y0085333D01*
X0126632Y0085476D01*
X0126340Y0085597D01*
X0126476Y0085734D01*
X0126933Y0086836D01*
X0126933Y0087180D01*
X0127233Y0087480D01*
X0127233Y0101980D01*
X0130886Y0105633D01*
X0143714Y0105633D01*
X0143956Y0105533D01*
X0144910Y0105533D01*
X0145152Y0105633D01*
X0145386Y0105633D01*
X0145551Y0105798D01*
X0145793Y0105898D01*
X0150986Y0111092D01*
X0151214Y0110864D01*
X0152978Y0110133D01*
X0154888Y0110133D01*
X0156652Y0110864D01*
X0158002Y0112214D01*
X0158733Y0113978D01*
X0158733Y0121888D01*
X0158134Y0123333D01*
X0159732Y0123333D01*
X0159133Y0121888D01*
X0159133Y0113978D01*
X0159864Y0112214D01*
X0161214Y0110864D01*
X0162870Y0110178D01*
X0159551Y0106859D01*
X0159033Y0105609D01*
X0159033Y0084757D01*
X0159551Y0083507D01*
X0160507Y0082551D01*
X0161757Y0082033D01*
X0163109Y0082033D01*
X0164359Y0082551D01*
X0165315Y0083507D01*
X0165833Y0084757D01*
X0165833Y0103525D01*
X0172599Y0110290D01*
X0172978Y0110133D01*
X0174888Y0110133D01*
X0176652Y0110864D01*
X0178002Y0112214D01*
X0178733Y0113978D01*
X0178733Y0121888D01*
X0178134Y0123333D01*
X0189333Y0123333D01*
X0189333Y0112134D01*
X0187888Y0112733D01*
X0179978Y0112733D01*
X0178214Y0112002D01*
X0176864Y0110652D01*
X0176133Y0108888D01*
X0176133Y0106978D01*
X0176864Y0105214D01*
X0178214Y0103864D01*
X0179978Y0103133D01*
X0187888Y0103133D01*
X0189333Y0103732D01*
X0189333Y0102134D01*
X0187888Y0102733D01*
X0179978Y0102733D01*
X0178214Y0102002D01*
X0176864Y0100652D01*
X0176133Y0098888D01*
X0176133Y0096978D01*
X0176864Y0095214D01*
X0178214Y0093864D01*
X0179978Y0093133D01*
X0187888Y0093133D01*
X0189333Y0093732D01*
X0189333Y0092134D01*
X0187888Y0092733D01*
X0179978Y0092733D01*
X0178214Y0092002D01*
X0176864Y0090652D01*
X0176133Y0088888D01*
X0176133Y0086978D01*
X0176864Y0085214D01*
X0178214Y0083864D01*
X0179978Y0083133D01*
X0187888Y0083133D01*
X0189333Y0083732D01*
X0189333Y0082134D01*
X0187888Y0082733D01*
X0179978Y0082733D01*
X0178214Y0082002D01*
X0176864Y0080652D01*
X0176133Y0078888D01*
X0176133Y0076978D01*
X0176864Y0075214D01*
X0178214Y0073864D01*
X0179978Y0073133D01*
X0187888Y0073133D01*
X0189333Y0073732D01*
X0189333Y0072134D01*
X0187888Y0072733D01*
X0179978Y0072733D01*
X0178214Y0072002D01*
X0176864Y0070652D01*
X0176732Y0070333D01*
X0153927Y0070333D01*
X0146333Y0077927D01*
X0146333Y0083878D01*
X0146604Y0084149D01*
X0147083Y0085306D01*
X0147083Y0086560D01*
X0146604Y0087717D01*
X0145717Y0088604D01*
X0144560Y0089083D01*
X0143306Y0089083D01*
X0142149Y0088604D01*
X0141263Y0087717D01*
X0140783Y0086560D01*
X0140783Y0086083D01*
X0140306Y0086083D01*
X0139149Y0085604D01*
X0138263Y0084717D01*
X0137783Y0083560D01*
X0137783Y0082306D01*
X0138263Y0081149D01*
X0138533Y0080878D01*
X0138354Y0081057D02*
X0136203Y0081057D01*
X0135005Y0082256D02*
X0137804Y0082256D01*
X0137783Y0083454D02*
X0133806Y0083454D01*
X0132608Y0084653D02*
X0138236Y0084653D01*
X0139747Y0085851D02*
X0126525Y0085851D01*
X0126933Y0087050D02*
X0140986Y0087050D01*
X0141793Y0088248D02*
X0127233Y0088248D01*
X0127233Y0089447D02*
X0159033Y0089447D01*
X0159033Y0090645D02*
X0127233Y0090645D01*
X0127233Y0091844D02*
X0159033Y0091844D01*
X0159033Y0093042D02*
X0127233Y0093042D01*
X0127233Y0094241D02*
X0159033Y0094241D01*
X0159033Y0095439D02*
X0127233Y0095439D01*
X0127233Y0096638D02*
X0159033Y0096638D01*
X0159033Y0097836D02*
X0127233Y0097836D01*
X0127233Y0099035D02*
X0159033Y0099035D01*
X0159033Y0100233D02*
X0127233Y0100233D01*
X0127233Y0101432D02*
X0159033Y0101432D01*
X0159033Y0102630D02*
X0127883Y0102630D01*
X0129082Y0103829D02*
X0159033Y0103829D01*
X0159033Y0105027D02*
X0130280Y0105027D01*
X0135933Y0109933D02*
X0143933Y0117933D01*
X0153933Y0117933D02*
X0153933Y0117433D01*
X0144433Y0107933D01*
X0146120Y0106226D02*
X0159288Y0106226D01*
X0160116Y0107424D02*
X0147318Y0107424D01*
X0148517Y0108623D02*
X0161315Y0108623D01*
X0162513Y0109821D02*
X0149716Y0109821D01*
X0150914Y0111020D02*
X0151058Y0111020D01*
X0156808Y0111020D02*
X0161058Y0111020D01*
X0159862Y0112218D02*
X0158004Y0112218D01*
X0158501Y0113417D02*
X0159366Y0113417D01*
X0159133Y0114615D02*
X0158733Y0114615D01*
X0158733Y0115814D02*
X0159133Y0115814D01*
X0159133Y0117012D02*
X0158733Y0117012D01*
X0158733Y0118211D02*
X0159133Y0118211D01*
X0159133Y0119410D02*
X0158733Y0119410D01*
X0158733Y0120608D02*
X0159133Y0120608D01*
X0159133Y0121807D02*
X0158733Y0121807D01*
X0158270Y0123005D02*
X0159596Y0123005D01*
X0176808Y0111020D02*
X0177232Y0111020D01*
X0176520Y0109821D02*
X0172130Y0109821D01*
X0170931Y0108623D02*
X0176133Y0108623D01*
X0176133Y0107424D02*
X0169733Y0107424D01*
X0168534Y0106226D02*
X0176445Y0106226D01*
X0177051Y0105027D02*
X0167336Y0105027D01*
X0166137Y0103829D02*
X0178298Y0103829D01*
X0179730Y0102630D02*
X0165833Y0102630D01*
X0165833Y0101432D02*
X0177644Y0101432D01*
X0176690Y0100233D02*
X0165833Y0100233D01*
X0165833Y0099035D02*
X0176194Y0099035D01*
X0176133Y0097836D02*
X0165833Y0097836D01*
X0165833Y0096638D02*
X0176274Y0096638D01*
X0176771Y0095439D02*
X0165833Y0095439D01*
X0165833Y0094241D02*
X0177837Y0094241D01*
X0178056Y0091844D02*
X0165833Y0091844D01*
X0165833Y0093042D02*
X0189333Y0093042D01*
X0176861Y0090645D02*
X0165833Y0090645D01*
X0165833Y0089447D02*
X0176365Y0089447D01*
X0176133Y0088248D02*
X0165833Y0088248D01*
X0165833Y0087050D02*
X0176133Y0087050D01*
X0176600Y0085851D02*
X0165833Y0085851D01*
X0165790Y0084653D02*
X0177425Y0084653D01*
X0179203Y0083454D02*
X0165262Y0083454D01*
X0163647Y0082256D02*
X0178826Y0082256D01*
X0177269Y0081057D02*
X0146333Y0081057D01*
X0146333Y0079859D02*
X0176535Y0079859D01*
X0176133Y0078660D02*
X0146333Y0078660D01*
X0146799Y0077462D02*
X0176133Y0077462D01*
X0176429Y0076263D02*
X0147997Y0076263D01*
X0149196Y0075065D02*
X0177013Y0075065D01*
X0178212Y0073866D02*
X0150394Y0073866D01*
X0151593Y0072668D02*
X0179820Y0072668D01*
X0177681Y0071469D02*
X0152791Y0071469D01*
X0152933Y0067933D02*
X0183933Y0067933D01*
X0188046Y0072668D02*
X0189333Y0072668D01*
X0189333Y0082256D02*
X0189040Y0082256D01*
X0189333Y0083454D02*
X0188663Y0083454D01*
X0161219Y0082256D02*
X0146333Y0082256D01*
X0146333Y0083454D02*
X0159604Y0083454D01*
X0159076Y0084653D02*
X0146812Y0084653D01*
X0147083Y0085851D02*
X0159033Y0085851D01*
X0159033Y0087050D02*
X0146880Y0087050D01*
X0146073Y0088248D02*
X0159033Y0088248D01*
X0143933Y0085933D02*
X0143933Y0076933D01*
X0152933Y0067933D01*
X0159433Y0057933D02*
X0140933Y0076433D01*
X0140933Y0082933D01*
X0143433Y0085433D02*
X0143933Y0085933D01*
X0140433Y0063933D02*
X0140433Y0051433D01*
X0163933Y0027933D01*
X0153933Y0027933D02*
X0136933Y0044933D01*
X0136933Y0063933D01*
X0133433Y0063933D02*
X0133433Y0038433D01*
X0143933Y0027933D01*
X0132449Y0035514D02*
X0125417Y0035514D01*
X0127339Y0034315D02*
X0130527Y0034315D01*
X0129642Y0033117D02*
X0128224Y0033117D01*
X0128720Y0031918D02*
X0129146Y0031918D01*
X0129133Y0030720D02*
X0128733Y0030720D01*
X0128733Y0029521D02*
X0129133Y0029521D01*
X0129133Y0028323D02*
X0128733Y0028323D01*
X0128733Y0027124D02*
X0129133Y0027124D01*
X0129133Y0025926D02*
X0128733Y0025926D01*
X0128733Y0024727D02*
X0129133Y0024727D01*
X0129319Y0023529D02*
X0128547Y0023529D01*
X0119319Y0023529D02*
X0118547Y0023529D01*
X0118733Y0024727D02*
X0119133Y0024727D01*
X0119133Y0025926D02*
X0118733Y0025926D01*
X0118733Y0027124D02*
X0119133Y0027124D01*
X0119133Y0028323D02*
X0118733Y0028323D01*
X0118733Y0029521D02*
X0119133Y0029521D01*
X0119133Y0030720D02*
X0118733Y0030720D01*
X0118720Y0031918D02*
X0119146Y0031918D01*
X0119642Y0033117D02*
X0118224Y0033117D01*
X0117339Y0034315D02*
X0120527Y0034315D01*
X0122449Y0035514D02*
X0115417Y0035514D01*
X0112449Y0035514D02*
X0105417Y0035514D01*
X0107339Y0034315D02*
X0110527Y0034315D01*
X0109642Y0033117D02*
X0108224Y0033117D01*
X0108720Y0031918D02*
X0109146Y0031918D01*
X0109133Y0030720D02*
X0108733Y0030720D01*
X0108733Y0029521D02*
X0109133Y0029521D01*
X0109133Y0028323D02*
X0108733Y0028323D01*
X0108733Y0027124D02*
X0109133Y0027124D01*
X0109133Y0025926D02*
X0108733Y0025926D01*
X0108733Y0024727D02*
X0109133Y0024727D01*
X0109319Y0023529D02*
X0108547Y0023529D01*
X0099319Y0023529D02*
X0098547Y0023529D01*
X0098733Y0024727D02*
X0099133Y0024727D01*
X0099133Y0025926D02*
X0098733Y0025926D01*
X0098733Y0027124D02*
X0099133Y0027124D01*
X0099133Y0028323D02*
X0098733Y0028323D01*
X0098733Y0029521D02*
X0099133Y0029521D01*
X0099133Y0030720D02*
X0098733Y0030720D01*
X0098720Y0031918D02*
X0099146Y0031918D01*
X0099642Y0033117D02*
X0098224Y0033117D01*
X0097339Y0034315D02*
X0100527Y0034315D01*
X0102449Y0035514D02*
X0095417Y0035514D01*
X0092449Y0035514D02*
X0085417Y0035514D01*
X0087339Y0034315D02*
X0090527Y0034315D01*
X0089642Y0033117D02*
X0088224Y0033117D01*
X0088720Y0031918D02*
X0089146Y0031918D01*
X0089133Y0030720D02*
X0088733Y0030720D01*
X0088733Y0029521D02*
X0089133Y0029521D01*
X0089133Y0028323D02*
X0088733Y0028323D01*
X0088733Y0027124D02*
X0089133Y0027124D01*
X0089133Y0025926D02*
X0088733Y0025926D01*
X0088733Y0024727D02*
X0089133Y0024727D01*
X0089319Y0023529D02*
X0088547Y0023529D01*
X0079319Y0023529D02*
X0078547Y0023529D01*
X0078733Y0024727D02*
X0079133Y0024727D01*
X0079133Y0025926D02*
X0078733Y0025926D01*
X0078733Y0027124D02*
X0079133Y0027124D01*
X0079133Y0028323D02*
X0078733Y0028323D01*
X0078733Y0029521D02*
X0079133Y0029521D01*
X0079133Y0030720D02*
X0078733Y0030720D01*
X0078720Y0031918D02*
X0079146Y0031918D01*
X0079642Y0033117D02*
X0078224Y0033117D01*
X0077339Y0034315D02*
X0080527Y0034315D01*
X0082449Y0035514D02*
X0075417Y0035514D01*
X0072449Y0035514D02*
X0065417Y0035514D01*
X0067339Y0034315D02*
X0070527Y0034315D01*
X0069642Y0033117D02*
X0068224Y0033117D01*
X0068720Y0031918D02*
X0069146Y0031918D01*
X0069133Y0030720D02*
X0068733Y0030720D01*
X0068733Y0029521D02*
X0069133Y0029521D01*
X0069133Y0028323D02*
X0068733Y0028323D01*
X0068733Y0027124D02*
X0069133Y0027124D01*
X0069133Y0025926D02*
X0068733Y0025926D01*
X0068733Y0024727D02*
X0069133Y0024727D01*
X0069319Y0023529D02*
X0068547Y0023529D01*
X0059319Y0023529D02*
X0058547Y0023529D01*
X0058733Y0024727D02*
X0059133Y0024727D01*
X0059133Y0025926D02*
X0058733Y0025926D01*
X0058733Y0027124D02*
X0059133Y0027124D01*
X0059133Y0028323D02*
X0058733Y0028323D01*
X0058733Y0029521D02*
X0059133Y0029521D01*
X0059133Y0030720D02*
X0058733Y0030720D01*
X0058720Y0031918D02*
X0059146Y0031918D01*
X0059642Y0033117D02*
X0058224Y0033117D01*
X0057339Y0034315D02*
X0060527Y0034315D01*
X0062449Y0035514D02*
X0055417Y0035514D01*
X0052449Y0035514D02*
X0045417Y0035514D01*
X0047339Y0034315D02*
X0050527Y0034315D01*
X0049642Y0033117D02*
X0048224Y0033117D01*
X0048720Y0031918D02*
X0049146Y0031918D01*
X0049133Y0030720D02*
X0048733Y0030720D01*
X0048733Y0029521D02*
X0049133Y0029521D01*
X0049133Y0028323D02*
X0048733Y0028323D01*
X0048733Y0027124D02*
X0049133Y0027124D01*
X0049133Y0025926D02*
X0048733Y0025926D01*
X0048733Y0024727D02*
X0049133Y0024727D01*
X0049319Y0023529D02*
X0048547Y0023529D01*
X0039319Y0023529D02*
X0028547Y0023529D01*
X0028733Y0024727D02*
X0039133Y0024727D01*
X0039133Y0025926D02*
X0028733Y0025926D01*
X0028733Y0027124D02*
X0039133Y0027124D01*
X0039133Y0028323D02*
X0028733Y0028323D01*
X0028733Y0029521D02*
X0039133Y0029521D01*
X0039133Y0030720D02*
X0028733Y0030720D01*
X0028720Y0031918D02*
X0039146Y0031918D01*
X0039642Y0033117D02*
X0028224Y0033117D01*
X0034841Y0034315D02*
X0040527Y0034315D01*
X0042449Y0035514D02*
X0036142Y0035514D01*
X0036514Y0036712D02*
X0131760Y0036712D01*
X0131052Y0037911D02*
X0036389Y0037911D01*
X0035658Y0039109D02*
X0131033Y0039109D01*
X0131033Y0040308D02*
X0026940Y0040308D01*
X0026942Y0041506D02*
X0131033Y0041506D01*
X0131033Y0042705D02*
X0026945Y0042705D01*
X0026947Y0043903D02*
X0131033Y0043903D01*
X0131033Y0045102D02*
X0026950Y0045102D01*
X0026952Y0046300D02*
X0131033Y0046300D01*
X0131033Y0047499D02*
X0026954Y0047499D01*
X0026957Y0048697D02*
X0131033Y0048697D01*
X0130725Y0049896D02*
X0026959Y0049896D01*
X0026962Y0051094D02*
X0129465Y0051094D01*
X0128204Y0052293D02*
X0026964Y0052293D01*
X0026967Y0053491D02*
X0126943Y0053491D01*
X0125682Y0054690D02*
X0026969Y0054690D01*
X0026971Y0055888D02*
X0124422Y0055888D01*
X0123161Y0057087D02*
X0026974Y0057087D01*
X0026976Y0058285D02*
X0121900Y0058285D01*
X0101534Y0065477D02*
X0026991Y0065477D01*
X0026993Y0066675D02*
X0101106Y0066675D01*
X0101177Y0067874D02*
X0026996Y0067874D01*
X0026998Y0069072D02*
X0101706Y0069072D01*
X0101706Y0070271D02*
X0027001Y0070271D01*
X0027003Y0071469D02*
X0101503Y0071469D01*
X0078962Y0064278D02*
X0026988Y0064278D01*
X0026986Y0063079D02*
X0077368Y0063079D01*
X0076933Y0061881D02*
X0026984Y0061881D01*
X0026981Y0060682D02*
X0076997Y0060682D01*
X0077640Y0059484D02*
X0026979Y0059484D01*
X0020979Y0059484D02*
X0019533Y0059484D01*
X0019533Y0060682D02*
X0020981Y0060682D01*
X0020984Y0061881D02*
X0019533Y0061881D01*
X0019533Y0063079D02*
X0020986Y0063079D01*
X0020988Y0064278D02*
X0019533Y0064278D01*
X0019533Y0065477D02*
X0020991Y0065477D01*
X0020993Y0066675D02*
X0019533Y0066675D01*
X0019533Y0067874D02*
X0020996Y0067874D01*
X0020998Y0069072D02*
X0019533Y0069072D01*
X0019533Y0070271D02*
X0021001Y0070271D01*
X0021003Y0071469D02*
X0019533Y0071469D01*
X0019533Y0072668D02*
X0021005Y0072668D01*
X0021008Y0073866D02*
X0019533Y0073866D01*
X0019533Y0075065D02*
X0021010Y0075065D01*
X0021012Y0076263D02*
X0019533Y0076263D01*
X0019533Y0077462D02*
X0021430Y0077462D01*
X0022575Y0078660D02*
X0019533Y0078660D01*
X0019533Y0079859D02*
X0023773Y0079859D01*
X0024972Y0081057D02*
X0019533Y0081057D01*
X0019533Y0082256D02*
X0026171Y0082256D01*
X0027369Y0083454D02*
X0019533Y0083454D01*
X0019533Y0084653D02*
X0028236Y0084653D01*
X0029747Y0085851D02*
X0019533Y0085851D01*
X0030433Y0101933D02*
X0030433Y0103433D01*
X0021058Y0111020D02*
X0019533Y0111020D01*
X0019533Y0112218D02*
X0019862Y0112218D01*
X0098004Y0112218D02*
X0099862Y0112218D01*
X0099366Y0113417D02*
X0098501Y0113417D01*
X0098733Y0114615D02*
X0099133Y0114615D01*
X0099133Y0115814D02*
X0098733Y0115814D01*
X0098733Y0117012D02*
X0099133Y0117012D01*
X0099133Y0118211D02*
X0098733Y0118211D01*
X0098733Y0119410D02*
X0099133Y0119410D01*
X0099133Y0120608D02*
X0098733Y0120608D01*
X0098733Y0121807D02*
X0099133Y0121807D01*
X0099596Y0123005D02*
X0098270Y0123005D01*
X0178004Y0112218D02*
X0178736Y0112218D01*
X0178501Y0113417D02*
X0189333Y0113417D01*
X0189333Y0114615D02*
X0178733Y0114615D01*
X0178733Y0115814D02*
X0189333Y0115814D01*
X0189333Y0117012D02*
X0178733Y0117012D01*
X0178733Y0118211D02*
X0189333Y0118211D01*
X0189333Y0119410D02*
X0178733Y0119410D01*
X0178733Y0120608D02*
X0189333Y0120608D01*
X0189333Y0121807D02*
X0178733Y0121807D01*
X0178270Y0123005D02*
X0189333Y0123005D01*
X0189333Y0112218D02*
X0189130Y0112218D01*
X0189333Y0102630D02*
X0188136Y0102630D01*
X0183933Y0057933D02*
X0159433Y0057933D01*
X0020976Y0058285D02*
X0019533Y0058285D01*
X0019533Y0057087D02*
X0020974Y0057087D01*
X0020971Y0055888D02*
X0019533Y0055888D01*
X0019533Y0054690D02*
X0020969Y0054690D01*
X0020967Y0053491D02*
X0019533Y0053491D01*
X0019533Y0052293D02*
X0020964Y0052293D01*
X0020962Y0051094D02*
X0019533Y0051094D01*
X0019533Y0049896D02*
X0020959Y0049896D01*
X0020957Y0048697D02*
X0019533Y0048697D01*
X0019533Y0047499D02*
X0020954Y0047499D01*
X0020952Y0046300D02*
X0019533Y0046300D01*
X0019533Y0045102D02*
X0020950Y0045102D01*
X0020947Y0043903D02*
X0019533Y0043903D01*
X0019533Y0042705D02*
X0020945Y0042705D01*
X0020942Y0041506D02*
X0019533Y0041506D01*
X0019533Y0040308D02*
X0020940Y0040308D01*
X0020937Y0039109D02*
X0019533Y0039109D01*
X0019533Y0037911D02*
X0020935Y0037911D01*
X0020933Y0036712D02*
X0019533Y0036712D01*
X0019533Y0035514D02*
X0020935Y0035514D01*
X0020527Y0034315D02*
X0019533Y0034315D01*
X0019533Y0033117D02*
X0019642Y0033117D01*
D13*
X0030933Y0082933D03*
X0094433Y0108933D03*
X0140933Y0082933D03*
X0143933Y0085933D03*
X0108933Y0032933D03*
D14*
X0129433Y0057933D03*
X0133433Y0063933D03*
X0136933Y0063933D03*
X0140433Y0063933D03*
X0152933Y0072933D03*
X0162433Y0085433D03*
X0124933Y0082933D03*
X0120433Y0086433D03*
X0123933Y0087433D03*
X0116933Y0081433D03*
X0112933Y0080933D03*
X0109433Y0080933D03*
X0105933Y0080933D03*
X0108433Y0084933D03*
X0111933Y0084933D03*
X0108433Y0088433D03*
X0104933Y0088433D03*
X0109433Y0077433D03*
X0112933Y0077433D03*
X0112933Y0073933D03*
X0108933Y0070933D03*
X0112933Y0070433D03*
X0116933Y0067433D03*
X0125433Y0072933D03*
X0104106Y0067106D03*
X0079933Y0061433D03*
X0075433Y0075433D03*
X0068933Y0077933D03*
X0030433Y0103433D03*
X0073933Y0105933D03*
X0033512Y0037012D03*
D15*
X0024012Y0037012D01*
X0023933Y0036933D01*
X0023935Y0037934D01*
X0023935Y0027935D01*
X0023933Y0027933D01*
X0023933Y0036933D02*
X0033512Y0037012D01*
X0023935Y0037934D02*
X0024012Y0075854D01*
X0030933Y0082776D01*
X0030933Y0082933D01*
X0073933Y0105933D02*
X0073933Y0106433D01*
X0079933Y0061433D02*
X0125933Y0061433D01*
X0129433Y0057933D01*
X0152933Y0072933D02*
X0153433Y0072933D01*
D16*
X0162433Y0085433D02*
X0162433Y0104933D01*
X0172933Y0115433D01*
X0172933Y0116933D01*
X0173933Y0117933D01*
D17*
X0144433Y0107933D02*
X0129933Y0107933D01*
X0124933Y0102933D01*
X0124933Y0088433D01*
X0123933Y0087433D01*
X0120433Y0086433D02*
X0120433Y0091433D01*
X0122933Y0093933D01*
X0122933Y0103933D01*
X0128933Y0109933D01*
X0135933Y0109933D01*
X0133933Y0117933D02*
X0120933Y0104933D01*
X0120933Y0094433D01*
X0111933Y0085433D01*
X0111933Y0084933D01*
X0108433Y0084933D02*
X0118933Y0095433D01*
X0118933Y0112933D01*
X0123933Y0117933D01*
X0116933Y0116433D02*
X0115433Y0117933D01*
X0113933Y0117933D01*
X0116933Y0116433D02*
X0116933Y0096433D01*
X0108933Y0088433D01*
X0108433Y0088433D01*
X0104933Y0088433D02*
X0103433Y0089933D01*
X0103433Y0117433D01*
X0103933Y0117933D01*
X0103933Y0089433D02*
X0104933Y0088433D01*
X0116933Y0081433D02*
X0116933Y0067433D01*
X0108933Y0070933D02*
X0108933Y0071933D01*
X0102933Y0077933D01*
X0068933Y0077933D01*
M02*
