%
M48
M72
T01C0.01200
T02C0.01500
T03C0.04000
%
T01
X33512Y36012
X79933Y60433
X75433Y74433
X68933Y76933
X104106Y66106
X108933Y69933
X112933Y69433
X116933Y66433
X125433Y71933
X112933Y72933
X112933Y76433
X109433Y76433
X109433Y79933
X105933Y79933
X108433Y83933
X111933Y83933
X108433Y87433
X104933Y87433
X112933Y79933
X116933Y80433
X120433Y85433
X123933Y86433
X124933Y81933
X133433Y62933
X136433Y62933
X139433Y62933
X129433Y56933
X152933Y71933
X162433Y84433
X73933Y104933
X30433Y102433
T02
X30933Y81933
X94433Y107933
X140933Y81933
X143933Y84933
X108933Y31933
T03
X23933Y26933
X33933Y26933
X43933Y26933
X53933Y26933
X63933Y26933
X73933Y26933
X83933Y26933
X93933Y26933
X103933Y26933
X113933Y26933
X123933Y26933
X133933Y26933
X143933Y26933
X153933Y26933
X163933Y26933
X173933Y26933
X183933Y26933
X183933Y36933
X183933Y46933
X183933Y56933
X183933Y66933
X183933Y76933
X183933Y86933
X183933Y96933
X183933Y106933
X183933Y116933
X173933Y116933
X163933Y116933
X153933Y116933
X143933Y116933
X133933Y116933
X123933Y116933
X113933Y116933
X103933Y116933
X93933Y116933
X83933Y116933
X73933Y116933
X63933Y116933
X53933Y116933
X43933Y116933
X33933Y116933
X23933Y116933
M30
