G75*
%MOIN*%
%OFA0B0*%
%FSLAX25Y25*%
%IPPOS*%
%LPD*%
%AMOC8*
5,1,8,0,0,1.08239X$1,22.5*
%
%ADD10C,0.00000*%
%ADD11R,0.03313X0.04042*%
%ADD12R,0.05912X0.06699*%
%ADD13R,0.06699X0.05912*%
%ADD14R,0.04042X0.03313*%
%ADD15R,0.02762X0.03550*%
%ADD16R,0.02762X0.01975*%
%ADD17C,0.00158*%
%ADD18R,0.09258X0.04337*%
%ADD19R,0.09258X0.13195*%
%ADD20R,0.09800X0.02172*%
%ADD21R,0.10636X0.06207*%
%ADD22R,0.07880X0.11719*%
%ADD23R,0.04731X0.04337*%
%ADD24R,0.12998X0.06699*%
%ADD25R,0.04337X0.04731*%
%ADD26R,0.08983X0.06699*%
%ADD27R,0.05912X0.04534*%
%ADD28C,0.06400*%
D10*
X0016933Y0019933D02*
X0016933Y0123933D01*
X0190933Y0123933D01*
X0190933Y0019933D01*
X0016933Y0019933D01*
D11*
X0094433Y0100071D03*
X0094433Y0104795D03*
X0113933Y0104795D03*
X0113933Y0100071D03*
X0140433Y0077295D03*
X0140433Y0072571D03*
D12*
X0149433Y0071732D03*
X0149433Y0084134D03*
X0045433Y0065634D03*
X0045433Y0053232D03*
D13*
X0038034Y0040933D03*
X0025632Y0040933D03*
X0085232Y0059933D03*
X0097634Y0059933D03*
D14*
X0092295Y0064933D03*
X0087571Y0064933D03*
X0112571Y0045933D03*
X0117295Y0045933D03*
X0117295Y0041933D03*
X0112571Y0041933D03*
X0108795Y0035433D03*
X0104071Y0035433D03*
X0037795Y0050433D03*
X0033071Y0050433D03*
X0118071Y0104933D03*
X0122795Y0104933D03*
D15*
X0049433Y0045854D03*
X0044433Y0045854D03*
X0044433Y0036012D03*
X0049433Y0036012D03*
D16*
X0046683Y0075433D03*
X0046683Y0077933D03*
X0046683Y0080433D03*
X0054183Y0080433D03*
X0054183Y0077933D03*
X0054183Y0075433D03*
D17*
X0093537Y0076660D02*
X0100865Y0076660D01*
X0100865Y0075238D01*
X0093537Y0075238D01*
X0093537Y0076660D01*
X0093537Y0075395D02*
X0100865Y0075395D01*
X0100865Y0075552D02*
X0093537Y0075552D01*
X0093537Y0075709D02*
X0100865Y0075709D01*
X0100865Y0075866D02*
X0093537Y0075866D01*
X0093537Y0076023D02*
X0100865Y0076023D01*
X0100865Y0076180D02*
X0093537Y0076180D01*
X0093537Y0076337D02*
X0100865Y0076337D01*
X0100865Y0076494D02*
X0093537Y0076494D01*
X0093537Y0076651D02*
X0100865Y0076651D01*
X0100865Y0078628D02*
X0093537Y0078628D01*
X0100865Y0078628D02*
X0100865Y0077206D01*
X0093537Y0077206D01*
X0093537Y0078628D01*
X0093537Y0077363D02*
X0100865Y0077363D01*
X0100865Y0077520D02*
X0093537Y0077520D01*
X0093537Y0077677D02*
X0100865Y0077677D01*
X0100865Y0077834D02*
X0093537Y0077834D01*
X0093537Y0077991D02*
X0100865Y0077991D01*
X0100865Y0078148D02*
X0093537Y0078148D01*
X0093537Y0078305D02*
X0100865Y0078305D01*
X0100865Y0078462D02*
X0093537Y0078462D01*
X0093537Y0078619D02*
X0100865Y0078619D01*
X0100865Y0080597D02*
X0093537Y0080597D01*
X0100865Y0080597D02*
X0100865Y0079175D01*
X0093537Y0079175D01*
X0093537Y0080597D01*
X0093537Y0079332D02*
X0100865Y0079332D01*
X0100865Y0079489D02*
X0093537Y0079489D01*
X0093537Y0079646D02*
X0100865Y0079646D01*
X0100865Y0079803D02*
X0093537Y0079803D01*
X0093537Y0079960D02*
X0100865Y0079960D01*
X0100865Y0080117D02*
X0093537Y0080117D01*
X0093537Y0080274D02*
X0100865Y0080274D01*
X0100865Y0080431D02*
X0093537Y0080431D01*
X0093537Y0080588D02*
X0100865Y0080588D01*
X0100865Y0082565D02*
X0093537Y0082565D01*
X0100865Y0082565D02*
X0100865Y0081143D01*
X0093537Y0081143D01*
X0093537Y0082565D01*
X0093537Y0081300D02*
X0100865Y0081300D01*
X0100865Y0081457D02*
X0093537Y0081457D01*
X0093537Y0081614D02*
X0100865Y0081614D01*
X0100865Y0081771D02*
X0093537Y0081771D01*
X0093537Y0081928D02*
X0100865Y0081928D01*
X0100865Y0082085D02*
X0093537Y0082085D01*
X0093537Y0082242D02*
X0100865Y0082242D01*
X0100865Y0082399D02*
X0093537Y0082399D01*
X0093537Y0082556D02*
X0100865Y0082556D01*
X0100865Y0084534D02*
X0093537Y0084534D01*
X0100865Y0084534D02*
X0100865Y0083112D01*
X0093537Y0083112D01*
X0093537Y0084534D01*
X0093537Y0083269D02*
X0100865Y0083269D01*
X0100865Y0083426D02*
X0093537Y0083426D01*
X0093537Y0083583D02*
X0100865Y0083583D01*
X0100865Y0083740D02*
X0093537Y0083740D01*
X0093537Y0083897D02*
X0100865Y0083897D01*
X0100865Y0084054D02*
X0093537Y0084054D01*
X0093537Y0084211D02*
X0100865Y0084211D01*
X0100865Y0084368D02*
X0093537Y0084368D01*
X0093537Y0084525D02*
X0100865Y0084525D01*
X0100865Y0086502D02*
X0093537Y0086502D01*
X0100865Y0086502D02*
X0100865Y0085080D01*
X0093537Y0085080D01*
X0093537Y0086502D01*
X0093537Y0085237D02*
X0100865Y0085237D01*
X0100865Y0085394D02*
X0093537Y0085394D01*
X0093537Y0085551D02*
X0100865Y0085551D01*
X0100865Y0085708D02*
X0093537Y0085708D01*
X0093537Y0085865D02*
X0100865Y0085865D01*
X0100865Y0086022D02*
X0093537Y0086022D01*
X0093537Y0086179D02*
X0100865Y0086179D01*
X0100865Y0086336D02*
X0093537Y0086336D01*
X0093537Y0086493D02*
X0100865Y0086493D01*
X0100865Y0088471D02*
X0093537Y0088471D01*
X0100865Y0088471D02*
X0100865Y0087049D01*
X0093537Y0087049D01*
X0093537Y0088471D01*
X0093537Y0087206D02*
X0100865Y0087206D01*
X0100865Y0087363D02*
X0093537Y0087363D01*
X0093537Y0087520D02*
X0100865Y0087520D01*
X0100865Y0087677D02*
X0093537Y0087677D01*
X0093537Y0087834D02*
X0100865Y0087834D01*
X0100865Y0087991D02*
X0093537Y0087991D01*
X0093537Y0088148D02*
X0100865Y0088148D01*
X0100865Y0088305D02*
X0093537Y0088305D01*
X0093537Y0088462D02*
X0100865Y0088462D01*
X0102395Y0097329D02*
X0103817Y0097329D01*
X0103817Y0090001D01*
X0102395Y0090001D01*
X0102395Y0097329D01*
X0102395Y0090158D02*
X0103817Y0090158D01*
X0103817Y0090315D02*
X0102395Y0090315D01*
X0102395Y0090472D02*
X0103817Y0090472D01*
X0103817Y0090629D02*
X0102395Y0090629D01*
X0102395Y0090786D02*
X0103817Y0090786D01*
X0103817Y0090943D02*
X0102395Y0090943D01*
X0102395Y0091100D02*
X0103817Y0091100D01*
X0103817Y0091257D02*
X0102395Y0091257D01*
X0102395Y0091414D02*
X0103817Y0091414D01*
X0103817Y0091571D02*
X0102395Y0091571D01*
X0102395Y0091728D02*
X0103817Y0091728D01*
X0103817Y0091885D02*
X0102395Y0091885D01*
X0102395Y0092042D02*
X0103817Y0092042D01*
X0103817Y0092199D02*
X0102395Y0092199D01*
X0102395Y0092356D02*
X0103817Y0092356D01*
X0103817Y0092513D02*
X0102395Y0092513D01*
X0102395Y0092670D02*
X0103817Y0092670D01*
X0103817Y0092827D02*
X0102395Y0092827D01*
X0102395Y0092984D02*
X0103817Y0092984D01*
X0103817Y0093141D02*
X0102395Y0093141D01*
X0102395Y0093298D02*
X0103817Y0093298D01*
X0103817Y0093455D02*
X0102395Y0093455D01*
X0102395Y0093612D02*
X0103817Y0093612D01*
X0103817Y0093769D02*
X0102395Y0093769D01*
X0102395Y0093926D02*
X0103817Y0093926D01*
X0103817Y0094083D02*
X0102395Y0094083D01*
X0102395Y0094240D02*
X0103817Y0094240D01*
X0103817Y0094397D02*
X0102395Y0094397D01*
X0102395Y0094554D02*
X0103817Y0094554D01*
X0103817Y0094711D02*
X0102395Y0094711D01*
X0102395Y0094868D02*
X0103817Y0094868D01*
X0103817Y0095025D02*
X0102395Y0095025D01*
X0102395Y0095182D02*
X0103817Y0095182D01*
X0103817Y0095339D02*
X0102395Y0095339D01*
X0102395Y0095496D02*
X0103817Y0095496D01*
X0103817Y0095653D02*
X0102395Y0095653D01*
X0102395Y0095810D02*
X0103817Y0095810D01*
X0103817Y0095967D02*
X0102395Y0095967D01*
X0102395Y0096124D02*
X0103817Y0096124D01*
X0103817Y0096281D02*
X0102395Y0096281D01*
X0102395Y0096438D02*
X0103817Y0096438D01*
X0103817Y0096595D02*
X0102395Y0096595D01*
X0102395Y0096752D02*
X0103817Y0096752D01*
X0103817Y0096909D02*
X0102395Y0096909D01*
X0102395Y0097066D02*
X0103817Y0097066D01*
X0103817Y0097223D02*
X0102395Y0097223D01*
X0104364Y0097329D02*
X0105786Y0097329D01*
X0105786Y0090001D01*
X0104364Y0090001D01*
X0104364Y0097329D01*
X0104364Y0090158D02*
X0105786Y0090158D01*
X0105786Y0090315D02*
X0104364Y0090315D01*
X0104364Y0090472D02*
X0105786Y0090472D01*
X0105786Y0090629D02*
X0104364Y0090629D01*
X0104364Y0090786D02*
X0105786Y0090786D01*
X0105786Y0090943D02*
X0104364Y0090943D01*
X0104364Y0091100D02*
X0105786Y0091100D01*
X0105786Y0091257D02*
X0104364Y0091257D01*
X0104364Y0091414D02*
X0105786Y0091414D01*
X0105786Y0091571D02*
X0104364Y0091571D01*
X0104364Y0091728D02*
X0105786Y0091728D01*
X0105786Y0091885D02*
X0104364Y0091885D01*
X0104364Y0092042D02*
X0105786Y0092042D01*
X0105786Y0092199D02*
X0104364Y0092199D01*
X0104364Y0092356D02*
X0105786Y0092356D01*
X0105786Y0092513D02*
X0104364Y0092513D01*
X0104364Y0092670D02*
X0105786Y0092670D01*
X0105786Y0092827D02*
X0104364Y0092827D01*
X0104364Y0092984D02*
X0105786Y0092984D01*
X0105786Y0093141D02*
X0104364Y0093141D01*
X0104364Y0093298D02*
X0105786Y0093298D01*
X0105786Y0093455D02*
X0104364Y0093455D01*
X0104364Y0093612D02*
X0105786Y0093612D01*
X0105786Y0093769D02*
X0104364Y0093769D01*
X0104364Y0093926D02*
X0105786Y0093926D01*
X0105786Y0094083D02*
X0104364Y0094083D01*
X0104364Y0094240D02*
X0105786Y0094240D01*
X0105786Y0094397D02*
X0104364Y0094397D01*
X0104364Y0094554D02*
X0105786Y0094554D01*
X0105786Y0094711D02*
X0104364Y0094711D01*
X0104364Y0094868D02*
X0105786Y0094868D01*
X0105786Y0095025D02*
X0104364Y0095025D01*
X0104364Y0095182D02*
X0105786Y0095182D01*
X0105786Y0095339D02*
X0104364Y0095339D01*
X0104364Y0095496D02*
X0105786Y0095496D01*
X0105786Y0095653D02*
X0104364Y0095653D01*
X0104364Y0095810D02*
X0105786Y0095810D01*
X0105786Y0095967D02*
X0104364Y0095967D01*
X0104364Y0096124D02*
X0105786Y0096124D01*
X0105786Y0096281D02*
X0104364Y0096281D01*
X0104364Y0096438D02*
X0105786Y0096438D01*
X0105786Y0096595D02*
X0104364Y0096595D01*
X0104364Y0096752D02*
X0105786Y0096752D01*
X0105786Y0096909D02*
X0104364Y0096909D01*
X0104364Y0097066D02*
X0105786Y0097066D01*
X0105786Y0097223D02*
X0104364Y0097223D01*
X0106332Y0097329D02*
X0107754Y0097329D01*
X0107754Y0090001D01*
X0106332Y0090001D01*
X0106332Y0097329D01*
X0106332Y0090158D02*
X0107754Y0090158D01*
X0107754Y0090315D02*
X0106332Y0090315D01*
X0106332Y0090472D02*
X0107754Y0090472D01*
X0107754Y0090629D02*
X0106332Y0090629D01*
X0106332Y0090786D02*
X0107754Y0090786D01*
X0107754Y0090943D02*
X0106332Y0090943D01*
X0106332Y0091100D02*
X0107754Y0091100D01*
X0107754Y0091257D02*
X0106332Y0091257D01*
X0106332Y0091414D02*
X0107754Y0091414D01*
X0107754Y0091571D02*
X0106332Y0091571D01*
X0106332Y0091728D02*
X0107754Y0091728D01*
X0107754Y0091885D02*
X0106332Y0091885D01*
X0106332Y0092042D02*
X0107754Y0092042D01*
X0107754Y0092199D02*
X0106332Y0092199D01*
X0106332Y0092356D02*
X0107754Y0092356D01*
X0107754Y0092513D02*
X0106332Y0092513D01*
X0106332Y0092670D02*
X0107754Y0092670D01*
X0107754Y0092827D02*
X0106332Y0092827D01*
X0106332Y0092984D02*
X0107754Y0092984D01*
X0107754Y0093141D02*
X0106332Y0093141D01*
X0106332Y0093298D02*
X0107754Y0093298D01*
X0107754Y0093455D02*
X0106332Y0093455D01*
X0106332Y0093612D02*
X0107754Y0093612D01*
X0107754Y0093769D02*
X0106332Y0093769D01*
X0106332Y0093926D02*
X0107754Y0093926D01*
X0107754Y0094083D02*
X0106332Y0094083D01*
X0106332Y0094240D02*
X0107754Y0094240D01*
X0107754Y0094397D02*
X0106332Y0094397D01*
X0106332Y0094554D02*
X0107754Y0094554D01*
X0107754Y0094711D02*
X0106332Y0094711D01*
X0106332Y0094868D02*
X0107754Y0094868D01*
X0107754Y0095025D02*
X0106332Y0095025D01*
X0106332Y0095182D02*
X0107754Y0095182D01*
X0107754Y0095339D02*
X0106332Y0095339D01*
X0106332Y0095496D02*
X0107754Y0095496D01*
X0107754Y0095653D02*
X0106332Y0095653D01*
X0106332Y0095810D02*
X0107754Y0095810D01*
X0107754Y0095967D02*
X0106332Y0095967D01*
X0106332Y0096124D02*
X0107754Y0096124D01*
X0107754Y0096281D02*
X0106332Y0096281D01*
X0106332Y0096438D02*
X0107754Y0096438D01*
X0107754Y0096595D02*
X0106332Y0096595D01*
X0106332Y0096752D02*
X0107754Y0096752D01*
X0107754Y0096909D02*
X0106332Y0096909D01*
X0106332Y0097066D02*
X0107754Y0097066D01*
X0107754Y0097223D02*
X0106332Y0097223D01*
X0108301Y0097329D02*
X0109723Y0097329D01*
X0109723Y0090001D01*
X0108301Y0090001D01*
X0108301Y0097329D01*
X0108301Y0090158D02*
X0109723Y0090158D01*
X0109723Y0090315D02*
X0108301Y0090315D01*
X0108301Y0090472D02*
X0109723Y0090472D01*
X0109723Y0090629D02*
X0108301Y0090629D01*
X0108301Y0090786D02*
X0109723Y0090786D01*
X0109723Y0090943D02*
X0108301Y0090943D01*
X0108301Y0091100D02*
X0109723Y0091100D01*
X0109723Y0091257D02*
X0108301Y0091257D01*
X0108301Y0091414D02*
X0109723Y0091414D01*
X0109723Y0091571D02*
X0108301Y0091571D01*
X0108301Y0091728D02*
X0109723Y0091728D01*
X0109723Y0091885D02*
X0108301Y0091885D01*
X0108301Y0092042D02*
X0109723Y0092042D01*
X0109723Y0092199D02*
X0108301Y0092199D01*
X0108301Y0092356D02*
X0109723Y0092356D01*
X0109723Y0092513D02*
X0108301Y0092513D01*
X0108301Y0092670D02*
X0109723Y0092670D01*
X0109723Y0092827D02*
X0108301Y0092827D01*
X0108301Y0092984D02*
X0109723Y0092984D01*
X0109723Y0093141D02*
X0108301Y0093141D01*
X0108301Y0093298D02*
X0109723Y0093298D01*
X0109723Y0093455D02*
X0108301Y0093455D01*
X0108301Y0093612D02*
X0109723Y0093612D01*
X0109723Y0093769D02*
X0108301Y0093769D01*
X0108301Y0093926D02*
X0109723Y0093926D01*
X0109723Y0094083D02*
X0108301Y0094083D01*
X0108301Y0094240D02*
X0109723Y0094240D01*
X0109723Y0094397D02*
X0108301Y0094397D01*
X0108301Y0094554D02*
X0109723Y0094554D01*
X0109723Y0094711D02*
X0108301Y0094711D01*
X0108301Y0094868D02*
X0109723Y0094868D01*
X0109723Y0095025D02*
X0108301Y0095025D01*
X0108301Y0095182D02*
X0109723Y0095182D01*
X0109723Y0095339D02*
X0108301Y0095339D01*
X0108301Y0095496D02*
X0109723Y0095496D01*
X0109723Y0095653D02*
X0108301Y0095653D01*
X0108301Y0095810D02*
X0109723Y0095810D01*
X0109723Y0095967D02*
X0108301Y0095967D01*
X0108301Y0096124D02*
X0109723Y0096124D01*
X0109723Y0096281D02*
X0108301Y0096281D01*
X0108301Y0096438D02*
X0109723Y0096438D01*
X0109723Y0096595D02*
X0108301Y0096595D01*
X0108301Y0096752D02*
X0109723Y0096752D01*
X0109723Y0096909D02*
X0108301Y0096909D01*
X0108301Y0097066D02*
X0109723Y0097066D01*
X0109723Y0097223D02*
X0108301Y0097223D01*
X0110269Y0097329D02*
X0111691Y0097329D01*
X0111691Y0090001D01*
X0110269Y0090001D01*
X0110269Y0097329D01*
X0110269Y0090158D02*
X0111691Y0090158D01*
X0111691Y0090315D02*
X0110269Y0090315D01*
X0110269Y0090472D02*
X0111691Y0090472D01*
X0111691Y0090629D02*
X0110269Y0090629D01*
X0110269Y0090786D02*
X0111691Y0090786D01*
X0111691Y0090943D02*
X0110269Y0090943D01*
X0110269Y0091100D02*
X0111691Y0091100D01*
X0111691Y0091257D02*
X0110269Y0091257D01*
X0110269Y0091414D02*
X0111691Y0091414D01*
X0111691Y0091571D02*
X0110269Y0091571D01*
X0110269Y0091728D02*
X0111691Y0091728D01*
X0111691Y0091885D02*
X0110269Y0091885D01*
X0110269Y0092042D02*
X0111691Y0092042D01*
X0111691Y0092199D02*
X0110269Y0092199D01*
X0110269Y0092356D02*
X0111691Y0092356D01*
X0111691Y0092513D02*
X0110269Y0092513D01*
X0110269Y0092670D02*
X0111691Y0092670D01*
X0111691Y0092827D02*
X0110269Y0092827D01*
X0110269Y0092984D02*
X0111691Y0092984D01*
X0111691Y0093141D02*
X0110269Y0093141D01*
X0110269Y0093298D02*
X0111691Y0093298D01*
X0111691Y0093455D02*
X0110269Y0093455D01*
X0110269Y0093612D02*
X0111691Y0093612D01*
X0111691Y0093769D02*
X0110269Y0093769D01*
X0110269Y0093926D02*
X0111691Y0093926D01*
X0111691Y0094083D02*
X0110269Y0094083D01*
X0110269Y0094240D02*
X0111691Y0094240D01*
X0111691Y0094397D02*
X0110269Y0094397D01*
X0110269Y0094554D02*
X0111691Y0094554D01*
X0111691Y0094711D02*
X0110269Y0094711D01*
X0110269Y0094868D02*
X0111691Y0094868D01*
X0111691Y0095025D02*
X0110269Y0095025D01*
X0110269Y0095182D02*
X0111691Y0095182D01*
X0111691Y0095339D02*
X0110269Y0095339D01*
X0110269Y0095496D02*
X0111691Y0095496D01*
X0111691Y0095653D02*
X0110269Y0095653D01*
X0110269Y0095810D02*
X0111691Y0095810D01*
X0111691Y0095967D02*
X0110269Y0095967D01*
X0110269Y0096124D02*
X0111691Y0096124D01*
X0111691Y0096281D02*
X0110269Y0096281D01*
X0110269Y0096438D02*
X0111691Y0096438D01*
X0111691Y0096595D02*
X0110269Y0096595D01*
X0110269Y0096752D02*
X0111691Y0096752D01*
X0111691Y0096909D02*
X0110269Y0096909D01*
X0110269Y0097066D02*
X0111691Y0097066D01*
X0111691Y0097223D02*
X0110269Y0097223D01*
X0112238Y0097329D02*
X0113660Y0097329D01*
X0113660Y0090001D01*
X0112238Y0090001D01*
X0112238Y0097329D01*
X0112238Y0090158D02*
X0113660Y0090158D01*
X0113660Y0090315D02*
X0112238Y0090315D01*
X0112238Y0090472D02*
X0113660Y0090472D01*
X0113660Y0090629D02*
X0112238Y0090629D01*
X0112238Y0090786D02*
X0113660Y0090786D01*
X0113660Y0090943D02*
X0112238Y0090943D01*
X0112238Y0091100D02*
X0113660Y0091100D01*
X0113660Y0091257D02*
X0112238Y0091257D01*
X0112238Y0091414D02*
X0113660Y0091414D01*
X0113660Y0091571D02*
X0112238Y0091571D01*
X0112238Y0091728D02*
X0113660Y0091728D01*
X0113660Y0091885D02*
X0112238Y0091885D01*
X0112238Y0092042D02*
X0113660Y0092042D01*
X0113660Y0092199D02*
X0112238Y0092199D01*
X0112238Y0092356D02*
X0113660Y0092356D01*
X0113660Y0092513D02*
X0112238Y0092513D01*
X0112238Y0092670D02*
X0113660Y0092670D01*
X0113660Y0092827D02*
X0112238Y0092827D01*
X0112238Y0092984D02*
X0113660Y0092984D01*
X0113660Y0093141D02*
X0112238Y0093141D01*
X0112238Y0093298D02*
X0113660Y0093298D01*
X0113660Y0093455D02*
X0112238Y0093455D01*
X0112238Y0093612D02*
X0113660Y0093612D01*
X0113660Y0093769D02*
X0112238Y0093769D01*
X0112238Y0093926D02*
X0113660Y0093926D01*
X0113660Y0094083D02*
X0112238Y0094083D01*
X0112238Y0094240D02*
X0113660Y0094240D01*
X0113660Y0094397D02*
X0112238Y0094397D01*
X0112238Y0094554D02*
X0113660Y0094554D01*
X0113660Y0094711D02*
X0112238Y0094711D01*
X0112238Y0094868D02*
X0113660Y0094868D01*
X0113660Y0095025D02*
X0112238Y0095025D01*
X0112238Y0095182D02*
X0113660Y0095182D01*
X0113660Y0095339D02*
X0112238Y0095339D01*
X0112238Y0095496D02*
X0113660Y0095496D01*
X0113660Y0095653D02*
X0112238Y0095653D01*
X0112238Y0095810D02*
X0113660Y0095810D01*
X0113660Y0095967D02*
X0112238Y0095967D01*
X0112238Y0096124D02*
X0113660Y0096124D01*
X0113660Y0096281D02*
X0112238Y0096281D01*
X0112238Y0096438D02*
X0113660Y0096438D01*
X0113660Y0096595D02*
X0112238Y0096595D01*
X0112238Y0096752D02*
X0113660Y0096752D01*
X0113660Y0096909D02*
X0112238Y0096909D01*
X0112238Y0097066D02*
X0113660Y0097066D01*
X0113660Y0097223D02*
X0112238Y0097223D01*
X0114206Y0097329D02*
X0115628Y0097329D01*
X0115628Y0090001D01*
X0114206Y0090001D01*
X0114206Y0097329D01*
X0114206Y0090158D02*
X0115628Y0090158D01*
X0115628Y0090315D02*
X0114206Y0090315D01*
X0114206Y0090472D02*
X0115628Y0090472D01*
X0115628Y0090629D02*
X0114206Y0090629D01*
X0114206Y0090786D02*
X0115628Y0090786D01*
X0115628Y0090943D02*
X0114206Y0090943D01*
X0114206Y0091100D02*
X0115628Y0091100D01*
X0115628Y0091257D02*
X0114206Y0091257D01*
X0114206Y0091414D02*
X0115628Y0091414D01*
X0115628Y0091571D02*
X0114206Y0091571D01*
X0114206Y0091728D02*
X0115628Y0091728D01*
X0115628Y0091885D02*
X0114206Y0091885D01*
X0114206Y0092042D02*
X0115628Y0092042D01*
X0115628Y0092199D02*
X0114206Y0092199D01*
X0114206Y0092356D02*
X0115628Y0092356D01*
X0115628Y0092513D02*
X0114206Y0092513D01*
X0114206Y0092670D02*
X0115628Y0092670D01*
X0115628Y0092827D02*
X0114206Y0092827D01*
X0114206Y0092984D02*
X0115628Y0092984D01*
X0115628Y0093141D02*
X0114206Y0093141D01*
X0114206Y0093298D02*
X0115628Y0093298D01*
X0115628Y0093455D02*
X0114206Y0093455D01*
X0114206Y0093612D02*
X0115628Y0093612D01*
X0115628Y0093769D02*
X0114206Y0093769D01*
X0114206Y0093926D02*
X0115628Y0093926D01*
X0115628Y0094083D02*
X0114206Y0094083D01*
X0114206Y0094240D02*
X0115628Y0094240D01*
X0115628Y0094397D02*
X0114206Y0094397D01*
X0114206Y0094554D02*
X0115628Y0094554D01*
X0115628Y0094711D02*
X0114206Y0094711D01*
X0114206Y0094868D02*
X0115628Y0094868D01*
X0115628Y0095025D02*
X0114206Y0095025D01*
X0114206Y0095182D02*
X0115628Y0095182D01*
X0115628Y0095339D02*
X0114206Y0095339D01*
X0114206Y0095496D02*
X0115628Y0095496D01*
X0115628Y0095653D02*
X0114206Y0095653D01*
X0114206Y0095810D02*
X0115628Y0095810D01*
X0115628Y0095967D02*
X0114206Y0095967D01*
X0114206Y0096124D02*
X0115628Y0096124D01*
X0115628Y0096281D02*
X0114206Y0096281D01*
X0114206Y0096438D02*
X0115628Y0096438D01*
X0115628Y0096595D02*
X0114206Y0096595D01*
X0114206Y0096752D02*
X0115628Y0096752D01*
X0115628Y0096909D02*
X0114206Y0096909D01*
X0114206Y0097066D02*
X0115628Y0097066D01*
X0115628Y0097223D02*
X0114206Y0097223D01*
X0116175Y0097329D02*
X0117597Y0097329D01*
X0117597Y0090001D01*
X0116175Y0090001D01*
X0116175Y0097329D01*
X0116175Y0090158D02*
X0117597Y0090158D01*
X0117597Y0090315D02*
X0116175Y0090315D01*
X0116175Y0090472D02*
X0117597Y0090472D01*
X0117597Y0090629D02*
X0116175Y0090629D01*
X0116175Y0090786D02*
X0117597Y0090786D01*
X0117597Y0090943D02*
X0116175Y0090943D01*
X0116175Y0091100D02*
X0117597Y0091100D01*
X0117597Y0091257D02*
X0116175Y0091257D01*
X0116175Y0091414D02*
X0117597Y0091414D01*
X0117597Y0091571D02*
X0116175Y0091571D01*
X0116175Y0091728D02*
X0117597Y0091728D01*
X0117597Y0091885D02*
X0116175Y0091885D01*
X0116175Y0092042D02*
X0117597Y0092042D01*
X0117597Y0092199D02*
X0116175Y0092199D01*
X0116175Y0092356D02*
X0117597Y0092356D01*
X0117597Y0092513D02*
X0116175Y0092513D01*
X0116175Y0092670D02*
X0117597Y0092670D01*
X0117597Y0092827D02*
X0116175Y0092827D01*
X0116175Y0092984D02*
X0117597Y0092984D01*
X0117597Y0093141D02*
X0116175Y0093141D01*
X0116175Y0093298D02*
X0117597Y0093298D01*
X0117597Y0093455D02*
X0116175Y0093455D01*
X0116175Y0093612D02*
X0117597Y0093612D01*
X0117597Y0093769D02*
X0116175Y0093769D01*
X0116175Y0093926D02*
X0117597Y0093926D01*
X0117597Y0094083D02*
X0116175Y0094083D01*
X0116175Y0094240D02*
X0117597Y0094240D01*
X0117597Y0094397D02*
X0116175Y0094397D01*
X0116175Y0094554D02*
X0117597Y0094554D01*
X0117597Y0094711D02*
X0116175Y0094711D01*
X0116175Y0094868D02*
X0117597Y0094868D01*
X0117597Y0095025D02*
X0116175Y0095025D01*
X0116175Y0095182D02*
X0117597Y0095182D01*
X0117597Y0095339D02*
X0116175Y0095339D01*
X0116175Y0095496D02*
X0117597Y0095496D01*
X0117597Y0095653D02*
X0116175Y0095653D01*
X0116175Y0095810D02*
X0117597Y0095810D01*
X0117597Y0095967D02*
X0116175Y0095967D01*
X0116175Y0096124D02*
X0117597Y0096124D01*
X0117597Y0096281D02*
X0116175Y0096281D01*
X0116175Y0096438D02*
X0117597Y0096438D01*
X0117597Y0096595D02*
X0116175Y0096595D01*
X0116175Y0096752D02*
X0117597Y0096752D01*
X0117597Y0096909D02*
X0116175Y0096909D01*
X0116175Y0097066D02*
X0117597Y0097066D01*
X0117597Y0097223D02*
X0116175Y0097223D01*
X0118143Y0097329D02*
X0119565Y0097329D01*
X0119565Y0090001D01*
X0118143Y0090001D01*
X0118143Y0097329D01*
X0118143Y0090158D02*
X0119565Y0090158D01*
X0119565Y0090315D02*
X0118143Y0090315D01*
X0118143Y0090472D02*
X0119565Y0090472D01*
X0119565Y0090629D02*
X0118143Y0090629D01*
X0118143Y0090786D02*
X0119565Y0090786D01*
X0119565Y0090943D02*
X0118143Y0090943D01*
X0118143Y0091100D02*
X0119565Y0091100D01*
X0119565Y0091257D02*
X0118143Y0091257D01*
X0118143Y0091414D02*
X0119565Y0091414D01*
X0119565Y0091571D02*
X0118143Y0091571D01*
X0118143Y0091728D02*
X0119565Y0091728D01*
X0119565Y0091885D02*
X0118143Y0091885D01*
X0118143Y0092042D02*
X0119565Y0092042D01*
X0119565Y0092199D02*
X0118143Y0092199D01*
X0118143Y0092356D02*
X0119565Y0092356D01*
X0119565Y0092513D02*
X0118143Y0092513D01*
X0118143Y0092670D02*
X0119565Y0092670D01*
X0119565Y0092827D02*
X0118143Y0092827D01*
X0118143Y0092984D02*
X0119565Y0092984D01*
X0119565Y0093141D02*
X0118143Y0093141D01*
X0118143Y0093298D02*
X0119565Y0093298D01*
X0119565Y0093455D02*
X0118143Y0093455D01*
X0118143Y0093612D02*
X0119565Y0093612D01*
X0119565Y0093769D02*
X0118143Y0093769D01*
X0118143Y0093926D02*
X0119565Y0093926D01*
X0119565Y0094083D02*
X0118143Y0094083D01*
X0118143Y0094240D02*
X0119565Y0094240D01*
X0119565Y0094397D02*
X0118143Y0094397D01*
X0118143Y0094554D02*
X0119565Y0094554D01*
X0119565Y0094711D02*
X0118143Y0094711D01*
X0118143Y0094868D02*
X0119565Y0094868D01*
X0119565Y0095025D02*
X0118143Y0095025D01*
X0118143Y0095182D02*
X0119565Y0095182D01*
X0119565Y0095339D02*
X0118143Y0095339D01*
X0118143Y0095496D02*
X0119565Y0095496D01*
X0119565Y0095653D02*
X0118143Y0095653D01*
X0118143Y0095810D02*
X0119565Y0095810D01*
X0119565Y0095967D02*
X0118143Y0095967D01*
X0118143Y0096124D02*
X0119565Y0096124D01*
X0119565Y0096281D02*
X0118143Y0096281D01*
X0118143Y0096438D02*
X0119565Y0096438D01*
X0119565Y0096595D02*
X0118143Y0096595D01*
X0118143Y0096752D02*
X0119565Y0096752D01*
X0119565Y0096909D02*
X0118143Y0096909D01*
X0118143Y0097066D02*
X0119565Y0097066D01*
X0119565Y0097223D02*
X0118143Y0097223D01*
X0120112Y0097329D02*
X0121534Y0097329D01*
X0121534Y0090001D01*
X0120112Y0090001D01*
X0120112Y0097329D01*
X0120112Y0090158D02*
X0121534Y0090158D01*
X0121534Y0090315D02*
X0120112Y0090315D01*
X0120112Y0090472D02*
X0121534Y0090472D01*
X0121534Y0090629D02*
X0120112Y0090629D01*
X0120112Y0090786D02*
X0121534Y0090786D01*
X0121534Y0090943D02*
X0120112Y0090943D01*
X0120112Y0091100D02*
X0121534Y0091100D01*
X0121534Y0091257D02*
X0120112Y0091257D01*
X0120112Y0091414D02*
X0121534Y0091414D01*
X0121534Y0091571D02*
X0120112Y0091571D01*
X0120112Y0091728D02*
X0121534Y0091728D01*
X0121534Y0091885D02*
X0120112Y0091885D01*
X0120112Y0092042D02*
X0121534Y0092042D01*
X0121534Y0092199D02*
X0120112Y0092199D01*
X0120112Y0092356D02*
X0121534Y0092356D01*
X0121534Y0092513D02*
X0120112Y0092513D01*
X0120112Y0092670D02*
X0121534Y0092670D01*
X0121534Y0092827D02*
X0120112Y0092827D01*
X0120112Y0092984D02*
X0121534Y0092984D01*
X0121534Y0093141D02*
X0120112Y0093141D01*
X0120112Y0093298D02*
X0121534Y0093298D01*
X0121534Y0093455D02*
X0120112Y0093455D01*
X0120112Y0093612D02*
X0121534Y0093612D01*
X0121534Y0093769D02*
X0120112Y0093769D01*
X0120112Y0093926D02*
X0121534Y0093926D01*
X0121534Y0094083D02*
X0120112Y0094083D01*
X0120112Y0094240D02*
X0121534Y0094240D01*
X0121534Y0094397D02*
X0120112Y0094397D01*
X0120112Y0094554D02*
X0121534Y0094554D01*
X0121534Y0094711D02*
X0120112Y0094711D01*
X0120112Y0094868D02*
X0121534Y0094868D01*
X0121534Y0095025D02*
X0120112Y0095025D01*
X0120112Y0095182D02*
X0121534Y0095182D01*
X0121534Y0095339D02*
X0120112Y0095339D01*
X0120112Y0095496D02*
X0121534Y0095496D01*
X0121534Y0095653D02*
X0120112Y0095653D01*
X0120112Y0095810D02*
X0121534Y0095810D01*
X0121534Y0095967D02*
X0120112Y0095967D01*
X0120112Y0096124D02*
X0121534Y0096124D01*
X0121534Y0096281D02*
X0120112Y0096281D01*
X0120112Y0096438D02*
X0121534Y0096438D01*
X0121534Y0096595D02*
X0120112Y0096595D01*
X0120112Y0096752D02*
X0121534Y0096752D01*
X0121534Y0096909D02*
X0120112Y0096909D01*
X0120112Y0097066D02*
X0121534Y0097066D01*
X0121534Y0097223D02*
X0120112Y0097223D01*
X0122080Y0097329D02*
X0123502Y0097329D01*
X0123502Y0090001D01*
X0122080Y0090001D01*
X0122080Y0097329D01*
X0122080Y0090158D02*
X0123502Y0090158D01*
X0123502Y0090315D02*
X0122080Y0090315D01*
X0122080Y0090472D02*
X0123502Y0090472D01*
X0123502Y0090629D02*
X0122080Y0090629D01*
X0122080Y0090786D02*
X0123502Y0090786D01*
X0123502Y0090943D02*
X0122080Y0090943D01*
X0122080Y0091100D02*
X0123502Y0091100D01*
X0123502Y0091257D02*
X0122080Y0091257D01*
X0122080Y0091414D02*
X0123502Y0091414D01*
X0123502Y0091571D02*
X0122080Y0091571D01*
X0122080Y0091728D02*
X0123502Y0091728D01*
X0123502Y0091885D02*
X0122080Y0091885D01*
X0122080Y0092042D02*
X0123502Y0092042D01*
X0123502Y0092199D02*
X0122080Y0092199D01*
X0122080Y0092356D02*
X0123502Y0092356D01*
X0123502Y0092513D02*
X0122080Y0092513D01*
X0122080Y0092670D02*
X0123502Y0092670D01*
X0123502Y0092827D02*
X0122080Y0092827D01*
X0122080Y0092984D02*
X0123502Y0092984D01*
X0123502Y0093141D02*
X0122080Y0093141D01*
X0122080Y0093298D02*
X0123502Y0093298D01*
X0123502Y0093455D02*
X0122080Y0093455D01*
X0122080Y0093612D02*
X0123502Y0093612D01*
X0123502Y0093769D02*
X0122080Y0093769D01*
X0122080Y0093926D02*
X0123502Y0093926D01*
X0123502Y0094083D02*
X0122080Y0094083D01*
X0122080Y0094240D02*
X0123502Y0094240D01*
X0123502Y0094397D02*
X0122080Y0094397D01*
X0122080Y0094554D02*
X0123502Y0094554D01*
X0123502Y0094711D02*
X0122080Y0094711D01*
X0122080Y0094868D02*
X0123502Y0094868D01*
X0123502Y0095025D02*
X0122080Y0095025D01*
X0122080Y0095182D02*
X0123502Y0095182D01*
X0123502Y0095339D02*
X0122080Y0095339D01*
X0122080Y0095496D02*
X0123502Y0095496D01*
X0123502Y0095653D02*
X0122080Y0095653D01*
X0122080Y0095810D02*
X0123502Y0095810D01*
X0123502Y0095967D02*
X0122080Y0095967D01*
X0122080Y0096124D02*
X0123502Y0096124D01*
X0123502Y0096281D02*
X0122080Y0096281D01*
X0122080Y0096438D02*
X0123502Y0096438D01*
X0123502Y0096595D02*
X0122080Y0096595D01*
X0122080Y0096752D02*
X0123502Y0096752D01*
X0123502Y0096909D02*
X0122080Y0096909D01*
X0122080Y0097066D02*
X0123502Y0097066D01*
X0123502Y0097223D02*
X0122080Y0097223D01*
X0124049Y0097329D02*
X0125471Y0097329D01*
X0125471Y0090001D01*
X0124049Y0090001D01*
X0124049Y0097329D01*
X0124049Y0090158D02*
X0125471Y0090158D01*
X0125471Y0090315D02*
X0124049Y0090315D01*
X0124049Y0090472D02*
X0125471Y0090472D01*
X0125471Y0090629D02*
X0124049Y0090629D01*
X0124049Y0090786D02*
X0125471Y0090786D01*
X0125471Y0090943D02*
X0124049Y0090943D01*
X0124049Y0091100D02*
X0125471Y0091100D01*
X0125471Y0091257D02*
X0124049Y0091257D01*
X0124049Y0091414D02*
X0125471Y0091414D01*
X0125471Y0091571D02*
X0124049Y0091571D01*
X0124049Y0091728D02*
X0125471Y0091728D01*
X0125471Y0091885D02*
X0124049Y0091885D01*
X0124049Y0092042D02*
X0125471Y0092042D01*
X0125471Y0092199D02*
X0124049Y0092199D01*
X0124049Y0092356D02*
X0125471Y0092356D01*
X0125471Y0092513D02*
X0124049Y0092513D01*
X0124049Y0092670D02*
X0125471Y0092670D01*
X0125471Y0092827D02*
X0124049Y0092827D01*
X0124049Y0092984D02*
X0125471Y0092984D01*
X0125471Y0093141D02*
X0124049Y0093141D01*
X0124049Y0093298D02*
X0125471Y0093298D01*
X0125471Y0093455D02*
X0124049Y0093455D01*
X0124049Y0093612D02*
X0125471Y0093612D01*
X0125471Y0093769D02*
X0124049Y0093769D01*
X0124049Y0093926D02*
X0125471Y0093926D01*
X0125471Y0094083D02*
X0124049Y0094083D01*
X0124049Y0094240D02*
X0125471Y0094240D01*
X0125471Y0094397D02*
X0124049Y0094397D01*
X0124049Y0094554D02*
X0125471Y0094554D01*
X0125471Y0094711D02*
X0124049Y0094711D01*
X0124049Y0094868D02*
X0125471Y0094868D01*
X0125471Y0095025D02*
X0124049Y0095025D01*
X0124049Y0095182D02*
X0125471Y0095182D01*
X0125471Y0095339D02*
X0124049Y0095339D01*
X0124049Y0095496D02*
X0125471Y0095496D01*
X0125471Y0095653D02*
X0124049Y0095653D01*
X0124049Y0095810D02*
X0125471Y0095810D01*
X0125471Y0095967D02*
X0124049Y0095967D01*
X0124049Y0096124D02*
X0125471Y0096124D01*
X0125471Y0096281D02*
X0124049Y0096281D01*
X0124049Y0096438D02*
X0125471Y0096438D01*
X0125471Y0096595D02*
X0124049Y0096595D01*
X0124049Y0096752D02*
X0125471Y0096752D01*
X0125471Y0096909D02*
X0124049Y0096909D01*
X0124049Y0097066D02*
X0125471Y0097066D01*
X0125471Y0097223D02*
X0124049Y0097223D01*
X0127001Y0088471D02*
X0134329Y0088471D01*
X0134329Y0087049D01*
X0127001Y0087049D01*
X0127001Y0088471D01*
X0127001Y0087206D02*
X0134329Y0087206D01*
X0134329Y0087363D02*
X0127001Y0087363D01*
X0127001Y0087520D02*
X0134329Y0087520D01*
X0134329Y0087677D02*
X0127001Y0087677D01*
X0127001Y0087834D02*
X0134329Y0087834D01*
X0134329Y0087991D02*
X0127001Y0087991D01*
X0127001Y0088148D02*
X0134329Y0088148D01*
X0134329Y0088305D02*
X0127001Y0088305D01*
X0127001Y0088462D02*
X0134329Y0088462D01*
X0134329Y0086502D02*
X0127001Y0086502D01*
X0134329Y0086502D02*
X0134329Y0085080D01*
X0127001Y0085080D01*
X0127001Y0086502D01*
X0127001Y0085237D02*
X0134329Y0085237D01*
X0134329Y0085394D02*
X0127001Y0085394D01*
X0127001Y0085551D02*
X0134329Y0085551D01*
X0134329Y0085708D02*
X0127001Y0085708D01*
X0127001Y0085865D02*
X0134329Y0085865D01*
X0134329Y0086022D02*
X0127001Y0086022D01*
X0127001Y0086179D02*
X0134329Y0086179D01*
X0134329Y0086336D02*
X0127001Y0086336D01*
X0127001Y0086493D02*
X0134329Y0086493D01*
X0134329Y0084534D02*
X0127001Y0084534D01*
X0134329Y0084534D02*
X0134329Y0083112D01*
X0127001Y0083112D01*
X0127001Y0084534D01*
X0127001Y0083269D02*
X0134329Y0083269D01*
X0134329Y0083426D02*
X0127001Y0083426D01*
X0127001Y0083583D02*
X0134329Y0083583D01*
X0134329Y0083740D02*
X0127001Y0083740D01*
X0127001Y0083897D02*
X0134329Y0083897D01*
X0134329Y0084054D02*
X0127001Y0084054D01*
X0127001Y0084211D02*
X0134329Y0084211D01*
X0134329Y0084368D02*
X0127001Y0084368D01*
X0127001Y0084525D02*
X0134329Y0084525D01*
X0134329Y0082565D02*
X0127001Y0082565D01*
X0134329Y0082565D02*
X0134329Y0081143D01*
X0127001Y0081143D01*
X0127001Y0082565D01*
X0127001Y0081300D02*
X0134329Y0081300D01*
X0134329Y0081457D02*
X0127001Y0081457D01*
X0127001Y0081614D02*
X0134329Y0081614D01*
X0134329Y0081771D02*
X0127001Y0081771D01*
X0127001Y0081928D02*
X0134329Y0081928D01*
X0134329Y0082085D02*
X0127001Y0082085D01*
X0127001Y0082242D02*
X0134329Y0082242D01*
X0134329Y0082399D02*
X0127001Y0082399D01*
X0127001Y0082556D02*
X0134329Y0082556D01*
X0134329Y0080597D02*
X0127001Y0080597D01*
X0134329Y0080597D02*
X0134329Y0079175D01*
X0127001Y0079175D01*
X0127001Y0080597D01*
X0127001Y0079332D02*
X0134329Y0079332D01*
X0134329Y0079489D02*
X0127001Y0079489D01*
X0127001Y0079646D02*
X0134329Y0079646D01*
X0134329Y0079803D02*
X0127001Y0079803D01*
X0127001Y0079960D02*
X0134329Y0079960D01*
X0134329Y0080117D02*
X0127001Y0080117D01*
X0127001Y0080274D02*
X0134329Y0080274D01*
X0134329Y0080431D02*
X0127001Y0080431D01*
X0127001Y0080588D02*
X0134329Y0080588D01*
X0134329Y0078628D02*
X0127001Y0078628D01*
X0134329Y0078628D02*
X0134329Y0077206D01*
X0127001Y0077206D01*
X0127001Y0078628D01*
X0127001Y0077363D02*
X0134329Y0077363D01*
X0134329Y0077520D02*
X0127001Y0077520D01*
X0127001Y0077677D02*
X0134329Y0077677D01*
X0134329Y0077834D02*
X0127001Y0077834D01*
X0127001Y0077991D02*
X0134329Y0077991D01*
X0134329Y0078148D02*
X0127001Y0078148D01*
X0127001Y0078305D02*
X0134329Y0078305D01*
X0134329Y0078462D02*
X0127001Y0078462D01*
X0127001Y0078619D02*
X0134329Y0078619D01*
X0134329Y0076660D02*
X0127001Y0076660D01*
X0134329Y0076660D02*
X0134329Y0075238D01*
X0127001Y0075238D01*
X0127001Y0076660D01*
X0127001Y0075395D02*
X0134329Y0075395D01*
X0134329Y0075552D02*
X0127001Y0075552D01*
X0127001Y0075709D02*
X0134329Y0075709D01*
X0134329Y0075866D02*
X0127001Y0075866D01*
X0127001Y0076023D02*
X0134329Y0076023D01*
X0134329Y0076180D02*
X0127001Y0076180D01*
X0127001Y0076337D02*
X0134329Y0076337D01*
X0134329Y0076494D02*
X0127001Y0076494D01*
X0127001Y0076651D02*
X0134329Y0076651D01*
X0134329Y0074691D02*
X0127001Y0074691D01*
X0134329Y0074691D02*
X0134329Y0073269D01*
X0127001Y0073269D01*
X0127001Y0074691D01*
X0127001Y0073426D02*
X0134329Y0073426D01*
X0134329Y0073583D02*
X0127001Y0073583D01*
X0127001Y0073740D02*
X0134329Y0073740D01*
X0134329Y0073897D02*
X0127001Y0073897D01*
X0127001Y0074054D02*
X0134329Y0074054D01*
X0134329Y0074211D02*
X0127001Y0074211D01*
X0127001Y0074368D02*
X0134329Y0074368D01*
X0134329Y0074525D02*
X0127001Y0074525D01*
X0127001Y0074682D02*
X0134329Y0074682D01*
X0134329Y0072723D02*
X0127001Y0072723D01*
X0134329Y0072723D02*
X0134329Y0071301D01*
X0127001Y0071301D01*
X0127001Y0072723D01*
X0127001Y0071458D02*
X0134329Y0071458D01*
X0134329Y0071615D02*
X0127001Y0071615D01*
X0127001Y0071772D02*
X0134329Y0071772D01*
X0134329Y0071929D02*
X0127001Y0071929D01*
X0127001Y0072086D02*
X0134329Y0072086D01*
X0134329Y0072243D02*
X0127001Y0072243D01*
X0127001Y0072400D02*
X0134329Y0072400D01*
X0134329Y0072557D02*
X0127001Y0072557D01*
X0127001Y0072714D02*
X0134329Y0072714D01*
X0134329Y0070754D02*
X0127001Y0070754D01*
X0134329Y0070754D02*
X0134329Y0069332D01*
X0127001Y0069332D01*
X0127001Y0070754D01*
X0127001Y0069489D02*
X0134329Y0069489D01*
X0134329Y0069646D02*
X0127001Y0069646D01*
X0127001Y0069803D02*
X0134329Y0069803D01*
X0134329Y0069960D02*
X0127001Y0069960D01*
X0127001Y0070117D02*
X0134329Y0070117D01*
X0134329Y0070274D02*
X0127001Y0070274D01*
X0127001Y0070431D02*
X0134329Y0070431D01*
X0134329Y0070588D02*
X0127001Y0070588D01*
X0127001Y0070745D02*
X0134329Y0070745D01*
X0134329Y0068786D02*
X0127001Y0068786D01*
X0134329Y0068786D02*
X0134329Y0067364D01*
X0127001Y0067364D01*
X0127001Y0068786D01*
X0127001Y0067521D02*
X0134329Y0067521D01*
X0134329Y0067678D02*
X0127001Y0067678D01*
X0127001Y0067835D02*
X0134329Y0067835D01*
X0134329Y0067992D02*
X0127001Y0067992D01*
X0127001Y0068149D02*
X0134329Y0068149D01*
X0134329Y0068306D02*
X0127001Y0068306D01*
X0127001Y0068463D02*
X0134329Y0068463D01*
X0134329Y0068620D02*
X0127001Y0068620D01*
X0127001Y0068777D02*
X0134329Y0068777D01*
X0134329Y0066817D02*
X0127001Y0066817D01*
X0134329Y0066817D02*
X0134329Y0065395D01*
X0127001Y0065395D01*
X0127001Y0066817D01*
X0127001Y0065552D02*
X0134329Y0065552D01*
X0134329Y0065709D02*
X0127001Y0065709D01*
X0127001Y0065866D02*
X0134329Y0065866D01*
X0134329Y0066023D02*
X0127001Y0066023D01*
X0127001Y0066180D02*
X0134329Y0066180D01*
X0134329Y0066337D02*
X0127001Y0066337D01*
X0127001Y0066494D02*
X0134329Y0066494D01*
X0134329Y0066651D02*
X0127001Y0066651D01*
X0127001Y0066808D02*
X0134329Y0066808D01*
X0125471Y0063865D02*
X0124049Y0063865D01*
X0125471Y0063865D02*
X0125471Y0056537D01*
X0124049Y0056537D01*
X0124049Y0063865D01*
X0124049Y0056694D02*
X0125471Y0056694D01*
X0125471Y0056851D02*
X0124049Y0056851D01*
X0124049Y0057008D02*
X0125471Y0057008D01*
X0125471Y0057165D02*
X0124049Y0057165D01*
X0124049Y0057322D02*
X0125471Y0057322D01*
X0125471Y0057479D02*
X0124049Y0057479D01*
X0124049Y0057636D02*
X0125471Y0057636D01*
X0125471Y0057793D02*
X0124049Y0057793D01*
X0124049Y0057950D02*
X0125471Y0057950D01*
X0125471Y0058107D02*
X0124049Y0058107D01*
X0124049Y0058264D02*
X0125471Y0058264D01*
X0125471Y0058421D02*
X0124049Y0058421D01*
X0124049Y0058578D02*
X0125471Y0058578D01*
X0125471Y0058735D02*
X0124049Y0058735D01*
X0124049Y0058892D02*
X0125471Y0058892D01*
X0125471Y0059049D02*
X0124049Y0059049D01*
X0124049Y0059206D02*
X0125471Y0059206D01*
X0125471Y0059363D02*
X0124049Y0059363D01*
X0124049Y0059520D02*
X0125471Y0059520D01*
X0125471Y0059677D02*
X0124049Y0059677D01*
X0124049Y0059834D02*
X0125471Y0059834D01*
X0125471Y0059991D02*
X0124049Y0059991D01*
X0124049Y0060148D02*
X0125471Y0060148D01*
X0125471Y0060305D02*
X0124049Y0060305D01*
X0124049Y0060462D02*
X0125471Y0060462D01*
X0125471Y0060619D02*
X0124049Y0060619D01*
X0124049Y0060776D02*
X0125471Y0060776D01*
X0125471Y0060933D02*
X0124049Y0060933D01*
X0124049Y0061090D02*
X0125471Y0061090D01*
X0125471Y0061247D02*
X0124049Y0061247D01*
X0124049Y0061404D02*
X0125471Y0061404D01*
X0125471Y0061561D02*
X0124049Y0061561D01*
X0124049Y0061718D02*
X0125471Y0061718D01*
X0125471Y0061875D02*
X0124049Y0061875D01*
X0124049Y0062032D02*
X0125471Y0062032D01*
X0125471Y0062189D02*
X0124049Y0062189D01*
X0124049Y0062346D02*
X0125471Y0062346D01*
X0125471Y0062503D02*
X0124049Y0062503D01*
X0124049Y0062660D02*
X0125471Y0062660D01*
X0125471Y0062817D02*
X0124049Y0062817D01*
X0124049Y0062974D02*
X0125471Y0062974D01*
X0125471Y0063131D02*
X0124049Y0063131D01*
X0124049Y0063288D02*
X0125471Y0063288D01*
X0125471Y0063445D02*
X0124049Y0063445D01*
X0124049Y0063602D02*
X0125471Y0063602D01*
X0125471Y0063759D02*
X0124049Y0063759D01*
X0123502Y0063865D02*
X0122080Y0063865D01*
X0123502Y0063865D02*
X0123502Y0056537D01*
X0122080Y0056537D01*
X0122080Y0063865D01*
X0122080Y0056694D02*
X0123502Y0056694D01*
X0123502Y0056851D02*
X0122080Y0056851D01*
X0122080Y0057008D02*
X0123502Y0057008D01*
X0123502Y0057165D02*
X0122080Y0057165D01*
X0122080Y0057322D02*
X0123502Y0057322D01*
X0123502Y0057479D02*
X0122080Y0057479D01*
X0122080Y0057636D02*
X0123502Y0057636D01*
X0123502Y0057793D02*
X0122080Y0057793D01*
X0122080Y0057950D02*
X0123502Y0057950D01*
X0123502Y0058107D02*
X0122080Y0058107D01*
X0122080Y0058264D02*
X0123502Y0058264D01*
X0123502Y0058421D02*
X0122080Y0058421D01*
X0122080Y0058578D02*
X0123502Y0058578D01*
X0123502Y0058735D02*
X0122080Y0058735D01*
X0122080Y0058892D02*
X0123502Y0058892D01*
X0123502Y0059049D02*
X0122080Y0059049D01*
X0122080Y0059206D02*
X0123502Y0059206D01*
X0123502Y0059363D02*
X0122080Y0059363D01*
X0122080Y0059520D02*
X0123502Y0059520D01*
X0123502Y0059677D02*
X0122080Y0059677D01*
X0122080Y0059834D02*
X0123502Y0059834D01*
X0123502Y0059991D02*
X0122080Y0059991D01*
X0122080Y0060148D02*
X0123502Y0060148D01*
X0123502Y0060305D02*
X0122080Y0060305D01*
X0122080Y0060462D02*
X0123502Y0060462D01*
X0123502Y0060619D02*
X0122080Y0060619D01*
X0122080Y0060776D02*
X0123502Y0060776D01*
X0123502Y0060933D02*
X0122080Y0060933D01*
X0122080Y0061090D02*
X0123502Y0061090D01*
X0123502Y0061247D02*
X0122080Y0061247D01*
X0122080Y0061404D02*
X0123502Y0061404D01*
X0123502Y0061561D02*
X0122080Y0061561D01*
X0122080Y0061718D02*
X0123502Y0061718D01*
X0123502Y0061875D02*
X0122080Y0061875D01*
X0122080Y0062032D02*
X0123502Y0062032D01*
X0123502Y0062189D02*
X0122080Y0062189D01*
X0122080Y0062346D02*
X0123502Y0062346D01*
X0123502Y0062503D02*
X0122080Y0062503D01*
X0122080Y0062660D02*
X0123502Y0062660D01*
X0123502Y0062817D02*
X0122080Y0062817D01*
X0122080Y0062974D02*
X0123502Y0062974D01*
X0123502Y0063131D02*
X0122080Y0063131D01*
X0122080Y0063288D02*
X0123502Y0063288D01*
X0123502Y0063445D02*
X0122080Y0063445D01*
X0122080Y0063602D02*
X0123502Y0063602D01*
X0123502Y0063759D02*
X0122080Y0063759D01*
X0121534Y0063865D02*
X0120112Y0063865D01*
X0121534Y0063865D02*
X0121534Y0056537D01*
X0120112Y0056537D01*
X0120112Y0063865D01*
X0120112Y0056694D02*
X0121534Y0056694D01*
X0121534Y0056851D02*
X0120112Y0056851D01*
X0120112Y0057008D02*
X0121534Y0057008D01*
X0121534Y0057165D02*
X0120112Y0057165D01*
X0120112Y0057322D02*
X0121534Y0057322D01*
X0121534Y0057479D02*
X0120112Y0057479D01*
X0120112Y0057636D02*
X0121534Y0057636D01*
X0121534Y0057793D02*
X0120112Y0057793D01*
X0120112Y0057950D02*
X0121534Y0057950D01*
X0121534Y0058107D02*
X0120112Y0058107D01*
X0120112Y0058264D02*
X0121534Y0058264D01*
X0121534Y0058421D02*
X0120112Y0058421D01*
X0120112Y0058578D02*
X0121534Y0058578D01*
X0121534Y0058735D02*
X0120112Y0058735D01*
X0120112Y0058892D02*
X0121534Y0058892D01*
X0121534Y0059049D02*
X0120112Y0059049D01*
X0120112Y0059206D02*
X0121534Y0059206D01*
X0121534Y0059363D02*
X0120112Y0059363D01*
X0120112Y0059520D02*
X0121534Y0059520D01*
X0121534Y0059677D02*
X0120112Y0059677D01*
X0120112Y0059834D02*
X0121534Y0059834D01*
X0121534Y0059991D02*
X0120112Y0059991D01*
X0120112Y0060148D02*
X0121534Y0060148D01*
X0121534Y0060305D02*
X0120112Y0060305D01*
X0120112Y0060462D02*
X0121534Y0060462D01*
X0121534Y0060619D02*
X0120112Y0060619D01*
X0120112Y0060776D02*
X0121534Y0060776D01*
X0121534Y0060933D02*
X0120112Y0060933D01*
X0120112Y0061090D02*
X0121534Y0061090D01*
X0121534Y0061247D02*
X0120112Y0061247D01*
X0120112Y0061404D02*
X0121534Y0061404D01*
X0121534Y0061561D02*
X0120112Y0061561D01*
X0120112Y0061718D02*
X0121534Y0061718D01*
X0121534Y0061875D02*
X0120112Y0061875D01*
X0120112Y0062032D02*
X0121534Y0062032D01*
X0121534Y0062189D02*
X0120112Y0062189D01*
X0120112Y0062346D02*
X0121534Y0062346D01*
X0121534Y0062503D02*
X0120112Y0062503D01*
X0120112Y0062660D02*
X0121534Y0062660D01*
X0121534Y0062817D02*
X0120112Y0062817D01*
X0120112Y0062974D02*
X0121534Y0062974D01*
X0121534Y0063131D02*
X0120112Y0063131D01*
X0120112Y0063288D02*
X0121534Y0063288D01*
X0121534Y0063445D02*
X0120112Y0063445D01*
X0120112Y0063602D02*
X0121534Y0063602D01*
X0121534Y0063759D02*
X0120112Y0063759D01*
X0119565Y0063865D02*
X0118143Y0063865D01*
X0119565Y0063865D02*
X0119565Y0056537D01*
X0118143Y0056537D01*
X0118143Y0063865D01*
X0118143Y0056694D02*
X0119565Y0056694D01*
X0119565Y0056851D02*
X0118143Y0056851D01*
X0118143Y0057008D02*
X0119565Y0057008D01*
X0119565Y0057165D02*
X0118143Y0057165D01*
X0118143Y0057322D02*
X0119565Y0057322D01*
X0119565Y0057479D02*
X0118143Y0057479D01*
X0118143Y0057636D02*
X0119565Y0057636D01*
X0119565Y0057793D02*
X0118143Y0057793D01*
X0118143Y0057950D02*
X0119565Y0057950D01*
X0119565Y0058107D02*
X0118143Y0058107D01*
X0118143Y0058264D02*
X0119565Y0058264D01*
X0119565Y0058421D02*
X0118143Y0058421D01*
X0118143Y0058578D02*
X0119565Y0058578D01*
X0119565Y0058735D02*
X0118143Y0058735D01*
X0118143Y0058892D02*
X0119565Y0058892D01*
X0119565Y0059049D02*
X0118143Y0059049D01*
X0118143Y0059206D02*
X0119565Y0059206D01*
X0119565Y0059363D02*
X0118143Y0059363D01*
X0118143Y0059520D02*
X0119565Y0059520D01*
X0119565Y0059677D02*
X0118143Y0059677D01*
X0118143Y0059834D02*
X0119565Y0059834D01*
X0119565Y0059991D02*
X0118143Y0059991D01*
X0118143Y0060148D02*
X0119565Y0060148D01*
X0119565Y0060305D02*
X0118143Y0060305D01*
X0118143Y0060462D02*
X0119565Y0060462D01*
X0119565Y0060619D02*
X0118143Y0060619D01*
X0118143Y0060776D02*
X0119565Y0060776D01*
X0119565Y0060933D02*
X0118143Y0060933D01*
X0118143Y0061090D02*
X0119565Y0061090D01*
X0119565Y0061247D02*
X0118143Y0061247D01*
X0118143Y0061404D02*
X0119565Y0061404D01*
X0119565Y0061561D02*
X0118143Y0061561D01*
X0118143Y0061718D02*
X0119565Y0061718D01*
X0119565Y0061875D02*
X0118143Y0061875D01*
X0118143Y0062032D02*
X0119565Y0062032D01*
X0119565Y0062189D02*
X0118143Y0062189D01*
X0118143Y0062346D02*
X0119565Y0062346D01*
X0119565Y0062503D02*
X0118143Y0062503D01*
X0118143Y0062660D02*
X0119565Y0062660D01*
X0119565Y0062817D02*
X0118143Y0062817D01*
X0118143Y0062974D02*
X0119565Y0062974D01*
X0119565Y0063131D02*
X0118143Y0063131D01*
X0118143Y0063288D02*
X0119565Y0063288D01*
X0119565Y0063445D02*
X0118143Y0063445D01*
X0118143Y0063602D02*
X0119565Y0063602D01*
X0119565Y0063759D02*
X0118143Y0063759D01*
X0117597Y0063865D02*
X0116175Y0063865D01*
X0117597Y0063865D02*
X0117597Y0056537D01*
X0116175Y0056537D01*
X0116175Y0063865D01*
X0116175Y0056694D02*
X0117597Y0056694D01*
X0117597Y0056851D02*
X0116175Y0056851D01*
X0116175Y0057008D02*
X0117597Y0057008D01*
X0117597Y0057165D02*
X0116175Y0057165D01*
X0116175Y0057322D02*
X0117597Y0057322D01*
X0117597Y0057479D02*
X0116175Y0057479D01*
X0116175Y0057636D02*
X0117597Y0057636D01*
X0117597Y0057793D02*
X0116175Y0057793D01*
X0116175Y0057950D02*
X0117597Y0057950D01*
X0117597Y0058107D02*
X0116175Y0058107D01*
X0116175Y0058264D02*
X0117597Y0058264D01*
X0117597Y0058421D02*
X0116175Y0058421D01*
X0116175Y0058578D02*
X0117597Y0058578D01*
X0117597Y0058735D02*
X0116175Y0058735D01*
X0116175Y0058892D02*
X0117597Y0058892D01*
X0117597Y0059049D02*
X0116175Y0059049D01*
X0116175Y0059206D02*
X0117597Y0059206D01*
X0117597Y0059363D02*
X0116175Y0059363D01*
X0116175Y0059520D02*
X0117597Y0059520D01*
X0117597Y0059677D02*
X0116175Y0059677D01*
X0116175Y0059834D02*
X0117597Y0059834D01*
X0117597Y0059991D02*
X0116175Y0059991D01*
X0116175Y0060148D02*
X0117597Y0060148D01*
X0117597Y0060305D02*
X0116175Y0060305D01*
X0116175Y0060462D02*
X0117597Y0060462D01*
X0117597Y0060619D02*
X0116175Y0060619D01*
X0116175Y0060776D02*
X0117597Y0060776D01*
X0117597Y0060933D02*
X0116175Y0060933D01*
X0116175Y0061090D02*
X0117597Y0061090D01*
X0117597Y0061247D02*
X0116175Y0061247D01*
X0116175Y0061404D02*
X0117597Y0061404D01*
X0117597Y0061561D02*
X0116175Y0061561D01*
X0116175Y0061718D02*
X0117597Y0061718D01*
X0117597Y0061875D02*
X0116175Y0061875D01*
X0116175Y0062032D02*
X0117597Y0062032D01*
X0117597Y0062189D02*
X0116175Y0062189D01*
X0116175Y0062346D02*
X0117597Y0062346D01*
X0117597Y0062503D02*
X0116175Y0062503D01*
X0116175Y0062660D02*
X0117597Y0062660D01*
X0117597Y0062817D02*
X0116175Y0062817D01*
X0116175Y0062974D02*
X0117597Y0062974D01*
X0117597Y0063131D02*
X0116175Y0063131D01*
X0116175Y0063288D02*
X0117597Y0063288D01*
X0117597Y0063445D02*
X0116175Y0063445D01*
X0116175Y0063602D02*
X0117597Y0063602D01*
X0117597Y0063759D02*
X0116175Y0063759D01*
X0115628Y0063865D02*
X0114206Y0063865D01*
X0115628Y0063865D02*
X0115628Y0056537D01*
X0114206Y0056537D01*
X0114206Y0063865D01*
X0114206Y0056694D02*
X0115628Y0056694D01*
X0115628Y0056851D02*
X0114206Y0056851D01*
X0114206Y0057008D02*
X0115628Y0057008D01*
X0115628Y0057165D02*
X0114206Y0057165D01*
X0114206Y0057322D02*
X0115628Y0057322D01*
X0115628Y0057479D02*
X0114206Y0057479D01*
X0114206Y0057636D02*
X0115628Y0057636D01*
X0115628Y0057793D02*
X0114206Y0057793D01*
X0114206Y0057950D02*
X0115628Y0057950D01*
X0115628Y0058107D02*
X0114206Y0058107D01*
X0114206Y0058264D02*
X0115628Y0058264D01*
X0115628Y0058421D02*
X0114206Y0058421D01*
X0114206Y0058578D02*
X0115628Y0058578D01*
X0115628Y0058735D02*
X0114206Y0058735D01*
X0114206Y0058892D02*
X0115628Y0058892D01*
X0115628Y0059049D02*
X0114206Y0059049D01*
X0114206Y0059206D02*
X0115628Y0059206D01*
X0115628Y0059363D02*
X0114206Y0059363D01*
X0114206Y0059520D02*
X0115628Y0059520D01*
X0115628Y0059677D02*
X0114206Y0059677D01*
X0114206Y0059834D02*
X0115628Y0059834D01*
X0115628Y0059991D02*
X0114206Y0059991D01*
X0114206Y0060148D02*
X0115628Y0060148D01*
X0115628Y0060305D02*
X0114206Y0060305D01*
X0114206Y0060462D02*
X0115628Y0060462D01*
X0115628Y0060619D02*
X0114206Y0060619D01*
X0114206Y0060776D02*
X0115628Y0060776D01*
X0115628Y0060933D02*
X0114206Y0060933D01*
X0114206Y0061090D02*
X0115628Y0061090D01*
X0115628Y0061247D02*
X0114206Y0061247D01*
X0114206Y0061404D02*
X0115628Y0061404D01*
X0115628Y0061561D02*
X0114206Y0061561D01*
X0114206Y0061718D02*
X0115628Y0061718D01*
X0115628Y0061875D02*
X0114206Y0061875D01*
X0114206Y0062032D02*
X0115628Y0062032D01*
X0115628Y0062189D02*
X0114206Y0062189D01*
X0114206Y0062346D02*
X0115628Y0062346D01*
X0115628Y0062503D02*
X0114206Y0062503D01*
X0114206Y0062660D02*
X0115628Y0062660D01*
X0115628Y0062817D02*
X0114206Y0062817D01*
X0114206Y0062974D02*
X0115628Y0062974D01*
X0115628Y0063131D02*
X0114206Y0063131D01*
X0114206Y0063288D02*
X0115628Y0063288D01*
X0115628Y0063445D02*
X0114206Y0063445D01*
X0114206Y0063602D02*
X0115628Y0063602D01*
X0115628Y0063759D02*
X0114206Y0063759D01*
X0113660Y0063865D02*
X0112238Y0063865D01*
X0113660Y0063865D02*
X0113660Y0056537D01*
X0112238Y0056537D01*
X0112238Y0063865D01*
X0112238Y0056694D02*
X0113660Y0056694D01*
X0113660Y0056851D02*
X0112238Y0056851D01*
X0112238Y0057008D02*
X0113660Y0057008D01*
X0113660Y0057165D02*
X0112238Y0057165D01*
X0112238Y0057322D02*
X0113660Y0057322D01*
X0113660Y0057479D02*
X0112238Y0057479D01*
X0112238Y0057636D02*
X0113660Y0057636D01*
X0113660Y0057793D02*
X0112238Y0057793D01*
X0112238Y0057950D02*
X0113660Y0057950D01*
X0113660Y0058107D02*
X0112238Y0058107D01*
X0112238Y0058264D02*
X0113660Y0058264D01*
X0113660Y0058421D02*
X0112238Y0058421D01*
X0112238Y0058578D02*
X0113660Y0058578D01*
X0113660Y0058735D02*
X0112238Y0058735D01*
X0112238Y0058892D02*
X0113660Y0058892D01*
X0113660Y0059049D02*
X0112238Y0059049D01*
X0112238Y0059206D02*
X0113660Y0059206D01*
X0113660Y0059363D02*
X0112238Y0059363D01*
X0112238Y0059520D02*
X0113660Y0059520D01*
X0113660Y0059677D02*
X0112238Y0059677D01*
X0112238Y0059834D02*
X0113660Y0059834D01*
X0113660Y0059991D02*
X0112238Y0059991D01*
X0112238Y0060148D02*
X0113660Y0060148D01*
X0113660Y0060305D02*
X0112238Y0060305D01*
X0112238Y0060462D02*
X0113660Y0060462D01*
X0113660Y0060619D02*
X0112238Y0060619D01*
X0112238Y0060776D02*
X0113660Y0060776D01*
X0113660Y0060933D02*
X0112238Y0060933D01*
X0112238Y0061090D02*
X0113660Y0061090D01*
X0113660Y0061247D02*
X0112238Y0061247D01*
X0112238Y0061404D02*
X0113660Y0061404D01*
X0113660Y0061561D02*
X0112238Y0061561D01*
X0112238Y0061718D02*
X0113660Y0061718D01*
X0113660Y0061875D02*
X0112238Y0061875D01*
X0112238Y0062032D02*
X0113660Y0062032D01*
X0113660Y0062189D02*
X0112238Y0062189D01*
X0112238Y0062346D02*
X0113660Y0062346D01*
X0113660Y0062503D02*
X0112238Y0062503D01*
X0112238Y0062660D02*
X0113660Y0062660D01*
X0113660Y0062817D02*
X0112238Y0062817D01*
X0112238Y0062974D02*
X0113660Y0062974D01*
X0113660Y0063131D02*
X0112238Y0063131D01*
X0112238Y0063288D02*
X0113660Y0063288D01*
X0113660Y0063445D02*
X0112238Y0063445D01*
X0112238Y0063602D02*
X0113660Y0063602D01*
X0113660Y0063759D02*
X0112238Y0063759D01*
X0111691Y0063865D02*
X0110269Y0063865D01*
X0111691Y0063865D02*
X0111691Y0056537D01*
X0110269Y0056537D01*
X0110269Y0063865D01*
X0110269Y0056694D02*
X0111691Y0056694D01*
X0111691Y0056851D02*
X0110269Y0056851D01*
X0110269Y0057008D02*
X0111691Y0057008D01*
X0111691Y0057165D02*
X0110269Y0057165D01*
X0110269Y0057322D02*
X0111691Y0057322D01*
X0111691Y0057479D02*
X0110269Y0057479D01*
X0110269Y0057636D02*
X0111691Y0057636D01*
X0111691Y0057793D02*
X0110269Y0057793D01*
X0110269Y0057950D02*
X0111691Y0057950D01*
X0111691Y0058107D02*
X0110269Y0058107D01*
X0110269Y0058264D02*
X0111691Y0058264D01*
X0111691Y0058421D02*
X0110269Y0058421D01*
X0110269Y0058578D02*
X0111691Y0058578D01*
X0111691Y0058735D02*
X0110269Y0058735D01*
X0110269Y0058892D02*
X0111691Y0058892D01*
X0111691Y0059049D02*
X0110269Y0059049D01*
X0110269Y0059206D02*
X0111691Y0059206D01*
X0111691Y0059363D02*
X0110269Y0059363D01*
X0110269Y0059520D02*
X0111691Y0059520D01*
X0111691Y0059677D02*
X0110269Y0059677D01*
X0110269Y0059834D02*
X0111691Y0059834D01*
X0111691Y0059991D02*
X0110269Y0059991D01*
X0110269Y0060148D02*
X0111691Y0060148D01*
X0111691Y0060305D02*
X0110269Y0060305D01*
X0110269Y0060462D02*
X0111691Y0060462D01*
X0111691Y0060619D02*
X0110269Y0060619D01*
X0110269Y0060776D02*
X0111691Y0060776D01*
X0111691Y0060933D02*
X0110269Y0060933D01*
X0110269Y0061090D02*
X0111691Y0061090D01*
X0111691Y0061247D02*
X0110269Y0061247D01*
X0110269Y0061404D02*
X0111691Y0061404D01*
X0111691Y0061561D02*
X0110269Y0061561D01*
X0110269Y0061718D02*
X0111691Y0061718D01*
X0111691Y0061875D02*
X0110269Y0061875D01*
X0110269Y0062032D02*
X0111691Y0062032D01*
X0111691Y0062189D02*
X0110269Y0062189D01*
X0110269Y0062346D02*
X0111691Y0062346D01*
X0111691Y0062503D02*
X0110269Y0062503D01*
X0110269Y0062660D02*
X0111691Y0062660D01*
X0111691Y0062817D02*
X0110269Y0062817D01*
X0110269Y0062974D02*
X0111691Y0062974D01*
X0111691Y0063131D02*
X0110269Y0063131D01*
X0110269Y0063288D02*
X0111691Y0063288D01*
X0111691Y0063445D02*
X0110269Y0063445D01*
X0110269Y0063602D02*
X0111691Y0063602D01*
X0111691Y0063759D02*
X0110269Y0063759D01*
X0109723Y0063865D02*
X0108301Y0063865D01*
X0109723Y0063865D02*
X0109723Y0056537D01*
X0108301Y0056537D01*
X0108301Y0063865D01*
X0108301Y0056694D02*
X0109723Y0056694D01*
X0109723Y0056851D02*
X0108301Y0056851D01*
X0108301Y0057008D02*
X0109723Y0057008D01*
X0109723Y0057165D02*
X0108301Y0057165D01*
X0108301Y0057322D02*
X0109723Y0057322D01*
X0109723Y0057479D02*
X0108301Y0057479D01*
X0108301Y0057636D02*
X0109723Y0057636D01*
X0109723Y0057793D02*
X0108301Y0057793D01*
X0108301Y0057950D02*
X0109723Y0057950D01*
X0109723Y0058107D02*
X0108301Y0058107D01*
X0108301Y0058264D02*
X0109723Y0058264D01*
X0109723Y0058421D02*
X0108301Y0058421D01*
X0108301Y0058578D02*
X0109723Y0058578D01*
X0109723Y0058735D02*
X0108301Y0058735D01*
X0108301Y0058892D02*
X0109723Y0058892D01*
X0109723Y0059049D02*
X0108301Y0059049D01*
X0108301Y0059206D02*
X0109723Y0059206D01*
X0109723Y0059363D02*
X0108301Y0059363D01*
X0108301Y0059520D02*
X0109723Y0059520D01*
X0109723Y0059677D02*
X0108301Y0059677D01*
X0108301Y0059834D02*
X0109723Y0059834D01*
X0109723Y0059991D02*
X0108301Y0059991D01*
X0108301Y0060148D02*
X0109723Y0060148D01*
X0109723Y0060305D02*
X0108301Y0060305D01*
X0108301Y0060462D02*
X0109723Y0060462D01*
X0109723Y0060619D02*
X0108301Y0060619D01*
X0108301Y0060776D02*
X0109723Y0060776D01*
X0109723Y0060933D02*
X0108301Y0060933D01*
X0108301Y0061090D02*
X0109723Y0061090D01*
X0109723Y0061247D02*
X0108301Y0061247D01*
X0108301Y0061404D02*
X0109723Y0061404D01*
X0109723Y0061561D02*
X0108301Y0061561D01*
X0108301Y0061718D02*
X0109723Y0061718D01*
X0109723Y0061875D02*
X0108301Y0061875D01*
X0108301Y0062032D02*
X0109723Y0062032D01*
X0109723Y0062189D02*
X0108301Y0062189D01*
X0108301Y0062346D02*
X0109723Y0062346D01*
X0109723Y0062503D02*
X0108301Y0062503D01*
X0108301Y0062660D02*
X0109723Y0062660D01*
X0109723Y0062817D02*
X0108301Y0062817D01*
X0108301Y0062974D02*
X0109723Y0062974D01*
X0109723Y0063131D02*
X0108301Y0063131D01*
X0108301Y0063288D02*
X0109723Y0063288D01*
X0109723Y0063445D02*
X0108301Y0063445D01*
X0108301Y0063602D02*
X0109723Y0063602D01*
X0109723Y0063759D02*
X0108301Y0063759D01*
X0107754Y0063865D02*
X0106332Y0063865D01*
X0107754Y0063865D02*
X0107754Y0056537D01*
X0106332Y0056537D01*
X0106332Y0063865D01*
X0106332Y0056694D02*
X0107754Y0056694D01*
X0107754Y0056851D02*
X0106332Y0056851D01*
X0106332Y0057008D02*
X0107754Y0057008D01*
X0107754Y0057165D02*
X0106332Y0057165D01*
X0106332Y0057322D02*
X0107754Y0057322D01*
X0107754Y0057479D02*
X0106332Y0057479D01*
X0106332Y0057636D02*
X0107754Y0057636D01*
X0107754Y0057793D02*
X0106332Y0057793D01*
X0106332Y0057950D02*
X0107754Y0057950D01*
X0107754Y0058107D02*
X0106332Y0058107D01*
X0106332Y0058264D02*
X0107754Y0058264D01*
X0107754Y0058421D02*
X0106332Y0058421D01*
X0106332Y0058578D02*
X0107754Y0058578D01*
X0107754Y0058735D02*
X0106332Y0058735D01*
X0106332Y0058892D02*
X0107754Y0058892D01*
X0107754Y0059049D02*
X0106332Y0059049D01*
X0106332Y0059206D02*
X0107754Y0059206D01*
X0107754Y0059363D02*
X0106332Y0059363D01*
X0106332Y0059520D02*
X0107754Y0059520D01*
X0107754Y0059677D02*
X0106332Y0059677D01*
X0106332Y0059834D02*
X0107754Y0059834D01*
X0107754Y0059991D02*
X0106332Y0059991D01*
X0106332Y0060148D02*
X0107754Y0060148D01*
X0107754Y0060305D02*
X0106332Y0060305D01*
X0106332Y0060462D02*
X0107754Y0060462D01*
X0107754Y0060619D02*
X0106332Y0060619D01*
X0106332Y0060776D02*
X0107754Y0060776D01*
X0107754Y0060933D02*
X0106332Y0060933D01*
X0106332Y0061090D02*
X0107754Y0061090D01*
X0107754Y0061247D02*
X0106332Y0061247D01*
X0106332Y0061404D02*
X0107754Y0061404D01*
X0107754Y0061561D02*
X0106332Y0061561D01*
X0106332Y0061718D02*
X0107754Y0061718D01*
X0107754Y0061875D02*
X0106332Y0061875D01*
X0106332Y0062032D02*
X0107754Y0062032D01*
X0107754Y0062189D02*
X0106332Y0062189D01*
X0106332Y0062346D02*
X0107754Y0062346D01*
X0107754Y0062503D02*
X0106332Y0062503D01*
X0106332Y0062660D02*
X0107754Y0062660D01*
X0107754Y0062817D02*
X0106332Y0062817D01*
X0106332Y0062974D02*
X0107754Y0062974D01*
X0107754Y0063131D02*
X0106332Y0063131D01*
X0106332Y0063288D02*
X0107754Y0063288D01*
X0107754Y0063445D02*
X0106332Y0063445D01*
X0106332Y0063602D02*
X0107754Y0063602D01*
X0107754Y0063759D02*
X0106332Y0063759D01*
X0105786Y0063865D02*
X0104364Y0063865D01*
X0105786Y0063865D02*
X0105786Y0056537D01*
X0104364Y0056537D01*
X0104364Y0063865D01*
X0104364Y0056694D02*
X0105786Y0056694D01*
X0105786Y0056851D02*
X0104364Y0056851D01*
X0104364Y0057008D02*
X0105786Y0057008D01*
X0105786Y0057165D02*
X0104364Y0057165D01*
X0104364Y0057322D02*
X0105786Y0057322D01*
X0105786Y0057479D02*
X0104364Y0057479D01*
X0104364Y0057636D02*
X0105786Y0057636D01*
X0105786Y0057793D02*
X0104364Y0057793D01*
X0104364Y0057950D02*
X0105786Y0057950D01*
X0105786Y0058107D02*
X0104364Y0058107D01*
X0104364Y0058264D02*
X0105786Y0058264D01*
X0105786Y0058421D02*
X0104364Y0058421D01*
X0104364Y0058578D02*
X0105786Y0058578D01*
X0105786Y0058735D02*
X0104364Y0058735D01*
X0104364Y0058892D02*
X0105786Y0058892D01*
X0105786Y0059049D02*
X0104364Y0059049D01*
X0104364Y0059206D02*
X0105786Y0059206D01*
X0105786Y0059363D02*
X0104364Y0059363D01*
X0104364Y0059520D02*
X0105786Y0059520D01*
X0105786Y0059677D02*
X0104364Y0059677D01*
X0104364Y0059834D02*
X0105786Y0059834D01*
X0105786Y0059991D02*
X0104364Y0059991D01*
X0104364Y0060148D02*
X0105786Y0060148D01*
X0105786Y0060305D02*
X0104364Y0060305D01*
X0104364Y0060462D02*
X0105786Y0060462D01*
X0105786Y0060619D02*
X0104364Y0060619D01*
X0104364Y0060776D02*
X0105786Y0060776D01*
X0105786Y0060933D02*
X0104364Y0060933D01*
X0104364Y0061090D02*
X0105786Y0061090D01*
X0105786Y0061247D02*
X0104364Y0061247D01*
X0104364Y0061404D02*
X0105786Y0061404D01*
X0105786Y0061561D02*
X0104364Y0061561D01*
X0104364Y0061718D02*
X0105786Y0061718D01*
X0105786Y0061875D02*
X0104364Y0061875D01*
X0104364Y0062032D02*
X0105786Y0062032D01*
X0105786Y0062189D02*
X0104364Y0062189D01*
X0104364Y0062346D02*
X0105786Y0062346D01*
X0105786Y0062503D02*
X0104364Y0062503D01*
X0104364Y0062660D02*
X0105786Y0062660D01*
X0105786Y0062817D02*
X0104364Y0062817D01*
X0104364Y0062974D02*
X0105786Y0062974D01*
X0105786Y0063131D02*
X0104364Y0063131D01*
X0104364Y0063288D02*
X0105786Y0063288D01*
X0105786Y0063445D02*
X0104364Y0063445D01*
X0104364Y0063602D02*
X0105786Y0063602D01*
X0105786Y0063759D02*
X0104364Y0063759D01*
X0103817Y0063865D02*
X0102395Y0063865D01*
X0103817Y0063865D02*
X0103817Y0056537D01*
X0102395Y0056537D01*
X0102395Y0063865D01*
X0102395Y0056694D02*
X0103817Y0056694D01*
X0103817Y0056851D02*
X0102395Y0056851D01*
X0102395Y0057008D02*
X0103817Y0057008D01*
X0103817Y0057165D02*
X0102395Y0057165D01*
X0102395Y0057322D02*
X0103817Y0057322D01*
X0103817Y0057479D02*
X0102395Y0057479D01*
X0102395Y0057636D02*
X0103817Y0057636D01*
X0103817Y0057793D02*
X0102395Y0057793D01*
X0102395Y0057950D02*
X0103817Y0057950D01*
X0103817Y0058107D02*
X0102395Y0058107D01*
X0102395Y0058264D02*
X0103817Y0058264D01*
X0103817Y0058421D02*
X0102395Y0058421D01*
X0102395Y0058578D02*
X0103817Y0058578D01*
X0103817Y0058735D02*
X0102395Y0058735D01*
X0102395Y0058892D02*
X0103817Y0058892D01*
X0103817Y0059049D02*
X0102395Y0059049D01*
X0102395Y0059206D02*
X0103817Y0059206D01*
X0103817Y0059363D02*
X0102395Y0059363D01*
X0102395Y0059520D02*
X0103817Y0059520D01*
X0103817Y0059677D02*
X0102395Y0059677D01*
X0102395Y0059834D02*
X0103817Y0059834D01*
X0103817Y0059991D02*
X0102395Y0059991D01*
X0102395Y0060148D02*
X0103817Y0060148D01*
X0103817Y0060305D02*
X0102395Y0060305D01*
X0102395Y0060462D02*
X0103817Y0060462D01*
X0103817Y0060619D02*
X0102395Y0060619D01*
X0102395Y0060776D02*
X0103817Y0060776D01*
X0103817Y0060933D02*
X0102395Y0060933D01*
X0102395Y0061090D02*
X0103817Y0061090D01*
X0103817Y0061247D02*
X0102395Y0061247D01*
X0102395Y0061404D02*
X0103817Y0061404D01*
X0103817Y0061561D02*
X0102395Y0061561D01*
X0102395Y0061718D02*
X0103817Y0061718D01*
X0103817Y0061875D02*
X0102395Y0061875D01*
X0102395Y0062032D02*
X0103817Y0062032D01*
X0103817Y0062189D02*
X0102395Y0062189D01*
X0102395Y0062346D02*
X0103817Y0062346D01*
X0103817Y0062503D02*
X0102395Y0062503D01*
X0102395Y0062660D02*
X0103817Y0062660D01*
X0103817Y0062817D02*
X0102395Y0062817D01*
X0102395Y0062974D02*
X0103817Y0062974D01*
X0103817Y0063131D02*
X0102395Y0063131D01*
X0102395Y0063288D02*
X0103817Y0063288D01*
X0103817Y0063445D02*
X0102395Y0063445D01*
X0102395Y0063602D02*
X0103817Y0063602D01*
X0103817Y0063759D02*
X0102395Y0063759D01*
X0100865Y0066817D02*
X0093537Y0066817D01*
X0100865Y0066817D02*
X0100865Y0065395D01*
X0093537Y0065395D01*
X0093537Y0066817D01*
X0093537Y0065552D02*
X0100865Y0065552D01*
X0100865Y0065709D02*
X0093537Y0065709D01*
X0093537Y0065866D02*
X0100865Y0065866D01*
X0100865Y0066023D02*
X0093537Y0066023D01*
X0093537Y0066180D02*
X0100865Y0066180D01*
X0100865Y0066337D02*
X0093537Y0066337D01*
X0093537Y0066494D02*
X0100865Y0066494D01*
X0100865Y0066651D02*
X0093537Y0066651D01*
X0093537Y0066808D02*
X0100865Y0066808D01*
X0100865Y0068786D02*
X0093537Y0068786D01*
X0100865Y0068786D02*
X0100865Y0067364D01*
X0093537Y0067364D01*
X0093537Y0068786D01*
X0093537Y0067521D02*
X0100865Y0067521D01*
X0100865Y0067678D02*
X0093537Y0067678D01*
X0093537Y0067835D02*
X0100865Y0067835D01*
X0100865Y0067992D02*
X0093537Y0067992D01*
X0093537Y0068149D02*
X0100865Y0068149D01*
X0100865Y0068306D02*
X0093537Y0068306D01*
X0093537Y0068463D02*
X0100865Y0068463D01*
X0100865Y0068620D02*
X0093537Y0068620D01*
X0093537Y0068777D02*
X0100865Y0068777D01*
X0100865Y0070754D02*
X0093537Y0070754D01*
X0100865Y0070754D02*
X0100865Y0069332D01*
X0093537Y0069332D01*
X0093537Y0070754D01*
X0093537Y0069489D02*
X0100865Y0069489D01*
X0100865Y0069646D02*
X0093537Y0069646D01*
X0093537Y0069803D02*
X0100865Y0069803D01*
X0100865Y0069960D02*
X0093537Y0069960D01*
X0093537Y0070117D02*
X0100865Y0070117D01*
X0100865Y0070274D02*
X0093537Y0070274D01*
X0093537Y0070431D02*
X0100865Y0070431D01*
X0100865Y0070588D02*
X0093537Y0070588D01*
X0093537Y0070745D02*
X0100865Y0070745D01*
X0100865Y0072723D02*
X0093537Y0072723D01*
X0100865Y0072723D02*
X0100865Y0071301D01*
X0093537Y0071301D01*
X0093537Y0072723D01*
X0093537Y0071458D02*
X0100865Y0071458D01*
X0100865Y0071615D02*
X0093537Y0071615D01*
X0093537Y0071772D02*
X0100865Y0071772D01*
X0100865Y0071929D02*
X0093537Y0071929D01*
X0093537Y0072086D02*
X0100865Y0072086D01*
X0100865Y0072243D02*
X0093537Y0072243D01*
X0093537Y0072400D02*
X0100865Y0072400D01*
X0100865Y0072557D02*
X0093537Y0072557D01*
X0093537Y0072714D02*
X0100865Y0072714D01*
X0100865Y0074691D02*
X0093537Y0074691D01*
X0100865Y0074691D02*
X0100865Y0073269D01*
X0093537Y0073269D01*
X0093537Y0074691D01*
X0093537Y0073426D02*
X0100865Y0073426D01*
X0100865Y0073583D02*
X0093537Y0073583D01*
X0093537Y0073740D02*
X0100865Y0073740D01*
X0100865Y0073897D02*
X0093537Y0073897D01*
X0093537Y0074054D02*
X0100865Y0074054D01*
X0100865Y0074211D02*
X0093537Y0074211D01*
X0093537Y0074368D02*
X0100865Y0074368D01*
X0100865Y0074525D02*
X0093537Y0074525D01*
X0093537Y0074682D02*
X0100865Y0074682D01*
D18*
X0053091Y0068488D03*
X0053091Y0059433D03*
X0053091Y0050378D03*
D19*
X0072776Y0059433D03*
D20*
X0037433Y0071933D03*
X0037433Y0074433D03*
X0037433Y0076933D03*
X0037433Y0079433D03*
X0037433Y0081933D03*
D21*
X0035114Y0087633D03*
X0035114Y0066233D03*
D22*
X0024933Y0063858D03*
X0024933Y0090008D03*
D23*
X0149433Y0065780D03*
X0149433Y0059087D03*
X0158433Y0077587D03*
X0158433Y0084280D03*
D24*
X0083933Y0051157D03*
X0083933Y0042102D03*
D25*
X0038780Y0058433D03*
X0032087Y0058433D03*
X0048087Y0091433D03*
X0054780Y0091433D03*
X0042280Y0095933D03*
X0035587Y0095933D03*
X0030280Y0099433D03*
X0023587Y0099433D03*
X0023587Y0107433D03*
X0030280Y0107433D03*
D26*
X0037823Y0102539D03*
X0074043Y0102539D03*
D27*
X0099359Y0100091D03*
X0108807Y0100091D03*
X0108807Y0107375D03*
X0099359Y0107375D03*
D28*
X0103933Y0113933D02*
X0103933Y0119933D01*
X0093933Y0119933D02*
X0093933Y0113933D01*
X0083933Y0113933D02*
X0083933Y0119933D01*
X0073933Y0119933D02*
X0073933Y0113933D01*
X0063933Y0113933D02*
X0063933Y0119933D01*
X0053933Y0119933D02*
X0053933Y0113933D01*
X0043933Y0113933D02*
X0043933Y0119933D01*
X0033933Y0119933D02*
X0033933Y0113933D01*
X0023933Y0113933D02*
X0023933Y0119933D01*
X0113933Y0119933D02*
X0113933Y0113933D01*
X0123933Y0113933D02*
X0123933Y0119933D01*
X0133933Y0119933D02*
X0133933Y0113933D01*
X0143933Y0113933D02*
X0143933Y0119933D01*
X0153933Y0119933D02*
X0153933Y0113933D01*
X0163933Y0113933D02*
X0163933Y0119933D01*
X0173933Y0119933D02*
X0173933Y0113933D01*
X0180933Y0106933D02*
X0186933Y0106933D01*
X0183933Y0113933D02*
X0183933Y0119933D01*
X0186933Y0096933D02*
X0180933Y0096933D01*
X0180933Y0086933D02*
X0186933Y0086933D01*
X0186933Y0076933D02*
X0180933Y0076933D01*
X0180933Y0066933D02*
X0186933Y0066933D01*
X0186933Y0056933D02*
X0180933Y0056933D01*
X0180933Y0046933D02*
X0186933Y0046933D01*
X0186933Y0036933D02*
X0180933Y0036933D01*
X0183933Y0029933D02*
X0183933Y0023933D01*
X0173933Y0023933D02*
X0173933Y0029933D01*
X0163933Y0029933D02*
X0163933Y0023933D01*
X0153933Y0023933D02*
X0153933Y0029933D01*
X0143933Y0029933D02*
X0143933Y0023933D01*
X0133933Y0023933D02*
X0133933Y0029933D01*
X0123933Y0029933D02*
X0123933Y0023933D01*
X0113933Y0023933D02*
X0113933Y0029933D01*
X0103933Y0029933D02*
X0103933Y0023933D01*
X0093933Y0023933D02*
X0093933Y0029933D01*
X0083933Y0029933D02*
X0083933Y0023933D01*
X0073933Y0023933D02*
X0073933Y0029933D01*
X0063933Y0029933D02*
X0063933Y0023933D01*
X0053933Y0023933D02*
X0053933Y0029933D01*
X0043933Y0029933D02*
X0043933Y0023933D01*
X0033933Y0023933D02*
X0033933Y0029933D01*
X0023933Y0029933D02*
X0023933Y0023933D01*
M02*
