G75*
%MOIN*%
%OFA0B0*%
%FSLAX25Y25*%
%IPPOS*%
%LPD*%
%AMOC8*
5,1,8,0,0,1.08239X$1,22.5*
%
%ADD10C,0.00000*%
%ADD11C,0.00800*%
%ADD12C,0.00500*%
%ADD13C,0.00300*%
%ADD14R,0.07000X0.02500*%
%ADD15R,0.02500X0.07000*%
%ADD16C,0.00400*%
%ADD17R,0.04331X0.02362*%
%ADD18C,0.01000*%
%ADD19R,0.08250X0.01000*%
%ADD20R,0.01250X0.06500*%
%ADD21R,0.00031X0.00756*%
%ADD22R,0.00031X0.00787*%
%ADD23R,0.00031X0.01197*%
%ADD24R,0.00031X0.01260*%
%ADD25R,0.00031X0.01480*%
%ADD26R,0.00031X0.01638*%
%ADD27R,0.00031X0.01732*%
%ADD28R,0.00031X0.01921*%
%ADD29R,0.00031X0.02173*%
%ADD30R,0.00031X0.02362*%
%ADD31R,0.00031X0.02551*%
%ADD32R,0.00031X0.02520*%
%ADD33R,0.00031X0.02772*%
%ADD34R,0.00031X0.02709*%
%ADD35R,0.00031X0.01606*%
%ADD36R,0.00031X0.02929*%
%ADD37R,0.00031X0.01449*%
%ADD38R,0.00031X0.01008*%
%ADD39R,0.00031X0.02961*%
%ADD40R,0.00031X0.01575*%
%ADD41R,0.00031X0.03244*%
%ADD42R,0.00031X0.01291*%
%ADD43R,0.00031X0.03118*%
%ADD44R,0.00031X0.03339*%
%ADD45R,0.00031X0.01386*%
%ADD46R,0.00031X0.03496*%
%ADD47R,0.00031X0.01512*%
%ADD48R,0.00031X0.03370*%
%ADD49R,0.00031X0.03622*%
%ADD50R,0.00031X0.01543*%
%ADD51R,0.00031X0.03591*%
%ADD52R,0.00031X0.03874*%
%ADD53R,0.00031X0.03685*%
%ADD54R,0.00031X0.04000*%
%ADD55R,0.00031X0.01701*%
%ADD56R,0.00031X0.03811*%
%ADD57R,0.00031X0.04063*%
%ADD58R,0.00031X0.01764*%
%ADD59R,0.00031X0.04189*%
%ADD60R,0.00031X0.01795*%
%ADD61R,0.00031X0.04094*%
%ADD62R,0.00031X0.04378*%
%ADD63R,0.00031X0.01890*%
%ADD64R,0.00031X0.04157*%
%ADD65R,0.00031X0.04504*%
%ADD66R,0.00031X0.01669*%
%ADD67R,0.00031X0.04252*%
%ADD68R,0.00031X0.04567*%
%ADD69R,0.00031X0.01953*%
%ADD70R,0.00031X0.04315*%
%ADD71R,0.00031X0.04693*%
%ADD72R,0.00031X0.01984*%
%ADD73R,0.00031X0.04535*%
%ADD74R,0.00031X0.04882*%
%ADD75R,0.00031X0.02047*%
%ADD76R,0.00031X0.04598*%
%ADD77R,0.00031X0.04945*%
%ADD78R,0.00031X0.02079*%
%ADD79R,0.00031X0.04661*%
%ADD80R,0.00031X0.05039*%
%ADD81R,0.00031X0.02110*%
%ADD82R,0.00031X0.04756*%
%ADD83R,0.00031X0.05134*%
%ADD84R,0.00031X0.02142*%
%ADD85R,0.00031X0.05291*%
%ADD86R,0.00031X0.01827*%
%ADD87R,0.00031X0.04976*%
%ADD88R,0.00031X0.05323*%
%ADD89R,0.00031X0.02205*%
%ADD90R,0.00031X0.05008*%
%ADD91R,0.00031X0.05449*%
%ADD92R,0.00031X0.01858*%
%ADD93R,0.00031X0.02268*%
%ADD94R,0.00031X0.05071*%
%ADD95R,0.00031X0.05512*%
%ADD96R,0.00031X0.05197*%
%ADD97R,0.00031X0.05638*%
%ADD98R,0.00031X0.02299*%
%ADD99R,0.00031X0.05260*%
%ADD100R,0.00031X0.05732*%
%ADD101R,0.00031X0.02331*%
%ADD102R,0.00031X0.05354*%
%ADD103R,0.00031X0.05795*%
%ADD104R,0.00031X0.05386*%
%ADD105R,0.00031X0.05827*%
%ADD106R,0.00031X0.02394*%
%ADD107R,0.00031X0.05480*%
%ADD108R,0.00031X0.05984*%
%ADD109R,0.00031X0.02425*%
%ADD110R,0.00031X0.05543*%
%ADD111R,0.00031X0.06047*%
%ADD112R,0.00031X0.02457*%
%ADD113R,0.00031X0.06079*%
%ADD114R,0.00031X0.02016*%
%ADD115R,0.00031X0.02488*%
%ADD116R,0.00031X0.05669*%
%ADD117R,0.00031X0.06173*%
%ADD118R,0.00031X0.06268*%
%ADD119R,0.00031X0.06331*%
%ADD120R,0.00031X0.06394*%
%ADD121R,0.00031X0.02583*%
%ADD122R,0.00031X0.05701*%
%ADD123R,0.00031X0.02236*%
%ADD124R,0.00031X0.06457*%
%ADD125R,0.00031X0.06520*%
%ADD126R,0.00031X0.02614*%
%ADD127R,0.00031X0.06614*%
%ADD128R,0.00031X0.02646*%
%ADD129R,0.00031X0.06677*%
%ADD130R,0.00031X0.06740*%
%ADD131R,0.00031X0.02677*%
%ADD132R,0.00031X0.06772*%
%ADD133R,0.00031X0.03150*%
%ADD134R,0.00031X0.06866*%
%ADD135R,0.00031X0.02740*%
%ADD136R,0.00031X0.02803*%
%ADD137R,0.00031X0.06929*%
%ADD138R,0.00031X0.07937*%
%ADD139R,0.00031X0.03181*%
%ADD140R,0.00031X0.03213*%
%ADD141R,0.00031X0.07906*%
%ADD142R,0.00031X0.02992*%
%ADD143R,0.00031X0.07843*%
%ADD144R,0.00031X0.02835*%
%ADD145R,0.00031X0.07780*%
%ADD146R,0.00031X0.02866*%
%ADD147R,0.00031X0.07717*%
%ADD148R,0.00031X0.00189*%
%ADD149R,0.00031X0.07685*%
%ADD150R,0.00031X0.01323*%
%ADD151R,0.00031X0.07654*%
%ADD152R,0.00031X0.01102*%
%ADD153R,0.00031X0.07591*%
%ADD154R,0.00031X0.01071*%
%ADD155R,0.00031X0.07528*%
%ADD156R,0.00031X0.00913*%
%ADD157R,0.00031X0.00819*%
%ADD158R,0.00031X0.07465*%
%ADD159R,0.00031X0.07433*%
%ADD160R,0.00031X0.00661*%
%ADD161R,0.00031X0.07402*%
%ADD162R,0.00031X0.00567*%
%ADD163R,0.00031X0.07370*%
%ADD164R,0.00031X0.00504*%
%ADD165R,0.00031X0.07339*%
%ADD166R,0.00031X0.00472*%
%ADD167R,0.00031X0.07307*%
%ADD168R,0.00031X0.00409*%
%ADD169R,0.00031X0.07276*%
%ADD170R,0.00031X0.00346*%
%ADD171R,0.00031X0.07213*%
%ADD172R,0.00031X0.01165*%
%ADD173R,0.00031X0.00315*%
%ADD174R,0.00031X0.01134*%
%ADD175R,0.00031X0.00252*%
%ADD176R,0.00031X0.07181*%
%ADD177R,0.00031X0.01039*%
%ADD178R,0.00031X0.00126*%
%ADD179R,0.00031X0.07150*%
%ADD180R,0.00031X0.07087*%
%ADD181R,0.00031X0.00063*%
%ADD182R,0.00031X0.00850*%
%ADD183R,0.00031X0.00031*%
%ADD184R,0.00031X0.07024*%
%ADD185R,0.00031X0.02898*%
%ADD186R,0.00031X0.06992*%
%ADD187R,0.00031X0.00724*%
%ADD188R,0.00031X0.06961*%
%ADD189R,0.00031X0.00693*%
%ADD190R,0.00031X0.00630*%
%ADD191R,0.00031X0.06898*%
%ADD192R,0.00031X0.03024*%
%ADD193R,0.00031X0.06835*%
%ADD194R,0.00031X0.00441*%
%ADD195R,0.00031X0.03055*%
%ADD196R,0.00031X0.00378*%
%ADD197R,0.00031X0.04913*%
%ADD198R,0.00031X0.00283*%
%ADD199R,0.00031X0.04819*%
%ADD200R,0.00031X0.04724*%
%ADD201R,0.00031X0.04630*%
%ADD202R,0.00031X0.04409*%
%ADD203R,0.00031X0.04283*%
%ADD204R,0.00031X0.04126*%
%ADD205R,0.00031X0.03906*%
%ADD206R,0.00031X0.03433*%
%ADD207R,0.00031X0.03276*%
%ADD208R,0.00031X0.03087*%
%ADD209R,0.00031X0.01417*%
%ADD210R,0.00031X0.03307*%
%ADD211R,0.00031X0.00220*%
%ADD212R,0.00031X0.00535*%
%ADD213R,0.00031X0.00598*%
%ADD214R,0.00031X0.01354*%
%ADD215R,0.00031X0.03402*%
%ADD216R,0.00031X0.06803*%
%ADD217R,0.00031X0.06551*%
%ADD218R,0.00031X0.03465*%
%ADD219R,0.00031X0.06299*%
%ADD220R,0.00031X0.03528*%
%ADD221R,0.00031X0.06236*%
%ADD222R,0.00031X0.06142*%
%ADD223R,0.00031X0.03559*%
%ADD224R,0.00031X0.05890*%
%ADD225R,0.00031X0.03654*%
%ADD226R,0.00031X0.05165*%
%ADD227R,0.00031X0.03717*%
%ADD228R,0.00031X0.03748*%
%ADD229R,0.00031X0.03780*%
%ADD230R,0.00031X0.04472*%
%ADD231R,0.00031X0.03937*%
%ADD232R,0.00031X0.03843*%
%ADD233R,0.00031X0.00094*%
%ADD234R,0.00031X0.00157*%
%ADD235R,0.00031X0.00882*%
%ADD236R,0.00031X0.00945*%
%ADD237R,0.00031X0.00976*%
%ADD238R,0.00031X0.01228*%
%ADD239R,0.00031X0.03969*%
%ADD240R,0.00031X0.04031*%
%ADD241R,0.00031X0.04220*%
%ADD242R,0.00031X0.04346*%
%ADD243R,0.00031X0.06110*%
%ADD244R,0.00031X0.06205*%
%ADD245R,0.00031X0.06362*%
%ADD246R,0.00031X0.06425*%
%ADD247R,0.00031X0.06488*%
%ADD248R,0.00031X0.06016*%
%ADD249R,0.00031X0.05953*%
%ADD250R,0.00031X0.05921*%
%ADD251R,0.00031X0.05858*%
%ADD252R,0.00031X0.05764*%
%ADD253R,0.00031X0.05606*%
%ADD254R,0.00031X0.07055*%
%ADD255R,0.00031X0.07118*%
%ADD256R,0.00031X0.07244*%
%ADD257R,0.00031X0.07622*%
%ADD258R,0.00031X0.07748*%
%ADD259R,0.00031X0.07811*%
%ADD260R,0.00031X0.07874*%
%ADD261R,0.00031X0.08000*%
%ADD262R,0.00031X0.08063*%
%ADD263R,0.00031X0.08094*%
%ADD264R,0.00031X0.08126*%
%ADD265R,0.00031X0.08189*%
%ADD266R,0.00031X0.08252*%
%ADD267R,0.00031X0.08315*%
%ADD268R,0.00031X0.08378*%
%ADD269R,0.00031X0.08409*%
%ADD270R,0.00031X0.08441*%
%ADD271R,0.00031X0.08504*%
%ADD272R,0.00031X0.08535*%
%ADD273R,0.00031X0.04441*%
%ADD274R,0.00031X0.04787*%
%ADD275R,0.00031X0.04850*%
%ADD276R,0.00031X0.05417*%
%ADD277R,0.00031X0.05228*%
%ADD278R,0.00031X0.05102*%
%ADD279R,0.00031X0.10142*%
%ADD280R,0.00031X0.10110*%
%ADD281R,0.00031X0.10079*%
%ADD282R,0.00031X0.10047*%
%ADD283R,0.00031X0.10016*%
%ADD284R,0.00031X0.09984*%
%ADD285R,0.00031X0.09953*%
%ADD286R,0.00031X0.09890*%
%ADD287R,0.00031X0.09858*%
%ADD288R,0.00031X0.09827*%
%ADD289R,0.00031X0.09795*%
%ADD290R,0.00031X0.09764*%
%ADD291R,0.00031X0.09701*%
%ADD292R,0.00031X0.09669*%
%ADD293R,0.00031X0.09638*%
%ADD294R,0.00031X0.09606*%
%ADD295R,0.00031X0.09575*%
%ADD296R,0.00031X0.09543*%
%ADD297R,0.00031X0.09512*%
%ADD298R,0.00031X0.09480*%
%ADD299R,0.00031X0.09449*%
%ADD300R,0.00031X0.09417*%
%ADD301R,0.00031X0.09386*%
%ADD302R,0.00031X0.09354*%
%ADD303R,0.00031X0.09323*%
%ADD304R,0.00031X0.09260*%
%ADD305R,0.00031X0.09197*%
%ADD306R,0.00031X0.09134*%
%ADD307R,0.00031X0.09071*%
%ADD308R,0.00031X0.09039*%
%ADD309R,0.00031X0.09008*%
%ADD310R,0.00031X0.08976*%
%ADD311R,0.00031X0.08945*%
%ADD312R,0.00031X0.08913*%
%ADD313R,0.00031X0.08882*%
%ADD314R,0.00031X0.08819*%
%ADD315R,0.00031X0.08756*%
%ADD316R,0.00031X0.08724*%
%ADD317R,0.00031X0.08693*%
%ADD318R,0.00031X0.08630*%
%ADD319R,0.00031X0.08567*%
%ADD320R,0.00031X0.08220*%
%ADD321R,0.00031X0.07496*%
%ADD322R,0.00031X0.05575*%
%ADD323R,0.01000X0.06000*%
%ADD324C,0.00600*%
D10*
X0016933Y0019933D02*
X0016933Y0125933D01*
X0191933Y0125933D01*
X0191933Y0019933D01*
X0016933Y0019933D01*
D11*
X0041433Y0047933D02*
X0041433Y0049433D01*
X0041433Y0049933D02*
X0041433Y0050433D01*
X0041433Y0049933D02*
X0049433Y0049933D01*
X0048465Y0075199D02*
X0048372Y0075199D01*
X0048372Y0082667D01*
X0052494Y0082667D01*
X0052494Y0075199D01*
X0052402Y0075199D01*
X0048465Y0075199D01*
X0048464Y0075199D02*
X0048466Y0075286D01*
X0048472Y0075373D01*
X0048481Y0075460D01*
X0048495Y0075546D01*
X0048512Y0075631D01*
X0048533Y0075716D01*
X0048558Y0075799D01*
X0048586Y0075882D01*
X0048618Y0075963D01*
X0048654Y0076042D01*
X0048693Y0076120D01*
X0048735Y0076196D01*
X0048781Y0076270D01*
X0048830Y0076342D01*
X0048882Y0076412D01*
X0048937Y0076479D01*
X0048995Y0076544D01*
X0049056Y0076607D01*
X0049120Y0076666D01*
X0049186Y0076723D01*
X0049255Y0076776D01*
X0049326Y0076827D01*
X0049399Y0076874D01*
X0049474Y0076919D01*
X0049551Y0076959D01*
X0049629Y0076997D01*
X0049710Y0077030D01*
X0049791Y0077061D01*
X0049874Y0077087D01*
X0049959Y0077110D01*
X0050044Y0077129D01*
X0050129Y0077144D01*
X0050216Y0077156D01*
X0050302Y0077164D01*
X0050389Y0077168D01*
X0050477Y0077168D01*
X0050564Y0077164D01*
X0050650Y0077156D01*
X0050737Y0077144D01*
X0050822Y0077129D01*
X0050907Y0077110D01*
X0050992Y0077087D01*
X0051075Y0077061D01*
X0051156Y0077030D01*
X0051237Y0076997D01*
X0051315Y0076959D01*
X0051392Y0076919D01*
X0051467Y0076874D01*
X0051540Y0076827D01*
X0051611Y0076776D01*
X0051680Y0076723D01*
X0051746Y0076666D01*
X0051810Y0076607D01*
X0051871Y0076544D01*
X0051929Y0076479D01*
X0051984Y0076412D01*
X0052036Y0076342D01*
X0052085Y0076270D01*
X0052131Y0076196D01*
X0052173Y0076120D01*
X0052212Y0076042D01*
X0052248Y0075963D01*
X0052280Y0075882D01*
X0052308Y0075799D01*
X0052333Y0075716D01*
X0052354Y0075631D01*
X0052371Y0075546D01*
X0052385Y0075460D01*
X0052394Y0075373D01*
X0052400Y0075286D01*
X0052402Y0075199D01*
D12*
X0048933Y0070683D02*
X0048933Y0050183D01*
X0041933Y0050183D01*
X0041933Y0070683D01*
X0048933Y0070683D01*
X0058209Y0069882D02*
X0058211Y0069938D01*
X0058217Y0069993D01*
X0058227Y0070047D01*
X0058240Y0070101D01*
X0058258Y0070154D01*
X0058279Y0070205D01*
X0058303Y0070255D01*
X0058331Y0070303D01*
X0058363Y0070349D01*
X0058397Y0070393D01*
X0058435Y0070434D01*
X0058475Y0070472D01*
X0058518Y0070507D01*
X0058563Y0070539D01*
X0058611Y0070568D01*
X0058660Y0070594D01*
X0058711Y0070616D01*
X0058763Y0070634D01*
X0058817Y0070648D01*
X0058872Y0070659D01*
X0058927Y0070666D01*
X0058982Y0070669D01*
X0059038Y0070668D01*
X0059093Y0070663D01*
X0059148Y0070654D01*
X0059202Y0070642D01*
X0059255Y0070625D01*
X0059307Y0070605D01*
X0059357Y0070581D01*
X0059405Y0070554D01*
X0059452Y0070524D01*
X0059496Y0070490D01*
X0059538Y0070453D01*
X0059576Y0070413D01*
X0059613Y0070371D01*
X0059646Y0070326D01*
X0059675Y0070280D01*
X0059702Y0070231D01*
X0059724Y0070180D01*
X0059744Y0070128D01*
X0059759Y0070074D01*
X0059771Y0070020D01*
X0059779Y0069965D01*
X0059783Y0069910D01*
X0059783Y0069854D01*
X0059779Y0069799D01*
X0059771Y0069744D01*
X0059759Y0069690D01*
X0059744Y0069636D01*
X0059724Y0069584D01*
X0059702Y0069533D01*
X0059675Y0069484D01*
X0059646Y0069438D01*
X0059613Y0069393D01*
X0059576Y0069351D01*
X0059538Y0069311D01*
X0059496Y0069274D01*
X0059452Y0069240D01*
X0059405Y0069210D01*
X0059357Y0069183D01*
X0059307Y0069159D01*
X0059255Y0069139D01*
X0059202Y0069122D01*
X0059148Y0069110D01*
X0059093Y0069101D01*
X0059038Y0069096D01*
X0058982Y0069095D01*
X0058927Y0069098D01*
X0058872Y0069105D01*
X0058817Y0069116D01*
X0058763Y0069130D01*
X0058711Y0069148D01*
X0058660Y0069170D01*
X0058611Y0069196D01*
X0058563Y0069225D01*
X0058518Y0069257D01*
X0058475Y0069292D01*
X0058435Y0069330D01*
X0058397Y0069371D01*
X0058363Y0069415D01*
X0058331Y0069461D01*
X0058303Y0069509D01*
X0058279Y0069559D01*
X0058258Y0069610D01*
X0058240Y0069663D01*
X0058227Y0069717D01*
X0058217Y0069771D01*
X0058211Y0069826D01*
X0058209Y0069882D01*
X0041683Y0062433D02*
X0041683Y0056433D01*
X0029183Y0056433D01*
X0029183Y0062433D01*
X0029683Y0062433D01*
X0030433Y0062433D01*
X0041683Y0062433D01*
X0037992Y0063169D02*
X0037992Y0064154D01*
X0037992Y0063169D02*
X0029921Y0063169D01*
X0020079Y0063169D02*
X0016614Y0063169D01*
X0016614Y0092697D01*
X0020079Y0092697D01*
X0020683Y0097433D02*
X0020683Y0097683D01*
X0025933Y0097683D01*
X0020933Y0097433D02*
X0020933Y0103183D01*
X0025933Y0103183D01*
X0020933Y0103183D02*
X0020933Y0103433D01*
X0020683Y0103433D01*
X0020683Y0097683D01*
X0020683Y0097433D02*
X0020933Y0097433D01*
X0033183Y0097433D01*
X0033183Y0103433D01*
X0020933Y0103433D01*
X0020683Y0105433D02*
X0020683Y0111433D01*
X0021183Y0111433D01*
X0021933Y0111433D01*
X0033183Y0111433D01*
X0033183Y0105433D01*
X0020683Y0105433D01*
X0032683Y0099933D02*
X0033183Y0099933D01*
X0033933Y0099933D01*
X0045183Y0099933D01*
X0045183Y0093933D01*
X0032683Y0093933D01*
X0032683Y0099933D01*
X0029921Y0092697D02*
X0037992Y0092697D01*
X0037992Y0091713D01*
X0045183Y0089433D02*
X0045183Y0095433D01*
X0057683Y0095433D01*
X0057683Y0089433D01*
X0057183Y0089433D01*
X0056433Y0089433D01*
X0045183Y0089433D01*
X0027683Y0081186D02*
X0027683Y0078183D01*
X0027683Y0079684D02*
X0023179Y0079684D01*
X0024681Y0078183D01*
X0023179Y0076582D02*
X0023179Y0075080D01*
X0023179Y0075831D02*
X0026932Y0075831D01*
X0027683Y0075080D01*
X0027683Y0074330D01*
X0026932Y0073579D01*
X0030433Y0053683D02*
X0030683Y0053683D01*
X0030933Y0053683D01*
X0040433Y0053683D01*
X0040433Y0049183D01*
X0030433Y0049183D01*
X0030433Y0053683D01*
X0021583Y0045433D02*
X0042083Y0045433D01*
X0042083Y0038433D01*
X0021583Y0038433D01*
X0021583Y0045433D01*
X0081183Y0057433D02*
X0081183Y0064433D01*
X0101683Y0064433D01*
X0101683Y0057433D01*
X0081183Y0057433D01*
X0084933Y0063683D02*
X0084933Y0068183D01*
X0094933Y0068183D01*
X0094933Y0063683D01*
X0094683Y0063683D01*
X0094433Y0063683D01*
X0084933Y0063683D01*
X0099933Y0063933D02*
X0099933Y0065933D01*
X0099933Y0063933D02*
X0101933Y0063933D01*
X0109933Y0049183D02*
X0119933Y0049183D01*
X0119933Y0044683D01*
X0119683Y0044683D01*
X0119433Y0044683D01*
X0109933Y0044683D01*
X0109933Y0049183D01*
X0109933Y0045183D02*
X0119933Y0045183D01*
X0119933Y0040683D01*
X0119683Y0040683D01*
X0119433Y0040683D01*
X0109933Y0040683D01*
X0109933Y0045183D01*
X0111433Y0038683D02*
X0101933Y0038683D01*
X0101683Y0038683D01*
X0101433Y0038683D01*
X0101433Y0034183D01*
X0111433Y0034183D01*
X0111433Y0038683D01*
X0146433Y0057183D02*
X0146433Y0057683D01*
X0146433Y0058433D01*
X0146433Y0069683D01*
X0152433Y0069683D01*
X0152433Y0057183D01*
X0146433Y0057183D01*
X0145933Y0068683D02*
X0145933Y0089183D01*
X0152933Y0089183D01*
X0152933Y0068683D01*
X0145933Y0068683D01*
X0142683Y0070933D02*
X0138183Y0070933D01*
X0138183Y0080933D01*
X0142683Y0080933D01*
X0142683Y0080683D01*
X0142683Y0080433D01*
X0142683Y0070933D01*
X0155433Y0075683D02*
X0161433Y0075683D01*
X0161433Y0088183D01*
X0155433Y0088183D01*
X0155433Y0075683D01*
X0127933Y0065933D02*
X0127933Y0063933D01*
X0125933Y0063933D01*
X0127933Y0089933D02*
X0127933Y0091933D01*
X0125933Y0091933D01*
X0116183Y0098433D02*
X0111683Y0098433D01*
X0111683Y0108433D01*
X0116183Y0108433D01*
X0116183Y0108183D01*
X0116183Y0107933D01*
X0116183Y0098433D01*
X0112333Y0098233D02*
X0112333Y0111233D01*
X0095833Y0111233D01*
X0095833Y0098233D01*
X0112333Y0098233D01*
X0115433Y0103683D02*
X0115433Y0108183D01*
X0125433Y0108183D01*
X0125433Y0103683D01*
X0125183Y0103683D01*
X0124933Y0103683D01*
X0115433Y0103683D01*
X0101933Y0091933D02*
X0099933Y0091933D01*
X0099933Y0089933D01*
X0096683Y0098433D02*
X0092183Y0098433D01*
X0092183Y0098683D01*
X0092183Y0098933D01*
X0092183Y0108433D01*
X0096683Y0108433D01*
X0096683Y0098433D01*
D13*
X0096287Y0096586D02*
X0098222Y0093683D01*
X0099233Y0093683D02*
X0101168Y0093683D01*
X0100201Y0093683D02*
X0100201Y0096586D01*
X0099233Y0095618D01*
X0098222Y0096586D02*
X0096287Y0093683D01*
X0090126Y0099615D02*
X0088191Y0099615D01*
X0087707Y0100098D01*
X0087707Y0101066D01*
X0088191Y0101550D01*
X0088675Y0102561D02*
X0087707Y0103529D01*
X0090610Y0103529D01*
X0090610Y0104496D02*
X0090610Y0102561D01*
X0090126Y0101550D02*
X0090610Y0101066D01*
X0090610Y0100098D01*
X0090126Y0099615D01*
X0090126Y0105508D02*
X0090610Y0105991D01*
X0090610Y0106959D01*
X0090126Y0107443D01*
X0089642Y0107443D01*
X0089159Y0106959D01*
X0089159Y0106475D01*
X0089159Y0106959D02*
X0088675Y0107443D01*
X0088191Y0107443D01*
X0087707Y0106959D01*
X0087707Y0105991D01*
X0088191Y0105508D01*
X0113115Y0109240D02*
X0113598Y0108756D01*
X0114566Y0108756D01*
X0115050Y0109240D01*
X0116061Y0108756D02*
X0117996Y0108756D01*
X0117029Y0108756D02*
X0117029Y0111659D01*
X0116061Y0110691D01*
X0115050Y0111175D02*
X0114566Y0111659D01*
X0113598Y0111659D01*
X0113115Y0111175D01*
X0113115Y0109240D01*
X0119008Y0108756D02*
X0120943Y0110691D01*
X0120943Y0111175D01*
X0120459Y0111659D01*
X0119491Y0111659D01*
X0119008Y0111175D01*
X0119008Y0108756D02*
X0120943Y0108756D01*
X0120545Y0102659D02*
X0120061Y0102175D01*
X0120545Y0102659D02*
X0121512Y0102659D01*
X0121996Y0102175D01*
X0121996Y0101691D01*
X0120061Y0099756D01*
X0121996Y0099756D01*
X0119050Y0100240D02*
X0118566Y0099756D01*
X0117598Y0099756D01*
X0117115Y0100240D01*
X0117115Y0102175D01*
X0117598Y0102659D01*
X0118566Y0102659D01*
X0119050Y0102175D01*
X0146583Y0092502D02*
X0146583Y0090567D01*
X0147067Y0090083D01*
X0148034Y0090083D01*
X0148518Y0090567D01*
X0149530Y0090567D02*
X0149530Y0091534D01*
X0150981Y0091534D01*
X0151465Y0091051D01*
X0151465Y0090567D01*
X0150981Y0090083D01*
X0150013Y0090083D01*
X0149530Y0090567D01*
X0149530Y0091534D02*
X0150497Y0092502D01*
X0151465Y0092986D01*
X0148518Y0092502D02*
X0148034Y0092986D01*
X0147067Y0092986D01*
X0146583Y0092502D01*
X0137610Y0078496D02*
X0137610Y0076561D01*
X0137610Y0077529D02*
X0134707Y0077529D01*
X0135675Y0076561D01*
X0135191Y0075550D02*
X0134707Y0075066D01*
X0134707Y0074098D01*
X0135191Y0073615D01*
X0137126Y0073615D01*
X0137610Y0074098D01*
X0137610Y0075066D01*
X0137126Y0075550D01*
X0153081Y0064588D02*
X0154532Y0063137D01*
X0154532Y0065072D01*
X0155983Y0064588D02*
X0153081Y0064588D01*
X0153564Y0062125D02*
X0154532Y0062125D01*
X0155016Y0061641D01*
X0155016Y0060190D01*
X0155983Y0060190D02*
X0153081Y0060190D01*
X0153081Y0061641D01*
X0153564Y0062125D01*
X0155016Y0061158D02*
X0155983Y0062125D01*
X0156881Y0070583D02*
X0159783Y0070583D01*
X0159783Y0072518D01*
X0159783Y0073530D02*
X0159783Y0075465D01*
X0159783Y0074497D02*
X0156881Y0074497D01*
X0157848Y0073530D01*
X0117780Y0075552D02*
X0115311Y0075552D01*
X0117780Y0078020D01*
X0117780Y0078638D01*
X0117162Y0079255D01*
X0115928Y0079255D01*
X0115311Y0078638D01*
X0114096Y0078638D02*
X0113479Y0079255D01*
X0112245Y0079255D01*
X0111628Y0078638D01*
X0111628Y0076169D01*
X0112245Y0075552D01*
X0113479Y0075552D01*
X0114096Y0076169D01*
X0110407Y0075552D02*
X0109172Y0075552D01*
X0109789Y0075552D02*
X0109789Y0079255D01*
X0109172Y0079255D02*
X0110407Y0079255D01*
X0091996Y0071659D02*
X0090061Y0071659D01*
X0090061Y0070208D01*
X0091029Y0070691D01*
X0091512Y0070691D01*
X0091996Y0070208D01*
X0091996Y0069240D01*
X0091512Y0068756D01*
X0090545Y0068756D01*
X0090061Y0069240D01*
X0089050Y0069240D02*
X0088566Y0068756D01*
X0087598Y0068756D01*
X0087115Y0069240D01*
X0087115Y0071175D01*
X0087598Y0071659D01*
X0088566Y0071659D01*
X0089050Y0071175D01*
X0094174Y0056286D02*
X0093690Y0055802D01*
X0093690Y0053867D01*
X0094174Y0053383D01*
X0095141Y0053383D01*
X0095625Y0053867D01*
X0096637Y0053867D02*
X0096637Y0053383D01*
X0096637Y0053867D02*
X0098572Y0055802D01*
X0098572Y0056286D01*
X0096637Y0056286D01*
X0095625Y0055802D02*
X0095141Y0056286D01*
X0094174Y0056286D01*
X0112115Y0052175D02*
X0112115Y0050240D01*
X0112598Y0049756D01*
X0113566Y0049756D01*
X0114050Y0050240D01*
X0115061Y0051208D02*
X0116996Y0051208D01*
X0116512Y0052659D02*
X0116512Y0049756D01*
X0115061Y0051208D02*
X0116512Y0052659D01*
X0114050Y0052175D02*
X0113566Y0052659D01*
X0112598Y0052659D01*
X0112115Y0052175D01*
X0108012Y0042659D02*
X0107045Y0042659D01*
X0106561Y0042175D01*
X0106561Y0041691D01*
X0107045Y0041208D01*
X0108496Y0041208D01*
X0108496Y0042175D02*
X0108012Y0042659D01*
X0108496Y0042175D02*
X0108496Y0040240D01*
X0108012Y0039756D01*
X0107045Y0039756D01*
X0106561Y0040240D01*
X0105550Y0040240D02*
X0105066Y0039756D01*
X0104098Y0039756D01*
X0103615Y0040240D01*
X0103615Y0042175D01*
X0104098Y0042659D01*
X0105066Y0042659D01*
X0105550Y0042175D01*
X0112159Y0039129D02*
X0112159Y0037194D01*
X0112642Y0036710D01*
X0113610Y0036710D01*
X0114094Y0037194D01*
X0115105Y0037194D02*
X0115589Y0036710D01*
X0116556Y0036710D01*
X0117040Y0037194D01*
X0117040Y0037677D01*
X0116556Y0038161D01*
X0116073Y0038161D01*
X0116556Y0038161D02*
X0117040Y0038645D01*
X0117040Y0039129D01*
X0116556Y0039612D01*
X0115589Y0039612D01*
X0115105Y0039129D01*
X0114094Y0039129D02*
X0113610Y0039612D01*
X0112642Y0039612D01*
X0112159Y0039129D01*
X0086518Y0039002D02*
X0086034Y0039486D01*
X0085067Y0039486D01*
X0084583Y0039002D01*
X0086518Y0039002D02*
X0086518Y0038518D01*
X0084583Y0036583D01*
X0086518Y0036583D01*
X0083572Y0036583D02*
X0081637Y0036583D01*
X0081637Y0039486D01*
X0060936Y0039686D02*
X0060936Y0041137D01*
X0060452Y0041621D01*
X0058517Y0041621D01*
X0058033Y0041137D01*
X0058033Y0039686D01*
X0060936Y0039686D01*
X0060936Y0042633D02*
X0059001Y0044568D01*
X0058517Y0044568D01*
X0058033Y0044084D01*
X0058033Y0043116D01*
X0058517Y0042633D01*
X0060936Y0042633D02*
X0060936Y0044568D01*
X0055436Y0044568D02*
X0055436Y0042633D01*
X0055436Y0043600D02*
X0052533Y0043600D01*
X0053501Y0042633D01*
X0053017Y0041621D02*
X0052533Y0041137D01*
X0052533Y0039686D01*
X0055436Y0039686D01*
X0055436Y0041137D01*
X0054952Y0041621D01*
X0053017Y0041621D01*
X0031011Y0034583D02*
X0029076Y0034583D01*
X0030044Y0034583D02*
X0030044Y0037486D01*
X0029076Y0036518D01*
X0027097Y0037486D02*
X0027097Y0034583D01*
X0026130Y0034583D02*
X0028065Y0034583D01*
X0026130Y0036518D02*
X0027097Y0037486D01*
X0025118Y0037002D02*
X0024634Y0037486D01*
X0023667Y0037486D01*
X0023183Y0037002D01*
X0023183Y0035067D01*
X0023667Y0034583D01*
X0024634Y0034583D01*
X0025118Y0035067D01*
X0024641Y0049883D02*
X0025125Y0050367D01*
X0024641Y0049883D02*
X0023674Y0049883D01*
X0023190Y0050367D01*
X0023190Y0052302D01*
X0023674Y0052786D01*
X0024641Y0052786D01*
X0025125Y0052302D01*
X0026137Y0052302D02*
X0026620Y0052786D01*
X0027588Y0052786D01*
X0028072Y0052302D01*
X0028072Y0051818D01*
X0027588Y0051334D01*
X0026620Y0051334D01*
X0026137Y0051818D01*
X0026137Y0052302D01*
X0026620Y0051334D02*
X0026137Y0050851D01*
X0026137Y0050367D01*
X0026620Y0049883D01*
X0027588Y0049883D01*
X0028072Y0050367D01*
X0028072Y0050851D01*
X0027588Y0051334D01*
X0028072Y0054883D02*
X0026137Y0054883D01*
X0027104Y0054883D02*
X0027104Y0057786D01*
X0026137Y0056818D01*
X0025125Y0056334D02*
X0024641Y0055851D01*
X0023190Y0055851D01*
X0024158Y0055851D02*
X0025125Y0054883D01*
X0025125Y0056334D02*
X0025125Y0057302D01*
X0024641Y0057786D01*
X0023190Y0057786D01*
X0023190Y0054883D01*
X0042615Y0072240D02*
X0043098Y0071756D01*
X0044066Y0071756D01*
X0044550Y0072240D01*
X0045561Y0071756D02*
X0047496Y0071756D01*
X0046529Y0071756D02*
X0046529Y0074659D01*
X0045561Y0073691D01*
X0044550Y0074175D02*
X0044066Y0074659D01*
X0043098Y0074659D01*
X0042615Y0074175D01*
X0042615Y0072240D01*
X0048508Y0072240D02*
X0048991Y0071756D01*
X0049959Y0071756D01*
X0050443Y0072240D01*
X0050443Y0074175D01*
X0048508Y0072240D01*
X0048508Y0074175D01*
X0048991Y0074659D01*
X0049959Y0074659D01*
X0050443Y0074175D01*
X0050373Y0083520D02*
X0049406Y0083520D01*
X0048922Y0084004D01*
X0048922Y0085939D01*
X0049406Y0086423D01*
X0050373Y0086423D01*
X0050857Y0085939D01*
X0051868Y0085455D02*
X0052836Y0086423D01*
X0052836Y0083520D01*
X0053803Y0083520D02*
X0051868Y0083520D01*
X0050857Y0084004D02*
X0050373Y0083520D01*
X0047925Y0083520D02*
X0046958Y0083520D01*
X0047441Y0083520D02*
X0047441Y0086423D01*
X0046958Y0086423D02*
X0047925Y0086423D01*
X0058583Y0091083D02*
X0058583Y0093986D01*
X0060034Y0093986D01*
X0060518Y0093502D01*
X0060518Y0092534D01*
X0060034Y0092051D01*
X0058583Y0092051D01*
X0059551Y0092051D02*
X0060518Y0091083D01*
X0061530Y0091567D02*
X0062013Y0091083D01*
X0062981Y0091083D01*
X0063465Y0091567D01*
X0063465Y0092051D01*
X0062981Y0092534D01*
X0062497Y0092534D01*
X0062981Y0092534D02*
X0063465Y0093018D01*
X0063465Y0093502D01*
X0062981Y0093986D01*
X0062013Y0093986D01*
X0061530Y0093502D01*
X0050465Y0098083D02*
X0048530Y0098083D01*
X0050465Y0100018D01*
X0050465Y0100502D01*
X0049981Y0100986D01*
X0049013Y0100986D01*
X0048530Y0100502D01*
X0047518Y0100502D02*
X0047518Y0099534D01*
X0047034Y0099051D01*
X0045583Y0099051D01*
X0046551Y0099051D02*
X0047518Y0098083D01*
X0045583Y0098083D02*
X0045583Y0100986D01*
X0047034Y0100986D01*
X0047518Y0100502D01*
X0052163Y0102967D02*
X0052647Y0102483D01*
X0053615Y0102483D01*
X0054098Y0102967D01*
X0054098Y0103451D01*
X0053615Y0103934D01*
X0052647Y0103934D01*
X0052163Y0104418D01*
X0052163Y0104902D01*
X0052647Y0105386D01*
X0053615Y0105386D01*
X0054098Y0104902D01*
X0055110Y0105386D02*
X0055110Y0102483D01*
X0056077Y0103451D01*
X0057045Y0102483D01*
X0057045Y0105386D01*
X0058056Y0104418D02*
X0059024Y0105386D01*
X0059024Y0102483D01*
X0059991Y0102483D02*
X0058056Y0102483D01*
X0049965Y0106067D02*
X0049965Y0106551D01*
X0049481Y0107034D01*
X0048997Y0107034D01*
X0049481Y0107034D02*
X0049965Y0107518D01*
X0049965Y0108002D01*
X0049481Y0108486D01*
X0048513Y0108486D01*
X0048030Y0108002D01*
X0047018Y0108002D02*
X0046534Y0108486D01*
X0045083Y0108486D01*
X0045083Y0105583D01*
X0046534Y0105583D01*
X0047018Y0106067D01*
X0047018Y0108002D01*
X0048030Y0106067D02*
X0048513Y0105583D01*
X0049481Y0105583D01*
X0049965Y0106067D01*
X0038965Y0108567D02*
X0038481Y0108083D01*
X0037513Y0108083D01*
X0037030Y0108567D01*
X0037030Y0109534D02*
X0037997Y0110018D01*
X0038481Y0110018D01*
X0038965Y0109534D01*
X0038965Y0108567D01*
X0037030Y0109534D02*
X0037030Y0110986D01*
X0038965Y0110986D01*
X0036018Y0110502D02*
X0036018Y0109534D01*
X0035534Y0109051D01*
X0034083Y0109051D01*
X0035051Y0109051D02*
X0036018Y0108083D01*
X0034083Y0108083D02*
X0034083Y0110986D01*
X0035534Y0110986D01*
X0036018Y0110502D01*
D14*
X0045433Y0059183D03*
X0149433Y0080183D03*
D15*
X0092683Y0060933D03*
X0033083Y0041933D03*
D16*
X0042268Y0038587D02*
X0042268Y0045280D01*
X0046598Y0045280D02*
X0046598Y0038587D01*
X0047268Y0038587D02*
X0047268Y0045280D01*
X0051598Y0045280D02*
X0051598Y0038587D01*
X0060629Y0054494D02*
X0060629Y0056029D01*
X0060629Y0055262D02*
X0065233Y0055262D01*
X0065233Y0056029D02*
X0065233Y0054494D01*
X0064466Y0057564D02*
X0061396Y0057564D01*
X0060629Y0058331D01*
X0060629Y0059866D01*
X0061396Y0060633D01*
X0061396Y0062168D02*
X0060629Y0062935D01*
X0060629Y0064470D01*
X0061396Y0065237D01*
X0062164Y0065237D01*
X0062931Y0064470D01*
X0063698Y0065237D01*
X0064466Y0065237D01*
X0065233Y0064470D01*
X0065233Y0062935D01*
X0064466Y0062168D01*
X0064466Y0060633D02*
X0065233Y0059866D01*
X0065233Y0058331D01*
X0064466Y0057564D01*
X0062931Y0063702D02*
X0062931Y0064470D01*
D17*
X0049433Y0043311D03*
X0044433Y0043311D03*
D18*
X0055433Y0046933D02*
X0070433Y0046933D01*
X0070433Y0052933D01*
X0075933Y0056433D02*
X0075933Y0047433D01*
X0091933Y0047433D01*
X0091933Y0056433D01*
X0075933Y0056433D01*
X0070433Y0067933D02*
X0070433Y0073933D01*
X0055433Y0073933D01*
X0055433Y0072433D01*
X0055433Y0066433D02*
X0055433Y0063433D01*
X0055433Y0057433D02*
X0055433Y0054433D01*
X0055433Y0048433D02*
X0055433Y0046933D01*
X0123433Y0065433D02*
X0126433Y0068433D01*
X0072433Y0099433D02*
X0068433Y0099433D01*
X0067933Y0096933D02*
X0043933Y0096933D01*
X0043933Y0110933D01*
X0067933Y0110933D01*
X0067933Y0096933D01*
X0068433Y0107933D02*
X0072433Y0107933D01*
X0043433Y0107933D02*
X0039433Y0107933D01*
X0039433Y0099433D02*
X0043433Y0099433D01*
D19*
X0108208Y0105233D03*
D20*
X0104708Y0107983D03*
D21*
X0156146Y0111094D03*
X0166445Y0105898D03*
X0170413Y0111094D03*
X0166445Y0095000D03*
X0170413Y0089803D03*
X0156114Y0089803D03*
X0175154Y0058689D03*
X0173201Y0056516D03*
X0173169Y0056516D03*
X0173512Y0052197D03*
X0175748Y0052260D03*
X0170268Y0050622D03*
X0167717Y0049740D03*
X0167465Y0049362D03*
X0167402Y0049268D03*
X0167339Y0049173D03*
X0167276Y0049079D03*
X0167244Y0049047D03*
X0167213Y0048984D03*
X0167181Y0048953D03*
X0167150Y0048890D03*
X0167118Y0048858D03*
X0167055Y0048764D03*
X0166992Y0048669D03*
X0166929Y0048575D03*
X0166898Y0048543D03*
X0166866Y0048480D03*
X0166835Y0048449D03*
X0166929Y0047315D03*
X0163465Y0045866D03*
X0163087Y0046276D03*
X0158929Y0045992D03*
X0158929Y0043094D03*
X0158961Y0043031D03*
X0155874Y0041299D03*
X0154929Y0043000D03*
X0154929Y0046087D03*
X0155874Y0047787D03*
X0163465Y0043220D03*
X0166929Y0041772D03*
X0166835Y0040638D03*
X0166866Y0040606D03*
X0166898Y0040543D03*
X0166929Y0040512D03*
X0166961Y0040449D03*
X0166992Y0040417D03*
X0167055Y0040323D03*
X0167118Y0040228D03*
X0167181Y0040134D03*
X0167213Y0040102D03*
X0167244Y0040039D03*
X0167276Y0040008D03*
X0167307Y0039945D03*
X0167339Y0039913D03*
X0167402Y0039819D03*
X0167465Y0039724D03*
X0167717Y0039346D03*
X0170268Y0040575D03*
X0170709Y0043882D03*
X0172094Y0044354D03*
X0174110Y0045614D03*
X0175181Y0046307D03*
X0175213Y0046307D03*
X0175244Y0046307D03*
X0175307Y0043346D03*
X0171654Y0036102D03*
X0170268Y0036102D03*
D22*
X0172031Y0036811D03*
X0173921Y0036118D03*
X0173480Y0038827D03*
X0173921Y0040685D03*
X0173543Y0041346D03*
X0173543Y0042638D03*
X0173921Y0043331D03*
X0171685Y0043772D03*
X0169827Y0044370D03*
X0174142Y0045598D03*
X0175150Y0044906D03*
X0175181Y0044906D03*
X0175213Y0044906D03*
X0173480Y0048213D03*
X0171654Y0049346D03*
X0173921Y0050039D03*
X0169858Y0054701D03*
X0166803Y0048370D03*
X0166520Y0047961D03*
X0163433Y0045882D03*
X0163118Y0046260D03*
X0158898Y0045945D03*
X0158898Y0043142D03*
X0154961Y0042953D03*
X0154961Y0046134D03*
X0163087Y0042795D03*
X0163118Y0042827D03*
X0163150Y0042858D03*
X0166520Y0041126D03*
X0166803Y0040717D03*
X0169858Y0038858D03*
X0175154Y0077665D03*
X0168035Y0080154D03*
X0170382Y0089819D03*
X0166476Y0094984D03*
X0160272Y0095205D03*
X0153280Y0092244D03*
X0156146Y0089819D03*
X0169846Y0102575D03*
X0160272Y0105693D03*
X0153280Y0108654D03*
X0170382Y0111079D03*
D23*
X0156587Y0110811D03*
X0156555Y0110843D03*
X0169720Y0098339D03*
X0166728Y0094906D03*
X0169972Y0090087D03*
X0156587Y0090087D03*
X0167815Y0080075D03*
X0175122Y0058689D03*
X0169984Y0054717D03*
X0169953Y0052795D03*
X0173638Y0052197D03*
X0158331Y0044543D03*
X0155181Y0042622D03*
X0154614Y0039378D03*
X0155181Y0046465D03*
X0154614Y0049709D03*
X0169984Y0038874D03*
D24*
X0171118Y0044606D03*
X0173575Y0048228D03*
X0173669Y0052197D03*
X0171937Y0052795D03*
X0170016Y0054717D03*
X0173390Y0056642D03*
X0175622Y0052260D03*
X0155748Y0047724D03*
X0155748Y0041362D03*
X0154646Y0039378D03*
X0175122Y0077650D03*
X0169909Y0090118D03*
X0169878Y0090150D03*
X0166760Y0094906D03*
X0159988Y0105772D03*
X0156650Y0110780D03*
X0169909Y0110780D03*
D25*
X0169657Y0110606D03*
X0169626Y0110575D03*
X0166886Y0106039D03*
X0164429Y0104906D03*
X0164398Y0104906D03*
X0164366Y0104906D03*
X0164335Y0104906D03*
X0164272Y0104937D03*
X0164240Y0104937D03*
X0164209Y0104937D03*
X0164177Y0104937D03*
X0164146Y0104937D03*
X0163547Y0104969D03*
X0163516Y0104969D03*
X0163484Y0104969D03*
X0163453Y0104969D03*
X0163421Y0104969D03*
X0163390Y0104969D03*
X0163358Y0104969D03*
X0163295Y0104937D03*
X0163264Y0104937D03*
X0163232Y0104937D03*
X0159862Y0105787D03*
X0156902Y0110606D03*
X0169594Y0102575D03*
X0169594Y0100465D03*
X0166886Y0094858D03*
X0164492Y0096024D03*
X0164398Y0095992D03*
X0164366Y0095992D03*
X0164335Y0095992D03*
X0164303Y0095992D03*
X0164272Y0095992D03*
X0164209Y0095961D03*
X0164177Y0095961D03*
X0164146Y0095961D03*
X0164114Y0095961D03*
X0163358Y0095961D03*
X0163327Y0095961D03*
X0163295Y0095961D03*
X0163264Y0095961D03*
X0159862Y0095110D03*
X0156870Y0090291D03*
X0166114Y0083681D03*
X0166146Y0083681D03*
X0166177Y0083681D03*
X0166209Y0083681D03*
X0166240Y0083681D03*
X0166272Y0083681D03*
X0166303Y0083681D03*
X0166335Y0083681D03*
X0166366Y0083681D03*
X0166398Y0083681D03*
X0166429Y0083681D03*
X0166461Y0083681D03*
X0166492Y0083681D03*
X0166524Y0083681D03*
X0166555Y0083681D03*
X0166587Y0083681D03*
X0166618Y0083681D03*
X0166650Y0083681D03*
X0166681Y0083681D03*
X0166713Y0083681D03*
X0166744Y0083681D03*
X0166776Y0083681D03*
X0166807Y0083681D03*
X0166839Y0083681D03*
X0166870Y0083681D03*
X0166902Y0083681D03*
X0166933Y0083681D03*
X0166965Y0083681D03*
X0166996Y0083681D03*
X0167028Y0083681D03*
X0167059Y0083681D03*
X0167091Y0083681D03*
X0167122Y0083681D03*
X0167154Y0083681D03*
X0167185Y0083681D03*
X0167217Y0083681D03*
X0167248Y0083681D03*
X0167280Y0083681D03*
X0167311Y0083681D03*
X0167343Y0083681D03*
X0167374Y0083681D03*
X0167406Y0083681D03*
X0167437Y0083681D03*
X0167469Y0083681D03*
X0167500Y0083681D03*
X0167531Y0083681D03*
X0167563Y0083681D03*
X0167594Y0083681D03*
X0167626Y0083681D03*
X0167657Y0083681D03*
X0167689Y0083681D03*
X0167720Y0083681D03*
X0167752Y0083681D03*
X0167783Y0083681D03*
X0167815Y0083681D03*
X0167846Y0083681D03*
X0167878Y0083681D03*
X0167909Y0083681D03*
X0167941Y0083681D03*
X0167972Y0083681D03*
X0168004Y0083681D03*
X0168035Y0083681D03*
X0168067Y0083681D03*
X0168098Y0083681D03*
X0168130Y0083681D03*
X0168161Y0083681D03*
X0168193Y0083681D03*
X0168224Y0083681D03*
X0168256Y0083681D03*
X0168287Y0083681D03*
X0168319Y0083681D03*
X0168350Y0083681D03*
X0168382Y0083681D03*
X0168413Y0083681D03*
X0168445Y0083681D03*
X0168476Y0083681D03*
X0168508Y0083681D03*
X0168539Y0083681D03*
X0168571Y0083681D03*
X0168602Y0083681D03*
X0168634Y0083681D03*
X0168665Y0083681D03*
X0168697Y0083681D03*
X0168728Y0083681D03*
X0168760Y0083681D03*
X0168791Y0083681D03*
X0168823Y0083681D03*
X0168854Y0083681D03*
X0168886Y0083681D03*
X0168917Y0083681D03*
X0168949Y0083681D03*
X0168980Y0083681D03*
X0169012Y0083681D03*
X0169043Y0083681D03*
X0169075Y0083681D03*
X0169106Y0083681D03*
X0169138Y0083681D03*
X0169169Y0083681D03*
X0169201Y0083681D03*
X0169232Y0083681D03*
X0169264Y0083681D03*
X0169295Y0083681D03*
X0169327Y0083681D03*
X0169358Y0083681D03*
X0169390Y0083681D03*
X0169421Y0083681D03*
X0169453Y0083681D03*
X0169484Y0083681D03*
X0169516Y0083681D03*
X0169547Y0083681D03*
X0169579Y0083681D03*
X0169610Y0083681D03*
X0169642Y0083681D03*
X0169673Y0083681D03*
X0169705Y0083681D03*
X0169736Y0083681D03*
X0169768Y0083681D03*
X0169799Y0083681D03*
X0169831Y0083681D03*
X0169862Y0083681D03*
X0169894Y0083681D03*
X0169925Y0083681D03*
X0169957Y0083681D03*
X0169988Y0083681D03*
X0170020Y0083681D03*
X0170051Y0083681D03*
X0170083Y0083681D03*
X0170114Y0083681D03*
X0170146Y0083681D03*
X0170177Y0083681D03*
X0170209Y0083681D03*
X0170240Y0083681D03*
X0170272Y0083681D03*
X0170303Y0083681D03*
X0170335Y0083681D03*
X0170366Y0083681D03*
X0170398Y0083681D03*
X0170429Y0083681D03*
X0170461Y0083681D03*
X0170492Y0083681D03*
X0170524Y0083681D03*
X0170555Y0083681D03*
X0170587Y0083681D03*
X0170618Y0083681D03*
X0170650Y0083681D03*
X0170681Y0083681D03*
X0170713Y0083681D03*
X0170744Y0083681D03*
X0170776Y0083681D03*
X0170807Y0083681D03*
X0170839Y0083681D03*
X0170870Y0083681D03*
X0170902Y0083681D03*
X0170933Y0083681D03*
X0170965Y0083681D03*
X0170996Y0083681D03*
X0171028Y0083681D03*
X0171059Y0083681D03*
X0171091Y0083681D03*
X0171122Y0083681D03*
X0171154Y0083681D03*
X0171185Y0083681D03*
X0171217Y0083681D03*
X0171248Y0083681D03*
X0171280Y0083681D03*
X0171311Y0083681D03*
X0171343Y0083681D03*
X0171374Y0083681D03*
X0171406Y0083681D03*
X0171437Y0083681D03*
X0171469Y0083681D03*
X0171500Y0083681D03*
X0171531Y0083681D03*
X0171563Y0083681D03*
X0171594Y0083681D03*
X0171626Y0083681D03*
X0171657Y0083681D03*
X0171689Y0083681D03*
X0171720Y0083681D03*
X0171752Y0083681D03*
X0171783Y0083681D03*
X0171815Y0083681D03*
X0171846Y0083681D03*
X0171878Y0083681D03*
X0171909Y0083681D03*
X0171941Y0083681D03*
X0171972Y0083681D03*
X0172004Y0083681D03*
X0172035Y0083681D03*
X0172067Y0083681D03*
X0172098Y0083681D03*
X0172130Y0083681D03*
X0172161Y0083681D03*
X0172193Y0083681D03*
X0172224Y0083681D03*
X0172256Y0083681D03*
X0174870Y0083681D03*
X0174902Y0083681D03*
X0173106Y0080311D03*
X0171689Y0073823D03*
X0171657Y0073823D03*
X0171626Y0073823D03*
X0171594Y0073791D03*
X0171500Y0073760D03*
X0171469Y0073760D03*
X0171437Y0073760D03*
X0171374Y0073728D03*
X0171343Y0073728D03*
X0170429Y0073634D03*
X0170398Y0073634D03*
X0170366Y0073634D03*
X0169957Y0073665D03*
X0169831Y0073697D03*
X0169799Y0073697D03*
X0169768Y0073697D03*
X0169736Y0073697D03*
X0169705Y0073728D03*
X0169673Y0073728D03*
X0169642Y0073728D03*
X0171689Y0061445D03*
X0171720Y0061445D03*
X0171752Y0061445D03*
X0171783Y0061445D03*
X0171815Y0061445D03*
X0171846Y0061445D03*
X0172067Y0061413D03*
X0172098Y0061413D03*
X0175091Y0058673D03*
X0173484Y0056720D03*
X0171843Y0052780D03*
X0170047Y0050984D03*
X0173732Y0050386D03*
X0175528Y0052276D03*
X0174488Y0048402D03*
X0173669Y0048213D03*
X0170110Y0046512D03*
X0170016Y0044402D03*
X0170898Y0044339D03*
X0170929Y0044370D03*
X0170961Y0044402D03*
X0173701Y0041031D03*
X0173669Y0038858D03*
X0171811Y0034386D03*
X0170110Y0034386D03*
X0174839Y0089980D03*
X0169626Y0090323D03*
D26*
X0169437Y0090465D03*
X0171705Y0093961D03*
X0171673Y0093992D03*
X0166980Y0094843D03*
X0164776Y0096134D03*
X0162917Y0096071D03*
X0162886Y0096071D03*
X0169500Y0098339D03*
X0169500Y0100449D03*
X0169500Y0102591D03*
X0166980Y0106087D03*
X0164807Y0104764D03*
X0164776Y0104764D03*
X0162949Y0104858D03*
X0162917Y0104858D03*
X0162886Y0104827D03*
X0171547Y0106874D03*
X0171673Y0106906D03*
X0169437Y0110433D03*
X0157091Y0110465D03*
X0154760Y0107000D03*
X0154791Y0106969D03*
X0154980Y0094024D03*
X0154791Y0093929D03*
X0154760Y0093898D03*
X0153437Y0092417D03*
X0157091Y0090433D03*
X0174776Y0089902D03*
X0174650Y0083760D03*
X0175091Y0077650D03*
X0172445Y0074185D03*
X0172413Y0074185D03*
X0172382Y0074154D03*
X0172350Y0074122D03*
X0172287Y0074091D03*
X0174933Y0071760D03*
X0174902Y0071728D03*
X0174870Y0071728D03*
X0174839Y0071697D03*
X0174807Y0071697D03*
X0174776Y0071665D03*
X0174744Y0071665D03*
X0174713Y0071665D03*
X0174618Y0071602D03*
X0174587Y0071602D03*
X0174555Y0071571D03*
X0174524Y0071539D03*
X0174492Y0071539D03*
X0174461Y0071539D03*
X0174429Y0071539D03*
X0174398Y0071508D03*
X0174335Y0071476D03*
X0174209Y0071413D03*
X0174177Y0071413D03*
X0174114Y0071382D03*
X0174051Y0071350D03*
X0174020Y0071319D03*
X0173925Y0071287D03*
X0173894Y0071287D03*
X0171752Y0070280D03*
X0171531Y0070154D03*
X0171500Y0070154D03*
X0171343Y0070059D03*
X0171280Y0070028D03*
X0171248Y0070028D03*
X0171185Y0069996D03*
X0171122Y0069965D03*
X0171091Y0069933D03*
X0171028Y0069902D03*
X0170996Y0069902D03*
X0170933Y0069870D03*
X0170902Y0069839D03*
X0170870Y0069839D03*
X0170839Y0069807D03*
X0170776Y0069776D03*
X0170744Y0069776D03*
X0170681Y0069744D03*
X0170618Y0069713D03*
X0170587Y0069681D03*
X0170524Y0069650D03*
X0170492Y0069650D03*
X0170429Y0069618D03*
X0170240Y0069524D03*
X0169988Y0069398D03*
X0167091Y0068043D03*
X0167028Y0068012D03*
X0166996Y0068012D03*
X0166965Y0068012D03*
X0166933Y0067980D03*
X0166902Y0067949D03*
X0166870Y0067949D03*
X0166839Y0067917D03*
X0166807Y0067917D03*
X0166776Y0067886D03*
X0166744Y0067886D03*
X0166713Y0067886D03*
X0166650Y0067854D03*
X0166618Y0067823D03*
X0166587Y0067823D03*
X0166492Y0067760D03*
X0166461Y0067760D03*
X0166429Y0067760D03*
X0166398Y0067728D03*
X0166209Y0067634D03*
X0166177Y0067634D03*
X0168980Y0067130D03*
X0169012Y0067130D03*
X0169043Y0067130D03*
X0169264Y0067004D03*
X0169295Y0067004D03*
X0169327Y0067004D03*
X0169358Y0066972D03*
X0169421Y0066941D03*
X0169516Y0066878D03*
X0169547Y0066878D03*
X0169579Y0066878D03*
X0169610Y0066846D03*
X0169642Y0066846D03*
X0169673Y0066815D03*
X0169705Y0066815D03*
X0169736Y0066783D03*
X0169768Y0066752D03*
X0169799Y0066752D03*
X0169831Y0066752D03*
X0169894Y0066720D03*
X0169957Y0066689D03*
X0169988Y0066657D03*
X0170020Y0066657D03*
X0170051Y0066626D03*
X0170083Y0066626D03*
X0170114Y0066626D03*
X0170146Y0066594D03*
X0170177Y0066594D03*
X0170209Y0066563D03*
X0170240Y0066531D03*
X0170272Y0066531D03*
X0170335Y0066500D03*
X0170366Y0066500D03*
X0170429Y0066469D03*
X0170524Y0066406D03*
X0170587Y0066374D03*
X0170618Y0066374D03*
X0170650Y0066374D03*
X0170713Y0066343D03*
X0170744Y0066311D03*
X0170807Y0066280D03*
X0170870Y0066248D03*
X0170902Y0066248D03*
X0171122Y0066122D03*
X0171154Y0066122D03*
X0171406Y0065996D03*
X0171437Y0065996D03*
X0171689Y0065870D03*
X0171941Y0065744D03*
X0172224Y0065618D03*
X0174398Y0064547D03*
X0174429Y0064516D03*
X0174461Y0064484D03*
X0174492Y0064484D03*
X0174524Y0064484D03*
X0174744Y0064358D03*
X0172854Y0061177D03*
X0172823Y0061177D03*
X0172760Y0061209D03*
X0172697Y0061240D03*
X0172665Y0061240D03*
X0172949Y0061114D03*
X0173516Y0056768D03*
X0171780Y0054780D03*
X0171748Y0052795D03*
X0171685Y0052732D03*
X0170236Y0052732D03*
X0170205Y0052764D03*
X0170173Y0052795D03*
X0170142Y0052795D03*
X0175402Y0052228D03*
X0175433Y0052260D03*
X0174583Y0048323D03*
X0173764Y0048228D03*
X0171685Y0046528D03*
X0170236Y0046528D03*
X0170079Y0044417D03*
X0170142Y0044386D03*
X0170173Y0044354D03*
X0171780Y0038937D03*
X0173795Y0038874D03*
X0174583Y0038969D03*
X0171685Y0034370D03*
X0168854Y0073996D03*
X0168823Y0074028D03*
X0168791Y0074059D03*
X0168760Y0074059D03*
X0168728Y0074059D03*
D27*
X0172571Y0074264D03*
X0172634Y0074327D03*
X0169390Y0069098D03*
X0169358Y0069098D03*
X0169327Y0069067D03*
X0169138Y0068972D03*
X0169106Y0068972D03*
X0169075Y0068941D03*
X0168980Y0068909D03*
X0168949Y0068878D03*
X0167217Y0068059D03*
X0167185Y0068059D03*
X0174272Y0064657D03*
X0173043Y0061067D03*
X0173106Y0061035D03*
X0175059Y0058673D03*
X0171811Y0048874D03*
X0171780Y0048874D03*
X0174677Y0048276D03*
X0174709Y0048276D03*
X0175496Y0048276D03*
X0175465Y0042858D03*
X0175433Y0042858D03*
X0173795Y0042858D03*
X0173764Y0042858D03*
X0170142Y0041063D03*
X0170110Y0041063D03*
X0174677Y0038921D03*
X0175528Y0038921D03*
X0173795Y0036591D03*
X0173764Y0036591D03*
X0171811Y0036591D03*
X0171780Y0036591D03*
X0170142Y0036591D03*
X0170110Y0036591D03*
X0162425Y0037598D03*
X0162173Y0036780D03*
X0160094Y0036780D03*
X0162425Y0051488D03*
X0162173Y0052307D03*
X0160094Y0052307D03*
X0174492Y0083807D03*
X0174524Y0083807D03*
X0172256Y0085319D03*
X0172098Y0085445D03*
X0171941Y0085539D03*
X0171909Y0085571D03*
X0171878Y0085571D03*
X0171752Y0085665D03*
X0171720Y0085697D03*
X0170335Y0086673D03*
X0170083Y0086799D03*
X0169894Y0086925D03*
X0169673Y0087083D03*
X0169516Y0087177D03*
X0169484Y0087209D03*
X0169327Y0087335D03*
X0169295Y0087335D03*
X0169169Y0087429D03*
X0169106Y0087461D03*
X0168980Y0087555D03*
X0168949Y0087587D03*
X0168823Y0087681D03*
X0168791Y0087681D03*
X0168760Y0087713D03*
X0168728Y0087713D03*
X0168665Y0087776D03*
X0168602Y0087807D03*
X0168571Y0087839D03*
X0168476Y0087902D03*
X0168445Y0087933D03*
X0168382Y0087965D03*
X0168256Y0088059D03*
X0168193Y0088091D03*
X0168161Y0088122D03*
X0168098Y0088154D03*
X0168067Y0088185D03*
X0168004Y0088217D03*
X0167972Y0088248D03*
X0167909Y0088311D03*
X0167878Y0088311D03*
X0167815Y0088343D03*
X0167783Y0088374D03*
X0167752Y0088406D03*
X0167720Y0088437D03*
X0167689Y0088437D03*
X0167657Y0088469D03*
X0167626Y0088469D03*
X0167594Y0088500D03*
X0167563Y0088531D03*
X0167531Y0088563D03*
X0167437Y0088594D03*
X0167374Y0088657D03*
X0167343Y0088689D03*
X0167280Y0088720D03*
X0167248Y0088752D03*
X0167185Y0088783D03*
X0167091Y0088846D03*
X0167028Y0088909D03*
X0166965Y0088941D03*
X0166870Y0089004D03*
X0166713Y0089098D03*
X0166681Y0089130D03*
X0166618Y0089193D03*
X0166461Y0089287D03*
X0171626Y0087555D03*
X0171657Y0087555D03*
X0171720Y0087587D03*
X0171752Y0087618D03*
X0171783Y0087650D03*
X0171815Y0087650D03*
X0171846Y0087681D03*
X0171909Y0087713D03*
X0171972Y0087744D03*
X0172035Y0087807D03*
X0172193Y0087902D03*
X0173154Y0092370D03*
X0171831Y0093850D03*
X0171799Y0093882D03*
X0164933Y0096213D03*
X0162791Y0096118D03*
X0162760Y0096118D03*
X0159736Y0095079D03*
X0154634Y0093787D03*
X0153500Y0092528D03*
X0163075Y0100465D03*
X0163106Y0100465D03*
X0163138Y0100465D03*
X0163201Y0100465D03*
X0163232Y0100465D03*
X0163264Y0100465D03*
X0162760Y0104780D03*
X0164933Y0104685D03*
X0169406Y0102575D03*
X0171453Y0106890D03*
X0171799Y0107016D03*
X0171831Y0107047D03*
X0173154Y0108528D03*
X0159736Y0105819D03*
X0154665Y0107079D03*
X0154634Y0107110D03*
X0154602Y0107142D03*
X0153500Y0108370D03*
X0153469Y0108433D03*
D28*
X0153815Y0107929D03*
X0153846Y0107898D03*
X0153878Y0107866D03*
X0154004Y0107709D03*
X0154035Y0107677D03*
X0154067Y0107646D03*
X0154098Y0107614D03*
X0154130Y0107583D03*
X0154161Y0107551D03*
X0154193Y0107520D03*
X0154224Y0107488D03*
X0155201Y0106953D03*
X0162508Y0104654D03*
X0163516Y0100465D03*
X0162476Y0096276D03*
X0162508Y0096244D03*
X0165091Y0096339D03*
X0167138Y0094795D03*
X0171327Y0093976D03*
X0172209Y0093535D03*
X0172240Y0093504D03*
X0172933Y0092717D03*
X0172965Y0092685D03*
X0174618Y0089760D03*
X0173232Y0088626D03*
X0173201Y0088626D03*
X0170461Y0086642D03*
X0174209Y0083902D03*
X0174240Y0083902D03*
X0173295Y0080217D03*
X0175059Y0077665D03*
X0172980Y0074579D03*
X0168035Y0074579D03*
X0167406Y0068059D03*
X0174083Y0064846D03*
X0171118Y0054701D03*
X0171087Y0054701D03*
X0171055Y0054701D03*
X0171024Y0054701D03*
X0170992Y0054701D03*
X0170961Y0054701D03*
X0170929Y0054701D03*
X0170898Y0054701D03*
X0170866Y0054701D03*
X0170835Y0054701D03*
X0170803Y0054701D03*
X0174520Y0052181D03*
X0174551Y0052181D03*
X0174583Y0052181D03*
X0174614Y0052181D03*
X0174646Y0052181D03*
X0174677Y0052181D03*
X0174709Y0052181D03*
X0174740Y0052181D03*
X0160063Y0052213D03*
X0170772Y0038858D03*
X0170803Y0038858D03*
X0170835Y0038858D03*
X0170866Y0038858D03*
X0170898Y0038858D03*
X0170929Y0038858D03*
X0170961Y0038858D03*
X0170992Y0038858D03*
X0171024Y0038858D03*
X0171055Y0038858D03*
X0171087Y0038858D03*
X0171118Y0038858D03*
X0153783Y0092937D03*
X0153815Y0092969D03*
X0153846Y0093000D03*
X0153878Y0093031D03*
X0153941Y0093126D03*
X0153972Y0093157D03*
X0154004Y0093189D03*
X0154035Y0093220D03*
X0154067Y0093252D03*
X0154098Y0093283D03*
X0154130Y0093315D03*
X0154161Y0093346D03*
X0155201Y0093945D03*
X0169185Y0100465D03*
X0169185Y0102575D03*
X0169154Y0102575D03*
X0171327Y0106921D03*
X0172209Y0107362D03*
X0172933Y0108181D03*
X0172965Y0108244D03*
X0172996Y0108276D03*
D29*
X0162287Y0096433D03*
X0155421Y0093882D03*
X0171106Y0093913D03*
X0174398Y0089634D03*
X0173421Y0088878D03*
X0170618Y0086642D03*
X0173831Y0084028D03*
X0173862Y0084028D03*
X0173957Y0065004D03*
X0175028Y0058642D03*
X0159811Y0051646D03*
X0159811Y0037441D03*
X0155421Y0107016D03*
D30*
X0155579Y0107079D03*
X0155610Y0107079D03*
X0159390Y0105882D03*
X0162193Y0104370D03*
X0162571Y0100465D03*
X0159390Y0095016D03*
X0155610Y0093819D03*
X0167390Y0094732D03*
X0170917Y0093850D03*
X0170949Y0093850D03*
X0174209Y0089539D03*
X0170776Y0086642D03*
X0173547Y0084122D03*
X0173579Y0084122D03*
X0175028Y0077665D03*
X0173421Y0075146D03*
X0167594Y0075083D03*
X0167878Y0068059D03*
X0174996Y0058642D03*
X0159969Y0051992D03*
X0159969Y0037094D03*
X0167390Y0106165D03*
X0170917Y0107079D03*
D31*
X0170728Y0107142D03*
X0167484Y0106197D03*
X0162476Y0100465D03*
X0159295Y0105913D03*
X0155768Y0107142D03*
X0155768Y0093756D03*
X0170728Y0093756D03*
X0173988Y0089445D03*
X0173295Y0084217D03*
X0173264Y0084217D03*
X0174996Y0077665D03*
X0173516Y0075335D03*
X0167500Y0075272D03*
X0168067Y0068059D03*
X0152913Y0044528D03*
D32*
X0152882Y0044543D03*
X0152850Y0044543D03*
X0152819Y0044543D03*
X0152787Y0044543D03*
X0152756Y0044543D03*
X0158551Y0044543D03*
X0174965Y0058657D03*
X0173831Y0065272D03*
X0168035Y0068075D03*
X0173327Y0084201D03*
X0170902Y0086657D03*
X0174020Y0089461D03*
X0170760Y0093772D03*
X0167484Y0094717D03*
X0163831Y0100449D03*
X0159327Y0105898D03*
X0155736Y0107126D03*
X0170760Y0107126D03*
X0155736Y0093772D03*
D33*
X0155988Y0093677D03*
X0162382Y0100449D03*
X0165122Y0099031D03*
X0165185Y0098969D03*
X0167610Y0094685D03*
X0170508Y0093677D03*
X0173642Y0089335D03*
X0173673Y0089335D03*
X0173705Y0089335D03*
X0171091Y0086657D03*
X0172949Y0084327D03*
X0173610Y0079854D03*
X0174965Y0077650D03*
X0173610Y0075508D03*
X0168319Y0068075D03*
X0173768Y0065398D03*
X0173705Y0060169D03*
X0158614Y0044543D03*
X0167610Y0106213D03*
X0170476Y0107252D03*
X0156020Y0107252D03*
D34*
X0155957Y0107220D03*
X0162413Y0100449D03*
X0163894Y0100449D03*
X0165185Y0101961D03*
X0167579Y0106213D03*
X0170571Y0107220D03*
X0167579Y0094685D03*
X0170571Y0093709D03*
X0173768Y0089366D03*
X0171059Y0086657D03*
X0171028Y0086657D03*
X0173043Y0084295D03*
X0173075Y0084295D03*
X0173579Y0079886D03*
X0168224Y0068043D03*
X0174933Y0058626D03*
X0155957Y0093677D03*
D35*
X0154854Y0093976D03*
X0154823Y0093945D03*
X0153406Y0092339D03*
X0157059Y0090417D03*
X0159799Y0095110D03*
X0162949Y0096055D03*
X0162980Y0096024D03*
X0163012Y0096024D03*
X0164681Y0096087D03*
X0164744Y0096118D03*
X0171547Y0094039D03*
X0171610Y0094039D03*
X0171642Y0094008D03*
X0173217Y0092244D03*
X0169500Y0090417D03*
X0169469Y0090449D03*
X0174681Y0083744D03*
X0174713Y0083744D03*
X0173169Y0080280D03*
X0172319Y0074106D03*
X0172256Y0074075D03*
X0172224Y0074043D03*
X0172193Y0074043D03*
X0169043Y0073917D03*
X0169012Y0073917D03*
X0168980Y0073949D03*
X0168949Y0073949D03*
X0168886Y0073980D03*
X0173705Y0071177D03*
X0173768Y0071209D03*
X0173799Y0071240D03*
X0173831Y0071240D03*
X0173862Y0071272D03*
X0173957Y0071303D03*
X0173988Y0071303D03*
X0174083Y0071366D03*
X0174146Y0071398D03*
X0174240Y0071429D03*
X0174272Y0071429D03*
X0174303Y0071461D03*
X0174366Y0071492D03*
X0174650Y0071618D03*
X0174681Y0071650D03*
X0172067Y0070421D03*
X0172035Y0070421D03*
X0172004Y0070390D03*
X0171815Y0070295D03*
X0171783Y0070295D03*
X0171720Y0070264D03*
X0171657Y0070232D03*
X0171626Y0070201D03*
X0171594Y0070169D03*
X0171563Y0070169D03*
X0171469Y0070138D03*
X0171437Y0070106D03*
X0171406Y0070106D03*
X0171374Y0070075D03*
X0171311Y0070043D03*
X0171217Y0070012D03*
X0171154Y0069980D03*
X0171059Y0069917D03*
X0170965Y0069886D03*
X0169453Y0066925D03*
X0169484Y0066894D03*
X0169390Y0066957D03*
X0169232Y0067020D03*
X0169201Y0067051D03*
X0169169Y0067051D03*
X0169138Y0067083D03*
X0169106Y0067083D03*
X0169075Y0067114D03*
X0168949Y0067146D03*
X0168917Y0067177D03*
X0169862Y0066736D03*
X0169925Y0066705D03*
X0166681Y0067870D03*
X0166555Y0067807D03*
X0166524Y0067776D03*
X0166366Y0067713D03*
X0166335Y0067713D03*
X0166303Y0067681D03*
X0166272Y0067650D03*
X0166240Y0067650D03*
X0166146Y0067618D03*
X0166114Y0067618D03*
X0166083Y0067587D03*
X0166051Y0067587D03*
X0166020Y0067555D03*
X0165988Y0067524D03*
X0165957Y0067524D03*
X0174555Y0064437D03*
X0174587Y0064437D03*
X0174618Y0064406D03*
X0174650Y0064406D03*
X0174681Y0064374D03*
X0174713Y0064374D03*
X0174776Y0064343D03*
X0174933Y0064248D03*
X0172791Y0061193D03*
X0172728Y0061224D03*
X0172634Y0061256D03*
X0171717Y0054732D03*
X0171780Y0052780D03*
X0175370Y0052213D03*
X0175465Y0052276D03*
X0174551Y0048339D03*
X0173827Y0048276D03*
X0173795Y0048244D03*
X0171717Y0046512D03*
X0170205Y0046512D03*
X0170205Y0044339D03*
X0171874Y0044307D03*
X0171717Y0038890D03*
X0173764Y0038858D03*
X0174551Y0038984D03*
X0171717Y0034386D03*
X0170205Y0034386D03*
X0162457Y0037693D03*
X0155654Y0041409D03*
X0155654Y0047677D03*
X0162457Y0051394D03*
X0164744Y0104780D03*
X0164713Y0104811D03*
X0163012Y0104874D03*
X0162980Y0104874D03*
X0159799Y0105819D03*
X0154980Y0106890D03*
X0154949Y0106890D03*
X0154854Y0106921D03*
X0154823Y0106953D03*
X0153406Y0108559D03*
X0157028Y0110512D03*
X0157059Y0110480D03*
X0171579Y0106858D03*
X0171642Y0106890D03*
X0173217Y0108654D03*
D36*
X0170319Y0107331D03*
X0167705Y0106228D03*
X0156177Y0107331D03*
X0159106Y0094984D03*
X0156209Y0093567D03*
X0167705Y0094669D03*
X0170319Y0093567D03*
X0171185Y0086642D03*
X0171217Y0086642D03*
X0172728Y0084406D03*
X0174933Y0077665D03*
D37*
X0171563Y0073776D03*
X0171531Y0073776D03*
X0171311Y0073713D03*
X0171280Y0073713D03*
X0171248Y0073713D03*
X0170902Y0073650D03*
X0170870Y0073650D03*
X0170839Y0073650D03*
X0170807Y0073650D03*
X0170776Y0073650D03*
X0170744Y0073650D03*
X0170713Y0073650D03*
X0170681Y0073650D03*
X0170650Y0073650D03*
X0170618Y0073650D03*
X0170587Y0073650D03*
X0170555Y0073650D03*
X0170524Y0073650D03*
X0170492Y0073650D03*
X0170461Y0073650D03*
X0170335Y0073650D03*
X0170303Y0073650D03*
X0170272Y0073650D03*
X0170240Y0073650D03*
X0170209Y0073650D03*
X0170177Y0073650D03*
X0170146Y0073650D03*
X0170114Y0073650D03*
X0170083Y0073650D03*
X0170051Y0073650D03*
X0170020Y0073650D03*
X0169988Y0073650D03*
X0169925Y0073681D03*
X0169894Y0073681D03*
X0169862Y0073681D03*
X0167752Y0080043D03*
X0174933Y0083665D03*
X0169689Y0090276D03*
X0169657Y0090307D03*
X0164240Y0095976D03*
X0164083Y0095945D03*
X0164051Y0095945D03*
X0164020Y0095945D03*
X0163988Y0095945D03*
X0163957Y0095945D03*
X0163925Y0095945D03*
X0163894Y0095945D03*
X0163862Y0095945D03*
X0163831Y0095945D03*
X0163799Y0095945D03*
X0163642Y0095945D03*
X0163610Y0095945D03*
X0163579Y0095945D03*
X0163547Y0095945D03*
X0163516Y0095945D03*
X0163484Y0095945D03*
X0163453Y0095945D03*
X0163421Y0095945D03*
X0163390Y0095945D03*
X0169626Y0098339D03*
X0169626Y0100449D03*
X0164303Y0104921D03*
X0164114Y0104953D03*
X0164083Y0104953D03*
X0164051Y0104953D03*
X0164020Y0104953D03*
X0163988Y0104953D03*
X0163957Y0104953D03*
X0163925Y0104953D03*
X0163862Y0104984D03*
X0163831Y0104984D03*
X0163799Y0104984D03*
X0163768Y0104984D03*
X0163736Y0104984D03*
X0163705Y0104984D03*
X0163673Y0104984D03*
X0163642Y0104984D03*
X0163610Y0104984D03*
X0163579Y0104984D03*
X0169689Y0110622D03*
X0156870Y0110622D03*
X0156839Y0110654D03*
X0167594Y0061461D03*
X0167626Y0061461D03*
X0167657Y0061461D03*
X0167689Y0061461D03*
X0167720Y0061461D03*
X0167752Y0061461D03*
X0167783Y0061461D03*
X0167815Y0061461D03*
X0167846Y0061461D03*
X0167878Y0061461D03*
X0167909Y0061461D03*
X0167941Y0061461D03*
X0167972Y0061461D03*
X0168004Y0061461D03*
X0168035Y0061461D03*
X0168067Y0061461D03*
X0168098Y0061461D03*
X0168130Y0061461D03*
X0168161Y0061461D03*
X0168193Y0061461D03*
X0168224Y0061461D03*
X0168256Y0061461D03*
X0168287Y0061461D03*
X0168319Y0061461D03*
X0168350Y0061461D03*
X0168382Y0061461D03*
X0168413Y0061461D03*
X0168445Y0061461D03*
X0168476Y0061461D03*
X0168508Y0061461D03*
X0168539Y0061461D03*
X0168571Y0061461D03*
X0168602Y0061461D03*
X0168634Y0061461D03*
X0168665Y0061461D03*
X0168697Y0061461D03*
X0168728Y0061461D03*
X0168760Y0061461D03*
X0168791Y0061461D03*
X0168823Y0061461D03*
X0168854Y0061461D03*
X0168886Y0061461D03*
X0168917Y0061461D03*
X0168949Y0061461D03*
X0168980Y0061461D03*
X0169012Y0061461D03*
X0169043Y0061461D03*
X0169075Y0061461D03*
X0169106Y0061461D03*
X0169138Y0061461D03*
X0169169Y0061461D03*
X0169201Y0061461D03*
X0169232Y0061461D03*
X0169264Y0061461D03*
X0169295Y0061461D03*
X0169327Y0061461D03*
X0169358Y0061461D03*
X0169390Y0061461D03*
X0169421Y0061461D03*
X0169453Y0061461D03*
X0169484Y0061461D03*
X0169516Y0061461D03*
X0169547Y0061461D03*
X0169579Y0061461D03*
X0169610Y0061461D03*
X0169642Y0061461D03*
X0169673Y0061461D03*
X0169705Y0061461D03*
X0169736Y0061461D03*
X0169768Y0061461D03*
X0169799Y0061461D03*
X0169831Y0061461D03*
X0169862Y0061461D03*
X0169894Y0061461D03*
X0169925Y0061461D03*
X0169957Y0061461D03*
X0169988Y0061461D03*
X0170020Y0061461D03*
X0170051Y0061461D03*
X0170083Y0061461D03*
X0170114Y0061461D03*
X0170146Y0061461D03*
X0170177Y0061461D03*
X0170209Y0061461D03*
X0170240Y0061461D03*
X0170272Y0061461D03*
X0170303Y0061461D03*
X0170335Y0061461D03*
X0170366Y0061461D03*
X0170398Y0061461D03*
X0170429Y0061461D03*
X0170461Y0061461D03*
X0170492Y0061461D03*
X0170524Y0061461D03*
X0170555Y0061461D03*
X0170587Y0061461D03*
X0170618Y0061461D03*
X0170650Y0061461D03*
X0170681Y0061461D03*
X0170713Y0061461D03*
X0170744Y0061461D03*
X0170776Y0061461D03*
X0170807Y0061461D03*
X0170839Y0061461D03*
X0170870Y0061461D03*
X0170902Y0061461D03*
X0170933Y0061461D03*
X0170965Y0061461D03*
X0170996Y0061461D03*
X0171028Y0061461D03*
X0171059Y0061461D03*
X0171091Y0061461D03*
X0171122Y0061461D03*
X0171154Y0061461D03*
X0171185Y0061461D03*
X0171217Y0061461D03*
X0171248Y0061461D03*
X0171280Y0061461D03*
X0171311Y0061461D03*
X0171343Y0061461D03*
X0171374Y0061461D03*
X0171406Y0061461D03*
X0171437Y0061461D03*
X0171469Y0061461D03*
X0171500Y0061461D03*
X0171531Y0061461D03*
X0171563Y0061461D03*
X0171594Y0061461D03*
X0171626Y0061461D03*
X0171657Y0061461D03*
X0171874Y0054780D03*
X0170110Y0054717D03*
X0173764Y0052197D03*
X0173764Y0050370D03*
X0170079Y0050969D03*
X0171811Y0046528D03*
X0171024Y0044480D03*
X0170992Y0044449D03*
X0170866Y0044323D03*
X0171937Y0044323D03*
X0173732Y0041016D03*
X0171874Y0038937D03*
X0170110Y0038874D03*
X0162488Y0037803D03*
X0159654Y0037929D03*
X0158362Y0044543D03*
X0159654Y0051157D03*
X0162488Y0051283D03*
D38*
X0162583Y0051000D03*
X0166583Y0047945D03*
X0167622Y0049709D03*
X0170016Y0051252D03*
X0169984Y0051283D03*
X0173575Y0052197D03*
X0172031Y0054780D03*
X0173295Y0056579D03*
X0155811Y0047756D03*
X0155811Y0041331D03*
X0162583Y0038087D03*
X0167622Y0039378D03*
X0166583Y0041142D03*
X0169953Y0041268D03*
X0173638Y0041331D03*
X0173669Y0041299D03*
X0175622Y0042654D03*
X0173606Y0036795D03*
X0169953Y0036795D03*
X0170161Y0089961D03*
X0174933Y0090217D03*
X0166602Y0094937D03*
X0158823Y0092228D03*
X0156366Y0089961D03*
X0166602Y0105961D03*
X0170161Y0110937D03*
X0158823Y0108669D03*
X0156398Y0110937D03*
D39*
X0156209Y0107346D03*
X0159106Y0105929D03*
X0162319Y0100449D03*
X0156240Y0093551D03*
X0170256Y0093551D03*
X0170287Y0093551D03*
X0172665Y0084421D03*
X0172697Y0084421D03*
X0167374Y0075602D03*
X0168476Y0068043D03*
X0174902Y0058626D03*
X0158677Y0044543D03*
X0170287Y0107346D03*
D40*
X0171610Y0106874D03*
X0167831Y0108669D03*
X0169469Y0110465D03*
X0169500Y0110496D03*
X0166949Y0106055D03*
X0164681Y0104827D03*
X0164650Y0104827D03*
X0163075Y0104890D03*
X0163043Y0104890D03*
X0159831Y0105803D03*
X0154917Y0106874D03*
X0154886Y0106906D03*
X0156996Y0110528D03*
X0169531Y0102591D03*
X0169531Y0100449D03*
X0169531Y0098339D03*
X0166949Y0094843D03*
X0164713Y0096102D03*
X0164650Y0096071D03*
X0163075Y0096008D03*
X0163043Y0096008D03*
X0167831Y0092228D03*
X0169531Y0090402D03*
X0171579Y0094055D03*
X0157028Y0090402D03*
X0156996Y0090370D03*
X0154949Y0094024D03*
X0154917Y0094024D03*
X0154886Y0093992D03*
X0157846Y0100449D03*
X0174744Y0083728D03*
X0174776Y0083728D03*
X0172161Y0074028D03*
X0172130Y0074028D03*
X0172035Y0073965D03*
X0172004Y0073965D03*
X0169264Y0073839D03*
X0169075Y0073902D03*
X0168917Y0073965D03*
X0172193Y0070500D03*
X0172224Y0070500D03*
X0172161Y0070469D03*
X0172130Y0070469D03*
X0172098Y0070437D03*
X0171972Y0070374D03*
X0171941Y0070374D03*
X0171909Y0070343D03*
X0171878Y0070343D03*
X0171846Y0070311D03*
X0171689Y0070248D03*
X0173736Y0071193D03*
X0174807Y0064327D03*
X0174839Y0064295D03*
X0174870Y0064295D03*
X0174902Y0064264D03*
X0172602Y0061272D03*
X0172571Y0061272D03*
X0171811Y0054780D03*
X0170205Y0054717D03*
X0170110Y0052795D03*
X0173858Y0052197D03*
X0173858Y0048291D03*
X0173732Y0048228D03*
X0171748Y0046528D03*
X0170173Y0046528D03*
X0170047Y0044417D03*
X0170205Y0038874D03*
X0171811Y0038937D03*
X0173732Y0038843D03*
X0173827Y0038906D03*
X0173858Y0038937D03*
X0174520Y0039000D03*
X0171748Y0034370D03*
X0170173Y0034370D03*
X0160126Y0036701D03*
X0159685Y0037835D03*
X0154772Y0039409D03*
X0154772Y0049677D03*
X0159685Y0051252D03*
X0160126Y0052386D03*
X0162142Y0052386D03*
D41*
X0167563Y0060563D03*
X0174839Y0058610D03*
X0168823Y0068059D03*
X0168791Y0068059D03*
X0174902Y0077665D03*
X0170004Y0093441D03*
X0162256Y0100465D03*
X0170004Y0107457D03*
X0156524Y0093441D03*
D42*
X0158791Y0092244D03*
X0156650Y0090134D03*
X0159988Y0095142D03*
X0169846Y0090165D03*
X0174902Y0090075D03*
X0169689Y0100465D03*
X0169689Y0102575D03*
X0166760Y0106008D03*
X0169846Y0110732D03*
X0169878Y0110764D03*
X0169984Y0052780D03*
X0174425Y0048496D03*
X0171906Y0046512D03*
X0170016Y0046512D03*
X0170772Y0044181D03*
X0170016Y0038858D03*
X0167496Y0039394D03*
X0162520Y0037882D03*
X0159622Y0038008D03*
X0155276Y0042449D03*
X0155244Y0042512D03*
X0155244Y0046575D03*
X0154646Y0049693D03*
X0159622Y0051079D03*
X0174425Y0039142D03*
X0171906Y0034386D03*
X0170016Y0034386D03*
D43*
X0174870Y0058610D03*
X0172476Y0084500D03*
X0172445Y0084500D03*
X0172413Y0084500D03*
X0171343Y0086642D03*
X0170067Y0093441D03*
X0164020Y0100465D03*
X0170067Y0107457D03*
X0156429Y0107457D03*
X0156398Y0107425D03*
X0156398Y0093472D03*
D44*
X0156555Y0093457D03*
X0158917Y0094969D03*
X0169972Y0093457D03*
X0171500Y0086657D03*
X0174870Y0077650D03*
X0168886Y0068043D03*
X0167406Y0060516D03*
X0167374Y0060516D03*
X0167343Y0060516D03*
X0158917Y0105929D03*
X0156555Y0107472D03*
D45*
X0159925Y0105772D03*
X0156776Y0110685D03*
X0166823Y0106024D03*
X0173248Y0108669D03*
X0169752Y0110685D03*
X0169720Y0110654D03*
X0169657Y0100449D03*
X0169657Y0098339D03*
X0166823Y0094874D03*
X0173248Y0092260D03*
X0174870Y0090028D03*
X0169752Y0090244D03*
X0159925Y0095126D03*
X0153343Y0092260D03*
X0156776Y0090213D03*
X0173075Y0080327D03*
X0173453Y0056705D03*
X0171906Y0054780D03*
X0170079Y0054717D03*
X0173732Y0052197D03*
X0175559Y0052260D03*
X0173827Y0050339D03*
X0173638Y0048228D03*
X0170047Y0046528D03*
X0171055Y0044512D03*
X0170803Y0044228D03*
X0173827Y0040984D03*
X0171906Y0038937D03*
X0170079Y0038874D03*
X0160157Y0036606D03*
X0155717Y0041362D03*
X0170142Y0050937D03*
X0160157Y0052480D03*
D46*
X0167028Y0060437D03*
X0173705Y0065791D03*
X0174839Y0077665D03*
X0169878Y0093472D03*
X0158854Y0105945D03*
D47*
X0158760Y0108669D03*
X0163169Y0104921D03*
X0163201Y0104921D03*
X0163327Y0104953D03*
X0164461Y0104890D03*
X0164492Y0104890D03*
X0164555Y0104858D03*
X0166917Y0106055D03*
X0169594Y0110559D03*
X0169594Y0098339D03*
X0164555Y0096039D03*
X0164524Y0096039D03*
X0164461Y0096008D03*
X0164429Y0096008D03*
X0163232Y0095976D03*
X0163201Y0095976D03*
X0156933Y0090339D03*
X0156902Y0090307D03*
X0169563Y0090370D03*
X0169594Y0090339D03*
X0174807Y0083697D03*
X0174839Y0083697D03*
X0173138Y0080295D03*
X0167720Y0080043D03*
X0169421Y0073776D03*
X0169453Y0073776D03*
X0169484Y0073744D03*
X0169516Y0073744D03*
X0169547Y0073744D03*
X0169579Y0073744D03*
X0169610Y0073744D03*
X0171406Y0073744D03*
X0171720Y0073839D03*
X0171752Y0073870D03*
X0171783Y0073870D03*
X0171815Y0073870D03*
X0171846Y0073870D03*
X0171909Y0073902D03*
X0171909Y0061429D03*
X0171878Y0061429D03*
X0171941Y0061429D03*
X0171972Y0061429D03*
X0172004Y0061429D03*
X0172035Y0061429D03*
X0172130Y0061398D03*
X0172161Y0061398D03*
X0172193Y0061398D03*
X0172256Y0061366D03*
X0171843Y0054780D03*
X0170142Y0054717D03*
X0170079Y0052795D03*
X0173795Y0052197D03*
X0173827Y0052197D03*
X0173701Y0050402D03*
X0173701Y0048228D03*
X0171780Y0046528D03*
X0170142Y0046528D03*
X0170142Y0038874D03*
X0171843Y0038937D03*
X0174488Y0039031D03*
X0171780Y0034370D03*
X0155685Y0041394D03*
X0154740Y0039409D03*
X0155685Y0047693D03*
X0154740Y0049677D03*
D48*
X0167311Y0060500D03*
X0174807Y0058610D03*
X0171531Y0086642D03*
X0156587Y0107457D03*
D49*
X0158791Y0105945D03*
X0169815Y0107425D03*
X0158791Y0094953D03*
X0169815Y0093472D03*
X0174807Y0077665D03*
X0166776Y0060374D03*
X0166744Y0060374D03*
X0166713Y0060374D03*
D50*
X0172224Y0061382D03*
X0172287Y0061350D03*
X0172319Y0061350D03*
X0172350Y0061350D03*
X0172382Y0061319D03*
X0172413Y0061319D03*
X0172445Y0061319D03*
X0172476Y0061319D03*
X0172508Y0061287D03*
X0172539Y0061287D03*
X0170173Y0054701D03*
X0171811Y0052780D03*
X0175496Y0052276D03*
X0174520Y0048370D03*
X0171906Y0044307D03*
X0170173Y0038858D03*
X0173701Y0038858D03*
X0170142Y0034386D03*
X0162142Y0036685D03*
X0169358Y0073791D03*
X0169390Y0073791D03*
X0169327Y0073823D03*
X0169295Y0073823D03*
X0169232Y0073854D03*
X0169201Y0073854D03*
X0169169Y0073854D03*
X0169138Y0073886D03*
X0169106Y0073886D03*
X0171878Y0073886D03*
X0171941Y0073917D03*
X0171972Y0073917D03*
X0172067Y0073980D03*
X0172098Y0073980D03*
X0167689Y0080028D03*
X0174807Y0089949D03*
X0166917Y0094858D03*
X0164618Y0096055D03*
X0164587Y0096055D03*
X0163169Y0095992D03*
X0163138Y0095992D03*
X0163106Y0095992D03*
X0159831Y0095110D03*
X0158760Y0092244D03*
X0156965Y0090354D03*
X0153374Y0092276D03*
X0169563Y0098354D03*
X0169563Y0100465D03*
X0169563Y0102575D03*
X0164618Y0104843D03*
X0164587Y0104843D03*
X0164524Y0104874D03*
X0163138Y0104906D03*
X0163106Y0104906D03*
X0156965Y0110543D03*
X0156933Y0110575D03*
X0153374Y0108622D03*
X0169531Y0110512D03*
X0169563Y0110543D03*
D51*
X0156681Y0107441D03*
X0158130Y0100449D03*
X0162193Y0100449D03*
X0164114Y0100449D03*
X0156681Y0093457D03*
X0166807Y0060390D03*
X0174776Y0058594D03*
D52*
X0174681Y0058579D03*
X0166177Y0060248D03*
X0166146Y0060248D03*
X0174776Y0077665D03*
X0166791Y0098008D03*
X0166823Y0098039D03*
X0166854Y0098039D03*
X0166917Y0098071D03*
X0166949Y0102795D03*
X0166917Y0102827D03*
X0166886Y0102827D03*
X0166854Y0102858D03*
D53*
X0169783Y0107425D03*
X0158760Y0105945D03*
X0158760Y0094953D03*
X0169783Y0093472D03*
X0166209Y0077665D03*
X0166555Y0060343D03*
X0166587Y0060343D03*
X0174744Y0058579D03*
D54*
X0174744Y0077665D03*
X0166571Y0097945D03*
X0166571Y0102953D03*
X0166602Y0102953D03*
X0156870Y0107425D03*
D55*
X0155043Y0106906D03*
X0154728Y0107031D03*
X0154697Y0107063D03*
X0162791Y0104795D03*
X0164870Y0104732D03*
X0164902Y0104701D03*
X0167012Y0106087D03*
X0169437Y0102591D03*
X0169437Y0100449D03*
X0169437Y0098339D03*
X0169469Y0098339D03*
X0164902Y0096197D03*
X0162823Y0096102D03*
X0163169Y0100449D03*
X0155043Y0093992D03*
X0154665Y0093835D03*
X0153469Y0092480D03*
X0167941Y0088264D03*
X0168130Y0088138D03*
X0168287Y0088043D03*
X0168319Y0088012D03*
X0168350Y0087980D03*
X0168508Y0087886D03*
X0168539Y0087854D03*
X0168634Y0087791D03*
X0168697Y0087760D03*
X0168854Y0087634D03*
X0168886Y0087602D03*
X0168917Y0087602D03*
X0169012Y0087539D03*
X0169043Y0087508D03*
X0169075Y0087508D03*
X0169138Y0087445D03*
X0169201Y0087413D03*
X0169232Y0087382D03*
X0169264Y0087350D03*
X0169358Y0087287D03*
X0169421Y0087256D03*
X0169453Y0087224D03*
X0169547Y0087161D03*
X0169579Y0087161D03*
X0169642Y0087098D03*
X0169705Y0087067D03*
X0169736Y0087035D03*
X0169831Y0086972D03*
X0169862Y0086941D03*
X0169925Y0086909D03*
X0169988Y0086846D03*
X0170020Y0086846D03*
X0170051Y0086815D03*
X0170146Y0086752D03*
X0170209Y0086720D03*
X0170240Y0086689D03*
X0170272Y0086657D03*
X0170303Y0086657D03*
X0171626Y0085744D03*
X0171657Y0085713D03*
X0171689Y0085713D03*
X0171783Y0085650D03*
X0171815Y0085618D03*
X0171846Y0085618D03*
X0171972Y0085524D03*
X0172004Y0085492D03*
X0172035Y0085461D03*
X0172067Y0085461D03*
X0172130Y0085398D03*
X0172161Y0085398D03*
X0172193Y0085366D03*
X0174555Y0083791D03*
X0173232Y0080264D03*
X0173201Y0080264D03*
X0172602Y0074280D03*
X0172539Y0074248D03*
X0172508Y0074217D03*
X0168634Y0074122D03*
X0168571Y0074154D03*
X0168539Y0074185D03*
X0168508Y0074185D03*
X0168476Y0074217D03*
X0170177Y0069492D03*
X0170114Y0069461D03*
X0170083Y0069429D03*
X0169925Y0069366D03*
X0169894Y0069366D03*
X0169862Y0069335D03*
X0169831Y0069303D03*
X0169799Y0069303D03*
X0169673Y0069240D03*
X0169642Y0069240D03*
X0169610Y0069209D03*
X0169579Y0069177D03*
X0169547Y0069177D03*
X0169453Y0069114D03*
X0169421Y0069114D03*
X0169295Y0069051D03*
X0169264Y0069051D03*
X0169232Y0069020D03*
X0169201Y0068988D03*
X0169169Y0068988D03*
X0169043Y0068925D03*
X0169012Y0068925D03*
X0168917Y0068862D03*
X0171343Y0066028D03*
X0171752Y0065839D03*
X0171815Y0065807D03*
X0172004Y0065713D03*
X0172035Y0065713D03*
X0172067Y0065681D03*
X0172098Y0065681D03*
X0172130Y0065650D03*
X0172287Y0065587D03*
X0172319Y0065587D03*
X0172350Y0065555D03*
X0172382Y0065524D03*
X0172413Y0065524D03*
X0173012Y0061083D03*
X0173547Y0056799D03*
X0171843Y0048890D03*
X0174646Y0048291D03*
X0175528Y0048291D03*
X0175559Y0048291D03*
X0175496Y0042874D03*
X0173732Y0042874D03*
X0170079Y0041047D03*
X0174646Y0038937D03*
X0175559Y0038937D03*
X0173732Y0036575D03*
X0171843Y0036575D03*
X0170079Y0036575D03*
X0158394Y0044543D03*
X0174744Y0089870D03*
X0171484Y0094024D03*
X0171484Y0106874D03*
X0171736Y0106969D03*
X0171768Y0107000D03*
D56*
X0169720Y0107425D03*
X0162161Y0100465D03*
X0166240Y0077665D03*
X0166272Y0060280D03*
X0174713Y0058579D03*
D57*
X0174713Y0077665D03*
X0169594Y0093504D03*
X0166476Y0097913D03*
X0166445Y0097913D03*
X0166445Y0102984D03*
X0166476Y0102984D03*
D58*
X0164965Y0104669D03*
X0162728Y0104764D03*
X0159705Y0105835D03*
X0155075Y0106906D03*
X0154571Y0107157D03*
X0154539Y0107189D03*
X0154508Y0107220D03*
X0153531Y0108323D03*
X0163012Y0100449D03*
X0163043Y0100449D03*
X0163295Y0100449D03*
X0163327Y0100449D03*
X0163358Y0100449D03*
X0162697Y0096165D03*
X0162728Y0096134D03*
X0167043Y0094811D03*
X0171453Y0094024D03*
X0171862Y0093835D03*
X0171894Y0093803D03*
X0174713Y0089839D03*
X0172854Y0088327D03*
X0172665Y0088201D03*
X0172634Y0088201D03*
X0172602Y0088169D03*
X0172571Y0088138D03*
X0172508Y0088106D03*
X0172476Y0088075D03*
X0172445Y0088075D03*
X0172413Y0088043D03*
X0172382Y0088043D03*
X0172350Y0087980D03*
X0172319Y0087980D03*
X0172287Y0087949D03*
X0172256Y0087949D03*
X0172224Y0087917D03*
X0172161Y0087886D03*
X0172130Y0087854D03*
X0172098Y0087823D03*
X0172067Y0087823D03*
X0172004Y0087791D03*
X0171941Y0087728D03*
X0171878Y0087697D03*
X0171689Y0087571D03*
X0168413Y0087949D03*
X0168224Y0088075D03*
X0168035Y0088201D03*
X0167846Y0088327D03*
X0167500Y0088579D03*
X0167469Y0088579D03*
X0167406Y0088642D03*
X0167311Y0088705D03*
X0167217Y0088768D03*
X0167154Y0088831D03*
X0167122Y0088831D03*
X0167059Y0088862D03*
X0166996Y0088925D03*
X0166933Y0088957D03*
X0166902Y0088988D03*
X0166839Y0089020D03*
X0166807Y0089051D03*
X0166776Y0089083D03*
X0166744Y0089083D03*
X0166650Y0089177D03*
X0166587Y0089209D03*
X0166555Y0089209D03*
X0166524Y0089240D03*
X0166492Y0089272D03*
X0166429Y0089303D03*
X0166398Y0089335D03*
X0166366Y0089335D03*
X0166335Y0089366D03*
X0166303Y0089398D03*
X0166272Y0089429D03*
X0166240Y0089461D03*
X0166209Y0089461D03*
X0166177Y0089461D03*
X0166146Y0089524D03*
X0166114Y0089524D03*
X0174429Y0083823D03*
X0174461Y0083823D03*
X0172728Y0074374D03*
X0172697Y0074374D03*
X0172665Y0074343D03*
X0168445Y0074248D03*
X0168413Y0074248D03*
X0168382Y0074280D03*
X0167248Y0068075D03*
X0174240Y0064673D03*
X0173075Y0061051D03*
X0173138Y0060988D03*
X0173169Y0060988D03*
X0173201Y0060957D03*
X0159717Y0051346D03*
X0155622Y0047661D03*
X0155622Y0041425D03*
X0159717Y0037740D03*
X0166677Y0041394D03*
X0170173Y0041079D03*
X0171811Y0044291D03*
X0173827Y0042843D03*
X0173858Y0042843D03*
X0175370Y0042843D03*
X0175402Y0042843D03*
X0175465Y0038906D03*
X0175496Y0038906D03*
X0174709Y0038906D03*
X0173858Y0036606D03*
X0173827Y0036606D03*
X0171748Y0036606D03*
X0171717Y0036606D03*
X0170205Y0036606D03*
X0170173Y0036606D03*
X0166677Y0047693D03*
X0171748Y0048858D03*
X0174740Y0048260D03*
X0175433Y0048260D03*
X0175465Y0048260D03*
X0153531Y0092575D03*
X0154539Y0093709D03*
X0154571Y0093740D03*
X0154602Y0093772D03*
X0155075Y0093992D03*
X0169374Y0098339D03*
X0169406Y0098339D03*
X0169406Y0100449D03*
X0169374Y0100449D03*
X0167043Y0106087D03*
X0171862Y0107063D03*
X0171894Y0107094D03*
X0171925Y0107126D03*
X0173122Y0108480D03*
D59*
X0166224Y0103047D03*
X0166224Y0097882D03*
X0166256Y0097882D03*
X0166287Y0097882D03*
X0169531Y0093504D03*
X0174681Y0077665D03*
D60*
X0172760Y0074421D03*
X0168350Y0074295D03*
X0168319Y0074358D03*
X0168287Y0074358D03*
X0168256Y0074390D03*
X0165925Y0077665D03*
X0167626Y0079965D03*
X0172539Y0088122D03*
X0172697Y0088217D03*
X0172728Y0088248D03*
X0172760Y0088280D03*
X0172791Y0088311D03*
X0172823Y0088311D03*
X0174681Y0089823D03*
X0173122Y0092433D03*
X0171957Y0093756D03*
X0171925Y0093787D03*
X0171421Y0094008D03*
X0164965Y0096244D03*
X0162665Y0096181D03*
X0162634Y0096181D03*
X0159705Y0095079D03*
X0155106Y0093976D03*
X0154508Y0093693D03*
X0154476Y0093661D03*
X0154445Y0093630D03*
X0153563Y0092622D03*
X0162980Y0100465D03*
X0163390Y0100465D03*
X0162634Y0104717D03*
X0162665Y0104748D03*
X0162697Y0104748D03*
X0167075Y0106102D03*
X0169343Y0102575D03*
X0169374Y0102575D03*
X0171421Y0106890D03*
X0155106Y0106921D03*
X0153563Y0108276D03*
X0167280Y0068059D03*
X0174177Y0064720D03*
X0174209Y0064689D03*
X0173232Y0060941D03*
X0171717Y0048843D03*
X0171685Y0048843D03*
X0174772Y0048244D03*
X0175370Y0048244D03*
X0175402Y0048244D03*
X0175339Y0042827D03*
X0173890Y0042827D03*
X0170236Y0041094D03*
X0170205Y0041094D03*
X0166709Y0041346D03*
X0170236Y0036622D03*
X0171685Y0036622D03*
X0173890Y0036622D03*
X0174740Y0038890D03*
X0174772Y0038890D03*
X0175402Y0038890D03*
X0175433Y0038890D03*
X0166709Y0047740D03*
D61*
X0174650Y0058563D03*
X0156933Y0093488D03*
X0166382Y0097898D03*
X0166413Y0097898D03*
X0164209Y0100449D03*
X0166382Y0103000D03*
X0166413Y0103000D03*
X0169594Y0107409D03*
X0156933Y0107409D03*
D62*
X0165878Y0103079D03*
X0165909Y0103079D03*
X0165941Y0103079D03*
X0165941Y0097850D03*
X0165972Y0097850D03*
X0157059Y0093504D03*
X0166366Y0077665D03*
X0174650Y0077665D03*
D63*
X0173264Y0080232D03*
X0174272Y0083886D03*
X0170429Y0086657D03*
X0173106Y0088516D03*
X0173138Y0088547D03*
X0173169Y0088579D03*
X0174650Y0089776D03*
X0173028Y0092575D03*
X0172996Y0092638D03*
X0172177Y0093551D03*
X0172146Y0093583D03*
X0172114Y0093614D03*
X0172083Y0093646D03*
X0171358Y0093992D03*
X0169280Y0098339D03*
X0169248Y0098339D03*
X0169217Y0098339D03*
X0169217Y0100449D03*
X0169248Y0100449D03*
X0169248Y0102591D03*
X0169217Y0102591D03*
X0167138Y0106118D03*
X0165091Y0104575D03*
X0162539Y0104669D03*
X0159642Y0105835D03*
X0155169Y0106937D03*
X0153783Y0107976D03*
X0153752Y0108008D03*
X0153720Y0108071D03*
X0153689Y0108102D03*
X0162886Y0100449D03*
X0163484Y0100449D03*
X0162539Y0096228D03*
X0159642Y0095063D03*
X0155169Y0093961D03*
X0154287Y0093488D03*
X0154256Y0093457D03*
X0154224Y0093425D03*
X0154193Y0093394D03*
X0153752Y0092890D03*
X0153720Y0092858D03*
X0153657Y0092764D03*
X0172114Y0107283D03*
X0172146Y0107315D03*
X0172177Y0107346D03*
X0173028Y0108323D03*
X0172949Y0074563D03*
X0172917Y0074563D03*
X0172886Y0074531D03*
X0168098Y0074500D03*
X0168067Y0074531D03*
X0167374Y0068043D03*
X0174114Y0064799D03*
X0173358Y0060862D03*
X0173327Y0060862D03*
X0170772Y0054717D03*
X0174425Y0052197D03*
X0174457Y0052197D03*
X0174488Y0052197D03*
X0174772Y0052197D03*
X0171717Y0044291D03*
X0162205Y0036858D03*
X0160063Y0036858D03*
X0159748Y0037646D03*
X0158425Y0044543D03*
X0159748Y0051441D03*
X0162205Y0052228D03*
D64*
X0174618Y0058563D03*
X0166303Y0077681D03*
X0156965Y0093488D03*
X0166319Y0097898D03*
X0162130Y0100449D03*
X0158256Y0100449D03*
X0166256Y0103031D03*
X0166287Y0103031D03*
X0169563Y0107409D03*
X0156965Y0107409D03*
D65*
X0165720Y0103079D03*
X0164303Y0100465D03*
X0165752Y0097819D03*
X0174618Y0077665D03*
D66*
X0172476Y0074201D03*
X0168697Y0074075D03*
X0168665Y0074106D03*
X0168602Y0074138D03*
X0170713Y0069760D03*
X0170650Y0069728D03*
X0170555Y0069665D03*
X0170461Y0069634D03*
X0170398Y0069602D03*
X0170366Y0069602D03*
X0170335Y0069571D03*
X0170303Y0069539D03*
X0170272Y0069539D03*
X0170209Y0069508D03*
X0170146Y0069476D03*
X0170051Y0069413D03*
X0170020Y0069413D03*
X0169957Y0069382D03*
X0169768Y0069287D03*
X0169736Y0069287D03*
X0169705Y0069256D03*
X0169516Y0069161D03*
X0169484Y0069161D03*
X0170807Y0069791D03*
X0167154Y0068059D03*
X0167122Y0068059D03*
X0167059Y0068028D03*
X0170303Y0066516D03*
X0170398Y0066484D03*
X0170461Y0066453D03*
X0170492Y0066421D03*
X0170555Y0066390D03*
X0170681Y0066358D03*
X0170776Y0066295D03*
X0170839Y0066264D03*
X0170933Y0066232D03*
X0170965Y0066232D03*
X0170996Y0066201D03*
X0171028Y0066169D03*
X0171059Y0066169D03*
X0171091Y0066138D03*
X0171185Y0066106D03*
X0171217Y0066106D03*
X0171248Y0066075D03*
X0171280Y0066043D03*
X0171311Y0066043D03*
X0171374Y0066012D03*
X0171469Y0065980D03*
X0171500Y0065949D03*
X0171531Y0065949D03*
X0171563Y0065917D03*
X0171594Y0065917D03*
X0171626Y0065886D03*
X0171657Y0065886D03*
X0171720Y0065854D03*
X0171783Y0065823D03*
X0171846Y0065791D03*
X0171878Y0065760D03*
X0171909Y0065760D03*
X0171972Y0065728D03*
X0172161Y0065634D03*
X0172193Y0065634D03*
X0172256Y0065602D03*
X0172445Y0065508D03*
X0172476Y0065508D03*
X0172508Y0065476D03*
X0174303Y0064594D03*
X0174335Y0064594D03*
X0174366Y0064563D03*
X0172917Y0061130D03*
X0172886Y0061130D03*
X0172980Y0061098D03*
X0171748Y0054764D03*
X0171717Y0052780D03*
X0171874Y0048906D03*
X0174614Y0048307D03*
X0175591Y0048307D03*
X0171843Y0044307D03*
X0170110Y0044402D03*
X0170047Y0041031D03*
X0171748Y0038921D03*
X0171874Y0036559D03*
X0170047Y0036559D03*
X0170236Y0034386D03*
X0173701Y0036559D03*
X0174614Y0038953D03*
X0173701Y0042890D03*
X0175528Y0042890D03*
X0167657Y0079996D03*
X0172224Y0085350D03*
X0170177Y0086736D03*
X0170114Y0086768D03*
X0169957Y0086894D03*
X0169799Y0086988D03*
X0169768Y0087020D03*
X0169610Y0087114D03*
X0169390Y0087272D03*
X0174587Y0083776D03*
X0174618Y0083776D03*
X0173185Y0092307D03*
X0171768Y0093913D03*
X0171736Y0093945D03*
X0171516Y0094039D03*
X0167012Y0094827D03*
X0164870Y0096181D03*
X0164839Y0096150D03*
X0164807Y0096150D03*
X0162854Y0096087D03*
X0159768Y0095079D03*
X0155012Y0094008D03*
X0154728Y0093882D03*
X0154697Y0093850D03*
X0162823Y0104811D03*
X0162854Y0104811D03*
X0164839Y0104748D03*
X0169469Y0102575D03*
X0169469Y0100465D03*
X0171516Y0106858D03*
X0171705Y0106953D03*
X0173185Y0108591D03*
X0159768Y0105819D03*
X0155012Y0106890D03*
X0153437Y0108496D03*
D67*
X0166098Y0103047D03*
X0166130Y0103047D03*
X0166161Y0103047D03*
X0169500Y0107394D03*
X0166130Y0097850D03*
X0174587Y0058547D03*
D68*
X0174587Y0077665D03*
X0165657Y0097819D03*
X0165626Y0103079D03*
D69*
X0165122Y0104543D03*
X0167169Y0106118D03*
X0168807Y0102591D03*
X0168839Y0102591D03*
X0169059Y0102591D03*
X0169091Y0102591D03*
X0169122Y0102591D03*
X0169122Y0100449D03*
X0169091Y0100449D03*
X0169059Y0100449D03*
X0169028Y0100449D03*
X0168996Y0100449D03*
X0168965Y0100449D03*
X0168933Y0100449D03*
X0168902Y0100449D03*
X0168870Y0100449D03*
X0168839Y0100449D03*
X0168807Y0100449D03*
X0169154Y0100449D03*
X0169154Y0098339D03*
X0169185Y0098339D03*
X0169122Y0098339D03*
X0169091Y0098339D03*
X0165122Y0096354D03*
X0167169Y0094780D03*
X0171264Y0093961D03*
X0171295Y0093961D03*
X0172272Y0093457D03*
X0172303Y0093425D03*
X0172902Y0092764D03*
X0174587Y0089744D03*
X0173264Y0088673D03*
X0174177Y0083917D03*
X0173327Y0080201D03*
X0173043Y0074657D03*
X0173012Y0074657D03*
X0168004Y0074594D03*
X0173390Y0060799D03*
X0173421Y0060768D03*
X0173453Y0060736D03*
X0173610Y0056894D03*
X0153909Y0093079D03*
X0155232Y0093961D03*
X0159610Y0095063D03*
X0162445Y0096291D03*
X0162823Y0100449D03*
X0162854Y0100449D03*
X0163547Y0100449D03*
X0162445Y0104606D03*
X0162476Y0104638D03*
X0157878Y0100449D03*
X0155232Y0106969D03*
X0153972Y0107756D03*
X0153941Y0107787D03*
X0153909Y0107819D03*
X0171295Y0106937D03*
X0172240Y0107409D03*
X0172272Y0107441D03*
X0172303Y0107472D03*
X0172335Y0107504D03*
X0172366Y0107535D03*
X0172870Y0108102D03*
X0172902Y0108134D03*
D70*
X0169469Y0107394D03*
X0166067Y0097850D03*
X0166035Y0097850D03*
X0174555Y0058547D03*
D71*
X0174555Y0077665D03*
X0165437Y0103079D03*
X0165406Y0103079D03*
D72*
X0165154Y0104528D03*
X0162413Y0104591D03*
X0159610Y0105850D03*
X0168870Y0102575D03*
X0168902Y0102575D03*
X0168933Y0102575D03*
X0168965Y0102575D03*
X0168996Y0102575D03*
X0169028Y0102575D03*
X0171264Y0106953D03*
X0172398Y0107551D03*
X0172429Y0107583D03*
X0172650Y0107835D03*
X0172681Y0107866D03*
X0172807Y0108024D03*
X0172839Y0108055D03*
X0169059Y0098354D03*
X0165154Y0096402D03*
X0172335Y0093409D03*
X0172366Y0093378D03*
X0172398Y0093346D03*
X0172429Y0093315D03*
X0172461Y0093283D03*
X0172492Y0093252D03*
X0172524Y0093220D03*
X0172713Y0093000D03*
X0172744Y0092969D03*
X0172776Y0092937D03*
X0172807Y0092874D03*
X0172839Y0092843D03*
X0172870Y0092811D03*
X0174555Y0089728D03*
X0170492Y0086673D03*
X0174114Y0083933D03*
X0174146Y0083933D03*
X0167563Y0079933D03*
X0167941Y0074642D03*
X0167972Y0074610D03*
X0173075Y0074705D03*
X0173106Y0074736D03*
X0167469Y0068059D03*
X0167437Y0068059D03*
X0174051Y0064878D03*
X0162362Y0051709D03*
X0155559Y0041441D03*
X0162362Y0037378D03*
X0155264Y0093945D03*
D73*
X0158350Y0100449D03*
X0165657Y0103094D03*
X0165689Y0103094D03*
X0165689Y0097835D03*
X0165720Y0097835D03*
X0174524Y0058531D03*
D74*
X0174398Y0058516D03*
X0174524Y0077665D03*
X0165248Y0097850D03*
X0164398Y0100465D03*
X0158445Y0100465D03*
D75*
X0162382Y0104559D03*
X0165185Y0104465D03*
X0167201Y0106134D03*
X0155327Y0106984D03*
X0162382Y0096339D03*
X0165185Y0096433D03*
X0171201Y0093945D03*
X0174524Y0089697D03*
X0173358Y0088752D03*
X0173358Y0080185D03*
X0173138Y0074768D03*
X0167909Y0074705D03*
X0167878Y0074736D03*
X0167846Y0074768D03*
X0165957Y0077665D03*
X0167563Y0068059D03*
X0174020Y0064941D03*
X0159780Y0037535D03*
X0155327Y0093913D03*
D76*
X0165594Y0097835D03*
X0165626Y0097835D03*
X0164335Y0100449D03*
X0165563Y0103094D03*
X0165594Y0103094D03*
X0174492Y0058531D03*
D77*
X0174492Y0077665D03*
X0166524Y0077665D03*
X0167862Y0093819D03*
D78*
X0167232Y0094780D03*
X0171169Y0093929D03*
X0174492Y0089681D03*
X0173390Y0088831D03*
X0170587Y0086657D03*
X0170555Y0086657D03*
X0173988Y0083980D03*
X0174020Y0083980D03*
X0173169Y0074815D03*
X0167815Y0074783D03*
X0173516Y0060642D03*
X0162236Y0052134D03*
X0160031Y0052134D03*
X0158457Y0044543D03*
X0160031Y0036953D03*
X0162236Y0036953D03*
X0159547Y0095031D03*
X0162350Y0096354D03*
X0162728Y0100449D03*
X0162760Y0100449D03*
X0163642Y0100449D03*
X0162350Y0104543D03*
X0159547Y0105866D03*
X0155358Y0107000D03*
X0167232Y0106150D03*
X0171169Y0106969D03*
X0171201Y0106969D03*
D79*
X0165500Y0103094D03*
X0165469Y0103094D03*
X0166949Y0098496D03*
X0165531Y0097835D03*
X0165500Y0097835D03*
X0158382Y0100449D03*
X0166429Y0077650D03*
X0174461Y0058531D03*
D80*
X0174461Y0077650D03*
X0167894Y0093772D03*
X0167894Y0107126D03*
D81*
X0171138Y0106984D03*
X0162319Y0096402D03*
X0155358Y0093913D03*
X0171138Y0093913D03*
X0174461Y0089665D03*
X0173957Y0083996D03*
X0173925Y0083996D03*
X0173894Y0083996D03*
X0173232Y0074862D03*
X0173201Y0074831D03*
X0167626Y0068059D03*
X0167594Y0068059D03*
X0173988Y0064972D03*
X0162331Y0051803D03*
X0155528Y0047614D03*
X0155528Y0041472D03*
X0162331Y0037283D03*
D82*
X0174429Y0058516D03*
X0166461Y0077665D03*
X0165374Y0097850D03*
X0164366Y0100465D03*
X0165343Y0103079D03*
X0165374Y0103079D03*
D83*
X0167925Y0107142D03*
X0167925Y0093756D03*
X0174429Y0077665D03*
D84*
X0173264Y0074941D03*
X0167783Y0074846D03*
X0167752Y0074878D03*
X0167531Y0079886D03*
X0174429Y0089650D03*
X0167264Y0094748D03*
X0159516Y0095031D03*
X0155390Y0093898D03*
X0162697Y0100449D03*
X0163673Y0100449D03*
X0162287Y0104480D03*
X0162319Y0104512D03*
X0159516Y0105866D03*
X0155390Y0107000D03*
X0167264Y0106150D03*
X0171106Y0107000D03*
X0167657Y0068043D03*
X0173547Y0060610D03*
D85*
X0174398Y0077650D03*
X0166618Y0077650D03*
X0164555Y0100449D03*
X0158571Y0100449D03*
D86*
X0162949Y0100449D03*
X0163421Y0100449D03*
X0162602Y0104701D03*
X0164996Y0104638D03*
X0169311Y0102591D03*
X0169311Y0100449D03*
X0169343Y0100449D03*
X0169343Y0098339D03*
X0169311Y0098339D03*
X0165028Y0096291D03*
X0164996Y0096260D03*
X0162602Y0096197D03*
X0159673Y0095063D03*
X0154413Y0093614D03*
X0153594Y0092669D03*
X0167075Y0094811D03*
X0171390Y0093992D03*
X0171988Y0093740D03*
X0172020Y0093709D03*
X0173091Y0092480D03*
X0173043Y0088484D03*
X0173012Y0088453D03*
X0172980Y0088421D03*
X0172917Y0088390D03*
X0172886Y0088358D03*
X0170398Y0086657D03*
X0170366Y0086657D03*
X0174366Y0083854D03*
X0174398Y0083854D03*
X0172854Y0074469D03*
X0172823Y0074469D03*
X0172791Y0074437D03*
X0168224Y0074406D03*
X0167311Y0068043D03*
X0173264Y0060894D03*
X0166740Y0047756D03*
X0171780Y0044291D03*
X0166740Y0041331D03*
X0175370Y0038874D03*
X0159673Y0105835D03*
X0155138Y0106937D03*
X0154476Y0107252D03*
X0154445Y0107283D03*
X0154413Y0107315D03*
X0153594Y0108228D03*
X0171390Y0106906D03*
X0171957Y0107157D03*
X0171988Y0107189D03*
X0173091Y0108417D03*
D87*
X0164429Y0100449D03*
X0158476Y0100449D03*
X0174366Y0058500D03*
D88*
X0174366Y0077665D03*
X0166650Y0077665D03*
X0164587Y0100465D03*
D89*
X0163705Y0100449D03*
X0162665Y0100449D03*
X0162256Y0104449D03*
X0159484Y0105866D03*
X0155453Y0107031D03*
X0157909Y0100449D03*
X0159484Y0095031D03*
X0155453Y0093866D03*
X0167295Y0094748D03*
X0171075Y0093898D03*
X0174366Y0089618D03*
X0173453Y0088925D03*
X0170681Y0086657D03*
X0170650Y0086657D03*
X0173799Y0084043D03*
X0173295Y0074972D03*
X0167720Y0074909D03*
X0167689Y0074941D03*
X0167689Y0068043D03*
X0173579Y0060579D03*
X0173642Y0056988D03*
X0162268Y0052039D03*
X0162299Y0051945D03*
X0158488Y0044543D03*
X0162299Y0037142D03*
X0162268Y0037047D03*
X0167295Y0106150D03*
X0171075Y0107000D03*
D90*
X0174335Y0058516D03*
D91*
X0174335Y0077665D03*
X0168020Y0093693D03*
X0158728Y0094102D03*
X0168020Y0107205D03*
D92*
X0167106Y0106102D03*
X0165059Y0104591D03*
X0165028Y0104622D03*
X0162571Y0104685D03*
X0162917Y0100465D03*
X0163453Y0100465D03*
X0162571Y0096213D03*
X0165059Y0096307D03*
X0167106Y0094795D03*
X0172051Y0093661D03*
X0173059Y0092528D03*
X0173075Y0088500D03*
X0172949Y0088406D03*
X0174303Y0083870D03*
X0174335Y0083870D03*
X0167594Y0079965D03*
X0168130Y0074484D03*
X0168161Y0074453D03*
X0168193Y0074421D03*
X0167343Y0068059D03*
X0174146Y0064783D03*
X0173295Y0060878D03*
X0173579Y0056846D03*
X0162394Y0051583D03*
X0166772Y0047803D03*
X0171748Y0044276D03*
X0166772Y0041283D03*
X0162394Y0037504D03*
X0155591Y0041441D03*
X0155591Y0047646D03*
X0153626Y0092717D03*
X0153689Y0092811D03*
X0154319Y0093504D03*
X0154350Y0093535D03*
X0154382Y0093567D03*
X0155138Y0093976D03*
X0169280Y0100465D03*
X0169280Y0102575D03*
X0171358Y0106921D03*
X0172020Y0107205D03*
X0172051Y0107236D03*
X0172083Y0107268D03*
X0173059Y0108370D03*
X0154382Y0107331D03*
X0154350Y0107362D03*
X0154319Y0107394D03*
X0154287Y0107425D03*
X0154256Y0107457D03*
X0153657Y0108150D03*
X0153626Y0108181D03*
D93*
X0162634Y0100449D03*
X0163736Y0100449D03*
X0159453Y0095031D03*
X0155484Y0093866D03*
X0167327Y0094748D03*
X0171012Y0093866D03*
X0174303Y0089587D03*
X0174335Y0089587D03*
X0170713Y0086657D03*
X0173673Y0084075D03*
X0173705Y0084075D03*
X0173421Y0080138D03*
X0173358Y0075035D03*
X0173327Y0075004D03*
X0167657Y0075004D03*
X0167783Y0068075D03*
X0171012Y0107031D03*
D94*
X0166555Y0077665D03*
X0172508Y0068909D03*
X0174303Y0058516D03*
D95*
X0174303Y0077665D03*
X0166681Y0077665D03*
X0164870Y0100465D03*
X0164839Y0100465D03*
D96*
X0174272Y0058484D03*
D97*
X0174083Y0058484D03*
X0174272Y0077665D03*
X0166744Y0077665D03*
X0168083Y0093661D03*
D98*
X0167358Y0094732D03*
X0170980Y0093850D03*
X0174272Y0089571D03*
X0173642Y0084091D03*
X0165988Y0077665D03*
X0167815Y0068059D03*
X0173894Y0065098D03*
X0159843Y0051740D03*
X0159843Y0037346D03*
X0155547Y0093850D03*
X0155516Y0093850D03*
X0159421Y0095016D03*
X0162224Y0096496D03*
X0162602Y0100465D03*
X0162224Y0104402D03*
X0159421Y0105882D03*
X0155516Y0107047D03*
X0167358Y0106165D03*
X0170980Y0107047D03*
D99*
X0167957Y0107173D03*
X0167957Y0093724D03*
X0174240Y0058516D03*
D100*
X0173831Y0058626D03*
X0173799Y0058657D03*
X0174240Y0077681D03*
X0158728Y0100449D03*
D101*
X0163768Y0100449D03*
X0170949Y0107063D03*
X0155547Y0107063D03*
X0155579Y0093835D03*
X0170744Y0086657D03*
X0173484Y0088988D03*
X0174240Y0089555D03*
X0173610Y0084106D03*
X0167469Y0079823D03*
X0167626Y0075067D03*
X0173390Y0075098D03*
X0167846Y0068043D03*
X0152472Y0044543D03*
D102*
X0174209Y0058500D03*
X0167988Y0093709D03*
X0164618Y0100449D03*
X0167988Y0107189D03*
D103*
X0168146Y0093646D03*
X0174209Y0077650D03*
D104*
X0174177Y0058484D03*
X0164650Y0100465D03*
X0158602Y0100465D03*
D105*
X0158760Y0100465D03*
X0158634Y0106890D03*
X0158634Y0094039D03*
X0166807Y0077665D03*
X0174177Y0077665D03*
D106*
X0173453Y0080106D03*
X0173516Y0084138D03*
X0170807Y0086657D03*
X0174177Y0089524D03*
X0170886Y0093835D03*
X0162193Y0096543D03*
X0167421Y0106181D03*
X0155642Y0107094D03*
X0167563Y0075130D03*
X0173453Y0075193D03*
X0167909Y0068043D03*
X0173642Y0060421D03*
X0173673Y0057083D03*
X0158520Y0044543D03*
X0152535Y0044543D03*
X0152504Y0044543D03*
D107*
X0174146Y0058500D03*
X0164807Y0100449D03*
X0164776Y0100449D03*
X0164744Y0100449D03*
X0158634Y0100449D03*
X0158728Y0106811D03*
D108*
X0158823Y0100449D03*
X0168366Y0100449D03*
X0166870Y0077650D03*
X0174146Y0077681D03*
D109*
X0173484Y0080091D03*
X0173484Y0084154D03*
X0170839Y0086642D03*
X0174146Y0089508D03*
X0170854Y0093819D03*
X0167421Y0094732D03*
X0159358Y0095016D03*
X0155642Y0093819D03*
X0162539Y0100465D03*
X0155673Y0107110D03*
X0170854Y0107079D03*
X0170886Y0107079D03*
X0152567Y0044528D03*
D110*
X0174114Y0058500D03*
X0166713Y0077650D03*
X0168051Y0093677D03*
X0165091Y0100449D03*
X0165059Y0100449D03*
X0165028Y0100449D03*
X0164996Y0100449D03*
X0164965Y0100449D03*
X0164933Y0100449D03*
X0164902Y0100449D03*
X0158665Y0100449D03*
X0168051Y0107220D03*
D111*
X0168492Y0100449D03*
X0168524Y0100449D03*
X0158571Y0106906D03*
X0166902Y0077650D03*
X0174114Y0077650D03*
D112*
X0167437Y0079791D03*
X0173421Y0084169D03*
X0173453Y0084169D03*
X0174114Y0089492D03*
X0170823Y0093803D03*
X0167453Y0094717D03*
X0162161Y0096606D03*
X0163799Y0100449D03*
X0157941Y0100449D03*
X0159358Y0105898D03*
X0170823Y0107094D03*
X0155673Y0093803D03*
X0167941Y0068043D03*
X0173862Y0065209D03*
X0159937Y0051945D03*
X0159874Y0051850D03*
X0152724Y0044543D03*
X0152693Y0044543D03*
X0152661Y0044543D03*
X0152630Y0044543D03*
X0152598Y0044543D03*
X0159874Y0037236D03*
X0159906Y0037173D03*
X0159937Y0037142D03*
D113*
X0174083Y0077665D03*
X0169406Y0092717D03*
X0168335Y0100465D03*
X0158854Y0100465D03*
X0168272Y0107299D03*
D114*
X0171232Y0106969D03*
X0172461Y0107630D03*
X0172492Y0107661D03*
X0172524Y0107693D03*
X0172555Y0107724D03*
X0172587Y0107756D03*
X0172618Y0107787D03*
X0172713Y0107913D03*
X0172744Y0107945D03*
X0172776Y0107976D03*
X0163610Y0100449D03*
X0163579Y0100449D03*
X0162791Y0100449D03*
X0162413Y0096323D03*
X0159579Y0095063D03*
X0155295Y0093929D03*
X0167201Y0094780D03*
X0171232Y0093961D03*
X0172555Y0093173D03*
X0172587Y0093142D03*
X0172618Y0093110D03*
X0172650Y0093079D03*
X0172681Y0093047D03*
X0173327Y0088736D03*
X0173295Y0088705D03*
X0170524Y0086657D03*
X0174051Y0083949D03*
X0174083Y0083949D03*
X0169028Y0098339D03*
X0168996Y0098339D03*
X0168965Y0098339D03*
X0168933Y0098339D03*
X0168902Y0098339D03*
X0168870Y0098339D03*
X0168839Y0098339D03*
X0168807Y0098339D03*
X0159579Y0105866D03*
X0155295Y0106969D03*
X0155264Y0106969D03*
X0167500Y0068075D03*
X0167531Y0068075D03*
X0173484Y0060705D03*
X0159780Y0051535D03*
X0155559Y0047630D03*
D115*
X0159906Y0051898D03*
X0173673Y0060343D03*
X0168004Y0068059D03*
X0167972Y0068059D03*
X0167531Y0075240D03*
X0166020Y0077665D03*
X0173484Y0075240D03*
X0173390Y0084185D03*
X0173358Y0084185D03*
X0170870Y0086673D03*
X0174051Y0089476D03*
X0174083Y0089476D03*
X0170791Y0093787D03*
X0162508Y0100465D03*
X0162161Y0104307D03*
X0167453Y0106197D03*
X0170791Y0107110D03*
X0155705Y0107110D03*
X0159327Y0095016D03*
X0155705Y0093787D03*
D116*
X0158697Y0100449D03*
X0173894Y0058594D03*
X0173957Y0058563D03*
X0173988Y0058531D03*
X0174020Y0058500D03*
X0174051Y0058469D03*
D117*
X0174051Y0077681D03*
X0157248Y0092795D03*
X0157217Y0092764D03*
X0168303Y0093614D03*
X0168303Y0100449D03*
X0168650Y0100449D03*
X0168681Y0100449D03*
X0168713Y0100449D03*
X0168744Y0100449D03*
X0158886Y0100449D03*
X0157217Y0108134D03*
X0157185Y0108165D03*
X0169248Y0108071D03*
X0169280Y0108102D03*
D118*
X0169154Y0107992D03*
X0169122Y0107961D03*
X0157343Y0108024D03*
X0157374Y0092906D03*
X0157343Y0092874D03*
X0169091Y0092969D03*
X0169122Y0092937D03*
X0174020Y0077665D03*
D119*
X0173988Y0077665D03*
X0168996Y0093063D03*
X0168366Y0093598D03*
X0158476Y0093976D03*
X0157500Y0093000D03*
X0157469Y0092969D03*
X0157500Y0107898D03*
X0157469Y0107929D03*
X0157437Y0107961D03*
X0168965Y0107835D03*
X0168996Y0107866D03*
D120*
X0168902Y0107772D03*
X0168870Y0107740D03*
X0168839Y0107709D03*
X0168807Y0107677D03*
X0168398Y0107299D03*
X0158980Y0100465D03*
X0168398Y0093598D03*
X0168807Y0093220D03*
X0168839Y0093189D03*
X0168870Y0093157D03*
X0157594Y0093094D03*
X0157563Y0093063D03*
X0173957Y0077665D03*
D121*
X0173516Y0080012D03*
X0170965Y0086657D03*
X0170933Y0086657D03*
X0173925Y0089429D03*
X0173957Y0089429D03*
X0170697Y0093740D03*
X0159295Y0095000D03*
X0155799Y0093740D03*
X0155799Y0107157D03*
X0170697Y0107157D03*
X0168130Y0068043D03*
X0168098Y0068043D03*
X0152945Y0044543D03*
D122*
X0173736Y0058705D03*
X0173768Y0058673D03*
X0173862Y0058610D03*
X0173925Y0058579D03*
X0166776Y0077665D03*
X0168114Y0093661D03*
X0158665Y0094039D03*
X0158665Y0106858D03*
X0168114Y0107268D03*
D123*
X0167327Y0106165D03*
X0171043Y0107016D03*
X0159453Y0105882D03*
X0155484Y0107047D03*
X0162256Y0096465D03*
X0171043Y0093882D03*
X0173736Y0084059D03*
X0173768Y0084059D03*
X0173390Y0080154D03*
X0167500Y0079870D03*
X0167720Y0068059D03*
X0167752Y0068059D03*
X0173925Y0065067D03*
X0173610Y0060531D03*
X0160000Y0052055D03*
X0155496Y0047614D03*
X0155496Y0041472D03*
X0160000Y0037031D03*
D124*
X0167059Y0077665D03*
X0173925Y0077665D03*
X0168744Y0093283D03*
X0168713Y0093315D03*
X0168681Y0093346D03*
X0168650Y0093378D03*
X0168618Y0093409D03*
X0168587Y0093441D03*
X0168555Y0093472D03*
X0168429Y0093598D03*
X0168177Y0100465D03*
X0159012Y0100465D03*
X0168429Y0107299D03*
X0168492Y0107362D03*
X0168524Y0107394D03*
X0168555Y0107425D03*
X0168587Y0107457D03*
X0168618Y0107488D03*
X0168650Y0107520D03*
X0168681Y0107551D03*
X0168713Y0107583D03*
X0157783Y0107646D03*
X0157752Y0107677D03*
X0157720Y0107709D03*
X0157752Y0093220D03*
X0157720Y0093189D03*
D125*
X0157878Y0093346D03*
X0157909Y0093378D03*
X0157941Y0093409D03*
X0157972Y0093441D03*
X0158224Y0093724D03*
X0158350Y0093882D03*
X0158382Y0093913D03*
X0168146Y0100465D03*
X0158413Y0106953D03*
X0158382Y0106984D03*
X0158350Y0107016D03*
X0158319Y0107079D03*
X0158287Y0107110D03*
X0158256Y0107142D03*
X0158035Y0107394D03*
X0158004Y0107425D03*
X0157972Y0107457D03*
X0157941Y0107488D03*
X0157909Y0107520D03*
X0157878Y0107551D03*
X0157846Y0107583D03*
X0167091Y0077665D03*
X0173894Y0077665D03*
D126*
X0173547Y0079965D03*
X0173232Y0084248D03*
X0173201Y0084248D03*
X0173169Y0084248D03*
X0173894Y0089413D03*
X0170665Y0093724D03*
X0167516Y0094701D03*
X0163862Y0100465D03*
X0162445Y0100465D03*
X0159264Y0105913D03*
X0155831Y0107173D03*
X0167516Y0106197D03*
X0170665Y0107173D03*
X0155862Y0093724D03*
X0155831Y0093724D03*
X0167469Y0075335D03*
D127*
X0167154Y0077650D03*
X0173862Y0077681D03*
X0168114Y0100449D03*
X0159075Y0100449D03*
D128*
X0162130Y0104197D03*
X0167547Y0106213D03*
X0170634Y0107189D03*
X0162130Y0096701D03*
X0159264Y0095000D03*
X0155894Y0093709D03*
X0170634Y0093709D03*
X0173831Y0089398D03*
X0173862Y0089398D03*
X0173138Y0084264D03*
X0173547Y0075382D03*
X0168161Y0068043D03*
X0173799Y0065335D03*
X0158583Y0044543D03*
X0155862Y0107189D03*
D129*
X0159106Y0100449D03*
X0168083Y0100449D03*
X0173831Y0077681D03*
D130*
X0173799Y0077681D03*
X0167185Y0077650D03*
X0168051Y0100449D03*
X0159138Y0100449D03*
D131*
X0157972Y0100465D03*
X0159232Y0105913D03*
X0155925Y0107205D03*
X0155894Y0107205D03*
X0165154Y0101913D03*
X0170602Y0107205D03*
X0159232Y0094984D03*
X0155925Y0093693D03*
X0167547Y0094701D03*
X0170602Y0093724D03*
X0173799Y0089382D03*
X0170996Y0086642D03*
X0173106Y0084280D03*
X0167406Y0079713D03*
X0167437Y0075398D03*
X0173579Y0075429D03*
X0168193Y0068059D03*
D132*
X0173768Y0077665D03*
D133*
X0167343Y0075697D03*
X0168697Y0068043D03*
X0173736Y0065618D03*
X0172382Y0084516D03*
X0167799Y0094654D03*
X0159012Y0094969D03*
X0156429Y0093457D03*
X0159012Y0105929D03*
X0156461Y0107472D03*
X0167799Y0106244D03*
D134*
X0167988Y0100449D03*
X0159201Y0100449D03*
X0167280Y0077650D03*
X0173736Y0077681D03*
X0172571Y0068043D03*
D135*
X0168287Y0068059D03*
X0168256Y0068059D03*
X0172980Y0084311D03*
X0173012Y0084311D03*
X0173736Y0089350D03*
X0170539Y0093693D03*
X0165154Y0099016D03*
X0165122Y0101882D03*
X0159201Y0105913D03*
X0155988Y0107236D03*
X0170508Y0107236D03*
X0170539Y0107236D03*
X0159201Y0094984D03*
D136*
X0159169Y0094984D03*
X0156020Y0093661D03*
X0163925Y0100465D03*
X0159169Y0105913D03*
X0156051Y0107268D03*
X0170445Y0107268D03*
X0170476Y0093661D03*
X0173610Y0089319D03*
X0172917Y0084343D03*
X0172886Y0084343D03*
X0168350Y0068059D03*
X0173705Y0057256D03*
D137*
X0172634Y0068012D03*
X0173705Y0077681D03*
X0167957Y0100449D03*
X0159232Y0100449D03*
D138*
X0159799Y0100449D03*
X0167390Y0100449D03*
X0173673Y0068012D03*
D139*
X0173673Y0075776D03*
X0166114Y0077665D03*
X0172350Y0084531D03*
X0171374Y0086642D03*
X0170035Y0093441D03*
X0156492Y0093441D03*
X0156461Y0093441D03*
X0167831Y0106260D03*
X0170035Y0107457D03*
D140*
X0158980Y0105929D03*
X0156492Y0107472D03*
X0158980Y0094969D03*
X0167831Y0094654D03*
X0171406Y0086657D03*
X0171437Y0086657D03*
X0172287Y0084547D03*
X0172319Y0084547D03*
X0173673Y0079571D03*
X0168760Y0068043D03*
X0168728Y0068043D03*
D141*
X0173642Y0068028D03*
D142*
X0168571Y0068059D03*
X0168539Y0068059D03*
X0168508Y0068059D03*
X0173642Y0075650D03*
X0173642Y0079681D03*
X0172634Y0084437D03*
X0172602Y0084437D03*
X0166083Y0077665D03*
X0170224Y0093535D03*
X0167736Y0094669D03*
X0159075Y0094984D03*
X0156272Y0093535D03*
X0156272Y0107362D03*
X0156240Y0107362D03*
X0170256Y0107362D03*
D143*
X0167453Y0100465D03*
X0159736Y0100465D03*
X0173579Y0068028D03*
X0173610Y0068028D03*
D144*
X0168382Y0068043D03*
X0167406Y0075508D03*
X0166051Y0077681D03*
X0171122Y0086657D03*
X0173579Y0089303D03*
X0170413Y0093614D03*
X0170445Y0093646D03*
X0167642Y0094685D03*
X0156051Y0093646D03*
X0167642Y0106213D03*
X0170413Y0107283D03*
X0156083Y0107283D03*
D145*
X0173516Y0068028D03*
X0173547Y0068028D03*
D146*
X0168413Y0068059D03*
X0167374Y0079650D03*
X0172791Y0084374D03*
X0172823Y0084374D03*
X0172854Y0084374D03*
X0171154Y0086642D03*
X0173516Y0089287D03*
X0173547Y0089287D03*
X0170382Y0093598D03*
X0162350Y0100465D03*
X0159138Y0105913D03*
X0156114Y0107299D03*
X0167673Y0106228D03*
X0170382Y0107299D03*
X0159138Y0094984D03*
X0156083Y0093630D03*
X0158646Y0044528D03*
D147*
X0173484Y0068028D03*
D148*
X0172886Y0056421D03*
X0171559Y0055283D03*
X0171528Y0053299D03*
X0170394Y0053299D03*
X0167181Y0047126D03*
X0171496Y0043661D03*
X0167181Y0041961D03*
X0154205Y0039283D03*
X0154205Y0049803D03*
X0172382Y0080421D03*
X0170886Y0089551D03*
X0173484Y0090626D03*
X0166067Y0095126D03*
X0160618Y0095315D03*
X0166319Y0100449D03*
X0160618Y0105583D03*
X0170886Y0111346D03*
X0155642Y0089551D03*
D149*
X0159642Y0100449D03*
X0167547Y0100449D03*
X0173421Y0068012D03*
X0173453Y0068012D03*
D150*
X0173421Y0056673D03*
X0171937Y0054780D03*
X0170047Y0054717D03*
X0173701Y0052197D03*
X0175591Y0052260D03*
X0173606Y0048228D03*
X0170236Y0050906D03*
X0167496Y0049677D03*
X0162520Y0051189D03*
X0155276Y0046622D03*
X0155433Y0042087D03*
X0169953Y0044386D03*
X0173890Y0040953D03*
X0173606Y0038843D03*
X0171937Y0038937D03*
X0173012Y0080327D03*
X0173043Y0080327D03*
X0169815Y0090181D03*
X0167799Y0092228D03*
X0166791Y0094874D03*
X0169689Y0098339D03*
X0159957Y0095126D03*
X0156713Y0090181D03*
X0156681Y0090150D03*
X0159957Y0105772D03*
X0158791Y0108669D03*
X0156681Y0110748D03*
X0166791Y0106024D03*
X0167799Y0108669D03*
X0169815Y0110717D03*
D151*
X0173390Y0068028D03*
D152*
X0173358Y0056594D03*
X0172000Y0052780D03*
X0173606Y0052181D03*
X0169921Y0052780D03*
X0171906Y0048654D03*
X0175622Y0048087D03*
X0172031Y0044339D03*
X0169890Y0044370D03*
X0166614Y0047929D03*
X0155118Y0046354D03*
X0155118Y0042732D03*
X0169953Y0038858D03*
X0172000Y0038921D03*
X0175622Y0038701D03*
X0172917Y0080374D03*
X0170067Y0090008D03*
X0170035Y0090039D03*
X0173280Y0092244D03*
X0166665Y0094921D03*
X0160083Y0095173D03*
X0156461Y0090008D03*
X0160083Y0105756D03*
X0153311Y0108654D03*
X0156461Y0110890D03*
X0166665Y0105976D03*
X0173280Y0108654D03*
X0170067Y0110890D03*
D153*
X0167610Y0100465D03*
X0159579Y0100465D03*
X0173327Y0068028D03*
X0173358Y0068028D03*
D154*
X0173327Y0056610D03*
X0167591Y0049709D03*
X0166803Y0047409D03*
X0169921Y0046528D03*
X0171937Y0048669D03*
X0171150Y0044732D03*
X0169984Y0041268D03*
X0166803Y0041677D03*
X0167591Y0039378D03*
X0169984Y0036795D03*
X0169921Y0034370D03*
X0173638Y0036795D03*
X0175654Y0038717D03*
X0175591Y0042654D03*
X0160220Y0052638D03*
X0167909Y0080106D03*
X0170098Y0089992D03*
X0166634Y0094937D03*
X0156429Y0089992D03*
X0156429Y0110906D03*
X0170098Y0110906D03*
D155*
X0167642Y0100465D03*
X0159547Y0100465D03*
X0173264Y0068028D03*
X0173295Y0068028D03*
D156*
X0173264Y0056563D03*
X0169890Y0054701D03*
X0169921Y0051299D03*
X0167654Y0049724D03*
X0166551Y0047961D03*
X0172000Y0048654D03*
X0175717Y0052244D03*
X0173575Y0042638D03*
X0173575Y0041346D03*
X0169921Y0041283D03*
X0166551Y0041126D03*
X0167654Y0039362D03*
X0169890Y0038858D03*
X0172000Y0036811D03*
X0173575Y0036811D03*
X0172031Y0034386D03*
X0158803Y0043331D03*
X0158803Y0045756D03*
X0155843Y0047772D03*
X0155465Y0048307D03*
X0155433Y0048370D03*
X0155276Y0048591D03*
X0155213Y0048685D03*
X0155150Y0048780D03*
X0155087Y0048874D03*
X0155024Y0048969D03*
X0154992Y0049000D03*
X0154929Y0049094D03*
X0154866Y0049189D03*
X0154803Y0049283D03*
X0155843Y0041315D03*
X0155465Y0040780D03*
X0155433Y0040717D03*
X0155370Y0040622D03*
X0155307Y0040528D03*
X0155213Y0040402D03*
X0155150Y0040307D03*
X0155087Y0040213D03*
X0155024Y0040118D03*
X0154961Y0040024D03*
X0154929Y0039992D03*
X0154866Y0039898D03*
X0154803Y0039803D03*
X0167941Y0080122D03*
X0172823Y0080374D03*
X0172854Y0080374D03*
X0170256Y0089913D03*
X0166539Y0094953D03*
X0156303Y0089913D03*
X0156272Y0089882D03*
X0166539Y0105945D03*
X0170256Y0111016D03*
X0156272Y0111016D03*
D157*
X0156177Y0111063D03*
X0160240Y0105709D03*
X0166476Y0105929D03*
X0170350Y0111063D03*
X0169846Y0100449D03*
X0169846Y0098339D03*
X0170350Y0089835D03*
X0172760Y0080390D03*
X0168004Y0080138D03*
X0156177Y0089835D03*
X0173232Y0056547D03*
X0172063Y0052795D03*
X0173543Y0050717D03*
X0172031Y0048669D03*
X0172063Y0046528D03*
X0175087Y0046307D03*
X0175118Y0046307D03*
X0175150Y0046307D03*
X0175118Y0044890D03*
X0166898Y0047315D03*
X0163276Y0046055D03*
X0163213Y0046150D03*
X0163181Y0046181D03*
X0163150Y0046213D03*
X0163433Y0043189D03*
X0163213Y0042937D03*
X0163181Y0042906D03*
X0166898Y0041772D03*
X0169890Y0036795D03*
X0172063Y0034370D03*
X0173543Y0036795D03*
X0158866Y0043189D03*
X0154457Y0039346D03*
X0154457Y0049740D03*
X0159528Y0050780D03*
X0162614Y0050906D03*
D158*
X0173201Y0068028D03*
X0173232Y0068028D03*
X0167673Y0100465D03*
D159*
X0167705Y0100449D03*
X0159484Y0100449D03*
X0173169Y0068012D03*
D160*
X0173138Y0056500D03*
X0170236Y0055205D03*
X0169827Y0054701D03*
X0172094Y0052780D03*
X0170299Y0050575D03*
X0171591Y0049409D03*
X0171622Y0048244D03*
X0171654Y0047016D03*
X0172094Y0046512D03*
X0171685Y0044906D03*
X0170268Y0046008D03*
X0173953Y0045598D03*
X0173984Y0045598D03*
X0175339Y0044906D03*
X0175370Y0044906D03*
X0175402Y0044906D03*
X0175370Y0046291D03*
X0174803Y0047677D03*
X0175339Y0048811D03*
X0173984Y0049976D03*
X0166488Y0047961D03*
X0162898Y0046480D03*
X0162866Y0046512D03*
X0162835Y0046543D03*
X0162803Y0046575D03*
X0159150Y0046291D03*
X0159118Y0046260D03*
X0159087Y0046228D03*
X0154898Y0046039D03*
X0154898Y0043047D03*
X0155906Y0041283D03*
X0154394Y0039331D03*
X0155843Y0037945D03*
X0159496Y0038386D03*
X0159150Y0042795D03*
X0159118Y0042827D03*
X0159087Y0042858D03*
X0162803Y0042512D03*
X0162835Y0042543D03*
X0162866Y0042575D03*
X0170299Y0041693D03*
X0170331Y0040528D03*
X0170236Y0039362D03*
X0169827Y0038858D03*
X0170268Y0037189D03*
X0171591Y0036055D03*
X0170268Y0034890D03*
X0169827Y0034386D03*
X0170268Y0033882D03*
X0171654Y0033882D03*
X0172094Y0034386D03*
X0173984Y0036055D03*
X0173953Y0037220D03*
X0173890Y0039394D03*
X0175307Y0042260D03*
X0173984Y0043394D03*
X0173512Y0042638D03*
X0159496Y0050701D03*
X0155811Y0051110D03*
X0154394Y0049756D03*
X0168067Y0080154D03*
X0170508Y0089756D03*
X0166382Y0095016D03*
X0160335Y0095236D03*
X0156051Y0089756D03*
X0166854Y0100433D03*
X0166886Y0100433D03*
X0169878Y0102575D03*
X0166382Y0105882D03*
X0170476Y0111142D03*
X0156051Y0111142D03*
D161*
X0173138Y0068028D03*
D162*
X0173106Y0056484D03*
X0171685Y0055220D03*
X0171622Y0054150D03*
X0170268Y0054181D03*
X0170299Y0055283D03*
X0170331Y0052165D03*
X0170362Y0052134D03*
X0171559Y0052134D03*
X0170394Y0050528D03*
X0171496Y0049457D03*
X0171559Y0048197D03*
X0171528Y0048165D03*
X0171559Y0047126D03*
X0171591Y0047094D03*
X0170362Y0047126D03*
X0170331Y0047094D03*
X0170331Y0045929D03*
X0170236Y0044827D03*
X0171213Y0044984D03*
X0171622Y0044984D03*
X0170268Y0043787D03*
X0170394Y0041772D03*
X0170362Y0041740D03*
X0170425Y0040480D03*
X0174047Y0040575D03*
X0173921Y0039441D03*
X0175276Y0039504D03*
X0175307Y0038213D03*
X0174835Y0038244D03*
X0174079Y0037299D03*
X0174016Y0037268D03*
X0173480Y0036795D03*
X0174079Y0036008D03*
X0171496Y0036008D03*
X0171465Y0036008D03*
X0170425Y0036008D03*
X0170331Y0034969D03*
X0170331Y0033803D03*
X0170362Y0033772D03*
X0171559Y0033772D03*
X0171591Y0033803D03*
X0171591Y0034969D03*
X0171559Y0037268D03*
X0171622Y0038307D03*
X0170268Y0038339D03*
X0170362Y0037268D03*
X0166362Y0037929D03*
X0166299Y0037929D03*
X0164819Y0038937D03*
X0164756Y0038969D03*
X0164724Y0039000D03*
X0164693Y0039000D03*
X0166457Y0041110D03*
X0162520Y0042307D03*
X0162488Y0042276D03*
X0162457Y0042276D03*
X0162425Y0042244D03*
X0162362Y0042213D03*
X0162299Y0042181D03*
X0159528Y0042433D03*
X0159433Y0042496D03*
X0159402Y0042528D03*
X0159370Y0042559D03*
X0159339Y0042591D03*
X0159307Y0042622D03*
X0154866Y0045992D03*
X0159339Y0046496D03*
X0159370Y0046528D03*
X0159402Y0046559D03*
X0159496Y0046622D03*
X0159528Y0046654D03*
X0162299Y0046906D03*
X0162362Y0046874D03*
X0162425Y0046843D03*
X0162457Y0046811D03*
X0162488Y0046811D03*
X0162520Y0046780D03*
X0164724Y0050087D03*
X0164787Y0050118D03*
X0165291Y0050465D03*
X0166331Y0051157D03*
X0166362Y0051157D03*
X0166457Y0047976D03*
X0173921Y0048827D03*
X0174079Y0049929D03*
X0174835Y0047598D03*
X0175307Y0047598D03*
X0175496Y0046307D03*
X0175528Y0046307D03*
X0175559Y0046307D03*
X0175528Y0044921D03*
X0173827Y0045614D03*
X0173795Y0045614D03*
X0174079Y0043441D03*
X0174110Y0043441D03*
X0175150Y0043441D03*
X0175213Y0042181D03*
X0174016Y0042181D03*
X0161953Y0036197D03*
X0159465Y0038433D03*
X0155906Y0037929D03*
X0154362Y0039315D03*
X0154362Y0049772D03*
X0155906Y0051157D03*
X0161953Y0052890D03*
X0175276Y0051630D03*
X0175339Y0052701D03*
X0172634Y0080390D03*
X0170571Y0089709D03*
X0166319Y0095031D03*
X0160398Y0095252D03*
X0158854Y0092228D03*
X0155957Y0089709D03*
X0166697Y0100449D03*
X0166728Y0100449D03*
X0166319Y0105866D03*
X0160398Y0105646D03*
X0158854Y0108669D03*
X0155957Y0111189D03*
X0170571Y0111189D03*
D163*
X0167736Y0100449D03*
X0159453Y0100449D03*
X0173106Y0068043D03*
D164*
X0173075Y0056484D03*
X0170488Y0055378D03*
X0170457Y0055378D03*
X0170425Y0055346D03*
X0170394Y0055346D03*
X0170331Y0054118D03*
X0170362Y0054087D03*
X0171465Y0054055D03*
X0171528Y0054087D03*
X0174047Y0052827D03*
X0174079Y0052827D03*
X0174110Y0052858D03*
X0174142Y0052858D03*
X0174236Y0052890D03*
X0174016Y0051598D03*
X0174047Y0051567D03*
X0175118Y0051535D03*
X0175181Y0051567D03*
X0175780Y0052260D03*
X0174268Y0049898D03*
X0174236Y0049898D03*
X0174205Y0049898D03*
X0174173Y0049898D03*
X0174016Y0048890D03*
X0173449Y0048197D03*
X0173480Y0047000D03*
X0173543Y0046969D03*
X0173575Y0046969D03*
X0173669Y0046937D03*
X0173764Y0046906D03*
X0174866Y0047567D03*
X0175244Y0047535D03*
X0175276Y0047567D03*
X0175780Y0048102D03*
X0175213Y0048890D03*
X0175181Y0048890D03*
X0175622Y0046307D03*
X0175654Y0046307D03*
X0175622Y0044921D03*
X0173732Y0044291D03*
X0173638Y0044260D03*
X0173606Y0044260D03*
X0173543Y0044228D03*
X0173512Y0044228D03*
X0174205Y0043472D03*
X0174236Y0043472D03*
X0174268Y0043472D03*
X0174299Y0043472D03*
X0174331Y0043472D03*
X0174898Y0043472D03*
X0174929Y0043472D03*
X0174961Y0043472D03*
X0174992Y0043472D03*
X0175024Y0043472D03*
X0175118Y0042150D03*
X0175150Y0042150D03*
X0175087Y0042118D03*
X0175055Y0042118D03*
X0175024Y0042118D03*
X0174992Y0042118D03*
X0174236Y0042118D03*
X0174205Y0042118D03*
X0174173Y0042118D03*
X0174110Y0042150D03*
X0174142Y0040543D03*
X0174173Y0040543D03*
X0174205Y0040543D03*
X0173984Y0039504D03*
X0175118Y0039535D03*
X0175150Y0039535D03*
X0175181Y0039535D03*
X0175213Y0039535D03*
X0175780Y0038748D03*
X0174898Y0038181D03*
X0174866Y0038213D03*
X0174205Y0037331D03*
X0174173Y0037331D03*
X0174142Y0037331D03*
X0174173Y0035976D03*
X0174205Y0035976D03*
X0174236Y0035976D03*
X0171370Y0035976D03*
X0171339Y0035976D03*
X0171307Y0035976D03*
X0171276Y0035976D03*
X0171244Y0035976D03*
X0170677Y0035976D03*
X0170646Y0035976D03*
X0170614Y0035976D03*
X0170583Y0035976D03*
X0170551Y0035976D03*
X0170520Y0035063D03*
X0170457Y0035031D03*
X0170425Y0035031D03*
X0171402Y0035063D03*
X0171465Y0035031D03*
X0171496Y0035031D03*
X0171496Y0033740D03*
X0171465Y0033709D03*
X0171433Y0033709D03*
X0170488Y0033709D03*
X0170457Y0033709D03*
X0170425Y0033740D03*
X0170425Y0037299D03*
X0170457Y0037299D03*
X0170520Y0037331D03*
X0170551Y0037331D03*
X0170583Y0037331D03*
X0171339Y0037331D03*
X0171370Y0037331D03*
X0171402Y0037331D03*
X0171465Y0037299D03*
X0171496Y0038213D03*
X0171528Y0038244D03*
X0170362Y0038244D03*
X0170331Y0038276D03*
X0170362Y0039472D03*
X0170425Y0039504D03*
X0170488Y0039535D03*
X0170520Y0040449D03*
X0170551Y0040449D03*
X0170583Y0040449D03*
X0170614Y0040449D03*
X0170520Y0041803D03*
X0170488Y0041803D03*
X0170583Y0043724D03*
X0170614Y0043724D03*
X0170362Y0043724D03*
X0170331Y0043724D03*
X0170299Y0043756D03*
X0171622Y0043693D03*
X0171591Y0045016D03*
X0171559Y0045047D03*
X0171528Y0045047D03*
X0171276Y0045047D03*
X0171244Y0045016D03*
X0171370Y0045835D03*
X0171402Y0045835D03*
X0171465Y0045866D03*
X0170551Y0045835D03*
X0170520Y0045835D03*
X0170457Y0045866D03*
X0170425Y0047157D03*
X0170457Y0047189D03*
X0170488Y0047189D03*
X0171433Y0047189D03*
X0171465Y0047189D03*
X0171496Y0047157D03*
X0171433Y0048134D03*
X0171402Y0048134D03*
X0171370Y0049488D03*
X0171339Y0049488D03*
X0171307Y0049488D03*
X0170520Y0050496D03*
X0170488Y0050496D03*
X0170520Y0052039D03*
X0170551Y0052039D03*
X0170488Y0052071D03*
X0170457Y0052071D03*
X0171370Y0052039D03*
X0171402Y0052039D03*
X0171433Y0052071D03*
X0171465Y0052071D03*
X0164598Y0050024D03*
X0164567Y0050024D03*
X0164283Y0050055D03*
X0164126Y0050118D03*
X0163969Y0050181D03*
X0163811Y0050244D03*
X0163654Y0050307D03*
X0163496Y0050370D03*
X0163339Y0050433D03*
X0163181Y0050496D03*
X0163024Y0050559D03*
X0162866Y0050622D03*
X0162709Y0050685D03*
X0159402Y0050591D03*
X0159181Y0050496D03*
X0159118Y0050465D03*
X0158961Y0050402D03*
X0158898Y0050370D03*
X0158740Y0050307D03*
X0158677Y0050276D03*
X0158520Y0050213D03*
X0158457Y0050181D03*
X0158299Y0050118D03*
X0158236Y0050087D03*
X0158079Y0050024D03*
X0158016Y0049992D03*
X0157984Y0049992D03*
X0157921Y0049961D03*
X0157890Y0049961D03*
X0157638Y0049992D03*
X0157575Y0050024D03*
X0157480Y0050087D03*
X0157386Y0050150D03*
X0157291Y0050213D03*
X0157197Y0050276D03*
X0156882Y0050496D03*
X0156787Y0050559D03*
X0156693Y0050622D03*
X0156598Y0050685D03*
X0156378Y0050843D03*
X0156283Y0050906D03*
X0156189Y0050969D03*
X0156094Y0051031D03*
X0154331Y0049772D03*
X0154772Y0045929D03*
X0154803Y0045929D03*
X0154646Y0045898D03*
X0154614Y0045898D03*
X0154488Y0045866D03*
X0154457Y0045866D03*
X0154299Y0045835D03*
X0154142Y0045803D03*
X0154110Y0045803D03*
X0153984Y0045772D03*
X0153953Y0045772D03*
X0153795Y0045740D03*
X0153638Y0045709D03*
X0153606Y0045709D03*
X0153480Y0045677D03*
X0153449Y0045677D03*
X0153291Y0045646D03*
X0153260Y0045646D03*
X0153134Y0045614D03*
X0153102Y0045614D03*
X0153102Y0043472D03*
X0153260Y0043441D03*
X0153291Y0043441D03*
X0153417Y0043409D03*
X0153449Y0043409D03*
X0153606Y0043378D03*
X0153764Y0043346D03*
X0153795Y0043346D03*
X0153953Y0043315D03*
X0154110Y0043283D03*
X0154142Y0043283D03*
X0154268Y0043252D03*
X0154299Y0043252D03*
X0154457Y0043220D03*
X0154614Y0043189D03*
X0154646Y0043189D03*
X0154772Y0043157D03*
X0154803Y0043157D03*
X0155937Y0041268D03*
X0154331Y0039315D03*
X0155969Y0037961D03*
X0156189Y0038118D03*
X0156283Y0038181D03*
X0156378Y0038244D03*
X0156472Y0038307D03*
X0156787Y0038528D03*
X0156882Y0038591D03*
X0156976Y0038654D03*
X0157071Y0038717D03*
X0157291Y0038874D03*
X0157386Y0038937D03*
X0157480Y0039000D03*
X0157575Y0039063D03*
X0157606Y0039063D03*
X0157638Y0039094D03*
X0157890Y0039126D03*
X0157921Y0039126D03*
X0157953Y0039094D03*
X0157984Y0039094D03*
X0158079Y0039063D03*
X0158142Y0039031D03*
X0158299Y0038969D03*
X0158362Y0038937D03*
X0158520Y0038874D03*
X0158583Y0038843D03*
X0158740Y0038780D03*
X0158803Y0038748D03*
X0158961Y0038685D03*
X0159024Y0038654D03*
X0159181Y0038591D03*
X0159244Y0038559D03*
X0162709Y0038370D03*
X0162740Y0038402D03*
X0162803Y0038433D03*
X0162961Y0038496D03*
X0163024Y0038528D03*
X0163118Y0038559D03*
X0163276Y0038622D03*
X0163339Y0038654D03*
X0163433Y0038685D03*
X0163496Y0038717D03*
X0163591Y0038748D03*
X0163654Y0038780D03*
X0163748Y0038811D03*
X0163811Y0038843D03*
X0163906Y0038874D03*
X0163969Y0038906D03*
X0164063Y0038937D03*
X0164126Y0038969D03*
X0164220Y0039000D03*
X0164283Y0039031D03*
X0164567Y0039063D03*
X0164598Y0039063D03*
X0166142Y0042244D03*
X0166299Y0042181D03*
X0166362Y0042150D03*
X0166457Y0042118D03*
X0166520Y0042087D03*
X0165984Y0042307D03*
X0165921Y0042339D03*
X0165827Y0042370D03*
X0165764Y0042402D03*
X0165606Y0042465D03*
X0165449Y0042528D03*
X0165386Y0042559D03*
X0165228Y0042622D03*
X0165071Y0042685D03*
X0165008Y0042717D03*
X0164913Y0042748D03*
X0164850Y0042780D03*
X0164693Y0042843D03*
X0164535Y0042906D03*
X0164472Y0042937D03*
X0164315Y0043000D03*
X0164157Y0043063D03*
X0164094Y0043094D03*
X0164000Y0043126D03*
X0163937Y0043157D03*
X0163780Y0043220D03*
X0163622Y0043283D03*
X0162173Y0042118D03*
X0162110Y0042087D03*
X0162047Y0042055D03*
X0162016Y0042055D03*
X0161953Y0042024D03*
X0161921Y0042024D03*
X0161890Y0042024D03*
X0161858Y0041992D03*
X0161827Y0041992D03*
X0161795Y0041992D03*
X0161732Y0041961D03*
X0161701Y0041961D03*
X0161543Y0041929D03*
X0160126Y0042087D03*
X0160063Y0042118D03*
X0160000Y0042150D03*
X0159937Y0042181D03*
X0159906Y0042181D03*
X0159874Y0042213D03*
X0159843Y0042213D03*
X0159811Y0042244D03*
X0159748Y0042276D03*
X0159717Y0042307D03*
X0159654Y0042339D03*
X0163622Y0045803D03*
X0163717Y0045835D03*
X0163780Y0045866D03*
X0163874Y0045898D03*
X0163937Y0045929D03*
X0164094Y0045992D03*
X0164157Y0046024D03*
X0164252Y0046055D03*
X0164315Y0046087D03*
X0164472Y0046150D03*
X0164630Y0046213D03*
X0164693Y0046244D03*
X0164787Y0046276D03*
X0164850Y0046307D03*
X0165008Y0046370D03*
X0165071Y0046402D03*
X0165165Y0046433D03*
X0165228Y0046465D03*
X0165386Y0046528D03*
X0165543Y0046591D03*
X0165606Y0046622D03*
X0165701Y0046654D03*
X0165764Y0046685D03*
X0165921Y0046748D03*
X0165984Y0046780D03*
X0166079Y0046811D03*
X0166142Y0046843D03*
X0166299Y0046906D03*
X0166457Y0046969D03*
X0166520Y0047000D03*
X0166614Y0047031D03*
X0162173Y0046969D03*
X0162110Y0047000D03*
X0162079Y0047000D03*
X0162016Y0047031D03*
X0161984Y0047031D03*
X0161953Y0047063D03*
X0161921Y0047063D03*
X0161890Y0047063D03*
X0161858Y0047094D03*
X0161827Y0047094D03*
X0161795Y0047094D03*
X0161701Y0047126D03*
X0161669Y0047126D03*
X0161543Y0047157D03*
X0161512Y0047157D03*
X0160220Y0047031D03*
X0160063Y0046969D03*
X0160000Y0046937D03*
X0159937Y0046906D03*
X0159874Y0046874D03*
X0159811Y0046843D03*
X0159780Y0046811D03*
X0159748Y0046811D03*
X0159717Y0046780D03*
X0173701Y0045614D03*
X0173732Y0045614D03*
X0172602Y0080421D03*
X0168161Y0080169D03*
X0170634Y0089677D03*
X0160429Y0095252D03*
X0166602Y0100449D03*
X0166634Y0100449D03*
X0166665Y0100449D03*
X0166287Y0105866D03*
X0160429Y0105646D03*
X0155925Y0111220D03*
X0170634Y0111220D03*
X0155894Y0089677D03*
D165*
X0173075Y0068028D03*
D166*
X0173043Y0056469D03*
X0170740Y0055425D03*
X0170709Y0055425D03*
X0170677Y0055425D03*
X0170646Y0055425D03*
X0170614Y0055425D03*
X0170583Y0055394D03*
X0170551Y0055394D03*
X0170520Y0055394D03*
X0170425Y0054071D03*
X0170394Y0054071D03*
X0170457Y0054039D03*
X0170488Y0054039D03*
X0170583Y0054008D03*
X0170614Y0054008D03*
X0171150Y0053976D03*
X0171307Y0054008D03*
X0171339Y0054008D03*
X0171402Y0054039D03*
X0171433Y0054039D03*
X0171496Y0054071D03*
X0174173Y0052874D03*
X0174205Y0052874D03*
X0174268Y0052906D03*
X0174299Y0052906D03*
X0174331Y0052906D03*
X0174362Y0052906D03*
X0174394Y0052906D03*
X0174079Y0051551D03*
X0174142Y0051520D03*
X0174173Y0051520D03*
X0174268Y0051488D03*
X0174299Y0051488D03*
X0174929Y0051488D03*
X0174961Y0051488D03*
X0174992Y0051488D03*
X0175055Y0051520D03*
X0175087Y0051520D03*
X0175150Y0051551D03*
X0175150Y0049882D03*
X0175181Y0049882D03*
X0175213Y0049882D03*
X0175244Y0049882D03*
X0175276Y0049882D03*
X0175307Y0049882D03*
X0175339Y0049882D03*
X0175370Y0049882D03*
X0175402Y0049882D03*
X0175433Y0049882D03*
X0175465Y0049882D03*
X0175496Y0049882D03*
X0175528Y0049882D03*
X0175559Y0049882D03*
X0175591Y0049882D03*
X0175622Y0049882D03*
X0175654Y0049882D03*
X0175685Y0049882D03*
X0175717Y0049882D03*
X0175748Y0049882D03*
X0175118Y0049882D03*
X0175087Y0049882D03*
X0175055Y0049882D03*
X0175024Y0049882D03*
X0174992Y0049882D03*
X0174961Y0049882D03*
X0174929Y0049882D03*
X0174898Y0049882D03*
X0174866Y0049882D03*
X0174835Y0049882D03*
X0174803Y0049882D03*
X0174772Y0049882D03*
X0174740Y0049882D03*
X0174709Y0049882D03*
X0174677Y0049882D03*
X0174646Y0049882D03*
X0174614Y0049882D03*
X0174583Y0049882D03*
X0174551Y0049882D03*
X0174520Y0049882D03*
X0174488Y0049882D03*
X0174457Y0049882D03*
X0174425Y0049882D03*
X0174394Y0049882D03*
X0174362Y0049882D03*
X0174331Y0049882D03*
X0174299Y0049882D03*
X0173669Y0049882D03*
X0173638Y0049882D03*
X0173606Y0049882D03*
X0173575Y0049882D03*
X0173543Y0049882D03*
X0173512Y0049882D03*
X0173480Y0049882D03*
X0173984Y0048874D03*
X0174047Y0048906D03*
X0174079Y0048906D03*
X0174110Y0048906D03*
X0174142Y0048906D03*
X0174173Y0048906D03*
X0174205Y0048906D03*
X0174236Y0048906D03*
X0174268Y0048906D03*
X0174299Y0048906D03*
X0174331Y0048906D03*
X0174362Y0048906D03*
X0174394Y0048906D03*
X0174803Y0048906D03*
X0174835Y0048906D03*
X0174866Y0048906D03*
X0174898Y0048906D03*
X0174929Y0048906D03*
X0174961Y0048906D03*
X0174992Y0048906D03*
X0175024Y0048906D03*
X0175055Y0048906D03*
X0175087Y0048906D03*
X0175118Y0048906D03*
X0175150Y0048906D03*
X0175622Y0048906D03*
X0175654Y0048906D03*
X0175685Y0048906D03*
X0175717Y0048906D03*
X0175748Y0048906D03*
X0175213Y0047520D03*
X0175181Y0047520D03*
X0174961Y0047520D03*
X0174898Y0047551D03*
X0174457Y0046701D03*
X0174362Y0046732D03*
X0174268Y0046764D03*
X0174236Y0046764D03*
X0174173Y0046795D03*
X0174142Y0046795D03*
X0174110Y0046795D03*
X0174079Y0046827D03*
X0174047Y0046827D03*
X0174016Y0046827D03*
X0173953Y0046858D03*
X0173921Y0046858D03*
X0173890Y0046858D03*
X0173858Y0046890D03*
X0173827Y0046890D03*
X0173795Y0046890D03*
X0173732Y0046921D03*
X0173701Y0046921D03*
X0173638Y0046953D03*
X0173606Y0046953D03*
X0173512Y0046984D03*
X0173669Y0045598D03*
X0173953Y0044370D03*
X0173984Y0044370D03*
X0174016Y0044370D03*
X0174079Y0044402D03*
X0174110Y0044402D03*
X0174205Y0044433D03*
X0174236Y0044433D03*
X0174299Y0044465D03*
X0174331Y0044465D03*
X0174425Y0044496D03*
X0173921Y0044339D03*
X0173890Y0044339D03*
X0173858Y0044339D03*
X0173827Y0044307D03*
X0173795Y0044307D03*
X0173764Y0044307D03*
X0173701Y0044276D03*
X0173669Y0044276D03*
X0173575Y0044244D03*
X0173480Y0044213D03*
X0173480Y0043488D03*
X0173449Y0043488D03*
X0173417Y0043488D03*
X0173386Y0043488D03*
X0173354Y0043488D03*
X0173323Y0043488D03*
X0173291Y0043488D03*
X0173260Y0043488D03*
X0173228Y0043488D03*
X0173197Y0043488D03*
X0173165Y0043488D03*
X0173134Y0043488D03*
X0173102Y0043488D03*
X0173071Y0043488D03*
X0173039Y0043488D03*
X0173008Y0043488D03*
X0172976Y0043488D03*
X0172945Y0043488D03*
X0172913Y0043488D03*
X0172882Y0043488D03*
X0172850Y0043488D03*
X0172819Y0043488D03*
X0172787Y0043488D03*
X0172756Y0043488D03*
X0172724Y0043488D03*
X0172693Y0043488D03*
X0172661Y0043488D03*
X0172630Y0043488D03*
X0172598Y0043488D03*
X0172567Y0043488D03*
X0172535Y0043488D03*
X0172126Y0044339D03*
X0171496Y0045063D03*
X0171465Y0045063D03*
X0171433Y0045063D03*
X0171402Y0045063D03*
X0171370Y0045063D03*
X0171339Y0045063D03*
X0171307Y0045063D03*
X0171307Y0045819D03*
X0171276Y0045819D03*
X0171244Y0045819D03*
X0171213Y0045819D03*
X0171339Y0045819D03*
X0171433Y0045850D03*
X0170992Y0045787D03*
X0170961Y0045787D03*
X0170929Y0045787D03*
X0170898Y0045787D03*
X0170709Y0045819D03*
X0170677Y0045819D03*
X0170646Y0045819D03*
X0170614Y0045819D03*
X0170583Y0045819D03*
X0170488Y0045850D03*
X0169795Y0046512D03*
X0170520Y0047205D03*
X0170551Y0047205D03*
X0170583Y0047205D03*
X0170614Y0047236D03*
X0170646Y0047236D03*
X0170677Y0047236D03*
X0170709Y0047236D03*
X0170740Y0047236D03*
X0170772Y0047236D03*
X0170803Y0047236D03*
X0170835Y0047236D03*
X0170866Y0047236D03*
X0170898Y0047236D03*
X0170929Y0047236D03*
X0170961Y0047236D03*
X0170992Y0047236D03*
X0171024Y0047236D03*
X0171055Y0047236D03*
X0171087Y0047236D03*
X0171118Y0047236D03*
X0171150Y0047236D03*
X0171181Y0047236D03*
X0171213Y0047236D03*
X0171244Y0047236D03*
X0171276Y0047236D03*
X0171307Y0047236D03*
X0171339Y0047205D03*
X0171370Y0047205D03*
X0171402Y0047205D03*
X0171370Y0048118D03*
X0171339Y0048118D03*
X0171307Y0048118D03*
X0171276Y0048118D03*
X0171244Y0048118D03*
X0171213Y0048118D03*
X0171181Y0048118D03*
X0171150Y0048118D03*
X0171118Y0048118D03*
X0171087Y0048118D03*
X0171055Y0048118D03*
X0171024Y0048118D03*
X0170992Y0048118D03*
X0170961Y0048118D03*
X0170929Y0048118D03*
X0170898Y0048118D03*
X0170866Y0048118D03*
X0170835Y0048118D03*
X0170803Y0048118D03*
X0170772Y0048118D03*
X0170740Y0048118D03*
X0170709Y0048118D03*
X0170677Y0048118D03*
X0170646Y0048118D03*
X0170614Y0048118D03*
X0170583Y0048118D03*
X0170551Y0048118D03*
X0170520Y0048118D03*
X0170488Y0048118D03*
X0170457Y0048118D03*
X0170425Y0048118D03*
X0170394Y0048118D03*
X0170362Y0048118D03*
X0170331Y0048118D03*
X0170299Y0048118D03*
X0170268Y0048118D03*
X0170236Y0048118D03*
X0170205Y0048118D03*
X0170173Y0048118D03*
X0170142Y0048118D03*
X0170110Y0048118D03*
X0170079Y0048118D03*
X0170047Y0048118D03*
X0170016Y0048118D03*
X0169984Y0048118D03*
X0169953Y0048118D03*
X0169921Y0048118D03*
X0169890Y0048118D03*
X0169858Y0048118D03*
X0169827Y0048118D03*
X0169827Y0049504D03*
X0169858Y0049504D03*
X0169890Y0049504D03*
X0169921Y0049504D03*
X0169953Y0049504D03*
X0169984Y0049504D03*
X0170016Y0049504D03*
X0170047Y0049504D03*
X0170079Y0049504D03*
X0170110Y0049504D03*
X0170142Y0049504D03*
X0170173Y0049504D03*
X0170205Y0049504D03*
X0170236Y0049504D03*
X0170268Y0049504D03*
X0170299Y0049504D03*
X0170331Y0049504D03*
X0170362Y0049504D03*
X0170394Y0049504D03*
X0170425Y0049504D03*
X0170457Y0049504D03*
X0170488Y0049504D03*
X0170520Y0049504D03*
X0170551Y0049504D03*
X0170583Y0049504D03*
X0170614Y0049504D03*
X0170646Y0049504D03*
X0170677Y0049504D03*
X0170709Y0049504D03*
X0170740Y0049504D03*
X0170772Y0049504D03*
X0170803Y0049504D03*
X0170835Y0049504D03*
X0170866Y0049504D03*
X0170898Y0049504D03*
X0170929Y0049504D03*
X0170961Y0049504D03*
X0170992Y0049504D03*
X0171024Y0049504D03*
X0171055Y0049504D03*
X0171087Y0049504D03*
X0171118Y0049504D03*
X0171150Y0049504D03*
X0171181Y0049504D03*
X0171213Y0049504D03*
X0171244Y0049504D03*
X0171276Y0049504D03*
X0171906Y0049504D03*
X0171937Y0049504D03*
X0171969Y0049504D03*
X0172000Y0049504D03*
X0172031Y0049504D03*
X0172063Y0049504D03*
X0172094Y0049504D03*
X0172094Y0050480D03*
X0172063Y0050480D03*
X0172031Y0050480D03*
X0172000Y0050480D03*
X0171969Y0050480D03*
X0171937Y0050480D03*
X0171906Y0050480D03*
X0171874Y0050480D03*
X0171843Y0050480D03*
X0171811Y0050480D03*
X0171780Y0050480D03*
X0171748Y0050480D03*
X0171717Y0050480D03*
X0171685Y0050480D03*
X0171654Y0050480D03*
X0171622Y0050480D03*
X0171591Y0050480D03*
X0171559Y0050480D03*
X0171528Y0050480D03*
X0171496Y0050480D03*
X0171465Y0050480D03*
X0171433Y0050480D03*
X0171402Y0050480D03*
X0171370Y0050480D03*
X0171339Y0050480D03*
X0171307Y0050480D03*
X0171276Y0050480D03*
X0171244Y0050480D03*
X0171213Y0050480D03*
X0171181Y0050480D03*
X0171150Y0050480D03*
X0171118Y0050480D03*
X0171087Y0050480D03*
X0171055Y0050480D03*
X0171024Y0050480D03*
X0170992Y0050480D03*
X0170961Y0050480D03*
X0170929Y0050480D03*
X0170898Y0050480D03*
X0170866Y0050480D03*
X0170835Y0050480D03*
X0170803Y0050480D03*
X0170772Y0050480D03*
X0170740Y0050480D03*
X0170709Y0050480D03*
X0170677Y0050480D03*
X0170646Y0050480D03*
X0170614Y0050480D03*
X0170583Y0050480D03*
X0170551Y0050480D03*
X0170016Y0050480D03*
X0169984Y0050480D03*
X0169953Y0050480D03*
X0169921Y0050480D03*
X0169890Y0050480D03*
X0169858Y0050480D03*
X0169827Y0050480D03*
X0170583Y0052024D03*
X0170614Y0052024D03*
X0170646Y0052024D03*
X0170677Y0051992D03*
X0170709Y0051992D03*
X0170740Y0051992D03*
X0170772Y0051992D03*
X0170803Y0051992D03*
X0170835Y0051992D03*
X0170866Y0051992D03*
X0170898Y0051992D03*
X0171024Y0051992D03*
X0171055Y0051992D03*
X0171087Y0051992D03*
X0171118Y0051992D03*
X0171150Y0051992D03*
X0171181Y0051992D03*
X0171213Y0051992D03*
X0171244Y0051992D03*
X0171276Y0052024D03*
X0171307Y0052024D03*
X0171339Y0052024D03*
X0164535Y0050008D03*
X0164504Y0050008D03*
X0164472Y0050008D03*
X0164441Y0050008D03*
X0164409Y0050008D03*
X0164378Y0050008D03*
X0164346Y0050039D03*
X0164315Y0050039D03*
X0164252Y0050071D03*
X0164220Y0050071D03*
X0164189Y0050102D03*
X0164157Y0050102D03*
X0164094Y0050134D03*
X0164063Y0050134D03*
X0164031Y0050165D03*
X0164000Y0050165D03*
X0163937Y0050197D03*
X0163906Y0050197D03*
X0163874Y0050228D03*
X0163843Y0050228D03*
X0163780Y0050260D03*
X0163748Y0050260D03*
X0163717Y0050291D03*
X0163685Y0050291D03*
X0163622Y0050323D03*
X0163591Y0050323D03*
X0163559Y0050354D03*
X0163528Y0050354D03*
X0163465Y0050386D03*
X0163433Y0050386D03*
X0163402Y0050417D03*
X0163370Y0050417D03*
X0163307Y0050449D03*
X0163276Y0050449D03*
X0163244Y0050480D03*
X0163213Y0050480D03*
X0163150Y0050512D03*
X0163118Y0050512D03*
X0163087Y0050543D03*
X0163055Y0050543D03*
X0162992Y0050575D03*
X0162961Y0050575D03*
X0162929Y0050606D03*
X0162898Y0050606D03*
X0162835Y0050638D03*
X0162803Y0050638D03*
X0162772Y0050669D03*
X0162740Y0050669D03*
X0161764Y0047110D03*
X0161732Y0047110D03*
X0161638Y0047142D03*
X0161606Y0047142D03*
X0161575Y0047142D03*
X0161480Y0047173D03*
X0161449Y0047173D03*
X0161417Y0047173D03*
X0161386Y0047173D03*
X0161354Y0047173D03*
X0161323Y0047173D03*
X0161291Y0047173D03*
X0161260Y0047173D03*
X0161228Y0047173D03*
X0160945Y0047173D03*
X0160913Y0047173D03*
X0160882Y0047173D03*
X0160850Y0047173D03*
X0160819Y0047173D03*
X0160787Y0047173D03*
X0160756Y0047173D03*
X0160661Y0047142D03*
X0160630Y0047142D03*
X0160598Y0047142D03*
X0160567Y0047142D03*
X0160504Y0047110D03*
X0160472Y0047110D03*
X0160441Y0047110D03*
X0160409Y0047079D03*
X0160378Y0047079D03*
X0160346Y0047079D03*
X0160315Y0047079D03*
X0160283Y0047047D03*
X0160252Y0047047D03*
X0160189Y0047016D03*
X0160157Y0047016D03*
X0160126Y0046984D03*
X0160094Y0046984D03*
X0160031Y0046953D03*
X0159969Y0046921D03*
X0159906Y0046890D03*
X0159843Y0046858D03*
X0157858Y0049945D03*
X0157827Y0049945D03*
X0157795Y0049945D03*
X0157764Y0049945D03*
X0157732Y0049945D03*
X0157701Y0049976D03*
X0157669Y0049976D03*
X0155937Y0047803D03*
X0154740Y0045913D03*
X0154709Y0045913D03*
X0154677Y0045913D03*
X0154583Y0045882D03*
X0154551Y0045882D03*
X0154520Y0045882D03*
X0154425Y0045850D03*
X0154394Y0045850D03*
X0154362Y0045850D03*
X0154331Y0045850D03*
X0154268Y0045819D03*
X0154236Y0045819D03*
X0154205Y0045819D03*
X0154173Y0045819D03*
X0154079Y0045787D03*
X0154047Y0045787D03*
X0154016Y0045787D03*
X0153921Y0045756D03*
X0153890Y0045756D03*
X0153858Y0045756D03*
X0153827Y0045756D03*
X0153764Y0045724D03*
X0153732Y0045724D03*
X0153701Y0045724D03*
X0153669Y0045724D03*
X0153575Y0045693D03*
X0153543Y0045693D03*
X0153512Y0045693D03*
X0153417Y0045661D03*
X0153386Y0045661D03*
X0153354Y0045661D03*
X0153323Y0045661D03*
X0153228Y0045630D03*
X0153197Y0045630D03*
X0153165Y0045630D03*
X0153071Y0045598D03*
X0153039Y0045598D03*
X0153008Y0045598D03*
X0152976Y0045598D03*
X0152976Y0043488D03*
X0153008Y0043488D03*
X0153039Y0043488D03*
X0153071Y0043488D03*
X0153134Y0043457D03*
X0153165Y0043457D03*
X0153197Y0043457D03*
X0153228Y0043457D03*
X0153323Y0043425D03*
X0153354Y0043425D03*
X0153386Y0043425D03*
X0153480Y0043394D03*
X0153512Y0043394D03*
X0153543Y0043394D03*
X0153575Y0043394D03*
X0153638Y0043362D03*
X0153669Y0043362D03*
X0153701Y0043362D03*
X0153732Y0043362D03*
X0153827Y0043331D03*
X0153858Y0043331D03*
X0153890Y0043331D03*
X0153921Y0043331D03*
X0153984Y0043299D03*
X0154016Y0043299D03*
X0154047Y0043299D03*
X0154079Y0043299D03*
X0154173Y0043268D03*
X0154205Y0043268D03*
X0154236Y0043268D03*
X0154331Y0043236D03*
X0154362Y0043236D03*
X0154394Y0043236D03*
X0154425Y0043236D03*
X0154488Y0043205D03*
X0154520Y0043205D03*
X0154551Y0043205D03*
X0154583Y0043205D03*
X0154677Y0043173D03*
X0154709Y0043173D03*
X0154740Y0043173D03*
X0157669Y0039110D03*
X0157701Y0039110D03*
X0157732Y0039142D03*
X0157764Y0039142D03*
X0157795Y0039142D03*
X0157827Y0039142D03*
X0157858Y0039142D03*
X0159969Y0042165D03*
X0160031Y0042134D03*
X0160094Y0042102D03*
X0160157Y0042071D03*
X0160189Y0042071D03*
X0160220Y0042039D03*
X0160252Y0042039D03*
X0160283Y0042039D03*
X0160315Y0042008D03*
X0160346Y0042008D03*
X0160378Y0042008D03*
X0160441Y0041976D03*
X0160472Y0041976D03*
X0160504Y0041976D03*
X0160567Y0041945D03*
X0160598Y0041945D03*
X0160630Y0041945D03*
X0160661Y0041945D03*
X0160724Y0041913D03*
X0160756Y0041913D03*
X0160787Y0041913D03*
X0160819Y0041913D03*
X0160850Y0041913D03*
X0160882Y0041913D03*
X0160913Y0041913D03*
X0161291Y0041913D03*
X0161323Y0041913D03*
X0161354Y0041913D03*
X0161386Y0041913D03*
X0161417Y0041913D03*
X0161449Y0041913D03*
X0161480Y0041913D03*
X0161512Y0041913D03*
X0161575Y0041945D03*
X0161606Y0041945D03*
X0161638Y0041945D03*
X0161669Y0041945D03*
X0161764Y0041976D03*
X0163654Y0043268D03*
X0163685Y0043268D03*
X0163717Y0043236D03*
X0163748Y0043236D03*
X0163811Y0043205D03*
X0163843Y0043205D03*
X0163874Y0043173D03*
X0163906Y0043173D03*
X0163969Y0043142D03*
X0164031Y0043110D03*
X0164063Y0043110D03*
X0164126Y0043079D03*
X0164189Y0043047D03*
X0164220Y0043047D03*
X0164252Y0043016D03*
X0164283Y0043016D03*
X0164346Y0042984D03*
X0164378Y0042984D03*
X0164409Y0042953D03*
X0164441Y0042953D03*
X0164504Y0042921D03*
X0164567Y0042890D03*
X0164598Y0042890D03*
X0164630Y0042858D03*
X0164661Y0042858D03*
X0164724Y0042827D03*
X0164756Y0042827D03*
X0164787Y0042795D03*
X0164819Y0042795D03*
X0164882Y0042764D03*
X0164945Y0042732D03*
X0164976Y0042732D03*
X0165039Y0042701D03*
X0165102Y0042669D03*
X0165134Y0042669D03*
X0165165Y0042638D03*
X0165197Y0042638D03*
X0165260Y0042606D03*
X0165291Y0042606D03*
X0165323Y0042575D03*
X0165354Y0042575D03*
X0165417Y0042543D03*
X0165480Y0042512D03*
X0165512Y0042512D03*
X0165543Y0042480D03*
X0165575Y0042480D03*
X0165638Y0042449D03*
X0165669Y0042449D03*
X0165701Y0042417D03*
X0165732Y0042417D03*
X0165795Y0042386D03*
X0165858Y0042354D03*
X0165890Y0042354D03*
X0165953Y0042323D03*
X0166016Y0042291D03*
X0166047Y0042291D03*
X0166079Y0042260D03*
X0166110Y0042260D03*
X0166173Y0042228D03*
X0166205Y0042228D03*
X0166236Y0042197D03*
X0166268Y0042197D03*
X0166331Y0042165D03*
X0166394Y0042134D03*
X0166425Y0042134D03*
X0166488Y0042102D03*
X0166551Y0042071D03*
X0166583Y0042071D03*
X0166614Y0042039D03*
X0166646Y0042039D03*
X0167055Y0041882D03*
X0169827Y0040433D03*
X0169858Y0040433D03*
X0169890Y0040433D03*
X0169921Y0040433D03*
X0169953Y0040433D03*
X0169984Y0040433D03*
X0170016Y0040433D03*
X0170646Y0040433D03*
X0170677Y0040433D03*
X0170709Y0040433D03*
X0170740Y0040433D03*
X0170772Y0040433D03*
X0170803Y0040433D03*
X0170835Y0040433D03*
X0170866Y0040433D03*
X0170898Y0040433D03*
X0170929Y0040433D03*
X0170961Y0040433D03*
X0170992Y0040433D03*
X0171024Y0040433D03*
X0171055Y0040433D03*
X0171087Y0040433D03*
X0171118Y0040433D03*
X0171150Y0040433D03*
X0171181Y0040433D03*
X0171213Y0040433D03*
X0171244Y0040433D03*
X0171276Y0040433D03*
X0171307Y0040433D03*
X0171339Y0040433D03*
X0171370Y0040433D03*
X0171402Y0040433D03*
X0171433Y0040433D03*
X0171465Y0040433D03*
X0171496Y0040433D03*
X0171528Y0040433D03*
X0171559Y0040433D03*
X0171591Y0040433D03*
X0171622Y0040433D03*
X0171654Y0040433D03*
X0171685Y0040433D03*
X0171717Y0040433D03*
X0171748Y0040433D03*
X0171780Y0040433D03*
X0171811Y0040433D03*
X0171843Y0040433D03*
X0171874Y0040433D03*
X0171906Y0040433D03*
X0171937Y0040433D03*
X0171969Y0040433D03*
X0172000Y0040433D03*
X0172031Y0040433D03*
X0172063Y0040433D03*
X0172094Y0040433D03*
X0171654Y0039394D03*
X0170740Y0039583D03*
X0170709Y0039583D03*
X0170677Y0039583D03*
X0170646Y0039583D03*
X0170614Y0039551D03*
X0170583Y0039551D03*
X0170551Y0039551D03*
X0170520Y0039551D03*
X0170457Y0039520D03*
X0170425Y0038228D03*
X0170394Y0038228D03*
X0170457Y0038197D03*
X0170488Y0038197D03*
X0170551Y0038165D03*
X0170583Y0038165D03*
X0170740Y0038134D03*
X0171150Y0038134D03*
X0171181Y0038134D03*
X0171339Y0038165D03*
X0171370Y0038165D03*
X0171433Y0038197D03*
X0171465Y0038197D03*
X0171307Y0037346D03*
X0171276Y0037346D03*
X0171244Y0037346D03*
X0171213Y0037346D03*
X0171181Y0037346D03*
X0171150Y0037346D03*
X0171118Y0037346D03*
X0171087Y0037346D03*
X0171055Y0037346D03*
X0171024Y0037346D03*
X0170992Y0037346D03*
X0170961Y0037346D03*
X0170929Y0037346D03*
X0170898Y0037346D03*
X0170866Y0037346D03*
X0170835Y0037346D03*
X0170803Y0037346D03*
X0170772Y0037346D03*
X0170740Y0037346D03*
X0170709Y0037346D03*
X0170677Y0037346D03*
X0170646Y0037346D03*
X0170614Y0037346D03*
X0170709Y0035961D03*
X0170740Y0035961D03*
X0170772Y0035961D03*
X0170803Y0035961D03*
X0170835Y0035961D03*
X0170866Y0035961D03*
X0170898Y0035961D03*
X0170929Y0035961D03*
X0170961Y0035961D03*
X0170992Y0035961D03*
X0171024Y0035961D03*
X0171055Y0035961D03*
X0171087Y0035961D03*
X0171118Y0035961D03*
X0171150Y0035961D03*
X0171181Y0035961D03*
X0171213Y0035961D03*
X0171906Y0035961D03*
X0171937Y0035961D03*
X0171969Y0035961D03*
X0172000Y0035961D03*
X0172031Y0035961D03*
X0172063Y0035961D03*
X0172094Y0035961D03*
X0172126Y0035961D03*
X0172157Y0035961D03*
X0172189Y0035961D03*
X0172220Y0035961D03*
X0172252Y0035961D03*
X0172283Y0035961D03*
X0172315Y0035961D03*
X0172346Y0035961D03*
X0172378Y0035961D03*
X0172409Y0035961D03*
X0172441Y0035961D03*
X0172472Y0035961D03*
X0172504Y0035961D03*
X0172535Y0035961D03*
X0172567Y0035961D03*
X0172598Y0035961D03*
X0172630Y0035961D03*
X0172661Y0035961D03*
X0172693Y0035961D03*
X0172724Y0035961D03*
X0172756Y0035961D03*
X0172787Y0035961D03*
X0172819Y0035961D03*
X0172850Y0035961D03*
X0172882Y0035961D03*
X0172913Y0035961D03*
X0172945Y0035961D03*
X0172976Y0035961D03*
X0173008Y0035961D03*
X0173039Y0035961D03*
X0173071Y0035961D03*
X0173102Y0035961D03*
X0173134Y0035961D03*
X0173165Y0035961D03*
X0173197Y0035961D03*
X0173228Y0035961D03*
X0173260Y0035961D03*
X0173291Y0035961D03*
X0173323Y0035961D03*
X0173354Y0035961D03*
X0173386Y0035961D03*
X0173417Y0035961D03*
X0173449Y0035961D03*
X0173480Y0035961D03*
X0173512Y0035961D03*
X0173543Y0035961D03*
X0173575Y0035961D03*
X0173606Y0035961D03*
X0173638Y0035961D03*
X0173669Y0035961D03*
X0174268Y0035961D03*
X0174299Y0035961D03*
X0174331Y0035961D03*
X0174362Y0035961D03*
X0174394Y0035961D03*
X0174425Y0035961D03*
X0174457Y0035961D03*
X0174488Y0035961D03*
X0174520Y0035961D03*
X0174551Y0035961D03*
X0174583Y0035961D03*
X0174614Y0035961D03*
X0174646Y0035961D03*
X0174677Y0035961D03*
X0174709Y0035961D03*
X0174740Y0035961D03*
X0174772Y0035961D03*
X0174803Y0035961D03*
X0174835Y0035961D03*
X0174866Y0035961D03*
X0174898Y0035961D03*
X0174929Y0035961D03*
X0174961Y0035961D03*
X0174992Y0035961D03*
X0175024Y0035961D03*
X0175055Y0035961D03*
X0175087Y0035961D03*
X0175118Y0035961D03*
X0175150Y0035961D03*
X0175181Y0035961D03*
X0175213Y0035961D03*
X0175244Y0035961D03*
X0175276Y0035961D03*
X0175307Y0035961D03*
X0175339Y0035961D03*
X0175370Y0035961D03*
X0175402Y0035961D03*
X0175433Y0035961D03*
X0175465Y0035961D03*
X0175496Y0035961D03*
X0175528Y0035961D03*
X0175559Y0035961D03*
X0175591Y0035961D03*
X0175622Y0035961D03*
X0175654Y0035961D03*
X0175685Y0035961D03*
X0175717Y0035961D03*
X0175748Y0035961D03*
X0175748Y0037346D03*
X0175717Y0037346D03*
X0175685Y0037346D03*
X0175654Y0037346D03*
X0175622Y0037346D03*
X0175591Y0037346D03*
X0175559Y0037346D03*
X0175528Y0037346D03*
X0175496Y0037346D03*
X0175465Y0037346D03*
X0175433Y0037346D03*
X0175402Y0037346D03*
X0175370Y0037346D03*
X0175339Y0037346D03*
X0175307Y0037346D03*
X0175276Y0037346D03*
X0175244Y0037346D03*
X0175213Y0037346D03*
X0175181Y0037346D03*
X0175150Y0037346D03*
X0175118Y0037346D03*
X0175087Y0037346D03*
X0175055Y0037346D03*
X0175024Y0037346D03*
X0174992Y0037346D03*
X0174961Y0037346D03*
X0174929Y0037346D03*
X0174898Y0037346D03*
X0174866Y0037346D03*
X0174835Y0037346D03*
X0174803Y0037346D03*
X0174772Y0037346D03*
X0174740Y0037346D03*
X0174709Y0037346D03*
X0174677Y0037346D03*
X0174646Y0037346D03*
X0174614Y0037346D03*
X0174583Y0037346D03*
X0174551Y0037346D03*
X0174520Y0037346D03*
X0174488Y0037346D03*
X0174457Y0037346D03*
X0174425Y0037346D03*
X0174394Y0037346D03*
X0174362Y0037346D03*
X0174331Y0037346D03*
X0174299Y0037346D03*
X0174268Y0037346D03*
X0174236Y0037346D03*
X0174929Y0038165D03*
X0175118Y0038134D03*
X0175213Y0038165D03*
X0175244Y0038165D03*
X0175087Y0039551D03*
X0175055Y0039551D03*
X0175024Y0039551D03*
X0174992Y0039551D03*
X0174961Y0039551D03*
X0174929Y0039551D03*
X0174898Y0039551D03*
X0174866Y0039551D03*
X0174835Y0039551D03*
X0174803Y0039551D03*
X0174394Y0039551D03*
X0174362Y0039551D03*
X0174331Y0039551D03*
X0174299Y0039551D03*
X0174268Y0039551D03*
X0174236Y0039551D03*
X0174205Y0039551D03*
X0174173Y0039551D03*
X0174142Y0039551D03*
X0174110Y0039551D03*
X0174047Y0039520D03*
X0174016Y0039520D03*
X0173449Y0038827D03*
X0173480Y0040528D03*
X0173512Y0040528D03*
X0173543Y0040528D03*
X0173575Y0040528D03*
X0173606Y0040528D03*
X0173638Y0040528D03*
X0173669Y0040528D03*
X0174236Y0040528D03*
X0174268Y0040528D03*
X0174299Y0040528D03*
X0174331Y0040528D03*
X0174362Y0040528D03*
X0174394Y0040528D03*
X0174425Y0040528D03*
X0174457Y0040528D03*
X0174488Y0040528D03*
X0174520Y0040528D03*
X0174551Y0040528D03*
X0174583Y0040528D03*
X0174614Y0040528D03*
X0174646Y0040528D03*
X0174677Y0040528D03*
X0174709Y0040528D03*
X0174740Y0040528D03*
X0174772Y0040528D03*
X0174803Y0040528D03*
X0174835Y0040528D03*
X0174866Y0040528D03*
X0174898Y0040528D03*
X0174929Y0040528D03*
X0174961Y0040528D03*
X0174992Y0040528D03*
X0175024Y0040528D03*
X0175055Y0040528D03*
X0175087Y0040528D03*
X0175118Y0040528D03*
X0175150Y0040528D03*
X0175181Y0040528D03*
X0175213Y0040528D03*
X0175244Y0040528D03*
X0175276Y0040528D03*
X0175307Y0040528D03*
X0175339Y0040528D03*
X0175370Y0040528D03*
X0175402Y0040528D03*
X0175433Y0040528D03*
X0175465Y0040528D03*
X0175496Y0040528D03*
X0175528Y0040528D03*
X0175559Y0040528D03*
X0175591Y0040528D03*
X0175622Y0040528D03*
X0175654Y0040528D03*
X0175685Y0040528D03*
X0175717Y0040528D03*
X0175748Y0040528D03*
X0175748Y0039551D03*
X0175717Y0039551D03*
X0175685Y0039551D03*
X0175654Y0039551D03*
X0175622Y0039551D03*
X0175591Y0039551D03*
X0174961Y0042102D03*
X0174929Y0042102D03*
X0174898Y0042102D03*
X0174866Y0042102D03*
X0174835Y0042102D03*
X0174803Y0042102D03*
X0174772Y0042102D03*
X0174740Y0042102D03*
X0174709Y0042102D03*
X0174677Y0042102D03*
X0174646Y0042102D03*
X0174614Y0042102D03*
X0174583Y0042102D03*
X0174551Y0042102D03*
X0174520Y0042102D03*
X0174488Y0042102D03*
X0174457Y0042102D03*
X0174425Y0042102D03*
X0174394Y0042102D03*
X0174362Y0042102D03*
X0174331Y0042102D03*
X0174299Y0042102D03*
X0174268Y0042102D03*
X0174362Y0043488D03*
X0174394Y0043488D03*
X0174425Y0043488D03*
X0174457Y0043488D03*
X0174488Y0043488D03*
X0174520Y0043488D03*
X0174551Y0043488D03*
X0174583Y0043488D03*
X0174614Y0043488D03*
X0174646Y0043488D03*
X0174677Y0043488D03*
X0174709Y0043488D03*
X0174740Y0043488D03*
X0174772Y0043488D03*
X0174803Y0043488D03*
X0174835Y0043488D03*
X0174866Y0043488D03*
X0175559Y0043488D03*
X0175591Y0043488D03*
X0175622Y0043488D03*
X0175654Y0043488D03*
X0175685Y0043488D03*
X0175717Y0043488D03*
X0175748Y0043488D03*
X0173669Y0043488D03*
X0173638Y0043488D03*
X0173606Y0043488D03*
X0173575Y0043488D03*
X0173543Y0043488D03*
X0173512Y0043488D03*
X0172094Y0041819D03*
X0172063Y0041819D03*
X0172031Y0041819D03*
X0172000Y0041819D03*
X0171969Y0041819D03*
X0171937Y0041819D03*
X0171906Y0041819D03*
X0171874Y0041819D03*
X0171843Y0041819D03*
X0171811Y0041819D03*
X0171780Y0041819D03*
X0171748Y0041819D03*
X0171717Y0041819D03*
X0171685Y0041819D03*
X0171654Y0041819D03*
X0171622Y0041819D03*
X0171591Y0041819D03*
X0171559Y0041819D03*
X0171528Y0041819D03*
X0171496Y0041819D03*
X0171465Y0041819D03*
X0171433Y0041819D03*
X0171402Y0041819D03*
X0171370Y0041819D03*
X0171339Y0041819D03*
X0171307Y0041819D03*
X0171276Y0041819D03*
X0171244Y0041819D03*
X0171213Y0041819D03*
X0171181Y0041819D03*
X0171150Y0041819D03*
X0171118Y0041819D03*
X0171087Y0041819D03*
X0171055Y0041819D03*
X0171024Y0041819D03*
X0170992Y0041819D03*
X0170961Y0041819D03*
X0170929Y0041819D03*
X0170898Y0041819D03*
X0170866Y0041819D03*
X0170835Y0041819D03*
X0170803Y0041819D03*
X0170772Y0041819D03*
X0170740Y0041819D03*
X0170709Y0041819D03*
X0170677Y0041819D03*
X0170646Y0041819D03*
X0170614Y0041819D03*
X0170583Y0041819D03*
X0170551Y0041819D03*
X0170551Y0043709D03*
X0170520Y0043709D03*
X0170488Y0043709D03*
X0170457Y0043709D03*
X0170425Y0043709D03*
X0170394Y0043709D03*
X0167055Y0047205D03*
X0166646Y0047047D03*
X0166583Y0047016D03*
X0166551Y0047016D03*
X0166488Y0046984D03*
X0166425Y0046953D03*
X0166394Y0046953D03*
X0166362Y0046921D03*
X0166331Y0046921D03*
X0166268Y0046890D03*
X0166236Y0046890D03*
X0166205Y0046858D03*
X0166173Y0046858D03*
X0166110Y0046827D03*
X0166047Y0046795D03*
X0166016Y0046795D03*
X0165953Y0046764D03*
X0165890Y0046732D03*
X0165858Y0046732D03*
X0165827Y0046701D03*
X0165795Y0046701D03*
X0165732Y0046669D03*
X0165669Y0046638D03*
X0165638Y0046638D03*
X0165575Y0046606D03*
X0165512Y0046575D03*
X0165480Y0046575D03*
X0165449Y0046543D03*
X0165417Y0046543D03*
X0165354Y0046512D03*
X0165323Y0046512D03*
X0165291Y0046480D03*
X0165260Y0046480D03*
X0165197Y0046449D03*
X0165134Y0046417D03*
X0165102Y0046417D03*
X0165039Y0046386D03*
X0164976Y0046354D03*
X0164945Y0046354D03*
X0164913Y0046323D03*
X0164882Y0046323D03*
X0164819Y0046291D03*
X0164756Y0046260D03*
X0164724Y0046260D03*
X0164661Y0046228D03*
X0164598Y0046197D03*
X0164567Y0046197D03*
X0164535Y0046165D03*
X0164504Y0046165D03*
X0164441Y0046134D03*
X0164409Y0046134D03*
X0164378Y0046102D03*
X0164346Y0046102D03*
X0164283Y0046071D03*
X0164220Y0046039D03*
X0164189Y0046039D03*
X0164126Y0046008D03*
X0164063Y0045976D03*
X0164031Y0045976D03*
X0164000Y0045945D03*
X0163969Y0045945D03*
X0163906Y0045913D03*
X0163843Y0045882D03*
X0163811Y0045882D03*
X0163748Y0045850D03*
X0163685Y0045819D03*
X0163654Y0045819D03*
X0164409Y0039079D03*
X0164441Y0039079D03*
X0164472Y0039079D03*
X0164504Y0039079D03*
X0164535Y0039079D03*
X0164378Y0039047D03*
X0164346Y0039047D03*
X0164315Y0039047D03*
X0164252Y0039016D03*
X0164189Y0038984D03*
X0164157Y0038984D03*
X0164094Y0038953D03*
X0164031Y0038921D03*
X0164000Y0038921D03*
X0163937Y0038890D03*
X0163874Y0038858D03*
X0163843Y0038858D03*
X0163780Y0038827D03*
X0163717Y0038795D03*
X0163685Y0038795D03*
X0163622Y0038764D03*
X0163559Y0038732D03*
X0163528Y0038732D03*
X0163465Y0038701D03*
X0163402Y0038669D03*
X0163370Y0038669D03*
X0163307Y0038638D03*
X0163244Y0038606D03*
X0163213Y0038606D03*
X0163181Y0038575D03*
X0163150Y0038575D03*
X0163087Y0038543D03*
X0163055Y0038543D03*
X0162992Y0038512D03*
X0162929Y0038480D03*
X0162898Y0038480D03*
X0162866Y0038449D03*
X0162835Y0038449D03*
X0162772Y0038417D03*
X0169827Y0035961D03*
X0169858Y0035961D03*
X0169890Y0035961D03*
X0169921Y0035961D03*
X0169953Y0035961D03*
X0169984Y0035961D03*
X0170016Y0035961D03*
X0170488Y0035047D03*
X0170551Y0035079D03*
X0170583Y0035079D03*
X0170614Y0035079D03*
X0170646Y0035079D03*
X0170677Y0035079D03*
X0170772Y0035110D03*
X0170803Y0035110D03*
X0170835Y0035110D03*
X0170866Y0035110D03*
X0170898Y0035110D03*
X0170929Y0035110D03*
X0170961Y0035110D03*
X0170992Y0035110D03*
X0171024Y0035110D03*
X0171055Y0035110D03*
X0171087Y0035110D03*
X0171118Y0035110D03*
X0171150Y0035110D03*
X0171244Y0035079D03*
X0171276Y0035079D03*
X0171307Y0035079D03*
X0171339Y0035079D03*
X0171370Y0035079D03*
X0171433Y0035047D03*
X0171402Y0033693D03*
X0171370Y0033693D03*
X0171339Y0033693D03*
X0171307Y0033693D03*
X0171276Y0033661D03*
X0171244Y0033661D03*
X0171213Y0033661D03*
X0171181Y0033661D03*
X0171150Y0033661D03*
X0171118Y0033661D03*
X0171087Y0033661D03*
X0171055Y0033661D03*
X0171024Y0033661D03*
X0170992Y0033661D03*
X0170961Y0033661D03*
X0170929Y0033661D03*
X0170898Y0033661D03*
X0170866Y0033661D03*
X0170835Y0033661D03*
X0170803Y0033661D03*
X0170772Y0033661D03*
X0170740Y0033661D03*
X0170709Y0033661D03*
X0170677Y0033661D03*
X0170646Y0033661D03*
X0170614Y0033693D03*
X0170583Y0033693D03*
X0170551Y0033693D03*
X0170520Y0033693D03*
X0169795Y0034386D03*
X0175654Y0044906D03*
X0175685Y0044906D03*
X0175717Y0044906D03*
X0175685Y0046291D03*
X0172571Y0080406D03*
X0170665Y0089661D03*
X0160461Y0095268D03*
X0155862Y0089661D03*
X0160461Y0105630D03*
X0166256Y0105850D03*
X0170665Y0111236D03*
X0155894Y0111236D03*
D167*
X0159421Y0100449D03*
X0167768Y0100449D03*
X0173043Y0068043D03*
D168*
X0173012Y0056469D03*
X0169795Y0054701D03*
X0170299Y0053283D03*
X0172126Y0052780D03*
X0166425Y0047961D03*
X0170268Y0044874D03*
X0171591Y0043677D03*
X0173543Y0045598D03*
X0173575Y0045598D03*
X0174205Y0045819D03*
X0174299Y0045850D03*
X0174394Y0045882D03*
X0174425Y0045882D03*
X0174488Y0045913D03*
X0174520Y0045913D03*
X0174583Y0045945D03*
X0174614Y0045945D03*
X0174677Y0045976D03*
X0174709Y0045976D03*
X0174740Y0045976D03*
X0174772Y0046008D03*
X0174803Y0046008D03*
X0174835Y0046008D03*
X0174866Y0046039D03*
X0174898Y0046039D03*
X0174929Y0046039D03*
X0174992Y0046071D03*
X0175024Y0046071D03*
X0175055Y0046071D03*
X0175024Y0046543D03*
X0174992Y0046543D03*
X0174898Y0046575D03*
X0174677Y0046638D03*
X0174362Y0045346D03*
X0174331Y0045346D03*
X0174425Y0045315D03*
X0174457Y0045315D03*
X0174520Y0045283D03*
X0174551Y0045283D03*
X0174614Y0045252D03*
X0174646Y0045252D03*
X0174677Y0045252D03*
X0174709Y0045220D03*
X0174740Y0045220D03*
X0174772Y0045220D03*
X0174835Y0045189D03*
X0174866Y0045189D03*
X0174929Y0045157D03*
X0174961Y0045157D03*
X0174992Y0045157D03*
X0175024Y0045126D03*
X0175055Y0045126D03*
X0175055Y0044685D03*
X0174961Y0044654D03*
X0174929Y0044654D03*
X0174866Y0044622D03*
X0174835Y0044622D03*
X0174740Y0044591D03*
X0174236Y0045378D03*
X0175748Y0044906D03*
X0175780Y0042638D03*
X0169795Y0038858D03*
X0166425Y0041126D03*
X0175055Y0038134D03*
X0172126Y0034386D03*
X0154299Y0039299D03*
X0154299Y0049787D03*
X0168193Y0080185D03*
X0170728Y0089630D03*
X0166224Y0095079D03*
X0160492Y0095268D03*
X0166508Y0100465D03*
X0166224Y0105850D03*
X0160492Y0105630D03*
X0155831Y0111268D03*
D169*
X0173012Y0068028D03*
D170*
X0172980Y0056437D03*
X0171622Y0055268D03*
X0171591Y0053283D03*
X0170331Y0053283D03*
X0173449Y0052181D03*
X0173449Y0050732D03*
X0172126Y0048654D03*
X0173480Y0045598D03*
X0171559Y0043677D03*
X0170299Y0044906D03*
X0171622Y0039425D03*
X0172126Y0036811D03*
X0154268Y0039299D03*
X0154268Y0049787D03*
X0175276Y0052748D03*
X0168224Y0080185D03*
X0170760Y0089630D03*
X0166193Y0095079D03*
X0160524Y0095299D03*
X0166445Y0100465D03*
X0166193Y0105819D03*
X0170760Y0111299D03*
X0155768Y0111299D03*
X0155799Y0089630D03*
D171*
X0172949Y0068028D03*
X0172980Y0068028D03*
D172*
X0165894Y0077665D03*
X0167846Y0080091D03*
X0172980Y0080343D03*
X0170004Y0090071D03*
X0166697Y0094921D03*
X0156555Y0090071D03*
X0156524Y0090039D03*
X0160051Y0105756D03*
X0156524Y0110858D03*
X0169972Y0110827D03*
X0171969Y0052780D03*
X0167559Y0049693D03*
X0170740Y0044087D03*
X0175591Y0038701D03*
X0169953Y0034386D03*
X0159591Y0038102D03*
X0155150Y0042669D03*
X0158709Y0043583D03*
X0158709Y0045504D03*
X0155780Y0047740D03*
X0159591Y0050984D03*
D173*
X0155969Y0047819D03*
X0155969Y0041268D03*
X0167118Y0041929D03*
X0173449Y0041362D03*
X0173921Y0038370D03*
X0173449Y0036795D03*
X0167118Y0047157D03*
X0167906Y0049772D03*
X0173921Y0047756D03*
X0172949Y0056421D03*
X0155768Y0089614D03*
X0166161Y0095094D03*
X0166413Y0100449D03*
X0166161Y0105803D03*
X0160555Y0105614D03*
X0170791Y0111315D03*
D174*
X0170035Y0110874D03*
X0170004Y0110843D03*
X0166697Y0105992D03*
X0169752Y0102591D03*
X0169752Y0100449D03*
X0169752Y0098339D03*
X0160051Y0095157D03*
X0153311Y0092260D03*
X0156492Y0090024D03*
X0157815Y0100449D03*
X0156492Y0110874D03*
X0167878Y0080106D03*
X0172949Y0080358D03*
X0172000Y0054780D03*
X0169953Y0054717D03*
X0175654Y0052260D03*
X0173543Y0048228D03*
X0171969Y0046528D03*
X0169953Y0046528D03*
X0173669Y0042654D03*
X0175559Y0042654D03*
X0173543Y0038843D03*
X0173669Y0036795D03*
X0171906Y0036795D03*
X0170016Y0036795D03*
X0171969Y0034370D03*
X0167559Y0039378D03*
X0166614Y0041142D03*
X0170016Y0041268D03*
X0162551Y0037992D03*
X0155780Y0041331D03*
X0154583Y0039378D03*
X0155150Y0046402D03*
X0154583Y0049709D03*
X0162551Y0051094D03*
D175*
X0170362Y0053299D03*
X0171559Y0053299D03*
X0173921Y0050843D03*
X0175244Y0052764D03*
X0172917Y0056421D03*
X0170331Y0044921D03*
X0171528Y0043661D03*
X0154236Y0039283D03*
X0168287Y0080169D03*
X0172413Y0080421D03*
X0172445Y0080421D03*
X0170823Y0089583D03*
X0166130Y0095094D03*
X0160587Y0095315D03*
X0155705Y0089583D03*
X0166130Y0105803D03*
X0155705Y0111315D03*
D176*
X0159358Y0100449D03*
X0167831Y0100449D03*
X0172886Y0068012D03*
X0172917Y0068012D03*
D177*
X0172886Y0080374D03*
X0170130Y0089976D03*
X0167768Y0092244D03*
X0160114Y0095173D03*
X0156398Y0089976D03*
X0169783Y0098354D03*
X0169783Y0100465D03*
X0169783Y0102575D03*
X0166634Y0105976D03*
X0167768Y0108685D03*
X0170130Y0110921D03*
X0160114Y0105724D03*
X0169921Y0054701D03*
X0175685Y0052244D03*
X0175654Y0048087D03*
X0172000Y0046512D03*
X0173638Y0042638D03*
X0172031Y0038921D03*
X0169921Y0038858D03*
X0171937Y0036811D03*
X0172000Y0034386D03*
X0162047Y0036433D03*
X0160220Y0036433D03*
X0154551Y0039362D03*
X0155087Y0042764D03*
X0158740Y0043488D03*
X0158740Y0045598D03*
X0155087Y0046323D03*
X0154551Y0049724D03*
X0162047Y0052654D03*
D178*
X0170299Y0051441D03*
X0170425Y0053299D03*
X0171496Y0053299D03*
X0172823Y0056421D03*
X0172854Y0056421D03*
X0173984Y0047756D03*
X0173953Y0041488D03*
X0173984Y0038370D03*
X0172350Y0080421D03*
X0168350Y0080201D03*
X0170949Y0089520D03*
X0155610Y0089520D03*
X0157783Y0100449D03*
X0166035Y0105772D03*
X0170949Y0111378D03*
X0155610Y0111378D03*
D179*
X0172854Y0068028D03*
D180*
X0172823Y0068028D03*
X0172791Y0068028D03*
D181*
X0172791Y0056421D03*
X0171465Y0053299D03*
X0173984Y0050874D03*
X0175181Y0052764D03*
X0174016Y0047756D03*
X0170394Y0044953D03*
X0173984Y0041520D03*
X0154173Y0039283D03*
X0154173Y0049803D03*
X0168382Y0080201D03*
X0172319Y0080421D03*
X0155579Y0089520D03*
X0160713Y0095346D03*
X0166004Y0095157D03*
X0160713Y0105551D03*
X0170980Y0111409D03*
D182*
X0170319Y0111047D03*
X0166508Y0105945D03*
X0156209Y0111047D03*
X0160240Y0095205D03*
X0166508Y0094984D03*
X0170287Y0089882D03*
X0170319Y0089850D03*
X0172791Y0080374D03*
X0167972Y0080122D03*
X0156209Y0089850D03*
X0169858Y0052780D03*
X0169890Y0051299D03*
X0167685Y0049724D03*
X0169858Y0046512D03*
X0175087Y0044906D03*
X0175685Y0042638D03*
X0175717Y0038732D03*
X0172063Y0038921D03*
X0169890Y0041283D03*
X0167685Y0039362D03*
X0162614Y0038165D03*
X0159528Y0038291D03*
X0163244Y0042984D03*
X0163276Y0043016D03*
X0163307Y0043079D03*
X0163339Y0043110D03*
X0163370Y0043142D03*
X0163402Y0043173D03*
X0163402Y0045913D03*
X0163370Y0045945D03*
X0163307Y0046008D03*
X0163244Y0046102D03*
X0158866Y0045882D03*
X0158835Y0045819D03*
X0154992Y0046165D03*
X0154992Y0042921D03*
X0169858Y0034386D03*
D183*
X0171496Y0039425D03*
X0171433Y0043646D03*
X0170331Y0051457D03*
X0170457Y0053283D03*
X0171496Y0055268D03*
X0172760Y0056406D03*
X0168413Y0080185D03*
X0171012Y0089504D03*
X0155547Y0089504D03*
X0155547Y0111394D03*
X0171012Y0111425D03*
D184*
X0172760Y0068028D03*
D185*
X0168445Y0068043D03*
X0172760Y0084390D03*
X0170350Y0093583D03*
X0167673Y0094685D03*
X0163957Y0100449D03*
X0158004Y0100449D03*
X0156114Y0093614D03*
X0156146Y0093583D03*
X0156177Y0093583D03*
X0156146Y0107315D03*
X0170350Y0107315D03*
D186*
X0167925Y0100449D03*
X0159264Y0100449D03*
X0167311Y0077650D03*
X0172728Y0068043D03*
D187*
X0172728Y0080406D03*
X0170445Y0089787D03*
X0173311Y0092244D03*
X0166917Y0100433D03*
X0160303Y0095236D03*
X0160303Y0105693D03*
X0156114Y0111110D03*
X0170445Y0111110D03*
X0173311Y0108654D03*
X0172094Y0054764D03*
X0169858Y0051299D03*
X0171622Y0049378D03*
X0173953Y0050008D03*
X0175748Y0048118D03*
X0175276Y0046291D03*
X0174079Y0045598D03*
X0174047Y0045598D03*
X0175244Y0044906D03*
X0175276Y0044906D03*
X0175307Y0044906D03*
X0175717Y0042638D03*
X0171181Y0044906D03*
X0166961Y0048622D03*
X0167024Y0048717D03*
X0167087Y0048811D03*
X0167307Y0049126D03*
X0167370Y0049220D03*
X0167433Y0049315D03*
X0163055Y0046323D03*
X0163024Y0046354D03*
X0162992Y0046386D03*
X0159024Y0046134D03*
X0158992Y0046102D03*
X0158961Y0046039D03*
X0158992Y0042984D03*
X0159024Y0042953D03*
X0162992Y0042701D03*
X0163024Y0042732D03*
X0163055Y0042764D03*
X0167024Y0040370D03*
X0167087Y0040276D03*
X0167150Y0040181D03*
X0167370Y0039866D03*
X0167433Y0039772D03*
X0169858Y0041283D03*
X0172094Y0038921D03*
X0173921Y0037157D03*
X0173953Y0036087D03*
X0175748Y0038732D03*
X0169858Y0036811D03*
X0161984Y0036276D03*
X0160283Y0036276D03*
X0155748Y0038008D03*
X0155717Y0038039D03*
X0155685Y0038071D03*
X0155654Y0038102D03*
X0155622Y0038134D03*
X0155591Y0038165D03*
X0155559Y0038197D03*
X0155528Y0038228D03*
X0155496Y0038260D03*
X0155465Y0038291D03*
X0155433Y0038323D03*
X0155402Y0038354D03*
X0155370Y0038386D03*
X0155339Y0038417D03*
X0155307Y0038449D03*
X0155276Y0038480D03*
X0155244Y0038512D03*
X0155213Y0038543D03*
X0155181Y0038575D03*
X0155150Y0038606D03*
X0155118Y0038638D03*
X0155087Y0038669D03*
X0155055Y0038701D03*
X0155024Y0038732D03*
X0154992Y0038764D03*
X0154961Y0038795D03*
X0154929Y0038827D03*
X0154898Y0038858D03*
X0154866Y0038890D03*
X0154835Y0038921D03*
X0154803Y0038953D03*
X0154425Y0039331D03*
X0154425Y0049756D03*
X0154803Y0050134D03*
X0154835Y0050165D03*
X0154866Y0050197D03*
X0154898Y0050228D03*
X0154929Y0050260D03*
X0154961Y0050291D03*
X0154992Y0050323D03*
X0155024Y0050354D03*
X0155055Y0050386D03*
X0155087Y0050417D03*
X0155118Y0050449D03*
X0155150Y0050480D03*
X0155181Y0050512D03*
X0155213Y0050543D03*
X0155244Y0050575D03*
X0155276Y0050606D03*
X0155307Y0050638D03*
X0155339Y0050669D03*
X0155370Y0050701D03*
X0155402Y0050732D03*
X0155433Y0050764D03*
X0155465Y0050795D03*
X0155496Y0050827D03*
X0155528Y0050858D03*
X0155559Y0050890D03*
X0155591Y0050921D03*
X0155622Y0050953D03*
X0155654Y0050984D03*
X0155685Y0051016D03*
X0155717Y0051047D03*
X0160283Y0052811D03*
X0161984Y0052811D03*
D188*
X0172665Y0068028D03*
X0172697Y0068028D03*
D189*
X0172697Y0080390D03*
X0170476Y0089772D03*
X0166413Y0095000D03*
X0156083Y0089772D03*
X0160335Y0105677D03*
X0166413Y0105898D03*
X0156083Y0111126D03*
X0171685Y0054244D03*
X0169827Y0052795D03*
X0170268Y0052260D03*
X0171654Y0052260D03*
X0173890Y0052669D03*
X0175339Y0051724D03*
X0173512Y0050717D03*
X0173890Y0048764D03*
X0172063Y0048669D03*
X0171654Y0048291D03*
X0170268Y0047031D03*
X0169827Y0046528D03*
X0171654Y0046024D03*
X0174016Y0045614D03*
X0175307Y0046307D03*
X0175339Y0046307D03*
X0175276Y0043378D03*
X0173953Y0043378D03*
X0173921Y0042276D03*
X0173512Y0041362D03*
X0173953Y0040638D03*
X0175339Y0039441D03*
X0174803Y0038307D03*
X0173512Y0036795D03*
X0172063Y0036795D03*
X0171654Y0037173D03*
X0171622Y0036071D03*
X0171654Y0034874D03*
X0170299Y0036071D03*
X0171685Y0038402D03*
X0170299Y0040543D03*
X0170268Y0041646D03*
X0166961Y0041803D03*
X0166488Y0041110D03*
X0167748Y0039346D03*
X0162646Y0038276D03*
X0162898Y0042591D03*
X0162929Y0042622D03*
X0162961Y0042654D03*
X0163496Y0043220D03*
X0163496Y0045866D03*
X0162961Y0046433D03*
X0162929Y0046465D03*
X0159055Y0046181D03*
X0159055Y0042906D03*
X0155780Y0037992D03*
X0155811Y0037961D03*
X0166961Y0047283D03*
X0167748Y0049740D03*
X0162646Y0050811D03*
X0155780Y0051094D03*
X0155748Y0051063D03*
D190*
X0155843Y0051126D03*
X0155906Y0047787D03*
X0159181Y0046339D03*
X0159213Y0046370D03*
X0159244Y0046402D03*
X0162614Y0046717D03*
X0162709Y0046654D03*
X0162740Y0046622D03*
X0162772Y0046591D03*
X0163528Y0045835D03*
X0163528Y0043252D03*
X0162772Y0042496D03*
X0162740Y0042465D03*
X0162709Y0042433D03*
X0159276Y0042654D03*
X0159244Y0042685D03*
X0159213Y0042717D03*
X0159181Y0042748D03*
X0165102Y0038748D03*
X0166205Y0037992D03*
X0170236Y0038370D03*
X0171622Y0037205D03*
X0171559Y0036039D03*
X0171622Y0034937D03*
X0171622Y0033835D03*
X0170299Y0033835D03*
X0170299Y0034937D03*
X0170331Y0036039D03*
X0174016Y0036039D03*
X0173984Y0037236D03*
X0175339Y0038276D03*
X0173984Y0040606D03*
X0173953Y0042244D03*
X0174016Y0043409D03*
X0175244Y0043409D03*
X0175276Y0042213D03*
X0171654Y0043724D03*
X0170236Y0043819D03*
X0171622Y0047063D03*
X0173921Y0045614D03*
X0175402Y0046307D03*
X0175433Y0046307D03*
X0175339Y0047630D03*
X0174016Y0049961D03*
X0171559Y0049425D03*
X0170331Y0050559D03*
X0170299Y0052197D03*
X0171622Y0052197D03*
X0173890Y0051724D03*
X0170236Y0054213D03*
X0166992Y0047252D03*
X0170362Y0040512D03*
X0172665Y0080390D03*
X0167736Y0092228D03*
X0169878Y0098339D03*
X0169878Y0100449D03*
X0166823Y0100449D03*
X0167736Y0108669D03*
X0170508Y0111157D03*
X0156020Y0111157D03*
X0156020Y0089740D03*
D191*
X0172602Y0068028D03*
D192*
X0172571Y0084453D03*
X0171280Y0086657D03*
X0171248Y0086657D03*
X0170193Y0093520D03*
X0163988Y0100449D03*
X0167736Y0106244D03*
X0170161Y0107409D03*
X0170224Y0107378D03*
X0159075Y0105929D03*
X0156303Y0107378D03*
X0156303Y0093520D03*
D193*
X0172539Y0068028D03*
D194*
X0172539Y0080421D03*
X0170697Y0089646D03*
X0166256Y0095063D03*
X0169909Y0098339D03*
X0169909Y0100449D03*
X0166571Y0100449D03*
X0166539Y0100449D03*
X0169909Y0102591D03*
X0170697Y0111252D03*
X0155862Y0111252D03*
X0171654Y0055252D03*
X0172126Y0054780D03*
X0171370Y0054024D03*
X0171276Y0053992D03*
X0171244Y0053992D03*
X0171213Y0053992D03*
X0171181Y0053992D03*
X0170740Y0053992D03*
X0170709Y0053992D03*
X0170677Y0053992D03*
X0170646Y0053992D03*
X0170551Y0054024D03*
X0170520Y0054024D03*
X0171622Y0053268D03*
X0170992Y0051976D03*
X0170961Y0051976D03*
X0170929Y0051976D03*
X0169795Y0052795D03*
X0174110Y0051535D03*
X0174205Y0051504D03*
X0174236Y0051504D03*
X0174331Y0051472D03*
X0174362Y0051472D03*
X0174394Y0051472D03*
X0174803Y0051472D03*
X0174835Y0051472D03*
X0174866Y0051472D03*
X0174898Y0051472D03*
X0175024Y0051504D03*
X0175307Y0052732D03*
X0173890Y0047787D03*
X0173984Y0046843D03*
X0174205Y0046780D03*
X0174299Y0046748D03*
X0174331Y0046748D03*
X0174394Y0046717D03*
X0174425Y0046717D03*
X0174488Y0046685D03*
X0174520Y0046685D03*
X0174551Y0046685D03*
X0174583Y0046654D03*
X0174614Y0046654D03*
X0174646Y0046654D03*
X0174709Y0046622D03*
X0174740Y0046622D03*
X0174772Y0046622D03*
X0174803Y0046591D03*
X0174835Y0046591D03*
X0174866Y0046591D03*
X0174929Y0046559D03*
X0174961Y0046559D03*
X0175055Y0046528D03*
X0174961Y0046055D03*
X0175717Y0046307D03*
X0175748Y0046307D03*
X0175150Y0047504D03*
X0175118Y0047504D03*
X0175087Y0047504D03*
X0175055Y0047504D03*
X0175024Y0047504D03*
X0174992Y0047504D03*
X0174929Y0047535D03*
X0173638Y0045614D03*
X0173606Y0045614D03*
X0174047Y0044386D03*
X0174142Y0044417D03*
X0174173Y0044417D03*
X0174268Y0044449D03*
X0174362Y0044480D03*
X0174394Y0044480D03*
X0174457Y0044512D03*
X0174488Y0044512D03*
X0174520Y0044512D03*
X0174551Y0044543D03*
X0174583Y0044543D03*
X0174614Y0044543D03*
X0174646Y0044575D03*
X0174677Y0044575D03*
X0174709Y0044575D03*
X0174772Y0044606D03*
X0174803Y0044606D03*
X0174898Y0044638D03*
X0174992Y0044669D03*
X0175024Y0044669D03*
X0171181Y0045803D03*
X0171150Y0045803D03*
X0171118Y0045803D03*
X0171087Y0045803D03*
X0171055Y0045803D03*
X0171024Y0045803D03*
X0170866Y0045803D03*
X0170835Y0045803D03*
X0170803Y0045803D03*
X0170772Y0045803D03*
X0170740Y0045803D03*
X0167843Y0049772D03*
X0161921Y0052953D03*
X0161890Y0052953D03*
X0161858Y0052953D03*
X0161827Y0052953D03*
X0161795Y0052953D03*
X0161764Y0052953D03*
X0161732Y0052953D03*
X0161701Y0052953D03*
X0161669Y0052953D03*
X0161638Y0052953D03*
X0161606Y0052953D03*
X0161575Y0052953D03*
X0161543Y0052953D03*
X0161512Y0052953D03*
X0161480Y0052953D03*
X0161449Y0052953D03*
X0161417Y0052953D03*
X0161386Y0052953D03*
X0161354Y0052953D03*
X0161323Y0052953D03*
X0161291Y0052953D03*
X0161260Y0052953D03*
X0161228Y0052953D03*
X0161197Y0052953D03*
X0161165Y0052953D03*
X0161134Y0052953D03*
X0161102Y0052953D03*
X0161071Y0052953D03*
X0161039Y0052953D03*
X0161008Y0052953D03*
X0160976Y0052953D03*
X0160945Y0052953D03*
X0160913Y0052953D03*
X0160882Y0052953D03*
X0160850Y0052953D03*
X0160819Y0052953D03*
X0160787Y0052953D03*
X0160756Y0052953D03*
X0160724Y0052953D03*
X0160693Y0052953D03*
X0160661Y0052953D03*
X0160630Y0052953D03*
X0160598Y0052953D03*
X0160567Y0052953D03*
X0160535Y0052953D03*
X0160504Y0052953D03*
X0160472Y0052953D03*
X0160441Y0052953D03*
X0160409Y0052953D03*
X0160378Y0052953D03*
X0160346Y0052953D03*
X0160976Y0047189D03*
X0161008Y0047189D03*
X0161039Y0047189D03*
X0161071Y0047189D03*
X0161102Y0047189D03*
X0161134Y0047189D03*
X0161165Y0047189D03*
X0161197Y0047189D03*
X0160724Y0047157D03*
X0160693Y0047157D03*
X0160535Y0047126D03*
X0160409Y0041992D03*
X0160535Y0041961D03*
X0160693Y0041929D03*
X0160945Y0041898D03*
X0160976Y0041898D03*
X0161008Y0041898D03*
X0161039Y0041898D03*
X0161071Y0041898D03*
X0161102Y0041898D03*
X0161134Y0041898D03*
X0161165Y0041898D03*
X0161197Y0041898D03*
X0161228Y0041898D03*
X0161260Y0041898D03*
X0167843Y0039315D03*
X0170520Y0038181D03*
X0170614Y0038150D03*
X0170646Y0038150D03*
X0170677Y0038150D03*
X0170709Y0038150D03*
X0171213Y0038150D03*
X0171244Y0038150D03*
X0171276Y0038150D03*
X0171307Y0038150D03*
X0171402Y0038181D03*
X0172126Y0038937D03*
X0173890Y0038402D03*
X0174961Y0038150D03*
X0174992Y0038150D03*
X0175024Y0038150D03*
X0175087Y0038118D03*
X0175150Y0038150D03*
X0175181Y0038150D03*
X0174079Y0039535D03*
X0171213Y0035094D03*
X0171181Y0035094D03*
X0170740Y0035094D03*
X0170709Y0035094D03*
X0161921Y0036134D03*
X0161890Y0036134D03*
X0161858Y0036134D03*
X0161827Y0036134D03*
X0161795Y0036134D03*
X0161764Y0036134D03*
X0161732Y0036134D03*
X0161701Y0036134D03*
X0161669Y0036134D03*
X0161638Y0036134D03*
X0161606Y0036134D03*
X0161575Y0036134D03*
X0161543Y0036134D03*
X0161512Y0036134D03*
X0161480Y0036134D03*
X0161449Y0036134D03*
X0161417Y0036134D03*
X0161386Y0036134D03*
X0161354Y0036134D03*
X0161323Y0036134D03*
X0161291Y0036134D03*
X0161260Y0036134D03*
X0161228Y0036134D03*
X0161197Y0036134D03*
X0161165Y0036134D03*
X0161134Y0036134D03*
X0161102Y0036134D03*
X0161071Y0036134D03*
X0161039Y0036134D03*
X0161008Y0036134D03*
X0160976Y0036134D03*
X0160945Y0036134D03*
X0160913Y0036134D03*
X0160882Y0036134D03*
X0160850Y0036134D03*
X0160819Y0036134D03*
X0160787Y0036134D03*
X0160756Y0036134D03*
X0160724Y0036134D03*
X0160693Y0036134D03*
X0160661Y0036134D03*
X0160630Y0036134D03*
X0160598Y0036134D03*
X0160567Y0036134D03*
X0160535Y0036134D03*
X0160504Y0036134D03*
X0160472Y0036134D03*
X0160441Y0036134D03*
X0160409Y0036134D03*
X0160378Y0036134D03*
X0160346Y0036134D03*
D195*
X0168602Y0068059D03*
X0172508Y0084469D03*
X0172539Y0084469D03*
X0170161Y0093504D03*
X0167768Y0094669D03*
X0156335Y0093504D03*
X0156335Y0107394D03*
X0170130Y0107425D03*
X0170193Y0107394D03*
D196*
X0170728Y0111283D03*
X0160524Y0105614D03*
X0155799Y0111283D03*
X0166476Y0100449D03*
X0155831Y0089646D03*
X0172508Y0080421D03*
X0169795Y0051315D03*
X0167874Y0049772D03*
X0167087Y0047189D03*
X0172126Y0046528D03*
X0173512Y0045614D03*
X0174173Y0045803D03*
X0174236Y0045835D03*
X0174268Y0045835D03*
X0174331Y0045866D03*
X0174362Y0045866D03*
X0174457Y0045898D03*
X0174551Y0045929D03*
X0174646Y0045961D03*
X0174394Y0045331D03*
X0174488Y0045299D03*
X0174583Y0045268D03*
X0174803Y0045205D03*
X0174898Y0045173D03*
X0174299Y0045362D03*
X0174268Y0045362D03*
X0174205Y0045394D03*
X0174173Y0045394D03*
X0169795Y0041268D03*
X0167087Y0041898D03*
X0167874Y0039315D03*
X0169795Y0036795D03*
D197*
X0172476Y0068957D03*
X0165217Y0097866D03*
X0167862Y0107094D03*
D198*
X0170823Y0111331D03*
X0160587Y0105598D03*
X0155736Y0111299D03*
X0166382Y0100465D03*
X0160555Y0095299D03*
X0155736Y0089598D03*
X0168256Y0080185D03*
X0172476Y0080406D03*
X0170791Y0089598D03*
X0171591Y0055268D03*
X0154236Y0049787D03*
X0167906Y0039299D03*
X0171591Y0039425D03*
X0173449Y0042638D03*
D199*
X0172445Y0068972D03*
X0166492Y0077665D03*
X0165311Y0097850D03*
X0165280Y0103079D03*
D200*
X0165406Y0097835D03*
X0165437Y0097835D03*
X0165469Y0097835D03*
X0172413Y0069020D03*
D201*
X0172382Y0069035D03*
X0165563Y0097819D03*
X0165531Y0103079D03*
D202*
X0169437Y0107378D03*
X0158319Y0100449D03*
X0165878Y0097835D03*
X0165909Y0097835D03*
X0169437Y0093520D03*
X0172350Y0069146D03*
D203*
X0172319Y0069209D03*
X0166335Y0077650D03*
X0169500Y0093520D03*
X0166098Y0097866D03*
X0166067Y0103063D03*
X0166035Y0103063D03*
X0158287Y0100449D03*
X0157028Y0107409D03*
X0157028Y0093488D03*
D204*
X0166350Y0097882D03*
X0166350Y0103016D03*
X0166319Y0103016D03*
X0169563Y0093504D03*
X0172287Y0069256D03*
D205*
X0172256Y0069366D03*
X0166114Y0060232D03*
X0169689Y0093488D03*
X0166760Y0097992D03*
X0166728Y0097992D03*
X0164177Y0100449D03*
X0166728Y0102906D03*
X0166760Y0102906D03*
X0166791Y0102874D03*
X0166823Y0102874D03*
X0169689Y0107409D03*
X0156839Y0107441D03*
X0158193Y0100449D03*
X0156839Y0093488D03*
D206*
X0158098Y0100465D03*
X0158886Y0105945D03*
X0156618Y0107457D03*
X0169909Y0093472D03*
X0171563Y0086642D03*
X0171594Y0086642D03*
X0167154Y0060469D03*
X0167122Y0060469D03*
D207*
X0167469Y0060547D03*
X0167500Y0060547D03*
X0167531Y0060547D03*
X0171469Y0086657D03*
X0158949Y0094969D03*
X0158067Y0100449D03*
X0164051Y0100449D03*
X0158949Y0105929D03*
X0156524Y0107472D03*
D208*
X0156366Y0107409D03*
X0159043Y0105929D03*
X0158035Y0100449D03*
X0162287Y0100449D03*
X0159043Y0094969D03*
X0156366Y0093488D03*
X0170098Y0093457D03*
X0170130Y0093488D03*
X0171311Y0086657D03*
X0167343Y0079571D03*
X0168634Y0068043D03*
X0168665Y0068043D03*
X0167768Y0106244D03*
X0170098Y0107441D03*
D209*
X0166854Y0106039D03*
X0163894Y0104969D03*
X0159894Y0105787D03*
X0153343Y0108654D03*
X0156807Y0110669D03*
X0169626Y0102575D03*
X0166854Y0094858D03*
X0163768Y0095929D03*
X0163736Y0095929D03*
X0163705Y0095929D03*
X0163673Y0095929D03*
X0159894Y0095110D03*
X0156839Y0090260D03*
X0156807Y0090228D03*
X0169720Y0090260D03*
X0171122Y0073697D03*
X0171154Y0073697D03*
X0171185Y0073697D03*
X0171217Y0073697D03*
X0171091Y0073665D03*
X0171059Y0073665D03*
X0171028Y0073665D03*
X0170996Y0073665D03*
X0170965Y0073665D03*
X0170933Y0073665D03*
X0170047Y0052780D03*
X0171874Y0052780D03*
X0170110Y0050953D03*
X0173795Y0050354D03*
X0174457Y0048433D03*
X0171843Y0046512D03*
X0170079Y0046512D03*
X0169984Y0044402D03*
X0170835Y0044276D03*
X0173764Y0041000D03*
X0173795Y0041000D03*
X0174457Y0039079D03*
X0173638Y0038858D03*
X0171843Y0034386D03*
X0170079Y0034386D03*
X0162110Y0036622D03*
X0154709Y0039394D03*
X0154709Y0049693D03*
X0162110Y0052465D03*
D210*
X0167437Y0060531D03*
X0168854Y0068059D03*
X0166146Y0077665D03*
X0169972Y0107457D03*
D211*
X0166098Y0105787D03*
X0166350Y0100465D03*
X0166098Y0095110D03*
X0170854Y0089567D03*
X0168319Y0080185D03*
X0155673Y0089567D03*
X0155673Y0111331D03*
X0170854Y0111331D03*
X0170268Y0051425D03*
X0167937Y0049787D03*
X0167150Y0047142D03*
X0173953Y0047740D03*
X0173921Y0041472D03*
X0173953Y0038386D03*
X0167937Y0039299D03*
X0167150Y0041945D03*
D212*
X0167024Y0041850D03*
X0167811Y0039331D03*
X0170299Y0038291D03*
X0170488Y0037315D03*
X0170394Y0037283D03*
X0171433Y0037315D03*
X0171496Y0037283D03*
X0171528Y0037283D03*
X0172094Y0036811D03*
X0171433Y0035992D03*
X0171402Y0035992D03*
X0170520Y0035992D03*
X0170488Y0035992D03*
X0170457Y0035992D03*
X0170394Y0035016D03*
X0170362Y0034984D03*
X0171528Y0035016D03*
X0171559Y0034984D03*
X0171528Y0033756D03*
X0170394Y0033756D03*
X0174110Y0035992D03*
X0174142Y0035992D03*
X0174047Y0037283D03*
X0174110Y0037315D03*
X0175276Y0038197D03*
X0175244Y0039520D03*
X0173953Y0039488D03*
X0174079Y0040559D03*
X0174110Y0040559D03*
X0173480Y0041346D03*
X0174047Y0042165D03*
X0174079Y0042165D03*
X0174142Y0042134D03*
X0173480Y0042638D03*
X0174142Y0043457D03*
X0174173Y0043457D03*
X0175055Y0043457D03*
X0175087Y0043457D03*
X0175118Y0043457D03*
X0175181Y0042165D03*
X0170457Y0041787D03*
X0170425Y0041787D03*
X0170457Y0040465D03*
X0170488Y0040465D03*
X0170394Y0039488D03*
X0170331Y0039457D03*
X0171559Y0038260D03*
X0171591Y0038291D03*
X0164661Y0039016D03*
X0164630Y0039047D03*
X0162677Y0038354D03*
X0160315Y0036181D03*
X0159433Y0038480D03*
X0159402Y0038480D03*
X0159370Y0038512D03*
X0159339Y0038512D03*
X0159307Y0038543D03*
X0159276Y0038543D03*
X0159213Y0038575D03*
X0159150Y0038606D03*
X0159118Y0038606D03*
X0159087Y0038638D03*
X0159055Y0038638D03*
X0158992Y0038669D03*
X0158929Y0038701D03*
X0158898Y0038701D03*
X0158866Y0038732D03*
X0158835Y0038732D03*
X0158772Y0038764D03*
X0158709Y0038795D03*
X0158677Y0038795D03*
X0158646Y0038827D03*
X0158614Y0038827D03*
X0158551Y0038858D03*
X0158488Y0038890D03*
X0158457Y0038890D03*
X0158425Y0038921D03*
X0158394Y0038921D03*
X0158331Y0038953D03*
X0158268Y0038984D03*
X0158236Y0038984D03*
X0158205Y0039016D03*
X0158173Y0039016D03*
X0158110Y0039047D03*
X0158047Y0039079D03*
X0158016Y0039079D03*
X0157543Y0039047D03*
X0157512Y0039016D03*
X0157449Y0038984D03*
X0157417Y0038953D03*
X0157354Y0038921D03*
X0157323Y0038890D03*
X0157260Y0038858D03*
X0157228Y0038827D03*
X0157197Y0038795D03*
X0157165Y0038795D03*
X0157134Y0038764D03*
X0157102Y0038732D03*
X0157039Y0038701D03*
X0157008Y0038669D03*
X0156945Y0038638D03*
X0156913Y0038606D03*
X0156850Y0038575D03*
X0156819Y0038543D03*
X0156756Y0038512D03*
X0156724Y0038480D03*
X0156693Y0038449D03*
X0156661Y0038449D03*
X0156630Y0038417D03*
X0156598Y0038386D03*
X0156567Y0038386D03*
X0156535Y0038354D03*
X0156504Y0038323D03*
X0156441Y0038291D03*
X0156409Y0038260D03*
X0156346Y0038228D03*
X0156315Y0038197D03*
X0156252Y0038165D03*
X0156220Y0038134D03*
X0156157Y0038102D03*
X0156126Y0038071D03*
X0156094Y0038039D03*
X0156063Y0038039D03*
X0156031Y0038008D03*
X0156000Y0037976D03*
X0155937Y0037945D03*
X0159780Y0042260D03*
X0159685Y0042323D03*
X0159622Y0042354D03*
X0159591Y0042386D03*
X0159559Y0042417D03*
X0159496Y0042449D03*
X0159465Y0042480D03*
X0161984Y0042039D03*
X0162079Y0042071D03*
X0162142Y0042102D03*
X0162205Y0042134D03*
X0162236Y0042134D03*
X0162268Y0042165D03*
X0162331Y0042197D03*
X0162394Y0042228D03*
X0163591Y0043268D03*
X0163591Y0045819D03*
X0162394Y0046858D03*
X0162331Y0046890D03*
X0162268Y0046921D03*
X0162236Y0046953D03*
X0162205Y0046953D03*
X0162142Y0046984D03*
X0162047Y0047016D03*
X0159685Y0046764D03*
X0159654Y0046732D03*
X0159622Y0046732D03*
X0159591Y0046701D03*
X0159559Y0046669D03*
X0159465Y0046606D03*
X0159433Y0046575D03*
X0154835Y0045945D03*
X0154835Y0043110D03*
X0157606Y0050008D03*
X0157543Y0050039D03*
X0157512Y0050071D03*
X0157449Y0050102D03*
X0157417Y0050134D03*
X0157354Y0050165D03*
X0157323Y0050197D03*
X0157260Y0050228D03*
X0157228Y0050260D03*
X0157165Y0050291D03*
X0157134Y0050323D03*
X0157102Y0050354D03*
X0157071Y0050354D03*
X0157039Y0050386D03*
X0157008Y0050417D03*
X0156976Y0050417D03*
X0156945Y0050449D03*
X0156913Y0050480D03*
X0156850Y0050512D03*
X0156819Y0050543D03*
X0156756Y0050575D03*
X0156724Y0050606D03*
X0156661Y0050638D03*
X0156630Y0050669D03*
X0156567Y0050701D03*
X0156535Y0050732D03*
X0156504Y0050764D03*
X0156472Y0050764D03*
X0156441Y0050795D03*
X0156409Y0050827D03*
X0156346Y0050858D03*
X0156315Y0050890D03*
X0156252Y0050921D03*
X0156220Y0050953D03*
X0156157Y0050984D03*
X0156126Y0051016D03*
X0156063Y0051047D03*
X0156031Y0051079D03*
X0156000Y0051110D03*
X0155969Y0051110D03*
X0155937Y0051142D03*
X0157953Y0049976D03*
X0158047Y0050008D03*
X0158110Y0050039D03*
X0158142Y0050039D03*
X0158173Y0050071D03*
X0158205Y0050071D03*
X0158268Y0050102D03*
X0158331Y0050134D03*
X0158362Y0050134D03*
X0158394Y0050165D03*
X0158425Y0050165D03*
X0158488Y0050197D03*
X0158551Y0050228D03*
X0158583Y0050228D03*
X0158614Y0050260D03*
X0158646Y0050260D03*
X0158709Y0050291D03*
X0158772Y0050323D03*
X0158803Y0050323D03*
X0158835Y0050354D03*
X0158866Y0050354D03*
X0158929Y0050386D03*
X0158992Y0050417D03*
X0159024Y0050417D03*
X0159055Y0050449D03*
X0159087Y0050449D03*
X0159150Y0050480D03*
X0159213Y0050512D03*
X0159244Y0050512D03*
X0159276Y0050543D03*
X0159307Y0050543D03*
X0159339Y0050575D03*
X0159370Y0050575D03*
X0159433Y0050606D03*
X0160315Y0052906D03*
X0162677Y0050732D03*
X0164630Y0050039D03*
X0164661Y0050071D03*
X0164693Y0050071D03*
X0167811Y0049756D03*
X0167024Y0047236D03*
X0170394Y0047142D03*
X0171528Y0047142D03*
X0171496Y0048150D03*
X0171465Y0048150D03*
X0172094Y0048654D03*
X0171465Y0049472D03*
X0171433Y0049472D03*
X0171402Y0049472D03*
X0170457Y0050512D03*
X0170425Y0050512D03*
X0170425Y0052087D03*
X0170394Y0052118D03*
X0171496Y0052087D03*
X0171528Y0052118D03*
X0171654Y0053252D03*
X0171559Y0054102D03*
X0171591Y0054134D03*
X0170299Y0054134D03*
X0170268Y0053252D03*
X0170331Y0055299D03*
X0170362Y0055331D03*
X0173984Y0052780D03*
X0174016Y0052811D03*
X0173953Y0051646D03*
X0173984Y0051614D03*
X0173480Y0050732D03*
X0174110Y0049913D03*
X0174142Y0049913D03*
X0173953Y0048843D03*
X0175244Y0048874D03*
X0175276Y0048874D03*
X0175591Y0046291D03*
X0175591Y0044906D03*
X0175559Y0044906D03*
X0173764Y0045598D03*
X0171559Y0045913D03*
X0171528Y0045882D03*
X0171496Y0045882D03*
X0170425Y0045882D03*
X0170394Y0045882D03*
X0170362Y0045913D03*
X0169795Y0044339D03*
X0170646Y0043772D03*
X0175213Y0051583D03*
X0175244Y0051614D03*
X0168130Y0080154D03*
X0170602Y0089693D03*
X0166287Y0095047D03*
X0155925Y0089693D03*
X0170602Y0111205D03*
D213*
X0170539Y0111173D03*
X0166350Y0105882D03*
X0160366Y0105661D03*
X0155988Y0111173D03*
X0166760Y0100433D03*
X0166791Y0100433D03*
X0166350Y0095016D03*
X0160366Y0095236D03*
X0155988Y0089724D03*
X0170539Y0089724D03*
X0168098Y0080154D03*
X0165862Y0077665D03*
X0170268Y0055236D03*
X0171654Y0054197D03*
X0173921Y0052717D03*
X0173953Y0052748D03*
X0173480Y0052181D03*
X0173921Y0051677D03*
X0175307Y0051677D03*
X0174047Y0049945D03*
X0175307Y0048843D03*
X0175465Y0046291D03*
X0175465Y0044906D03*
X0175496Y0044906D03*
X0175433Y0044906D03*
X0173890Y0045598D03*
X0173858Y0045598D03*
X0171622Y0045976D03*
X0171591Y0045945D03*
X0171654Y0044969D03*
X0170677Y0043803D03*
X0170299Y0045976D03*
X0170299Y0047079D03*
X0171591Y0048213D03*
X0171528Y0049441D03*
X0170362Y0050543D03*
X0169827Y0051299D03*
X0171591Y0052181D03*
X0167780Y0049756D03*
X0167465Y0050071D03*
X0167433Y0050102D03*
X0167402Y0050134D03*
X0167370Y0050165D03*
X0167339Y0050197D03*
X0167307Y0050228D03*
X0167276Y0050260D03*
X0167244Y0050291D03*
X0167213Y0050323D03*
X0167181Y0050354D03*
X0167150Y0050386D03*
X0167118Y0050417D03*
X0167087Y0050449D03*
X0167055Y0050480D03*
X0167024Y0050512D03*
X0166992Y0050543D03*
X0166961Y0050575D03*
X0166929Y0050606D03*
X0166898Y0050638D03*
X0166866Y0050669D03*
X0166835Y0050701D03*
X0166803Y0050732D03*
X0166772Y0050764D03*
X0166740Y0050795D03*
X0166709Y0050827D03*
X0166677Y0050858D03*
X0166646Y0050890D03*
X0166614Y0050921D03*
X0166583Y0050953D03*
X0166551Y0050984D03*
X0166520Y0051016D03*
X0166488Y0051047D03*
X0166457Y0051079D03*
X0166425Y0051110D03*
X0166394Y0051142D03*
X0166299Y0051142D03*
X0166268Y0051142D03*
X0166236Y0051110D03*
X0166205Y0051079D03*
X0166173Y0051079D03*
X0166142Y0051047D03*
X0166110Y0051016D03*
X0166079Y0051016D03*
X0166047Y0050984D03*
X0166016Y0050953D03*
X0165984Y0050953D03*
X0165953Y0050921D03*
X0165921Y0050890D03*
X0165890Y0050890D03*
X0165858Y0050858D03*
X0165827Y0050827D03*
X0165795Y0050795D03*
X0165764Y0050795D03*
X0165732Y0050764D03*
X0165701Y0050732D03*
X0165669Y0050732D03*
X0165638Y0050701D03*
X0165606Y0050669D03*
X0165575Y0050669D03*
X0165543Y0050638D03*
X0165512Y0050606D03*
X0165480Y0050606D03*
X0165449Y0050575D03*
X0165417Y0050543D03*
X0165386Y0050543D03*
X0165354Y0050512D03*
X0165323Y0050480D03*
X0165260Y0050449D03*
X0165228Y0050417D03*
X0165197Y0050386D03*
X0165165Y0050386D03*
X0165134Y0050354D03*
X0165102Y0050323D03*
X0165071Y0050323D03*
X0165039Y0050291D03*
X0165008Y0050260D03*
X0164976Y0050260D03*
X0164945Y0050228D03*
X0164913Y0050197D03*
X0164882Y0050197D03*
X0164850Y0050165D03*
X0164819Y0050134D03*
X0164756Y0050102D03*
X0162551Y0046764D03*
X0162583Y0046732D03*
X0162646Y0046701D03*
X0162677Y0046669D03*
X0163559Y0045819D03*
X0163559Y0043268D03*
X0162677Y0042417D03*
X0162646Y0042386D03*
X0162614Y0042354D03*
X0162583Y0042354D03*
X0162551Y0042323D03*
X0164787Y0038953D03*
X0164850Y0038921D03*
X0164882Y0038890D03*
X0164913Y0038890D03*
X0164945Y0038858D03*
X0164976Y0038827D03*
X0165008Y0038827D03*
X0165039Y0038795D03*
X0165071Y0038764D03*
X0165134Y0038732D03*
X0165165Y0038701D03*
X0165197Y0038669D03*
X0165228Y0038669D03*
X0165260Y0038638D03*
X0165291Y0038606D03*
X0165323Y0038606D03*
X0165354Y0038575D03*
X0165386Y0038543D03*
X0165417Y0038543D03*
X0165449Y0038512D03*
X0165480Y0038480D03*
X0165512Y0038480D03*
X0165543Y0038449D03*
X0165575Y0038417D03*
X0165606Y0038417D03*
X0165638Y0038386D03*
X0165669Y0038354D03*
X0165701Y0038323D03*
X0165732Y0038323D03*
X0165764Y0038291D03*
X0165795Y0038260D03*
X0165827Y0038260D03*
X0165858Y0038228D03*
X0165890Y0038197D03*
X0165921Y0038197D03*
X0165953Y0038165D03*
X0165984Y0038134D03*
X0166016Y0038134D03*
X0166047Y0038102D03*
X0166079Y0038071D03*
X0166110Y0038071D03*
X0166142Y0038039D03*
X0166173Y0038008D03*
X0166236Y0037976D03*
X0166268Y0037945D03*
X0166331Y0037913D03*
X0166394Y0037945D03*
X0166425Y0037976D03*
X0166457Y0038008D03*
X0166488Y0038039D03*
X0166520Y0038071D03*
X0166551Y0038102D03*
X0166583Y0038134D03*
X0166614Y0038165D03*
X0166646Y0038197D03*
X0166677Y0038228D03*
X0166709Y0038260D03*
X0166740Y0038291D03*
X0166772Y0038323D03*
X0166803Y0038354D03*
X0166835Y0038386D03*
X0166866Y0038417D03*
X0166898Y0038449D03*
X0166929Y0038480D03*
X0166961Y0038512D03*
X0166992Y0038543D03*
X0167024Y0038575D03*
X0167055Y0038606D03*
X0167087Y0038638D03*
X0167118Y0038669D03*
X0167150Y0038701D03*
X0167181Y0038732D03*
X0167213Y0038764D03*
X0167244Y0038795D03*
X0167276Y0038827D03*
X0167307Y0038858D03*
X0167339Y0038890D03*
X0167370Y0038921D03*
X0167402Y0038953D03*
X0167433Y0038984D03*
X0167465Y0039016D03*
X0167780Y0039331D03*
X0170268Y0039394D03*
X0170299Y0039425D03*
X0170394Y0040496D03*
X0169827Y0041283D03*
X0170331Y0041724D03*
X0173984Y0042197D03*
X0174047Y0043425D03*
X0175181Y0043425D03*
X0175213Y0043425D03*
X0175748Y0042638D03*
X0175244Y0042197D03*
X0174016Y0040591D03*
X0175307Y0039488D03*
X0171685Y0039362D03*
X0171654Y0038354D03*
X0171591Y0037252D03*
X0171528Y0036024D03*
X0170394Y0036024D03*
X0170362Y0036024D03*
X0169827Y0036811D03*
X0170299Y0037220D03*
X0170331Y0037252D03*
X0174047Y0036024D03*
X0166992Y0041819D03*
X0159307Y0046449D03*
X0159276Y0046417D03*
X0159465Y0050638D03*
X0155874Y0051142D03*
X0154866Y0043079D03*
X0155874Y0037945D03*
D214*
X0154677Y0039394D03*
X0155465Y0042008D03*
X0155402Y0042165D03*
X0155370Y0042228D03*
X0155339Y0042323D03*
X0155307Y0042386D03*
X0155307Y0046701D03*
X0155339Y0046764D03*
X0155370Y0046858D03*
X0155402Y0046921D03*
X0155433Y0046984D03*
X0155465Y0047079D03*
X0155717Y0047709D03*
X0154677Y0049693D03*
X0170173Y0050921D03*
X0170205Y0050921D03*
X0170016Y0052780D03*
X0171906Y0052780D03*
X0173858Y0050323D03*
X0173890Y0050323D03*
X0171874Y0046512D03*
X0171087Y0044559D03*
X0171969Y0044339D03*
X0173858Y0040969D03*
X0170047Y0038858D03*
X0170047Y0034386D03*
X0171874Y0034386D03*
X0167783Y0080059D03*
X0169783Y0090197D03*
X0156744Y0090197D03*
X0169657Y0102575D03*
X0169783Y0110701D03*
X0156744Y0110701D03*
X0156713Y0110732D03*
D215*
X0169941Y0107441D03*
X0164083Y0100449D03*
X0162224Y0100449D03*
X0158886Y0094969D03*
X0156587Y0093457D03*
X0169941Y0093457D03*
X0167280Y0060484D03*
X0167248Y0060484D03*
X0167217Y0060484D03*
X0167185Y0060484D03*
D216*
X0167217Y0077650D03*
X0167248Y0077650D03*
X0168020Y0100449D03*
X0159169Y0100449D03*
D217*
X0159043Y0100449D03*
X0158319Y0093835D03*
X0158287Y0093803D03*
X0158256Y0093772D03*
X0158193Y0093677D03*
X0158161Y0093646D03*
X0158130Y0093614D03*
X0158098Y0093583D03*
X0158067Y0093551D03*
X0158035Y0093520D03*
X0158004Y0093488D03*
X0158224Y0107189D03*
X0158193Y0107220D03*
X0158161Y0107252D03*
X0158130Y0107283D03*
X0158098Y0107315D03*
X0158067Y0107346D03*
X0167122Y0077650D03*
D218*
X0156618Y0093457D03*
X0158854Y0094969D03*
X0169909Y0107441D03*
X0167091Y0060453D03*
X0167059Y0060453D03*
D219*
X0167028Y0077650D03*
X0166996Y0077650D03*
X0169059Y0092984D03*
X0169028Y0093016D03*
X0168240Y0100449D03*
X0158949Y0100449D03*
X0158476Y0106937D03*
X0157406Y0107976D03*
X0157374Y0108008D03*
X0168366Y0107315D03*
X0169028Y0107882D03*
X0169059Y0107913D03*
X0169091Y0107945D03*
X0157437Y0092953D03*
X0157406Y0092921D03*
D220*
X0156650Y0093457D03*
X0156650Y0107441D03*
X0169878Y0107441D03*
X0166996Y0060421D03*
X0166965Y0060421D03*
X0166933Y0060421D03*
X0166902Y0060421D03*
D221*
X0166965Y0077650D03*
X0169217Y0092858D03*
X0169185Y0092890D03*
X0169154Y0092921D03*
X0168335Y0093614D03*
X0168272Y0100449D03*
X0168776Y0100449D03*
X0168335Y0107315D03*
X0169185Y0108008D03*
X0158508Y0106937D03*
X0157311Y0108071D03*
X0158917Y0100449D03*
X0157311Y0092858D03*
D222*
X0157185Y0092748D03*
X0157154Y0092717D03*
X0158539Y0093976D03*
X0169311Y0092780D03*
X0168618Y0100433D03*
X0168303Y0107299D03*
X0169311Y0108118D03*
X0169343Y0108150D03*
X0158539Y0106921D03*
X0157154Y0108181D03*
X0166933Y0077665D03*
D223*
X0166177Y0077665D03*
X0169846Y0093472D03*
X0158823Y0094953D03*
X0158823Y0105945D03*
X0169846Y0107425D03*
X0166870Y0060406D03*
X0166839Y0060406D03*
D224*
X0166839Y0077665D03*
D225*
X0156713Y0093457D03*
X0156713Y0107441D03*
X0166618Y0060358D03*
X0166650Y0060358D03*
X0166681Y0060358D03*
D226*
X0166587Y0077650D03*
X0164492Y0100449D03*
X0158539Y0100449D03*
D227*
X0156744Y0107441D03*
X0156744Y0093457D03*
X0166492Y0060327D03*
X0166524Y0060327D03*
D228*
X0166461Y0060311D03*
X0166429Y0060311D03*
X0158161Y0100465D03*
X0169752Y0107425D03*
D229*
X0164146Y0100449D03*
X0156776Y0107441D03*
X0156776Y0093457D03*
X0169752Y0093488D03*
X0166398Y0060295D03*
X0166366Y0060295D03*
X0166335Y0060295D03*
X0166303Y0060295D03*
D230*
X0166398Y0077650D03*
X0165815Y0097835D03*
X0165783Y0097835D03*
X0165752Y0103094D03*
D231*
X0166697Y0102921D03*
X0166697Y0097976D03*
X0166665Y0097976D03*
X0166272Y0077665D03*
D232*
X0169720Y0093488D03*
X0166886Y0098055D03*
X0156807Y0093488D03*
X0156807Y0107441D03*
X0166209Y0060264D03*
X0166240Y0060264D03*
D233*
X0171528Y0055268D03*
X0167213Y0047110D03*
X0171465Y0043646D03*
X0167213Y0041976D03*
X0171528Y0039425D03*
X0174016Y0038386D03*
X0170980Y0089504D03*
X0166035Y0095142D03*
X0160681Y0095331D03*
X0166287Y0100465D03*
X0166004Y0105756D03*
X0160681Y0105567D03*
X0155579Y0111394D03*
D234*
X0155642Y0111362D03*
X0160650Y0105567D03*
X0166067Y0105787D03*
X0170917Y0111362D03*
X0160650Y0095331D03*
X0170917Y0089535D03*
X0175213Y0052748D03*
X0173953Y0050858D03*
X0167969Y0049787D03*
X0166394Y0047961D03*
X0170362Y0044937D03*
X0166394Y0041126D03*
X0167969Y0039299D03*
X0171559Y0039425D03*
D235*
X0166866Y0041740D03*
X0163339Y0045961D03*
X0166866Y0047346D03*
X0173575Y0050717D03*
X0173543Y0052197D03*
X0172063Y0054780D03*
X0175717Y0048102D03*
X0162016Y0052732D03*
X0160252Y0052732D03*
X0155055Y0048921D03*
X0155118Y0048827D03*
X0155181Y0048732D03*
X0155244Y0048638D03*
X0155307Y0048543D03*
X0155339Y0048512D03*
X0155370Y0048449D03*
X0155402Y0048417D03*
X0154961Y0049047D03*
X0154898Y0049142D03*
X0154835Y0049236D03*
X0154488Y0049740D03*
X0158299Y0044543D03*
X0158835Y0043252D03*
X0155402Y0040669D03*
X0155339Y0040575D03*
X0155276Y0040480D03*
X0155244Y0040449D03*
X0155181Y0040354D03*
X0155118Y0040260D03*
X0155055Y0040165D03*
X0154992Y0040071D03*
X0154898Y0039945D03*
X0154835Y0039850D03*
X0154488Y0039346D03*
X0160252Y0036354D03*
X0162016Y0036354D03*
X0156240Y0089866D03*
X0160209Y0095189D03*
X0160209Y0105709D03*
X0156240Y0111031D03*
X0170287Y0111031D03*
D236*
X0170224Y0111000D03*
X0166571Y0105961D03*
X0169815Y0102591D03*
X0169815Y0100449D03*
X0169815Y0098339D03*
X0160177Y0095189D03*
X0156335Y0089929D03*
X0170224Y0089929D03*
X0160177Y0105709D03*
X0156303Y0111000D03*
X0155024Y0046213D03*
X0155024Y0042874D03*
X0169921Y0036795D03*
X0175654Y0042654D03*
X0172031Y0046528D03*
D237*
X0171969Y0048654D03*
X0173512Y0048213D03*
X0175685Y0048087D03*
X0173669Y0050669D03*
X0173638Y0050701D03*
X0173606Y0050732D03*
X0172031Y0052780D03*
X0169890Y0052780D03*
X0169953Y0051299D03*
X0169890Y0046512D03*
X0166835Y0047362D03*
X0169858Y0044370D03*
X0172063Y0044339D03*
X0173606Y0042638D03*
X0173606Y0041346D03*
X0173512Y0038858D03*
X0175685Y0038732D03*
X0171969Y0036811D03*
X0169890Y0034386D03*
X0159559Y0038197D03*
X0154520Y0039362D03*
X0155055Y0042827D03*
X0158772Y0043394D03*
X0158772Y0045693D03*
X0155055Y0046260D03*
X0154520Y0049724D03*
X0159559Y0050890D03*
X0166835Y0041724D03*
X0170193Y0089945D03*
X0166571Y0094953D03*
X0160146Y0095173D03*
X0160146Y0105724D03*
X0156366Y0110953D03*
X0156335Y0110984D03*
X0170193Y0110953D03*
D238*
X0169941Y0110795D03*
X0166728Y0106008D03*
X0169720Y0102575D03*
X0169720Y0100465D03*
X0160020Y0105756D03*
X0156618Y0110795D03*
X0160020Y0095142D03*
X0156618Y0090102D03*
X0169941Y0090102D03*
X0171969Y0054764D03*
X0167528Y0049693D03*
X0166646Y0047929D03*
X0169984Y0046512D03*
X0171937Y0046512D03*
X0172000Y0044339D03*
X0169921Y0044370D03*
X0166646Y0041157D03*
X0167528Y0039394D03*
X0171969Y0038921D03*
X0173575Y0038858D03*
X0171937Y0034386D03*
X0169984Y0034386D03*
X0162079Y0036528D03*
X0160189Y0036528D03*
X0155213Y0042575D03*
X0155213Y0046512D03*
X0160189Y0052559D03*
X0162079Y0052559D03*
D239*
X0156870Y0093488D03*
X0166602Y0097961D03*
X0166634Y0097961D03*
X0166634Y0102937D03*
X0166665Y0102937D03*
X0169657Y0107409D03*
X0169657Y0093488D03*
D240*
X0169626Y0093488D03*
X0166539Y0097929D03*
X0166508Y0097929D03*
X0166508Y0102969D03*
X0166539Y0102969D03*
X0169626Y0107409D03*
X0156902Y0107409D03*
X0158224Y0100449D03*
X0156902Y0093488D03*
D241*
X0156996Y0093488D03*
X0166161Y0097866D03*
X0166193Y0097866D03*
X0164240Y0100449D03*
X0166193Y0103031D03*
X0169531Y0107409D03*
X0156996Y0107409D03*
D242*
X0157059Y0107409D03*
X0165972Y0103063D03*
X0166004Y0103063D03*
X0164272Y0100449D03*
X0166004Y0097835D03*
X0169469Y0093520D03*
D243*
X0169343Y0092764D03*
X0169374Y0092732D03*
X0168272Y0093614D03*
X0168555Y0100449D03*
X0168587Y0100449D03*
X0169374Y0108165D03*
X0169406Y0108197D03*
X0157122Y0108197D03*
X0157122Y0092701D03*
D244*
X0157280Y0092811D03*
X0158508Y0093976D03*
X0169248Y0092843D03*
X0169280Y0092811D03*
X0169217Y0108055D03*
X0157280Y0108087D03*
X0157248Y0108118D03*
D245*
X0157531Y0107882D03*
X0157563Y0107850D03*
X0168933Y0107787D03*
X0168209Y0100449D03*
X0168902Y0093142D03*
X0168933Y0093110D03*
X0168965Y0093079D03*
X0157531Y0093016D03*
D246*
X0157626Y0093110D03*
X0157657Y0093142D03*
X0157689Y0093173D03*
X0158445Y0093961D03*
X0168776Y0093268D03*
X0168744Y0107630D03*
X0168776Y0107661D03*
X0158445Y0106937D03*
X0157689Y0107724D03*
X0157657Y0107756D03*
X0157626Y0107787D03*
X0157594Y0107819D03*
D247*
X0157815Y0107598D03*
X0168461Y0107315D03*
X0168461Y0093583D03*
X0168492Y0093551D03*
X0168524Y0093520D03*
X0158413Y0093961D03*
X0157846Y0093331D03*
X0157815Y0093299D03*
X0157783Y0093268D03*
D248*
X0158571Y0094008D03*
X0168240Y0093630D03*
X0168461Y0100433D03*
X0168240Y0107299D03*
D249*
X0168398Y0100433D03*
X0168429Y0100433D03*
X0168209Y0093630D03*
X0158602Y0094008D03*
D250*
X0158791Y0100449D03*
X0158602Y0106906D03*
X0168209Y0107283D03*
D251*
X0168177Y0107283D03*
X0168177Y0093646D03*
D252*
X0168146Y0107268D03*
D253*
X0168083Y0107252D03*
X0158697Y0106843D03*
D254*
X0159295Y0100449D03*
X0167894Y0100449D03*
D255*
X0167862Y0100449D03*
X0159327Y0100449D03*
D256*
X0159390Y0100449D03*
X0167799Y0100449D03*
D257*
X0167579Y0100449D03*
X0159610Y0100449D03*
D258*
X0159673Y0100449D03*
X0167516Y0100449D03*
D259*
X0167484Y0100449D03*
X0159705Y0100449D03*
D260*
X0159768Y0100449D03*
X0167421Y0100449D03*
D261*
X0167358Y0100449D03*
X0159831Y0100449D03*
D262*
X0159862Y0100449D03*
X0167327Y0100449D03*
D263*
X0167295Y0100465D03*
X0159894Y0100465D03*
D264*
X0159925Y0100449D03*
X0167264Y0100449D03*
D265*
X0167232Y0100449D03*
X0159957Y0100449D03*
D266*
X0160020Y0100449D03*
X0167169Y0100449D03*
X0167201Y0100449D03*
D267*
X0167138Y0100449D03*
X0160051Y0100449D03*
D268*
X0160083Y0100449D03*
X0167106Y0100449D03*
D269*
X0167075Y0100465D03*
X0160114Y0100465D03*
D270*
X0160146Y0100449D03*
X0167043Y0100449D03*
D271*
X0167012Y0100449D03*
X0160209Y0100449D03*
X0160177Y0100449D03*
D272*
X0166980Y0100465D03*
D273*
X0165846Y0103079D03*
X0165815Y0103079D03*
X0165783Y0103079D03*
X0165846Y0097850D03*
X0157091Y0093504D03*
X0157091Y0107394D03*
D274*
X0165311Y0103063D03*
X0165343Y0097835D03*
X0158413Y0100449D03*
D275*
X0165217Y0103063D03*
X0165248Y0103063D03*
X0165280Y0097866D03*
D276*
X0164713Y0100449D03*
X0164681Y0100449D03*
D277*
X0164524Y0100449D03*
D278*
X0164461Y0100449D03*
X0158508Y0100449D03*
D279*
X0162067Y0100449D03*
X0162098Y0100449D03*
D280*
X0162035Y0100465D03*
D281*
X0162004Y0100449D03*
X0161972Y0100449D03*
X0161941Y0100449D03*
D282*
X0161909Y0100465D03*
D283*
X0161878Y0100449D03*
X0161846Y0100449D03*
D284*
X0161815Y0100465D03*
D285*
X0161783Y0100449D03*
X0161752Y0100449D03*
X0161720Y0100449D03*
D286*
X0161689Y0100449D03*
X0161657Y0100449D03*
X0161626Y0100449D03*
D287*
X0161594Y0100465D03*
D288*
X0161563Y0100449D03*
X0161531Y0100449D03*
D289*
X0161500Y0100465D03*
D290*
X0161469Y0100449D03*
X0161437Y0100449D03*
D291*
X0161406Y0100449D03*
X0161374Y0100449D03*
D292*
X0161343Y0100465D03*
D293*
X0161311Y0100449D03*
X0161280Y0100449D03*
D294*
X0161248Y0100465D03*
D295*
X0161217Y0100449D03*
D296*
X0161185Y0100465D03*
D297*
X0161154Y0100449D03*
X0161122Y0100449D03*
D298*
X0161091Y0100465D03*
D299*
X0161059Y0100449D03*
D300*
X0161028Y0100465D03*
D301*
X0160996Y0100449D03*
D302*
X0160965Y0100465D03*
D303*
X0160933Y0100449D03*
X0160902Y0100449D03*
D304*
X0160870Y0100449D03*
X0160839Y0100449D03*
D305*
X0160807Y0100449D03*
X0160776Y0100449D03*
D306*
X0160744Y0100449D03*
X0160713Y0100449D03*
D307*
X0160681Y0100449D03*
D308*
X0160650Y0100465D03*
D309*
X0160618Y0100449D03*
D310*
X0160587Y0100465D03*
D311*
X0160555Y0100449D03*
D312*
X0160524Y0100465D03*
D313*
X0160492Y0100449D03*
D314*
X0160461Y0100449D03*
X0160429Y0100449D03*
D315*
X0160398Y0100449D03*
D316*
X0160366Y0100465D03*
D317*
X0160335Y0100449D03*
D318*
X0160303Y0100449D03*
X0160272Y0100449D03*
D319*
X0160240Y0100449D03*
D320*
X0159988Y0100465D03*
D321*
X0159516Y0100449D03*
D322*
X0158697Y0094071D03*
D323*
X0026433Y0100433D03*
D324*
X0026433Y0112933D02*
X0021433Y0112933D01*
X0018933Y0115433D01*
X0018933Y0120433D01*
X0021433Y0122933D01*
X0026433Y0122933D01*
X0028933Y0120433D01*
X0031433Y0122933D01*
X0036433Y0122933D01*
X0038933Y0120433D01*
X0038933Y0115433D01*
X0036433Y0112933D01*
X0031433Y0112933D01*
X0028933Y0115433D01*
X0026433Y0112933D01*
X0028933Y0115433D02*
X0028933Y0120433D01*
X0038933Y0120433D02*
X0041433Y0122933D01*
X0046433Y0122933D01*
X0048933Y0120433D01*
X0051433Y0122933D01*
X0056433Y0122933D01*
X0058933Y0120433D01*
X0061433Y0122933D01*
X0066433Y0122933D01*
X0068933Y0120433D01*
X0068933Y0115433D01*
X0066433Y0112933D01*
X0061433Y0112933D01*
X0058933Y0115433D01*
X0056433Y0112933D01*
X0051433Y0112933D01*
X0048933Y0115433D01*
X0046433Y0112933D01*
X0041433Y0112933D01*
X0038933Y0115433D01*
X0048933Y0115433D02*
X0048933Y0120433D01*
X0058933Y0120433D02*
X0058933Y0115433D01*
X0068933Y0115433D02*
X0071433Y0112933D01*
X0076433Y0112933D01*
X0078933Y0115433D01*
X0081433Y0112933D01*
X0086433Y0112933D01*
X0088933Y0115433D01*
X0091433Y0112933D01*
X0096433Y0112933D01*
X0098933Y0115433D01*
X0098933Y0120433D01*
X0096433Y0122933D01*
X0091433Y0122933D01*
X0088933Y0120433D01*
X0088933Y0115433D01*
X0088933Y0120433D02*
X0086433Y0122933D01*
X0081433Y0122933D01*
X0078933Y0120433D01*
X0078933Y0115433D01*
X0078933Y0120433D02*
X0076433Y0122933D01*
X0071433Y0122933D01*
X0068933Y0120433D01*
X0098933Y0120433D02*
X0101433Y0122933D01*
X0106433Y0122933D01*
X0108933Y0120433D01*
X0111433Y0122933D01*
X0116433Y0122933D01*
X0118933Y0120433D01*
X0121433Y0122933D01*
X0126433Y0122933D01*
X0128933Y0120433D01*
X0128933Y0115433D01*
X0126433Y0112933D01*
X0121433Y0112933D01*
X0118933Y0115433D01*
X0116433Y0112933D01*
X0111433Y0112933D01*
X0108933Y0115433D01*
X0106433Y0112933D01*
X0101433Y0112933D01*
X0098933Y0115433D01*
X0108933Y0115433D02*
X0108933Y0120433D01*
X0118933Y0120433D02*
X0118933Y0115433D01*
X0128933Y0115433D02*
X0131433Y0112933D01*
X0136433Y0112933D01*
X0138933Y0115433D01*
X0141433Y0112933D01*
X0146433Y0112933D01*
X0148933Y0115433D01*
X0151433Y0112933D01*
X0156433Y0112933D01*
X0158933Y0115433D01*
X0158933Y0120433D01*
X0156433Y0122933D01*
X0151433Y0122933D01*
X0148933Y0120433D01*
X0148933Y0115433D01*
X0148933Y0120433D02*
X0146433Y0122933D01*
X0141433Y0122933D01*
X0138933Y0120433D01*
X0138933Y0115433D01*
X0138933Y0120433D02*
X0136433Y0122933D01*
X0131433Y0122933D01*
X0128933Y0120433D01*
X0158933Y0120433D02*
X0161433Y0122933D01*
X0166433Y0122933D01*
X0168933Y0120433D01*
X0171433Y0122933D01*
X0176433Y0122933D01*
X0178933Y0120433D01*
X0181433Y0122933D01*
X0186433Y0122933D01*
X0188933Y0120433D01*
X0188933Y0115433D01*
X0186433Y0112933D01*
X0181433Y0112933D01*
X0178933Y0115433D01*
X0176433Y0112933D01*
X0171433Y0112933D01*
X0168933Y0115433D01*
X0166433Y0112933D01*
X0161433Y0112933D01*
X0158933Y0115433D01*
X0168933Y0115433D02*
X0168933Y0120433D01*
X0178933Y0120433D02*
X0178933Y0115433D01*
X0181433Y0112933D02*
X0186433Y0112933D01*
X0188933Y0110433D01*
X0188933Y0105433D01*
X0186433Y0102933D01*
X0188933Y0100433D01*
X0188933Y0095433D01*
X0186433Y0092933D01*
X0188933Y0090433D01*
X0188933Y0085433D01*
X0186433Y0082933D01*
X0188933Y0080433D01*
X0188933Y0075433D01*
X0186433Y0072933D01*
X0188933Y0070433D01*
X0188933Y0065433D01*
X0186433Y0062933D01*
X0188933Y0060433D01*
X0188933Y0055433D01*
X0186433Y0052933D01*
X0188933Y0050433D01*
X0188933Y0045433D01*
X0186433Y0042933D01*
X0188933Y0040433D01*
X0188933Y0035433D01*
X0186433Y0032933D01*
X0181433Y0032933D01*
X0178933Y0030433D01*
X0176433Y0032933D01*
X0171433Y0032933D01*
X0168933Y0030433D01*
X0168933Y0025433D01*
X0171433Y0022933D01*
X0176433Y0022933D01*
X0178933Y0025433D01*
X0178933Y0030433D01*
X0181433Y0032933D02*
X0178933Y0035433D01*
X0178933Y0040433D01*
X0181433Y0042933D01*
X0178933Y0045433D01*
X0178933Y0050433D01*
X0181433Y0052933D01*
X0186433Y0052933D01*
X0181433Y0052933D02*
X0178933Y0055433D01*
X0178933Y0060433D01*
X0181433Y0062933D01*
X0178933Y0065433D01*
X0178933Y0070433D01*
X0181433Y0072933D01*
X0178933Y0075433D01*
X0178933Y0080433D01*
X0181433Y0082933D01*
X0186433Y0082933D01*
X0181433Y0082933D02*
X0178933Y0085433D01*
X0178933Y0090433D01*
X0181433Y0092933D01*
X0178933Y0095433D01*
X0178933Y0100433D01*
X0181433Y0102933D01*
X0178933Y0105433D01*
X0178933Y0110433D01*
X0181433Y0112933D01*
X0181433Y0102933D02*
X0186433Y0102933D01*
X0186433Y0092933D02*
X0181433Y0092933D01*
X0181433Y0072933D02*
X0186433Y0072933D01*
X0186433Y0062933D02*
X0181433Y0062933D01*
X0181433Y0042933D02*
X0186433Y0042933D01*
X0186433Y0032933D02*
X0181433Y0032933D01*
X0186433Y0032933D02*
X0188933Y0030433D01*
X0188933Y0025433D01*
X0186433Y0022933D01*
X0181433Y0022933D01*
X0178933Y0025433D01*
X0168933Y0025433D02*
X0166433Y0022933D01*
X0161433Y0022933D01*
X0158933Y0025433D01*
X0156433Y0022933D01*
X0151433Y0022933D01*
X0148933Y0025433D01*
X0146433Y0022933D01*
X0141433Y0022933D01*
X0138933Y0025433D01*
X0138933Y0030433D01*
X0141433Y0032933D01*
X0146433Y0032933D01*
X0148933Y0030433D01*
X0151433Y0032933D01*
X0156433Y0032933D01*
X0158933Y0030433D01*
X0161433Y0032933D01*
X0166433Y0032933D01*
X0168933Y0030433D01*
X0158933Y0030433D02*
X0158933Y0025433D01*
X0148933Y0025433D02*
X0148933Y0030433D01*
X0138933Y0030433D02*
X0136433Y0032933D01*
X0131433Y0032933D01*
X0128933Y0030433D01*
X0126433Y0032933D01*
X0121433Y0032933D01*
X0118933Y0030433D01*
X0116433Y0032933D01*
X0111433Y0032933D01*
X0108933Y0030433D01*
X0108933Y0025433D01*
X0111433Y0022933D01*
X0116433Y0022933D01*
X0118933Y0025433D01*
X0118933Y0030433D01*
X0118933Y0025433D02*
X0121433Y0022933D01*
X0126433Y0022933D01*
X0128933Y0025433D01*
X0128933Y0030433D01*
X0128933Y0025433D02*
X0131433Y0022933D01*
X0136433Y0022933D01*
X0138933Y0025433D01*
X0108933Y0025433D02*
X0106433Y0022933D01*
X0101433Y0022933D01*
X0098933Y0025433D01*
X0096433Y0022933D01*
X0091433Y0022933D01*
X0088933Y0025433D01*
X0086433Y0022933D01*
X0081433Y0022933D01*
X0078933Y0025433D01*
X0078933Y0030433D01*
X0081433Y0032933D01*
X0086433Y0032933D01*
X0088933Y0030433D01*
X0091433Y0032933D01*
X0096433Y0032933D01*
X0098933Y0030433D01*
X0101433Y0032933D01*
X0106433Y0032933D01*
X0108933Y0030433D01*
X0098933Y0030433D02*
X0098933Y0025433D01*
X0088933Y0025433D02*
X0088933Y0030433D01*
X0078933Y0030433D02*
X0076433Y0032933D01*
X0071433Y0032933D01*
X0068933Y0030433D01*
X0066433Y0032933D01*
X0061433Y0032933D01*
X0058933Y0030433D01*
X0056433Y0032933D01*
X0051433Y0032933D01*
X0048933Y0030433D01*
X0048933Y0025433D01*
X0051433Y0022933D01*
X0056433Y0022933D01*
X0058933Y0025433D01*
X0058933Y0030433D01*
X0058933Y0025433D02*
X0061433Y0022933D01*
X0066433Y0022933D01*
X0068933Y0025433D01*
X0068933Y0030433D01*
X0068933Y0025433D02*
X0071433Y0022933D01*
X0076433Y0022933D01*
X0078933Y0025433D01*
X0048933Y0025433D02*
X0046433Y0022933D01*
X0041433Y0022933D01*
X0038933Y0025433D01*
X0036433Y0022933D01*
X0031433Y0022933D01*
X0028933Y0025433D01*
X0026433Y0022933D01*
X0021433Y0022933D01*
X0018933Y0025433D01*
X0018933Y0030433D01*
X0021433Y0032933D01*
X0026433Y0032933D01*
X0028933Y0030433D01*
X0031433Y0032933D01*
X0036433Y0032933D01*
X0038933Y0030433D01*
X0041433Y0032933D01*
X0046433Y0032933D01*
X0048933Y0030433D01*
X0038933Y0030433D02*
X0038933Y0025433D01*
X0028933Y0025433D02*
X0028933Y0030433D01*
M02*
